<?xml version="1.0" standalone="no"?>
<!DOCTYPE svg PUBLIC "-//W3C//DTD SVG 1.1//EN" "http://www.w3.org/Graphics/SVG/1.1/DTD/svg11.dtd" >
<svg xmlns="http://www.w3.org/2000/svg">
<metadata></metadata>
<defs>
<font id="junicoderegularcondensed" horiz-adv-x="764" >
<font-face units-per-em="2048" ascent="1638" descent="-410" />
<missing-glyph horiz-adv-x="447" />
<glyph unicode="&#x2e;&#x2e;&#x2e;" horiz-adv-x="1272" d="M111 98q0 51 29 82t73 31t68 -37t24 -87.5t-27.5 -81t-70 -30.5t-69.5 36t-27 87zM536 98q0 51 29 82t73 31t68 -37t24 -87.5t-27.5 -81t-70 -30.5t-69.5 36t-27 87zM946 98q0 51 29 82t73 31t68 -37t24 -87.5t-27.5 -81t-70 -30.5t-69.5 36t-27 87z" />
<glyph unicode="&#xfb01;" horiz-adv-x="853" d="M56 20.5q0 28.5 13 28.5q93 0 93 78v600q0 37 -26 37h-62q-12 0 -12 27.5t12 27.5q88 0 88 84v21q0 242 117.5 402.5t267.5 160.5q182 0 182 -113q0 -38 -22 -64t-47 -26q-47 0 -82.5 54.5t-110.5 54.5q-94 0 -138 -103.5t-44 -343.5v-59q0 -37 29 -37h248q41 0 92 16.5 t59.5 16.5t8.5 -27q-5 -90 -5 -151v-578q0 -78 89 -78q12 0 12 -28.5t-12 -28.5q-68 8 -143 8t-158 -8q-12 0 -12 28.5t12 28.5q89 0 89 78v522q0 115 -32 115h-248q-29 0 -29 -37v-600q0 -78 93 -78q12 0 12 -28.5t-12 -28.5q-74 8 -151.5 8t-157.5 -8q-13 0 -13 28.5z" />
<glyph unicode="&#xfb02;" horiz-adv-x="853" d="M56 20.5q0 28.5 13 28.5q93 0 93 78v600q0 37 -26 37h-61q-11 0 -11 27.5t11 27.5q87 0 87 123v33q0 116 63 254.5t152 198t178 59.5q70 0 121 -33q25 31 36 31q13 0 11 -19q-5 -46 -5 -70v-1269q0 -78 96 -78q11 0 11 -28.5t-11 -28.5q-62 8 -155 8t-157 -8 q-12 0 -12 28.5t12 28.5q94 0 94 78v600q0 37 -29 37h-253q-29 0 -29 -37v-600q0 -78 93 -78q12 0 12 -28.5t-12 -28.5q-64 8 -154.5 8t-154.5 -8q-13 0 -13 28.5zM285 887q0 -37 29 -37h253q29 0 29 37v287q0 132 -27.5 175.5t-93.5 43.5q-93 0 -141.5 -92t-48.5 -343v-71z " />
<glyph unicode="&#xfb03;" horiz-adv-x="1281" d="M56 20.5q0 28.5 13 28.5q93 0 93 78v600q0 37 -29 37h-58q-11 0 -11 27.5t11 27.5q87 0 87 115q0 200 108 358t269 158q71 0 143 -68q21 -21 36 -43q108 148 272 148q70 0 118 -31t48 -78q0 -48 -26 -71t-43 -23q-48 0 -83 54.5t-112.5 54.5t-128.5 -87t-51 -405v-14 q0 -37 30 -37h232q69 0 149 30q8 3 11 3q16 0 15 -27q-5 -111 -5 -215v-514q0 -78 88 -78q11 0 11 -28.5t-11 -28.5q-61 8 -143.5 8t-157.5 -8q-11 0 -11 28.5t11 28.5q91 0 91 78v499q0 100 -21 125q-11 13 -28 13h-231q-30 0 -30 -37v-600q0 -78 94 -78q12 0 12 -28.5 t-12 -28.5q-76 8 -154.5 8t-154.5 -8q-12 0 -12 28.5t12 28.5q93 0 93 78v600q0 37 -30 37h-246q-29 0 -29 -37v-600q0 -78 93 -78q12 0 12 -28.5t-12 -28.5q-75 8 -154 8t-155 -8q-13 0 -13 28.5zM285 887q0 -37 29 -37h246q30 0 30 37v37q0 148 54 284q-40 82 -78 115 t-108 33q-63 0 -102 -43t-55 -118t-16 -294v-14z" />
<glyph unicode="&#xfb04;" horiz-adv-x="1283" d="M56 20.5q0 28.5 13 28.5q93 0 93 78v600q0 37 -29 37h-58q-11 0 -11 27.5t11 27.5q87 0 87 115q0 206 109.5 361t267.5 155q75 0 143 -67q23 -23 36 -44q108 148 248 148q91 0 136 -33l28 27q4 4 8 4q11 0 11 -15l-5 -149v-1194q0 -78 94 -78q12 0 12 -28.5t-12 -28.5 q-61 8 -153.5 8t-156.5 -8q-11 0 -11 28.5t11 28.5q94 0 94 78v600q0 37 -30 37h-250q-30 0 -30 -37v-600q0 -78 95 -78q11 0 11 -28.5t-11 -28.5q-64 8 -155 8t-155 -8q-12 0 -12 28.5t12 28.5q93 0 93 78v600q0 37 -30 37h-246q-29 0 -29 -37v-600q0 -78 93 -78 q12 0 12 -28.5t-12 -28.5q-64 8 -154.5 8t-154.5 -8q-13 0 -13 28.5zM285 887q0 -37 29 -37h246q30 0 30 37v37q0 148 54 284q-43 87 -82 117.5t-104 30.5q-92 0 -132.5 -81.5t-40.5 -305.5v-82zM712 887q0 -37 30 -37h250q30 0 30 37v284q0 112 -12 144q-27 78 -116 78 q-84 0 -133 -88.5t-49 -403.5v-14z" />
<glyph horiz-adv-x="0" />
<glyph horiz-adv-x="0" />
<glyph horiz-adv-x="545" />
<glyph unicode=" "  horiz-adv-x="447" />
<glyph unicode="&#x09;" horiz-adv-x="447" />
<glyph unicode="&#xa0;" horiz-adv-x="447" />
<glyph unicode="!" horiz-adv-x="416" d="M111 98q0 51 24 82t73 31t73 -37t24 -87.5t-27.5 -81t-70 -30.5t-69.5 36t-27 87zM133 1275q0 56 24.5 90t53.5 34q83 0 83 -111q0 -63 -25 -354.5t-35 -497.5q0 -16 -26 -16t-26 16q-7 199 -28 491t-21 348z" />
<glyph unicode="&#x22;" horiz-adv-x="606" d="M97 1395q0 86 77 86q75 0 75 -84l-47 -453q-1 -8 -28.5 -8t-27.5 8q-6 94 -26 242q-23 171 -23 209zM359 1395q0 86 75 86q77 0 77 -84q0 -18 -5 -66l-35 -283q-5 -53 -9 -104q0 -8 -26.5 -8t-27.5 8q-3 46 -7 88l-40 334q-2 20 -2 29z" />
<glyph unicode="#" horiz-adv-x="812" d="M20 397v86h186l77 353h-170v86h189l70 327h72l-70 -327h193l71 327h70l-69 -327h155v-86h-175l-75 -353h158v-86h-176l-82 -387h-72l82 387h-193l-84 -387h-71l83 387h-169zM278 483h196l73 353h-193z" />
<glyph unicode="$" horiz-adv-x="789" d="M98 351v14q4 17 31 17q19 0 20 -7q10 -145 102 -235q51 -49 116 -66v536l-100 58q-164 95 -164 348q0 122 92 229q62 71 172 84v137q0 15 34.5 15t34.5 -15v-137q67 -5 118 -18q72 -19 75 -19q20 -88 29 -243q1 -16 -21 -22q-27 -6 -31 13q-17 113 -81 177q-39 41 -89 49 v-488q158 -61 219 -149t61 -240q0 -184 -88 -294q-75 -94 -192 -99v-146q0 -16 -34.5 -16t-34.5 16v146q-69 6 -134 35q-27 14 -99 57q-22 77 -33 200zM210 1057q0 -123 60 -183q30 -30 97 -65v459q-100 -13 -139 -107q-18 -45 -18 -104zM436 66q61 0 111 53q64 63 64 174 q0 192 -175 282v-509z" />
<glyph unicode="%" horiz-adv-x="1458" d="M78 973q0 189 72 309q69 117 184 117q128 0 198 -144q56 -116 56 -282q0 -209 -79 -327q-67 -99 -175 -99q-128 0 -198 142q-58 116 -58 284zM200 975q0 -174 43 -277q35 -84 91 -84q82 0 116 163q19 88 19 198q0 182 -31 259q-40 97 -104 97q-82 0 -116 -164 q-18 -85 -18 -192zM347 -39l700 1452q3 5 8 5q10 0 27 -12q25 -20 20 -32l-699 -1452q-2 -4 -7 -4q-10 0 -30 15q-23 19 -19 28zM877 403q0 185 70 306q71 122 185 122q150 0 220 -194q36 -103 36 -234q0 -189 -71 -308q-70 -115 -185 -115q-124 0 -195 138q-60 116 -60 285 zM998 406q0 -174 44 -277q34 -82 90 -82q76 0 112 151q22 93 22 208q0 180 -44 281q-36 77 -90 77q-82 0 -117 -165q-17 -86 -17 -193z" />
<glyph unicode="&#x26;" horiz-adv-x="1363" d="M61 356q0 258 164 377l119 86q-138 124 -138 264q0 122 73 207q70 82 167 82q109 0 172 -87q49 -68 49 -169q0 -130 -100 -203l-71 -51q171 -155 322 -430l73 118q119 192 119 247t-122 55q-12 0 -12 28q0 29 12 29q46 -6 189 -6q147 0 194 6q14 0 14 -25q0 -32 -14 -32 q-83 0 -124 -37q-41 -36 -147 -207l-148 -239l56 -103q103 -190 249 -190q96 0 153 78q7 8 21 -6q5 -6 5 -14q0 -7 -4 -15q-88 -148 -274 -148q-125 0 -278 281q-173 -279 -383 -279q-166 0 -259 129q-77 110 -77 254zM177 422q0 -163 90 -253q72 -71 177 -71q167 0 302 217 q-151 277 -360 467q-209 -151 -209 -360zM316 1135q0 -110 139 -236q103 75 103 223q0 111 -51 161q-29 28 -68 28q-62 0 -98 -70q-25 -48 -25 -106z" />
<glyph unicode="'" horiz-adv-x="337" d="M94 1395q0 86 76 86t76 -84l-48 -453q0 -8 -27.5 -8t-28.5 8q-3 47 -7 88l-40 334q-1 20 -1 29z" />
<glyph unicode="(" horiz-adv-x="540" d="M128 588q0 262 110 559q72 199 216 369q12 14 31 14q14 0 28 -17q5 -7 5 -12q0 -17 -15 -37q-264 -346 -264 -876q0 -525 267 -877q12 -14 12 -35q0 -13 -20 -25l-13 -5q-15 0 -31 16q-155 174 -231 369q-95 240 -95 557z" />
<glyph unicode=")" horiz-adv-x="520" d="M18 -324q0 17 15 35q264 342 264 877q0 531 -266 874q-13 16 -13 39q0 12 20 24q8 5 13 5q19 0 31 -14q156 -182 231 -371q95 -241 95 -557q0 -262 -110 -559q-76 -205 -216 -367q-12 -16 -31 -16q-15 0 -28 18q-5 6 -5 12z" />
<glyph unicode="*" horiz-adv-x="645" d="M69 904l197 140l-197 142l29 61l196 -139v276h56v-278l196 141l29 -61l-195 -142l195 -140l-29 -61l-196 138v-287h-56v287l-196 -138z" />
<glyph unicode="+" horiz-adv-x="819" d="M95 371v100h267v336h96v-336h268v-100h-268v-371h-96v371h-267z" />
<glyph unicode="," horiz-adv-x="416" d="M82 -344q0 4 1 6l76 102q59 92 59 179q0 49 -28 61q-93 45 -93 135q0 58 44 84q21 13 48 13q63 0 106 -68q36 -57 36 -129q0 -155 -101 -291q-56 -75 -124 -117q-1 -2 -3 -2q-21 0 -21 27z" />
<glyph unicode="-" horiz-adv-x="661" d="M79 542q0 60 13 60h474q13 0 13 -52q0 -63 -15 -63h-472q-13 0 -13 55z" />
<glyph unicode="." horiz-adv-x="416" d="M111 98q0 51 29 82t73 31t68 -37t24 -87.5t-27.5 -81t-70 -30.5t-69.5 36t-27 87z" />
<glyph unicode="/" horiz-adv-x="573" d="M3 31v2l488 1440q3 6 11 6q12 0 36 -11q34 -21 34 -35v-3l-490 -1442q-2 -5 -8 -5q-12 0 -37 15q-34 21 -34 33z" />
<glyph unicode="0" d="M56 666q0 304 86.5 485.5t240.5 181.5q159 0 243 -194.5t84 -495.5q0 -281 -86 -470t-245 -189q-158 0 -240.5 189t-82.5 493zM195 689q0 -375 54.5 -506.5t130.5 -131.5q89 0 138 139.5t49 440.5q0 233 -32.5 435t-149.5 202q-99 0 -144.5 -180t-45.5 -399z" />
<glyph unicode="1" d="M172 20.5q0 28.5 11 28.5q102 0 129 38.5t27 172.5v870q0 47 -17 47q-6 0 -19 -8l-103 -59q-13 -1 -19.5 16.5t4.5 30.5q157 95 259 211q5 6 13 6q9 0 10 -14q-5 -90 -5 -172v-926q0 -149 35.5 -181t107.5 -32q11 0 11 -28.5t-11 -28.5q-63 8 -211 8t-211 -8 q-11 0 -11 28.5z" />
<glyph unicode="2" d="M5 31q0 9 8 18q353 461 457 764q30 81 30 184q0 106 -61 166q-44 43 -106 43q-115 0 -197 -182q-3 -4 -8 -4q-17 0 -31 17q-7 8 -7 14v4q48 119 121 190q85 88 186 88q120 0 190 -106q59 -82 59 -219q0 -146 -89 -301q-48 -82 -135 -209l-227 -318q-13 -17 -13 -28 q0 -15 24 -15h238q130 0 182 60q21 25 34 63q1 6 14 6q24 -1 31 -14q1 -2 1 -4t-1 -4l-81 -219q-12 -33 -41 -33q-108 8 -258 8q-143 0 -287 -8q-33 0 -33 39z" />
<glyph unicode="3" d="M77 127q0 38 30 62q16 12 34 12q29 0 81 -74q56 -74 117 -74q87 0 139 117q41 94 41 217q0 130 -59 215q-60 88 -166 88q-52 0 -91 -16q-11 0 -11 41q0 39 11 39q144 0 220 93q57 70 57 179q0 101 -55 159q-40 42 -95 42q-95 0 -166 -137q-1 -3 -5 -3q-17 0 -31 22 q-6 9 -6 17q0 2 1 4q110 203 260 203q92 0 155 -84q64 -85 64 -196q0 -167 -147 -271q-25 -18 -25 -25q0 -11 22 -16q203 -51 203 -327q0 -185 -106 -312q-105 -125 -252 -125q-113 0 -175 54q-45 38 -45 96z" />
<glyph unicode="4" d="M10 428q0 11 6 28q9 26 31 64l178 301q11 19 335 604q7 13 31 13q47 0 47 -31l-518 -897q-6 -11 -6 -19q0 -14 20 -14h312q16 0 16 21v444q0 15 61 15q62 0 62 -15v-444q0 -21 18 -21h93q14 0 14 -43t-14 -43h-93q-18 0 -18 -20v-244q0 -78 97 -78q11 0 11 -28 q0 -29 -11 -29q-62 8 -152 8q-132 0 -194 -8q-11 0 -11 28q0 29 11 29q126 0 126 78v244q0 20 -16 20h-382q-54 0 -54 37z" />
<glyph unicode="5" d="M74 111q0 82 65 82q31 0 87 -64q55 -61 108 -61q90 0 152 116q55 101 55 222q0 208 -113 291q-62 46 -153 46q-40 0 -103 -18h-10q-12 0 -12 23v10l75 530q4 29 25 29h377q6 0 6 -17q0 -53 -21 -107q-7 -19 -12 -19h-306q-24 0 -27 -27l-34 -234q-3 -23 9 -23l64 5 q187 0 278 -139q66 -101 66 -260q0 -215 -104 -361q-109 -151 -279 -151q-113 0 -165 53q-28 31 -28 74z" />
<glyph unicode="6" d="M80 465q0 286 159 545q157 254 363 368h7q18 -7 18 -37q0 -9 -5 -12q-234 -166 -332 -427q-46 -123 -65 -273q121 137 214 137q114 0 185 -119q67 -109 67 -256q0 -168 -85 -284q-88 -123 -228 -123q-152 0 -233 160q-65 128 -65 321zM211 461q0 -267 91 -358 q40 -40 96 -40q83 0 132 96q37 73 37 171q0 146 -58 239q-53 84 -134 84q-90 0 -159 -110q-5 -43 -5 -82z" />
<glyph unicode="7" d="M67 1038l41 248q5 31 33 31h545q32 0 32 -23q0 -11 -7 -30l-408 -1264q-5 -14 -65 -14q-55 0 -55 14q11 22 41 100l50 138l317 901q7 22 7 28q0 15 -26 15h-172q-130 0 -169 -13q-85 -29 -117 -131q-4 -14 -27 -14q-19 0 -20 14z" />
<glyph unicode="8" d="M83 315q0 209 219 353q-102 82 -133 141q-56 93 -56 199q0 134 79 233q74 92 190 92q146 0 216 -108q49 -74 49 -187q0 -208 -181 -327q216 -173 216 -379q0 -154 -91 -252q-86 -96 -209 -96q-137 0 -221 98q-78 90 -78 233zM206 1075q0 -128 128 -246q26 -25 88 -75 q114 100 114 243q0 130 -60 204q-42 56 -114 56q-81 0 -126 -71q-30 -48 -30 -111zM208 336q0 -112 54 -197q57 -88 144 -88q81 0 128 77q33 56 33 132q0 128 -70 213q-68 81 -127 132l-23 20q-139 -101 -139 -289z" />
<glyph unicode="9" d="M74 907q0 192 88 311q85 115 224 115q143 0 225 -145q74 -129 74 -324q0 -312 -191 -586q-135 -193 -324 -313l-6 -1q-13 5 -22 35q-3 10 -3 17q0 6 5 11q152 111 262 270q94 134 133 389q-102 -135 -206 -135q-107 0 -183 103q-74 110 -76 253zM198 975q0 -135 56 -227 q52 -86 131 -86q89 0 162 112q5 44 5 88q0 234 -78 333q-28 33 -112 56q-87 0 -132 -106q-32 -73 -32 -170z" />
<glyph unicode=":" horiz-adv-x="475" d="M172 98q0 51 29 82t73 31t68 -37t24 -87.5t-28 -81t-70 -30.5t-69 36t-27 87zM172 740q0 50 29 81t73 31t68 -37t24 -87.5t-27.5 -81t-70 -30.5t-69.5 36t-27 88z" />
<glyph unicode=";" horiz-adv-x="475" d="M139 -344q0 4 2 6l76 102q58 92 58 179q0 49 -27 61q-94 45 -94 135q0 58 44 84q21 13 48 13q64 0 107 -68q36 -57 36 -129q0 -155 -101 -291q-56 -75 -124 -117q-2 -2 -3 -2q-22 0 -22 27zM147 740q0 68 47 99q24 16 55 16q52 0 77 -55q15 -30 15 -68q0 -65 -43 -97 q-22 -16 -49 -16q-59 0 -87 56q-15 29 -15 65z" />
<glyph unicode="&#x3c;" horiz-adv-x="819" d="M92 375v92l637 379v-119l-519 -303v-4l519 -305v-117z" />
<glyph unicode="=" horiz-adv-x="819" d="M95 330v100h631v-100h-631zM95 596v100h631v-100h-631z" />
<glyph unicode="&#x3e;" horiz-adv-x="819" d="M90 -2v117l520 305v4l-520 303v119l637 -379v-92z" />
<glyph unicode="?" horiz-adv-x="601" d="M169 1280q0 82 67 82q104 0 195 -131q92 -141 95 -301q0 -146 -66 -189l-132 -88q-59 -41 -59 -90q0 -56 16 -125q0 -15 -18 -19q-12 -1 -18 7q-60 136 -60 211q0 89 91 151l84 56q93 62 93 151q0 199 -234 199q-54 0 -54 86zM177 86q0 69 41 106q24 21 54 21 q51 0 79 -56q16 -32 16 -71q0 -67 -43 -100q-24 -17 -52 -17q-49 0 -78 49q-17 31 -17 68z" />
<glyph unicode="@" horiz-adv-x="1244" d="M74 600q0 346 196 571q189 213 451 213q224 0 359 -163q124 -150 124 -369q0 -201 -113 -344q-118 -150 -311 -150q-73 0 -89 25q-9 15 -9 39q0 27 35 159q2 9 4 15l-7 4q-144 -240 -242 -240q-74 0 -74 127q0 153 99 334q104 193 225 193q42 0 81 -41l13 51q5 18 38 18 q38 0 34 -18l-113 -492q-8 -36 -8 -60q0 -46 34 -46q143 0 234 113q99 121 99 305q0 206 -122 343q-114 128 -290 128q-253 0 -397 -215q-139 -204 -139 -498q0 -218 104 -373q129 -190 385 -190q115 0 254 72q5 3 12.5 -16t0.5 -23q-132 -105 -316 -105q-224 0 -379 154 q-173 174 -173 479zM486 512q0 -70 36 -70q43 0 136 132q32 47 48 77q38 71 61 173l18 77q0 64 -79 64q-82 0 -156 -179q-64 -158 -64 -274z" />
<glyph unicode="A" horiz-adv-x="1118" d="M-4 31q0 38 11 38q78 0 103.5 28t52.5 104l302 987q5 17 5 30t-10.5 26.5t-10.5 19.5t31.5 27.5t74 58.5t51.5 37q19 0 28 -44q21 -97 40 -166l266 -991q31 -117 154 -117q10 0 10 -38t-10 -38q-59 7 -185.5 7t-183.5 -7q-11 0 -11 38t11 38q79 0 79 68q0 23 -6 49 l-81 313q-7 32 -35 32h-326q-22 0 -32 -35l-90 -314q-8 -22 -8 -40q0 -73 121 -73q11 0 11 -38t-11 -38q-68 7 -170.5 7t-169.5 -7q-11 0 -11 38zM358 616q0 -16 20 -16h287q20 0 20 16q0 5 -2 11l-136 532q-5 20 -14 20t-15 -20l-158 -532q-2 -5 -2 -11z" />
<glyph unicode="B" horiz-adv-x="1000" d="M55 1320q0 38 11 38q91 -6 191.5 -6t144.5 3t101 3q139 0 232.5 -81t93.5 -242q0 -199 -157 -290q-12 -7 -12 -13.5t12 -11.5q87 -35 159 -127.5t72 -245.5q0 -142 -83.5 -248t-316.5 -106q-51 0 -112 3.5t-156.5 3.5t-161.5 -7q-11 0 -11 37.5t11 38.5q144 0 144 117 v986q0 110 -151 110q-11 0 -11 38zM345 277q0 -220 147 -220q266 0 266 315q0 211 -177 289q-70 29 -208 30q-28 0 -28 -30v-384zM345 789q0 -36 63 -36q283 0 283 279q0 265 -305 265q-41 0 -41 -67v-441z" />
<glyph unicode="C" horiz-adv-x="1075" d="M73 647q0 223 76 387.5t198.5 257.5t301.5 93q89 0 215 -30l17 -4q101 -24 103 -24q23 -134 23 -311q-3 -16 -28 -16t-27 14q-22 300 -326 300q-163 0 -281.5 -184t-118.5 -423q0 -283 116 -471t282 -188q283 0 362 269q3 11 22.5 11t27.5 -8q3 -3 3 -14 q-30 -191 -72 -270q-25 -4 -61 -17q-118 -46 -301 -46q-143 0 -264 86t-194.5 237.5t-73.5 350.5z" />
<glyph unicode="D" horiz-adv-x="1220" d="M54 1320q0 38 12 38q112 -6 192.5 -6t167 3t136.5 3q249 0 416.5 -167t167.5 -463q0 -323 -147 -529t-398 -206q-39 0 -156 3.5t-195.5 3.5t-176.5 -7q-11 0 -11 37.5t11 38.5q144 0 144 117v986q0 110 -151 110q-12 0 -12 38zM345 298q0 -149 48 -197t153 -48 q204 0 325.5 181t121.5 482q0 252 -141.5 416.5t-354.5 164.5q-77 0 -101 -8.5t-37.5 -36t-13.5 -71.5v-883z" />
<glyph unicode="E" horiz-adv-x="988" d="M56 30.5q0 37.5 11 38.5q150 0 150 108v995q0 110 -150 110q-11 0 -11 38t11 38q112 -6 216.5 -6t280.5 3t250 3q40 0 48.5 -7t8.5 -20v-321q0 -17 -30 -17t-30 17q0 266 -206 272l-227 7h-1q-32 0 -32 -48v-532q0 -33 22 -33h165q62 0 78 29t16 88v74q0 13 28 13.5 t28 -13.5q-7 -71 -7 -214t7 -223q0 -13 -28 -13.5t-28 13.5v82q0 43 -15.5 69t-78.5 26h-167q-20 0 -20 -31v-314q0 -113 52 -168q30 -32 73 -32l188 7q207 8 207 271q0 17 30 17t30 -17v-317q0 -25 -23 -28q-12 -2 -36 -2q-92 0 -284 3.5t-295 3.5t-220 -7q-11 0 -11 37.5z " />
<glyph unicode="F" horiz-adv-x="936" d="M56 1320q0 38 11 38q93 -5 231 -5t265 2.5t265 2.5q56 -1 58 -19v-329q0 -18 -30 -18t-30 18q0 255 -208 262l-240 10q-33 0 -33 -41v-494q0 -31 22 -31h131q60 0 77 30t17 100v117q0 13 28 13t28 -13q-6 -70 -6 -283.5t6 -284.5q0 -13 -28 -13t-28 13v117q0 70 -20 99 t-74 29h-133q-20 0 -20 -25v-429q0 -117 150 -117q11 0 11 -38t-11 -38q-71 7 -212 7t-210 -7q-11 0 -11 38t11 38q144 0 144 117v986q0 110 -150 110q-11 0 -11 38z" />
<glyph unicode="G" horiz-adv-x="1127" d="M73 667q0 242 144.5 480t399.5 238q131 0 244 -29t125 -29q15 -49 23 -308q0 -18 -27.5 -18t-27.5 13q0 111 -83 205.5t-250 94.5q-183 0 -289 -181.5t-106 -406.5q0 -306 119 -492t275 -186t218 47q18 16 18 78v190q0 115 -182 115q-12 0 -12 38t12 38q44 -6 210.5 -6 t212.5 6q12 0 12 -38t-12 -38q-113 0 -113 -115v-219q0 -67 30 -67q11 0 11 -23t-11 -23q-10 0 -89 -12l-168 -35q-72 -11 -143 -11q-116 0 -262 86t-212.5 262.5t-66.5 345.5z" />
<glyph unicode="H" horiz-adv-x="1296" d="M54 1325q0 38 12 38q36 -5 211.5 -5t211.5 5q10 0 10 -38t-10 -38q-144 0 -144 -115v-390q0 -39 31 -39h562q31 0 31 39v390q0 115 -151 115q-12 0 -12 38t12 38q36 -5 211.5 -5t211.5 5q10 0 10 -38t-10 -38q-144 0 -144 -115v-986q0 -117 144 -117q10 0 10 -38t-10 -38 q-128 7 -208 7t-207 -7q-10 0 -10 37.5t10 38.5q143 0 143 117v435q0 38 -31 38h-562q-31 0 -31 -38v-435q0 -117 144 -117q10 0 10 -38t-10 -38q-119 7 -203 7t-212 -7q-10 0 -10 37.5t10 38.5q143 0 143 117v986q0 115 -151 115q-12 0 -12 38z" />
<glyph unicode="I" horiz-adv-x="546" d="M54 1325q0 38 12 38q36 -5 211.5 -5t211.5 5q10 0 10 -38t-10 -38q-84 0 -114 -25t-30 -90v-986q0 -117 144 -117q10 0 10 -38t-10 -38q-69 7 -207.5 7t-207.5 -7q-10 0 -10 38t10 38q143 0 143 117v986q0 115 -151 115q-12 0 -12 38z" />
<glyph unicode="J" horiz-adv-x="572" d="M-78 -298q0 32 23.5 57t61.5 25q48 0 81 -34t40 -67q56 24 81 114t25 463v912q0 115 -152 115q-12 0 -12 38t12 38q37 -5 211.5 -5t221.5 5q11 0 11 -38t-11 -38q-153 0 -153 -115v-538q0 -716 -57 -817.5t-124 -168.5t-155 -67q-43 0 -73.5 30.5t-30.5 90.5z" />
<glyph unicode="K" horiz-adv-x="1068" d="M54 1325q0 38 12 38q36 -5 214 -5t215 5q11 0 11 -38t-11 -38q-150 0 -150 -115v-437q0 -23 10 -23q23 0 74 67q12 15 21 31l235 365q32 52 32 78q0 34 -52 34q-11 0 -11 38t11 38q35 -5 144 -5t146 5q11 0 11 -38t-11 -38q-68 0 -130 -51q-21 -17 -33 -35l-286 -433 q-4 -6 -4 -16q0 -8 4 -14l366 -565q67 -104 197 -104q11 0 11 -38t-11 -38q-63 7 -215 7t-214 -7q-11 0 -11 37.5t11 38.5q77 0 77 59q0 24 -20 58l-215 353q-43 67 -91 95q-18 11 -32 11t-14 -22v-437q0 -117 144 -117q10 0 10 -38t-10 -38q-62 7 -208.5 7t-207.5 -7 q-11 0 -11 37.5t11 38.5q144 0 144 117v986q0 115 -151 115q-12 0 -12 38z" />
<glyph unicode="L" horiz-adv-x="1075" d="M54 1325q0 38 12 38q36 -5 209 -5t209 5q10 0 10 -38t-10 -38q-139 0 -139 -115v-895q0 -51 11.5 -98.5t44 -82t86.5 -34.5l251 13q99 5 155 91t56 213q0 13 31 13t31 -13v-352q0 -28 -29 -32q-11 -2 -36 -2q-114 1 -345 4t-321 3t-204 -7q-10 0 -10 38t10 38 q141 0 141 108v995q0 115 -151 115q-12 0 -12 38z" />
<glyph unicode="M" horiz-adv-x="1478" d="M46 31q0 38 11 38q120 0 125 117l48 944v14q0 96 -67 128q-32 15 -85 15q-11 0 -11 38t11 38q36 -5 119.5 -5t109 -15.5t40.5 -57.5l378 -1008q10 -27 17 -27q8 0 19 29l388 1012q17 46 44.5 56.5t106 10.5t116.5 5q11 0 11 -38t-11 -38q-103 0 -134 -70 q-16 -39 -16 -103v-8l5 -920q1 -117 127 -117q12 0 12 -38t-12 -38q-60 7 -183 7t-191 -7q-11 0 -11 38t11 38q120 0 119 117l-3 853q0 13 -7 13t-12 -12l-404 -1046q-7 -17 -18 -17t-17 17l-372 1047q-6 17 -13 17t-8 -17l-41 -855v-10q0 -107 126 -107q12 0 12 -38 t-12 -38q-64 7 -157 7t-160 -7q-11 0 -11 38z" />
<glyph unicode="N" horiz-adv-x="1185" d="M45 1325q0 38 10 38q35 -5 119 -5t110 -7.5t47 -41.5l607 -977q8 -13 19 -13q18 0 18 33v819q0 116 -137 116q-11 0 -11 38t11 38q37 -5 150.5 -5t149.5 5q11 0 11 -38t-11 -38q-108 0 -108 -116v-1142q0 -50 -14 -50t-34 30l-693 1095q-9 13 -18 13t-9 -18v-913 q0 -117 128 -117q10 0 10 -38t-10 -38q-65 7 -158.5 7t-159.5 -7q-11 0 -11 38t11 38q134 0 134 117v924q0 101 -36.5 139t-114.5 38q-10 0 -10 38z" />
<glyph unicode="O" horiz-adv-x="1168" d="M73 667q0 263 140.5 490.5t378.5 227.5q213 0 363.5 -208t150.5 -514q0 -256 -139 -473t-379 -217q-232 0 -373.5 205t-141.5 489zM226 726q0 -310 119.5 -494t253.5 -184q170 0 262.5 173t92.5 426q0 279 -116.5 473t-255.5 194q-168 0 -262 -181t-94 -407z" />
<glyph unicode="P" horiz-adv-x="931" d="M55 1322.5q0 35.5 11 35.5q92 -5 180 -5t155.5 2.5t113.5 2.5q162 0 270 -98.5t108 -279.5q0 -180 -105 -282t-278 -102q-96 0 -120.5 3.5t-34.5 -1t-10 -29.5v-383q0 -117 149 -117q10 0 10 -38t-10 -38q-62 7 -210 7t-210 -7q-10 0 -10 37.5t10 38.5q143 0 143 117v986 q0 115 -151 115q-11 0 -11 35.5zM345 707q0 -34 34.5 -41.5t81.5 -7.5q294 0 294 326q0 129 -82.5 220.5t-218.5 91.5h-72q-37 0 -37 -31v-558z" />
<glyph unicode="Q" horiz-adv-x="1179" d="M73 667q1 266 142.5 492t376.5 226q223 0 368.5 -213.5t145.5 -508.5q0 -195 -85.5 -375.5t-202.5 -249.5q-14 -8 -14 -21t11 -24q62 -60 193.5 -139t309.5 -138q12 -4 12 -18q0 -57 -17 -57h-3q-461 125 -909 368q-140 76 -234 246.5t-94 411.5zM226 708 q0 -287 119 -474t254 -187q181 0 268 180t87 437q0 261 -112 455.5t-256 194.5q-158 0 -259 -162t-101 -444z" />
<glyph unicode="R" horiz-adv-x="1124" d="M54 1320q0 38 12 38q92 -5 169.5 -5t154.5 2.5t125 2.5q184 0 289 -96.5t105 -277.5q0 -277 -214 -348q-22 -8 0 -57q116 -257 287 -459q89 -105 149 -105q11 0 11 -17.5t-11 -18.5q-33 -4 -53 -4q-131 0 -193 54q-98 85 -169 202l-140 256q-38 71 -60 90t-66.5 19 t-68.5 3.5t-30 -2.5t-6 -18v-393q0 -117 155 -117q10 0 10 -38t-10 -38q-62 7 -214 7t-213 -7q-11 0 -11 37.5t11 38.5q144 0 144 117v986q0 110 -151 110q-12 0 -12 38zM345 705q0 -31 30 -39t86 -8q309 0 309 326q0 131 -84 221.5t-232 90.5h-72q-37 0 -37 -31v-560z" />
<glyph unicode="S" horiz-adv-x="833" d="M102 346q0 11 2 19q3 18 28 18t26 -9q7 -129 89 -227.5t219 -98.5q74 0 126.5 72t52.5 184q0 236 -212 296q-323 94 -323 450q0 144 88 239.5t222 95.5q83 0 152.5 -20.5t79.5 -20.5t13 1q22 -101 30 -258q1 -19 -25.5 -23.5t-29.5 13.5q-17 110 -75 175.5t-164 65.5 q-80 0 -129.5 -66.5t-49.5 -156.5q0 -233 236 -293q297 -75 297 -412q0 -190 -87.5 -303.5t-224.5 -113.5q-96 0 -153 21t-148 79q-40 155 -40 273z" />
<glyph unicode="T" horiz-adv-x="1056" d="M28 1006v319q0 33 62 33q81 0 211.5 -2.5t223.5 -2.5t222.5 2.5t219.5 2.5q63 0 63 -33v-319q0 -14 -30.5 -14t-30.5 14q0 276 -210 276h-129q-41 0 -41 -46v-1050q0 -117 151 -117q11 0 11 -38t-11 -38q-74 7 -218.5 7t-218.5 -7q-11 0 -11 38t11 38q158 0 158 117v1050 q0 46 -39 46h-121q-212 0 -212 -276q0 -14 -30.5 -14t-30.5 14z" />
<glyph unicode="U" horiz-adv-x="1197" d="M46 1325q0 38 11 38q35 -5 220.5 -5t222.5 5q10 0 10 -38t-10 -38q-165 0 -165 -115v-631q0 -301 83.5 -397t207.5 -96q155 0 236 100.5t81 338.5v685q0 115 -150 115q-11 0 -11 38t11 38q36 -5 191 -5t191 5q11 0 11 -38t-11 -38q-144 0 -144 -115v-443q0 -353 -42 -476 t-132.5 -201.5t-250.5 -78.5q-152 0 -240 62.5t-124.5 188t-36.5 315.5v633q0 115 -148 115q-11 0 -11 38z" />
<glyph unicode="V" horiz-adv-x="1029" d="M16 1325q0 38 10 38q36 -5 183 -5t184 5q10 0 10 -38t-10 -38q-115 0 -115 -74q0 -17 6 -41l243 -880q6 -20 13 -20q9 0 16 22l255 869q8 33 8 46q0 78 -81 78q-12 0 -12 38t12 38q36 -5 155 -5t155 5q11 0 11 -38t-11 -38q-123 0 -150 -86l-380 -1214q-8 -25 -21 -25 q-14 0 -26 44l-327 1166q-32 115 -118 115q-10 0 -10 38z" />
<glyph unicode="W" horiz-adv-x="1576" d="M16 1325q0 38 10 38q36 -5 170.5 -5t172.5 5q10 0 10 -38t-10 -38q-91 0 -91 -57q0 -24 12 -58l316 -880q8 -19 14 -19q9 0 16 21l116 317q6 18 6 39q0 22 -8 45l-171 477q-41 115 -109 115q-11 0 -11 38t11 38q35 -5 166 -5t168 5q10 0 10 -38t-10 -38q-90 0 -90 -55 q0 -24 12 -60l93 -259q9 -23 15 -23q7 0 16 25l90 248q14 37 14 63q0 61 -80 61q-12 0 -12 38t12 38q36 -5 151 -5t152 5q10 0 10 -38t-10 -38q-119 0 -151 -86l-140 -388q-8 -25 -8 -46q0 -16 5 -32l159 -443q8 -19 15 -19q8 0 14 21l317 869q14 37 14 62q0 62 -80 62 q-10 0 -10 38t10 38q38 -5 144.5 -5t143.5 5q11 0 11 -38t-11 -38q-104 0 -136 -86l-433 -1194q-14 -36 -22 -36q-9 0 -21 35l-183 512q-6 16 -13 16q-6 0 -12 -16l-185 -512q-12 -35 -22 -35q-7 0 -21 35l-418 1166q-41 115 -118 115q-10 0 -10 38z" />
<glyph unicode="X" horiz-adv-x="1064" d="M-34 31q0 38 11 38q129 0 181 86l299 496q6 11 6 20q0 12 -9 30l-260 478q-36 67 -76 88q-36 19 -103 20q-10 0 -10 38t10 38q36 -5 221.5 -5t224.5 5q11 0 11 -38t-11 -38q-111 0 -111 -57q0 -25 17 -59l168 -327q9 -16 17 -16q10 0 19 16l193 319q30 50 30 78 q0 46 -69 46q-11 0 -11 38t11 38q35 -5 158.5 -5t160.5 5q10 0 10 -38t-10 -38q-94 0 -148 -51q-32 -31 -102 -144l-192 -314q-8 -14 -8 -29q0 -13 7 -27l277 -536q60 -117 192 -117q10 0 10 -38t-10 -38q-61 7 -205.5 7t-205.5 -7q-11 0 -11 38t11 38q91 0 91 53 q0 26 -23 69l-211 392q-9 17 -16 17q-8 0 -18 -17l-163 -281q-76 -131 -76 -182t96 -51q11 0 11 -38t-11 -38q-59 7 -176 7t-186 -7q-11 0 -11 38z" />
<glyph unicode="Y" horiz-adv-x="988" d="M-21 1325q0 38 11 38q35 -5 189 -5t191 5q11 0 11 -38t-11 -38q-96 0 -96 -57q0 -23 16 -58l225 -472q7 -14 13 -14t13 14l238 463q22 42 22 71q0 53 -89 53q-11 0 -11 38t11 38q36 -5 158 -5t158 5q10 0 10 -38t-10 -38q-111 0 -168 -109l-247 -473 q-53 -100 -57.5 -129.5t-4.5 -86.5v-303q0 -117 131 -117q11 0 11 -38t-11 -38q-60 7 -195 7t-195 -7q-10 0 -10 38t10 38q131 0 131 117v301q0 101 -22 147l-261 538q-56 115 -150 115q-11 0 -11 38z" />
<glyph unicode="Z" horiz-adv-x="992" d="M66 24q0 13 8 27l700 1198q8 12 8 21q0 21 -25 21h-443q-44 0 -62 -30q-58 -92 -77.5 -154.5t-34.5 -129.5q-2 -7 -19.5 -7t-19.5 14q26 213 26 363q0 18 30 18q78 -9 117 -9h385q122 0 295 8q20 0 20 -14q0 -13 -12 -32l-690 -1200q-7 -12 -7 -24q0 -25 24 -25 q347 0 512 13q64 5 130 163q31 74 38 107q2 12 21 3.5t19 -19.5q-39 -236 -39 -353q0 -13 -12 -16q-28 10 -44 12q-149 21 -528 21h-292q-28 0 -28 24z" />
<glyph unicode="[" horiz-adv-x="580" d="M230 -332v1843q0 19 16 19h287q13 0 13 -39t-13 -39h-176q-16 0 -16 -22v-1678q0 -28 11 -28h181q13 0 13 -39t-13 -39h-286q-17 0 -17 22z" />
<glyph unicode="\" horiz-adv-x="573" d="M2 1438q0 14 24 30q25 15 44 15q13 0 15 -8l485 -1450v-7q-4 -9 -23 -20q-29 -16 -44 -16q-12 0 -13 6l-487 1444q-1 2 -1 6z" />
<glyph unicode="]" horiz-adv-x="591" d="M24 -315q0 39 17 39h200q9 0 9 24v1682q0 22 -14 22h-179q-19 0 -19 39t16 39h292q16 0 16 -19v-1843q0 -22 -18 -22h-302q-18 0 -18 39z" />
<glyph unicode="^" horiz-adv-x="876" d="M85 535l312 837h83l308 -837h-108l-241 682l-242 -682h-112z" />
<glyph unicode="_" horiz-adv-x="819" d="M0 -154h819v-102h-819v102z" />
<glyph unicode="`" horiz-adv-x="455" d="M174 1335q0 26 32 45q17 11 32 11q20 0 25 -16l106 -294q3 -11 3 -20q0 -39 -28 -39q-18 0 -33 29l-134 271q-3 5 -3 13z" />
<glyph unicode="a" horiz-adv-x="637" d="M59 609q0 56 32.5 112.5t55.5 73.5q103 75 197 75q57 0 110 -40t53 -99v-532q0 -115 54 -115q15 0 57 37q3 2 6 2q17 -3 23 -30q0 -3 -1 -5q-32 -69 -60 -90t-74 -21q-84 0 -114 136q-60 -76 -96 -106t-106 -30q-45 0 -74.5 31t-42 71.5t-12.5 82.5q0 41 16 82t47 73.5 t53 47.5l186 129q16 11 16 32v181q0 88 -107 88q-77 0 -108 -50q-4 -7 -12 -93q-9 -99 -55 -99q-44 0 -44 56zM190 188q0 -49 25 -79.5t70 -30.5q32 0 66 42.5t34 78.5v215q0 22 -11 22q-6 0 -48 -26q-136 -86 -136 -222z" />
<glyph unicode="b" horiz-adv-x="800" d="M39 1338.5q0 27.5 14 27.5q20 0 84 41t80.5 59.5t26.5 18.5t10 -25l-5 -124v-500q0 -27 10 -27q7 0 16 6q75 55 141 55q141 0 234.5 -131.5t93.5 -308.5q0 -218 -89 -335.5t-236 -117.5q-47 0 -124 46q-19 10 -46 10t-77 -56q-2 -2 -7 -2t-17 6q-25 12 -25 19q3 61 3 260 v918q0 133 -73 133q-14 0 -14 27.5zM249 301q0 -81 60.5 -172.5t137.5 -91.5t117.5 111t40.5 266q0 156 -61.5 266.5t-158.5 110.5q-69 0 -118 -50q-18 -18 -18 -94v-346z" />
<glyph unicode="c" horiz-adv-x="653" d="M69 396q0 185 97.5 329.5t251.5 144.5q157 0 187 -73q5 -12 5 -41q0 -19 -17.5 -46.5t-31.5 -27.5t-22 14q-62 107 -138 107t-139 -102t-63 -261q0 -158 71.5 -254t153.5 -96q61 0 170 62q9 5 20 -15.5t11 -28.5q0 -6 -4 -11q-21 -24 -86 -72t-179 -48q-117 0 -202 117 t-85 302z" />
<glyph unicode="d" horiz-adv-x="809" d="M53 411q0 189 105.5 324t274.5 135q56 0 91 -14q10 -4 15 -4q11 0 11 25v294q0 140 -73 140q-14 0 -14 27.5t14 27.5q20 0 77 36.5t82.5 59.5t33.5 23t8 -15l-5 -108v-1131q0 -149 65 -149q9 0 38 6q10 2 14 -37v-8q0 -11 -4 -12q-30 -5 -122.5 -31.5t-99.5 -32.5 q-14 0 -14 49v41q0 23 -9 23t-22 -14q-75 -89 -157 -89q-157 0 -233 122.5t-76 311.5zM183 440q0 -149 66.5 -257.5t153.5 -108.5q63 0 105 41t42 84v469q0 75 -17 94q-47 49 -119 49q-107 0 -169 -111.5t-62 -259.5z" />
<glyph unicode="e" horiz-adv-x="670" d="M68 431q0 178 91 308.5t203 130.5q113 0 182.5 -98t69.5 -160q0 -63 -40 -63h-360q-24 0 -24 -66q0 -160 61.5 -274.5t169.5 -114.5q81 0 161 60q4 3 8 3q10 0 17 -11q6 -7 6 -21q0 -5 -3 -8q-127 -140 -249 -140q-123 0 -208 138t-85 316zM209 630q0 -14 19 -14h257 q12 0 12 17q0 44 -43.5 111t-91.5 67q-52 0 -89.5 -43.5t-61.5 -122.5q-2 -8 -2 -15z" />
<glyph unicode="f" horiz-adv-x="467" d="M56 20.5q0 28.5 11 28.5q94 0 94 78v600q0 37 -30 37h-59q-12 0 -12 27.5t12 27.5q89 0 89 86v19q0 250 112.5 406.5t264.5 156.5q42 0 76.5 -13t53 -39t18.5 -67q0 -31 -21.5 -57.5t-46.5 -26.5q-45 0 -81.5 54.5t-79.5 54.5q-85 0 -129.5 -85t-44.5 -207v-214 q0 -37 30 -37h162q12 0 12 -43t-12 -43h-162q-30 0 -30 -37v-600q0 -78 119 -78q11 0 11 -28.5t-11 -28.5q-68 8 -169 8t-166 -8q-11 0 -11 28.5z" />
<glyph unicode="g" horiz-adv-x="758" d="M47 -308q0 99 150 234q13 13 13 22q-2 11 -16 15q-109 39 -109 148q0 51 91 131q8 7 19 15t11 20t-12 22q-117 92 -117 239q0 146 80.5 239t181.5 93q102 0 171.5 -38.5t110.5 -38.5h137q12 0 12 -43t-12 -43h-132q3 -37 3 -109q0 -145 -75.5 -241.5t-209.5 -96.5 q-27 0 -61 4q-17 0 -34 -14q-55 -45 -55 -100q0 -80 119 -80h203q238 0 238 -228q0 -170 -128 -285.5t-284 -115.5q-145 0 -220 70.5t-75 180.5zM175 -252q0 -98 58.5 -157.5t168.5 -59.5q111 0 182 66.5t71 160.5q0 187 -195 187h-147q-28 0 -49 -19q-89 -81 -89 -178z M200 569q0 -109 53 -179.5t116 -70.5q136 0 136 224q0 172 -69 237q-33 31 -88 31t-101.5 -66.5t-46.5 -175.5z" />
<glyph unicode="h" horiz-adv-x="875" d="M53 20.5q0 28.5 11 28.5q97 0 97 78v1047q0 139 -74 139q-13 0 -13 27.5t13 27.5q27 0 78.5 34t78 59.5t35.5 25.5t9 -17q-5 -107 -5 -165v-514q0 -25 13 -25q7 0 14 8q72 96 192 96q116 0 175.5 -105.5t59.5 -215.5v-422q0 -78 101 -78q12 0 12 -28.5t-12 -28.5 q-64 8 -157.5 8t-156.5 -8q-11 0 -11 28.5t11 28.5q90 0 90 78v420q0 97 -47 165t-115 68q-67 0 -118 -51t-51 -100v-502q0 -78 89 -78q11 0 11 -28.5t-11 -28.5q-84 8 -164 8t-144 -8q-11 0 -11 28.5z" />
<glyph unicode="i" horiz-adv-x="419" d="M59 20.5q0 28.5 11 28.5q91 0 91 78v444q0 138 -74 138q-13 0 -13 28t13 28q27 0 78.5 34t78 59t34.5 25q10 0 10 -16q-5 -108 -5 -166v-574q0 -78 91 -78q11 0 11 -28.5t-11 -28.5q-61 8 -150 8t-154 -8q-11 0 -11 28.5zM120 1157q0 45 24.5 75.5t60.5 30.5t61.5 -30.5 t25.5 -75.5t-25.5 -77t-61.5 -32t-60.5 32t-24.5 77z" />
<glyph unicode="j" horiz-adv-x="414" d="M-100 -459q0 33 19.5 51.5t42.5 18.5q40 0 71.5 -39t51.5 -39q79 0 79 213v825q0 138 -74 138q-13 0 -13 28t13 28q27 0 78.5 34t78 59t35.5 25t9 -16q-5 -108 -5 -166v-642q0 -329 -88 -483q-74 -131 -198 -131q-40 0 -70 28t-30 68zM120 1157q0 45 24.5 75.5t60.5 30.5 t61.5 -30.5t25.5 -75.5t-25.5 -77t-61.5 -32t-60.5 32t-24.5 77z" />
<glyph unicode="k" horiz-adv-x="806" d="M58 20.5q0 28.5 11 28.5q92 0 92 78v1048q0 138 -74 138q-14 0 -13.5 28t13.5 28q27 0 78.5 34t78 59t34.5 25q10 0 10 -16q-5 -105 -5 -166v-783q0 -43 37 -43t54 23l157 221q21 29 21 47q0 33 -77 33q-11 0 -11 26.5t11 26.5q74 -6 152.5 -6t138.5 6q12 0 12 -26.5 t-12 -26.5q-73 0 -130 -68l-170 -205q-16 -18 -16 -34t14 -35l257 -367q31 -45 103 -45q11 0 11 -28.5t-11 -28.5q-76 8 -161.5 8t-160.5 -8q-12 0 -12 28.5t12 28.5q65 0 65 29q0 13 -25 49l-176 254q-13 18 -28.5 24.5t-27.5 6.5t-19.5 -8t-7.5 -35v-242q0 -78 95 -78 q12 0 12 -28.5t-12 -28.5q-83 8 -158 8t-151 -8q-11 0 -11 28.5z" />
<glyph unicode="l" horiz-adv-x="419" d="M56 20.5q0 28.5 11 28.5q94 0 94 78v1044q0 140 -74 140q-13 0 -13 27.5t13 27.5q37 0 132 74q27 21 40 33t21 12t8 -15q-5 -57 -5 -97v-1246q0 -78 95 -78q12 0 12 -28.5t-12 -28.5q-61 8 -153.5 8t-157.5 -8q-11 0 -11 28.5z" />
<glyph unicode="m" horiz-adv-x="1285" d="M53 20.5q0 28.5 11 28.5q97 0 97 78v451q0 124 -67 124q-14 0 -14 28t14 28q20 0 66.5 34.5t75 62.5t38.5 28q13 0 12 -27q-4 -78 -4 -83q0 -21 10 -21q7 0 14 8q83 110 201 110q106 0 173 -122q9 -16 15.5 -16t15.5 13q91 125 219 125q98 0 145.5 -68t61 -118.5 t13.5 -118.5v-438q0 -78 92 -78q12 0 12 -28.5t-12 -28.5q-61 8 -151 8t-152 -8q-11 0 -11 28.5t11 28.5q88 0 88 78v453q0 117 -45 158.5t-114 41.5q-70 0 -111 -82t-41 -221v-350q0 -78 92 -78q11 0 11 -28.5t-11 -28.5q-64 8 -152.5 8t-149.5 -8q-12 0 -12 28.5t12 28.5 q88 0 88 78v405q0 90 -13 147t-39 79t-85 22q-36 0 -62 -17t-51 -41t-43 -58t-18 -74v-463q0 -78 85 -78q11 0 11 -28.5t-11 -28.5q-62 8 -151 8t-153 -8q-11 0 -11 28.5z" />
<glyph unicode="n" horiz-adv-x="855" d="M58 20.5q0 28.5 11 28.5q92 0 92 78v447q0 128 -67 128q-14 0 -14 28t14 28q30 0 69.5 30t69 62.5t41.5 32.5q11 0 11 -31l-2 -73q0 -21 11 -21q7 0 12 6q85 106 207 106q119 0 177 -147q27 -66 27 -248v-348q0 -78 92 -78q11 0 11 -28.5t-11 -28.5q-62 8 -150.5 8 t-152.5 -8q-11 0 -11 28.5t11 28.5q88 0 88 78v403q0 84 -11 142.5t-36 83t-88 24.5q-34 0 -61 -17t-53 -40.5t-44 -58t-18 -74.5v-463q0 -78 86 -78q11 0 11 -28.5t-11 -28.5q-62 8 -149.5 8t-150.5 -8q-11 0 -11 28.5z" />
<glyph unicode="o" horiz-adv-x="796" d="M67 428q0 168 100 305t239 137t236 -136.5t97 -313.5q0 -176 -88.5 -309.5t-237.5 -133.5q-148 0 -247 142t-99 309zM198 422q0 -177 65 -278t140 -101t140.5 101t65.5 278q0 176 -64 282.5t-141 106.5q-76 0 -141 -105.5t-65 -283.5z" />
<glyph unicode="p" horiz-adv-x="800" d="M36 -530.5q0 28.5 11 28.5q92 0 92 84v999q0 124 -69 124q-13 0 -13 27.5t13 27.5q24 0 79.5 40t73 61.5t31.5 21.5q11 0 11 -27l-3 -68q0 -20 12 -20q8 0 15 8q67 94 149 94q90 0 165 -68.5t114 -153.5t39 -230q0 -197 -87.5 -319t-243.5 -122q-88 0 -134 19q-5 2 -9 2 q-20 0 -20 -33v-381q0 -86 120 -86q12 0 12 -28.5t-12 -28.5q-68 8 -169.5 8t-165.5 -8q-11 0 -11 28.5zM262 205q0 -164 151 -164q112 0 158 111t46 268q0 368 -211 368q-68 0 -128 -100q-16 -26 -16 -94v-389z" />
<glyph unicode="q" horiz-adv-x="809" d="M53 416q0 212 97 333t212 121q114 0 207 -59l94 55q37 -2 31 -45q-21 -27 -21 -299v-940q0 -84 106 -84q11 0 11 -28.5t-11 -28.5q-66 8 -167.5 8t-167.5 -8q-11 0 -11 28.5t11 28.5q106 0 106 86v379q0 37 -15 37q-51 -22 -185 -23q-139 0 -218 116.5t-79 322.5z M183 435q0 -159 48.5 -276.5t147.5 -117.5q171 0 171 164v418q0 37 -11 59q-53 106 -121 106h-1q-234 0 -234 -353z" />
<glyph unicode="r" horiz-adv-x="556" d="M36 20.5q0 28.5 11 28.5q92 0 92 78v462q0 113 -67 113q-14 0 -14 28t14 28q30 0 87 48t70 62.5t22 14.5q14 0 14 -25q-3 -49 -3 -89.5t10.5 -40.5t21.5 20q72 122 171 122q25 0 42 -11t31.5 -34t14.5 -67q0 -12 -8.5 -34.5t-25 -38t-33.5 -15.5t-53.5 24.5t-54.5 24.5 q-49 0 -82.5 -60.5t-33.5 -164.5v-367q0 -78 120 -78q12 0 12 -28.5t-12 -28.5q-67 8 -167.5 8t-167.5 -8q-11 0 -11 28.5z" />
<glyph unicode="s" horiz-adv-x="565" d="M62 207v45q0 15 19 15t21 -15q4 -39 52 -126t143 -87q47 0 88 37t41 107t-34.5 112.5t-123 72t-141.5 94.5t-53 165q0 102 67 172.5t170 70.5t166 -36q25 -84 25 -170v-11q0 -14 -18 -14t-20 14q-8 54 -54 105t-108 51q-61 0 -98.5 -37.5t-37.5 -101.5q0 -61 26.5 -94 t133 -71.5t150 -97t43.5 -161.5q0 -81 -33.5 -144.5t-92 -95t-123.5 -31.5q-124 0 -192 60q-16 63 -16 172z" />
<glyph unicode="t" horiz-adv-x="539" d="M53 783q0 23 11 23q36 0 74.5 35.5t64 78t38.5 81.5q3 9 11 9t16.5 -5t8.5 -14v-98q0 -43 33 -43h195q11 0 11 -45t-11 -45h-195q-33 0 -33 -40v-403q0 -131 30 -187t99 -56q42 0 87 39q11 10 17 -4t6 -21t-2 -10q-67 -101 -176 -101q-100 0 -142 54.5t-42 181.5v507 q0 40 -32 40h-58q-11 0 -11 23z" />
<glyph unicode="u" horiz-adv-x="828" d="M38 811q0 28 12 28q84 0 136 9t67 9q16 0 15 -16q-6 -123 -6 -152v-355q0 -115 31.5 -187.5t96.5 -72.5q71 0 125.5 52t54.5 126v384q0 147 -89 147q-12 0 -12 28t12 28q98 0 144 9t56 9q17 0 16 -27q-5 -87 -5 -139v-464q0 -146 58 -146q4 0 8 1l37 6q14 2 18 -27 q1 -9 1 -15q0 -14 -7 -15q-22 -3 -109 -27.5t-110 -35.5q-2 -1 -6 -1q-12 0 -12 45v45q0 24 -9.5 24t-22.5 -15q-76 -89 -187 -89q-84 0 -148 106t-64 218v335q0 147 -89 147q-12 0 -12 28z" />
<glyph unicode="v" horiz-adv-x="670" d="M-2 829.5q0 26.5 12 26.5q46 -6 141 -6t143 6q11 0 11 -26.5t-11 -26.5q-63 0 -63 -55q0 -17 3 -29l128 -490q5 -18 12 -18q6 0 11 18l136 498q3 10 3 23q0 53 -77 53q-11 0 -11 26.5t11 26.5q46 -6 114.5 -6t116.5 6q12 0 12 -26.5t-12 -26.5q-76 0 -96 -72l-200 -715 q-11 -39 -34 -39t-32 27l-224 727q-23 72 -82 72q-12 0 -12 26.5z" />
<glyph unicode="w" horiz-adv-x="1064" d="M-2 829.5q0 26.5 12 26.5q46 -6 141 -6t143 6q11 0 11 -26.5t-11 -26.5q-63 0 -63 -55q0 -17 3 -29l128 -490q5 -18 12 -18q6 0 11 18l120 435q5 20 5 28q0 59 -41 94q-22 17 -50 17q-11 0 -11 26.5t11 26.5q47 -6 141.5 -6t142.5 6q11 0 11 -26.5t-11 -26.5 q-62 0 -62 -55q0 -17 3 -29l128 -490q5 -18 11 -18q7 0 11 18l136 498q4 10 4 23q0 53 -77 53q-11 0 -11 26.5t11 26.5q45 -6 114 -6t117 6q11 0 11 -26.5t-11 -26.5q-77 0 -97 -72l-200 -715q-10 -39 -33 -39q-24 0 -32 27l-171 549q-6 20 -11 20q-6 0 -11 -20l-151 -537 q-11 -39 -34 -39t-32 27l-224 727q-23 72 -82 72q-12 0 -12 26.5z" />
<glyph unicode="x" horiz-adv-x="734" d="M7 20.5q0 28.5 11 28.5q76 0 118 68l180 282q7 11 7 22t-7 23l-166 289q-40 70 -78 70q-11 0 -11 26.5t11 26.5q46 -6 136.5 -6t137.5 6q11 0 11 -26.5t-11 -26.5q-61 0 -61 -37q0 -18 13 -45l88 -176q8 -15 16 -15t16 15l96 160q22 35 22 57q0 41 -66 41q-11 0 -11 26.5 t11 26.5q46 -6 117 -6t119 6q12 0 12 -26.5t-12 -26.5q-53 0 -100 -72l-156 -237q-11 -17 -11 -29t8 -27l169 -305q46 -84 118 -84q12 0 12 -28.5t-12 -28.5q-60 8 -154 8t-161 -8q-11 0 -11 28.5t11 28.5q78 0 78 33q0 12 -19 47l-109 215q-7 12 -13 12q-7 0 -14 -12 l-114 -199q-26 -47 -26 -67q0 -29 52 -29q11 0 11 -28.5t-11 -28.5q-64 8 -120 8t-116 -8q-11 0 -11 28.5z" />
<glyph unicode="y" horiz-adv-x="670" d="M-42 829.5q0 26.5 11 26.5q45 -6 147 -6t150 6q11 0 11 -26.5t-11 -26.5q-77 0 -77 -55q0 -16 3 -29l139 -504q8 -31 20 -31t23 33l156 502q4 13 4 26q0 58 -103 58q-11 0 -11 26.5t11 26.5q46 -6 130.5 -6t131.5 6q11 0 11 -26.5t-11 -26.5q-77 0 -100 -72l-354 -1149 q-19 -64 -58 -99.5t-84 -35.5q-32 0 -52 25t-20 51q0 76 75.5 76t96.5 63l77 240q8 25 8 39t-10 51l-206 739q-21 72 -97 72q-11 0 -11 26.5z" />
<glyph unicode="z" horiz-adv-x="588" d="M44 14q0 6 2 9l318 729q6 15 6 23q0 18 -23 18h-126q-63 0 -105 -107l-49 -123q-2 -6 -10.5 -2.5t-7.5 8.5l29 267q4 34 17 34h2l82 -16q21 -4 62 -4h277q12 0 12 -7t-4 -16l-318 -723q-5 -11 -5 -18q0 -18 22 -22t55 -4t58 1q84 0 136 72q19 27 64 152q3 9 18 4 q14 -5 14 -12l-24 -267q0 -37 -22 -37q-8 0 -55 13.5t-75 13.5h-336q-14 0 -14 14z" />
<glyph unicode="{" horiz-adv-x="627" d="M53 617.5q0 17.5 8 17.5q169 0 169 172v338q0 163 32.5 237t98.5 92.5t211 18.5q11 0 11 -23.5t-11 -23.5q-124 0 -178.5 -52t-54.5 -186v-243q0 -173 -9.5 -212.5t-36.5 -77t-85 -54.5v-7q53 -12 81.5 -47.5t39 -85t10.5 -188.5v-277q0 -172 50.5 -230t182.5 -58 q11 0 11 -23.5t-11 -23.5q-180 0 -231.5 24.5t-81 89.5t-29.5 187v442q0 176 -169 176q-8 0 -8 17.5z" />
<glyph unicode="|" horiz-adv-x="429" d="M186 -334v1768h97v-1768h-97z" />
<glyph unicode="}" horiz-adv-x="656" d="M53 -295.5q0 23.5 11 23.5q132 0 182.5 58t50.5 230v277q0 143 12 192t38.5 83t80.5 46v7q-62 18 -87.5 56t-34.5 78.5t-9 209.5v243q0 136 -56 187t-177 51q-11 0 -11 23.5t11 23.5q136 0 207.5 -16.5t103 -95.5t31.5 -236v-338q0 -172 169 -172q8 0 8 -17.5t-8 -17.5 q-169 0 -169 -176v-442q0 -135 -39 -205.5t-109.5 -83t-193.5 -12.5q-11 0 -11 23.5z" />
<glyph unicode="~" horiz-adv-x="540" d="M19 361v9q0 2 1 3q81 149 169 149q33 0 113 -35q62 -28 92 -28q48 0 106 71l6 3q11 -1 16 -15v-6q0 -40 -64 -99q-66 -58 -108 -63q-36 0 -108 33q-79 35 -106 35q-53 0 -97 -66q-2 -3 -5 -3q-10 0 -15 12z" />
<glyph unicode="&#xa1;" horiz-adv-x="416" d="M110 758.5q0 50.5 28 81t70.5 30.5t69 -36t26.5 -87t-24 -82t-72 -31q-50 0 -74 37t-24 87.5zM122 -443q0 63 24.5 354.5t34.5 497.5q1 16 27 16t26 -16q6 -199 27.5 -491t21.5 -348t-24.5 -90t-53.5 -34q-83 0 -83 111z" />
<glyph unicode="&#xa2;" horiz-adv-x="663" d="M74 642q0 185 97 330q93 137 238 144l27 189q1 10 18 10q56 0 52 -27l-24 -175q104 -12 128 -70q4 -12 4 -41q0 -19 -17 -46.5t-31 -27.5t-22 14q-35 60 -74 86l-96 -681q27 -11 55 -11q61 0 170 62q9 5 20 -15.5t11 -28.5q0 -6 -4 -11q-21 -24 -86.5 -72t-178.5 -48h-5 l-26 -190q-2 -10 -22 -10q-54 0 -50 24l27 190q-70 26 -126 103q-85 117 -85 302zM204 686.5q0 -158.5 72 -254.5q15 -21 31 -37l93 654q-73 -4 -133 -102q-63 -102 -63 -260.5z" />
<glyph unicode="&#xa3;" horiz-adv-x="900" d="M25 100q0 65 36.5 108.5t102.5 43.5q50 0 190 -57q18 78 18 135q0 124 -51 325h-219q-12 0 -12 36t12 36h200q-48 162 -48 299t90 240.5t220 103.5q73 0 157.5 -32.5t84.5 -80.5q0 -187 -21 -227q-3 -4 -10 -4q-15 0 -31.5 71t-27 107t-47.5 77.5t-114 41.5 q-90 0 -139 -69t-49 -154q0 -84 67 -373h259q13 0 13 -36t-13 -36h-246q13 -90 13 -197t-54 -292q144 -68 216 -68q108 0 197 99q28 32 35 32q11 0 11 -21.5t-21 -78.5q-62 -170 -211 -170q-103 0 -264 137q-51 -65 -97 -101t-117 -36q-61 0 -95.5 42t-34.5 99zM70 100 q0 -38 26 -63t68 -25q90 0 164 113q-82 74 -144 74q-66 0 -90 -33.5t-24 -65.5z" />
<glyph unicode="&#xa4;" horiz-adv-x="819" d="M64 668q0 148 70 260l-64 80q-8 11 25.5 53t42.5 31l64 -78q89 88 208 88q117 0 209 -88l63 78q8 11 42 -31t25 -53l-63 -78q71 -115 71 -262q0 -149 -71 -262l63 -78q9 -12 -25 -53t-42 -31l-63 78q-93 -89 -209 -89q-114 0 -208 91l-64 -80q-9 -10 -43 31t-25 53l64 80 q-70 112 -70 260zM134 668q0 -144 80.5 -245t195.5 -101q116 0 197 101t81 245q0 140 -82.5 243t-195.5 103t-194.5 -101.5t-81.5 -244.5z" />
<glyph unicode="&#xa5;" horiz-adv-x="1060" d="M10 1325q0 38 11 38q35 -5 189 -5t192 5q10 0 10 -38t-10 -38q-97 0 -97 -57q0 -23 17 -58l224 -472q7 -14 13 -14t13 14l238 463q22 42 22 71q0 53 -89 53q-11 0 -11 38t11 38q36 -5 158 -5t158 5q11 0 11 -38t-11 -38q-111 0 -168 -109l-178 -340h164q12 0 12 -50.5 t-12 -50.5h-216l-17 -32q-52 -100 -57 -129q0 -3 -1 -5h291q12 0 12 -50t-12 -50h-295v-285q0 -117 132 -117q10 0 10 -38t-10 -38q-60 7 -195.5 7t-195.5 -7q-10 0 -10 38t10 38q131 0 131 117v285h-277q-12 0 -12 50t12 50h272q-5 39 -17 63l-50 103h-205q-12 0 -12 50.5 t12 50.5h156l-162 334q-56 115 -150 115q-11 0 -11 38z" />
<glyph unicode="&#xa6;" horiz-adv-x="429" d="M186 111v536h97v-536h-97zM186 834v538h97v-538h-97z" />
<glyph unicode="&#xa7;" d="M75 530q0 95 41 181q42 89 112 123q-92 102 -92 229q0 135 82 227q80 90 190 90q66 0 133 -32q89 -43 89 -105q0 -29 -28 -59q-17 -19 -33 -19q-8 0 -63 68q-53 70 -118 70q-54 0 -102 -56q-42 -47 -42 -131q0 -102 120 -196l219 -172q120 -117 120 -267 q0 -195 -146 -299q105 -101 105 -241q0 -144 -92 -246q-88 -98 -204 -98q-79 0 -163 43q-108 51 -108 129q0 22 27 49q27 28 44 28q12 0 44 -45l35 -49q56 -78 132 -78q79 0 127 79q37 61 37 143q0 104 -122 206l-222 177q-122 114 -122 251zM172 598q0 -96 74 -156 l267 -219q90 79 90 205q0 123 -179 248q-89 62 -155 121q-97 -72 -97 -199z" />
<glyph unicode="&#xa8;" horiz-adv-x="637" d="M88 1156q0 45 25 76.5t60.5 31.5t61 -31.5t25.5 -76.5t-25.5 -76.5t-61 -31.5t-60.5 31.5t-25 76.5zM393 1156q0 45 25 76.5t60.5 31.5t61 -31.5t25.5 -76.5t-25.5 -76.5t-61 -31.5t-60.5 31.5t-25 76.5z" />
<glyph unicode="&#xa9;" horiz-adv-x="1153" d="M2 748q0 299 168.5 509.5t408 210.5t408 -210.5t168.5 -509.5t-168.5 -510t-408 -211t-408 211t-168.5 510zM58 755q0 -263 147 -461t367.5 -198t373.5 191.5t153 460.5q0 270 -152.5 460.5t-368.5 190.5t-368 -190.5t-152 -453.5zM278 737q0 123 42 213.5t109 141.5 t166 51q49 0 118 -17l9 -2q55 -13 57 -13q13 -74 13 -171q-2 -9 -16 -9t-15 8q-12 165 -179 165q-90 0 -155 -101.5t-65 -232.5q0 -156 63.5 -259.5t155.5 -103.5q156 0 199 148q1 6 12 6t15 -4q2 -2 2 -8q-16 -105 -39 -148q-15 -2 -34 -10q-65 -25 -166 -25 q-78 0 -144.5 47.5t-107 131t-40.5 192.5z" />
<glyph unicode="&#xaa;" horiz-adv-x="426" d="M36 890q0 34 19 68t33 44q62 45 118 45q34 0 66 -24t32 -59v-320q0 -69 32 -69q10 0 35 23q1 1 3 1q11 -2 14 -18v-3q-20 -42 -36.5 -54.5t-44.5 -12.5q-50 0 -68 82q-36 -46 -58 -64t-63 -18q-27 0 -45 18.5t-25.5 43t-7.5 49.5t9.5 49.5t28.5 44t32 28.5l111 77 q10 7 10 20v108q0 53 -64 53q-47 0 -65 -30q-2 -4 -7 -56q-6 -59 -33 -59q-26 0 -26 33zM114 638q0 -29 15 -47.5t42 -18.5q19 0 39.5 25.5t20.5 46.5v129q0 14 -7 14q-3 0 -29 -16q-81 -51 -81 -133z" />
<glyph unicode="&#xab;" horiz-adv-x="631" d="M47 435q0 28 19 53l239 312q9 11 23 -3t7 -27l-157 -294q-10 -18 -10 -41t10 -41l157 -290q8 -15 -6 -30.5t-24 -3.5l-239 312q-19 25 -19 53zM293 435q0 28 19 53l239 312q9 11 23 -3t7 -27l-158 -294q-9 -18 -9 -41t9 -41l158 -290q8 -15 -6 -30.5t-24 -3.5l-239 312 q-19 25 -19 53z" />
<glyph unicode="&#xac;" horiz-adv-x="1092" d="M0 537v120h1093v-657h-99v537h-994z" />
<glyph unicode="&#xad;" horiz-adv-x="661" d="M80 545q0 57 12 57h474q12 0 12 -57q0 -58 -14 -58h-472q-12 0 -12 58z" />
<glyph unicode="&#xae;" horiz-adv-x="1219" d="M2 748q0 299 168.5 509.5t408 210.5t408 -210.5t168.5 -509.5t-168.5 -510t-408 -211t-408 211t-168.5 510zM58 753.5q0 -264.5 148 -461t367.5 -196.5t372.5 191.5t153 460.5q0 270 -152.5 460.5t-368.5 190.5t-368 -190.5t-152 -455zM334 1099.5q0 20.5 6 20.5 q50 -2 92 -2t83.5 1t67.5 1q99 0 156 -52t57 -150q0 -149 -116 -188q-12 -4 0 -30q63 -139 155 -248q48 -57 81 -57q6 0 6 -9.5t-6 -9.5q-18 -2 -29 -2q-71 0 -104 29q-53 46 -92 109l-75 138q-21 38 -33 48.5t-36 10.5t-37 2t-16 -1.5t-3 -9.5v-213q0 -63 84 -63 q5 0 5 -20.5t-5 -20.5q-34 4 -116 4t-115 -4q-6 0 -6 20.5t6 20.5q78 0 78 63v533q0 59 -82 59q-6 0 -6 20.5zM491 768q0 -17 16.5 -21.5t46.5 -4.5q167 0 167 176q0 71 -45.5 120t-125.5 49h-39q-20 0 -20 -17v-302z" />
<glyph unicode="&#xaf;" horiz-adv-x="486" d="M39 1151q0 47 23 47h360q23 0 23 -47t-26 -47h-357q-23 0 -23 47z" />
<glyph unicode="&#xb0;" horiz-adv-x="570" d="M66 1047q0 119 71 197q61 67 148 67q106 0 169 -90q51 -71 51 -174q0 -133 -76 -207q-59 -58 -144 -58q-107 0 -170 89q-49 72 -49 176zM158 1047q0 -99 49 -157q32 -36 78 -36q71 0 106 81q22 48 22 112q0 103 -51 157q-32 35 -77 35q-71 0 -107 -81q-20 -48 -20 -111z " />
<glyph unicode="&#xb1;" horiz-adv-x="819" d="M95 2v100h631v-100h-631zM95 596v100h267v336h96v-336h268v-100h-268v-371h-96v371h-267z" />
<glyph unicode="&#xb2;" horiz-adv-x="504" d="M10 541q0 5 6 10q244 277 316 459q20 48 20 110q0 64 -42 100q-30 26 -73 26q-79 0 -136 -110q-2 -2 -5 -2q-12 0 -22 10q-5 5 -5 9q0 1 1 2q32 71 83 114q58 53 128 53q83 0 132 -64q40 -49 40 -131q0 -88 -62 -181q-33 -49 -93 -125l-156 -191q-9 -10 -9 -17 q0 -9 17 -9h164q90 0 125 36q15 15 23 38q1 4 10 4q18 -1 22 -9v-2v-3l-56 -131q-8 -20 -28 -20q-75 5 -179 5q-98 0 -197 -5q-24 0 -24 24z" />
<glyph unicode="&#xb3;" horiz-adv-x="504" d="M28 598q0 23 22 37q10 8 23 8q19 0 56 -45q38 -44 81 -44q59 0 96 70q28 56 28 130q0 78 -41 129q-42 53 -115 53q-36 0 -63 -10q-7 0 -7 25q0 23 7 23q100 0 152 56q39 42 39 108q0 60 -37 95q-28 25 -67 25q-64 0 -113 -82q-1 -2 -4 -2q-12 0 -21 13q-5 6 -5 11 q0 1 1 2q76 122 180 122q63 0 106 -51q44 -51 44 -117q0 -100 -100 -163q-18 -11 -18 -15q0 -6 15 -9q140 -31 140 -197q0 -111 -73 -187q-72 -75 -174 -75q-78 0 -121 33q-31 22 -31 57z" />
<glyph unicode="&#xb4;" horiz-adv-x="455" d="M118 1059q0 12 4 22l108 307q4 13 20 13q27 0 56 -29q16 -16 16 -29q0 -3 -2 -7l-143 -285q-15 -29 -33 -29q-26 0 -26 37z" />
<glyph unicode="&#xb5;" horiz-adv-x="884" d="M37 813q0 28 13 28q52 0 126 9t84 9q9 0 9 -20q-7 -124 -7 -158v-429q0 -186 135 -186q222 0 222 219v353q0 147 -88 147q-13 0 -13 28t13 28q55 0 121.5 9t81.5 9q13 0 13 -27q-5 -103 -5 -139v-437q0 -121 16.5 -146t50.5 -25q17 0 38 3q11 3 15 -26q1 -8 1 -13 q0 -16 -8 -18q-123 -29 -217 -62q-19 0 -19 47v41q0 31 -10 29q-11 -2 -23 -16q-81 -93 -220 -93q-68 0 -116 39q-6 -62 -6 -138t6 -240q6 -130 -80 -130q-70 0 -70 115q0 77 19.5 240t19.5 436v339q0 147 -89 147q-13 0 -13 28z" />
<glyph unicode="&#xb6;" horiz-adv-x="797" d="M13 1077q0 185 102 284q99 95 247 95q222 -4 274 -4q40 0 127 6q11 0 11 -29q0 -28 -11 -28q-94 0 -94 -77v-1197q0 -78 94 -78q11 0 11 -29q0 -28 -11 -28q-66 8 -125 8h-205q-66 0 -136 -8q-11 0 -11 28q0 29 11 29q93 0 93 76v569q-206 0 -308 140q-69 96 -69 243z M464 127q0 -78 63 -78q67 0 67 76v1199q0 74 -60 74q-70 0 -70 -74v-1197z" />
<glyph unicode="&#xb7;" horiz-adv-x="596" d="M190 623q0 51 29 82t73 31t68 -37t24 -87.5t-27.5 -81t-70 -30.5t-69.5 36t-27 87z" />
<glyph unicode="&#xb8;" horiz-adv-x="589" d="M162 -381q0 53 41 53q19 0 46 -28q29 -31 41 -31q44 0 44 63q0 80 -108 142l99 182h58l-57 -98q102 -78 102 -174q0 -83 -62 -137q-48 -44 -108 -44q-96 0 -96 72z" />
<glyph unicode="&#xb9;" horiz-adv-x="504" d="M75 534q0 17 7 17q71 0 89.5 23.5t18.5 103.5v522q0 28 -12 28q-4 0 -12 -5l-72 -35q-8 0 -13 10.5t3 17.5q108 57 178 127q4 3 9 3q7 0 7 -8q-3 -54 -3 -103v-556q0 -89 24.5 -108.5t74.5 -19.5q7 0 7 -17t-7 -17q-44 5 -146 5t-146 -5q-7 0 -7 17z" />
<glyph unicode="&#xba;" horiz-adv-x="491" d="M40 782q0 101 60 183t144 82q83 0 141.5 -82t58.5 -188t-53.5 -186t-142.5 -80t-148.5 85.5t-59.5 185.5zM119 778q0 -106 39 -166.5t84 -60.5t84 60.5t39 166.5t-38.5 170t-83.5 64q-46 0 -85 -63.5t-39 -170.5z" />
<glyph unicode="&#xbb;" horiz-adv-x="631" d="M47 104l157 290q10 18 10 41t-10 41l-157 294q-7 13 7 27t23 3l239 -312q19 -25 19 -53t-19 -53l-239 -312q-10 -12 -24 3.5t-6 30.5zM293 104l157 290q10 18 10 41t-10 41l-157 294q-7 13 7 27t23 3l239 -312q19 -25 19 -53t-19 -53l-239 -312q-10 -12 -24 3.5t-6 30.5z " />
<glyph unicode="&#xbc;" horiz-adv-x="1207" d="M105 538.5q0 18.5 7 18.5q61 0 81 21.5t20 115.5v566q0 30 -10 30q-5 0 -13 -5l-67 -39q-8 -4 -12 11.5t2 19.5q102 61 169 137q3 4 8 4q6 0 7 -9q-3 -59 -3 -112v-602q0 -78 15 -108t77 -30q7 0 7 -18.5t-7 -18.5q-41 5 -137 5t-137 -5q-7 0 -7 18.5zM249 74l710 1351 q3 6 9 6q8 0 22 -12q23 -19 17 -30l-713 -1354q-6 -11 -28 9.5t-17 29.5zM712 278q0 7 4 18q6 17 20 42l116 196q7 12 218 392q4 9 20 9q30 0 30 -20l-336 -583q-5 -8 -5 -13q0 -9 14 -9h202q11 0 11 14v288q0 10 40 10t40 -10v-288q0 -14 12 -14h60q9 0 9 -28t-9 -28h-60 q-12 0 -12 -13v-158q0 -51 63 -51q7 0 7 -18.5t-7 -18.5q-40 5 -112.5 5t-112.5 -5q-7 0 -7 18.5t7 18.5q82 0 82 51v158q0 13 -11 13h-248q-35 0 -35 24z" />
<glyph unicode="&#xbd;" horiz-adv-x="1207" d="M105 538.5q0 18.5 7 18.5q61 0 81 21.5t20 115.5v566q0 30 -10 30q-5 0 -13 -5l-67 -39q-8 -4 -12 11.5t2 19.5q102 61 169 137q3 4 8 4q6 0 7 -9q-3 -59 -3 -112v-602q0 -78 15 -108t77 -30q7 0 7 -18.5t-7 -18.5q-41 5 -137 5t-137 -5q-7 0 -7 18.5zM246 74l710 1351 q3 6 8 6q8 0 22 -12q24 -19 18 -30l-713 -1354q-6 -11 -28 9.5t-17 29.5zM709 20q0 6 5 12q230 300 297 496q20 53 20 120q0 69 -40 108q-29 28 -69 28q-75 0 -128 -118q-2 -3 -5 -3q-11 0 -20 11q-5 5 -5 9v3q31 77 79 123q55 57 121 57q78 0 123 -68q38 -54 38 -143 q0 -95 -57 -195q-32 -54 -88 -136l-148 -207q-8 -11 -8 -18q0 -10 16 -10h154q85 0 118 39q14 16 23 41q0 4 8 4q17 -1 21 -9v-3v-2l-53 -143q-8 -21 -26 -21q-71 5 -168 5q-93 0 -187 -5q-21 0 -21 25z" />
<glyph unicode="&#xbe;" horiz-adv-x="1207" d="M50 608q0 24 20 40q10 8 22 8q18 0 53 -48q35 -49 75 -49q57 0 91 77q26 61 26 141q0 84 -38 139q-39 58 -108 58q-34 0 -59 -11q-7 0 -7 27q0 25 7 25q94 0 143 61q37 45 37 116q0 66 -36 103q-26 28 -62 28q-61 0 -107 -89q-1 -2 -4 -2q-11 0 -20 14q-4 6 -4 11 q0 1 1 3q71 131 169 131q60 0 100 -54q42 -55 42 -128q0 -108 -95 -176q-17 -11 -17 -16q0 -7 15 -10q132 -33 132 -213q0 -120 -69 -203q-68 -81 -164 -81q-73 0 -114 35q-29 25 -29 63zM249 74l710 1351q3 6 9 6q8 0 22 -12q23 -19 17 -30l-713 -1354q-6 -11 -28 9.5 t-17 29.5zM713 278q0 7 4 18q6 17 20 42l116 196q7 12 217 392q5 9 21 9q30 0 30 -20l-337 -583q-4 -8 -4 -13q0 -9 14 -9h202q11 0 11 14v288q0 10 40 10t40 -10v-288q0 -14 11 -14h61q9 0 9 -28t-9 -28h-61q-11 0 -11 -13v-158q0 -51 62 -51q8 0 8 -18.5t-8 -18.5 q-40 5 -112 5t-112 -5q-7 0 -7 18.5t7 18.5q82 0 82 51v158q0 13 -11 13h-248q-35 0 -35 24z" />
<glyph unicode="&#xbf;" horiz-adv-x="601" d="M120 -94q0 144 65 188l133 88q59 39 59 90q0 56 -16 125q0 18 20 20l12 -2q3 -2 4 -5q60 -138 60 -211q0 -93 -91 -152l-84 -55q-93 -62 -93 -152q0 -84 39 -129q58 -67 184 -69h10q24 0 44 -39q11 -24 11 -47q0 -82 -67 -82q-102 0 -196 133t-94 299zM278 750 q0 71 47 102q21 14 49 14q52 0 80 -50q15 -29 15 -66q0 -69 -41 -106q-24 -21 -54 -21q-52 0 -80 56q-16 32 -16 71z" />
<glyph unicode="&#xc0;" horiz-adv-x="1118" d="M-4 31q0 38 11 38q78 0 103.5 28t52.5 104l302 987q5 17 5 30t-10.5 26.5t-10.5 19.5t31.5 27.5t74 58.5t51.5 37q19 0 28 -44q21 -97 40 -166l266 -991q31 -117 154 -117q10 0 10 -38t-10 -38q-59 7 -185.5 7t-183.5 -7q-11 0 -11 38t11 38q79 0 79 68q0 23 -6 49 l-81 313q-7 32 -35 32h-326q-22 0 -32 -35l-90 -314q-8 -22 -8 -40q0 -73 121 -73q11 0 11 -38t-11 -38q-68 7 -170.5 7t-169.5 -7q-11 0 -11 38zM279 1809.5q0 21.5 22 58t37 36.5t24 -7l330 -299q20 -16 20 -30.5t-7 -29t-20.5 -14.5t-29.5 11l-359 241q-17 12 -17 33.5z M358 616q0 -16 20 -16h287q20 0 20 16q0 5 -2 11l-136 532q-5 20 -14 20t-15 -20l-158 -532q-2 -5 -2 -11z" />
<glyph unicode="&#xc1;" horiz-adv-x="1118" d="M-4 31q0 38 11 38q78 0 103.5 28t52.5 104l302 987q5 17 5 30t-10.5 26.5t-10.5 19.5t31.5 27.5t74 58.5t51.5 37q19 0 28 -44q21 -97 40 -166l266 -991q31 -117 154 -117q10 0 10 -38t-10 -38q-59 7 -185.5 7t-183.5 -7q-11 0 -11 38t11 38q79 0 79 68q0 23 -6 49 l-81 313q-7 32 -35 32h-326q-22 0 -32 -35l-90 -314q-8 -22 -8 -40q0 -73 121 -73q11 0 11 -38t-11 -38q-68 7 -170.5 7t-169.5 -7q-11 0 -11 38zM358 616q0 -16 20 -16h287q20 0 20 16q0 5 -2 11l-136 532q-5 20 -14 20t-15 -20l-158 -532q-2 -5 -2 -11zM413 1567.5 q0 14.5 20 30.5l331 299q8 7 23 7t37.5 -36.5t22.5 -57.5t-18 -34l-359 -241q-15 -11 -28.5 -11t-21 14.5t-7.5 29z" />
<glyph unicode="&#xc2;" horiz-adv-x="1118" d="M-4 31q0 38 11 38q78 0 103.5 28t52.5 104l302 987q5 17 5 30t-10.5 26.5t-10.5 19.5t31.5 27.5t74 58.5t51.5 37q19 0 28 -44q21 -97 40 -166l266 -991q31 -117 154 -117q10 0 10 -38t-10 -38q-59 7 -185.5 7t-183.5 -7q-11 0 -11 38t11 38q79 0 79 68q0 23 -6 49 l-81 313q-7 32 -35 32h-326q-22 0 -32 -35l-90 -314q-8 -22 -8 -40q0 -73 121 -73q11 0 11 -38t-11 -38q-68 7 -170.5 7t-169.5 -7q-11 0 -11 38zM316 1547q0 6 4 10l208 250q17 22 35 22t36 -22l208 -250q2 -3 2 -8.5t-6 -14t-12 -8.5q-2 0 -4 1l-197 139q-14 9 -27 9 q-14 0 -27 -9l-193 -139q-3 -2 -6 -2q-7 0 -14 8t-7 14zM358 616q0 -16 20 -16h287q20 0 20 16q0 5 -2 11l-136 532q-5 20 -14 20t-15 -20l-158 -532q-2 -5 -2 -11z" />
<glyph unicode="&#xc3;" horiz-adv-x="1118" d="M-4 31q0 38 11 38q78 0 103.5 28t52.5 104l302 987q5 17 5 30t-10.5 26.5t-10.5 19.5t31.5 27.5t74 58.5t51.5 37q19 0 28 -44q21 -97 40 -166l266 -991q31 -117 154 -117q10 0 10 -38t-10 -38q-59 7 -185.5 7t-183.5 -7q-11 0 -11 38t11 38q79 0 79 68q0 23 -6 49 l-81 313q-7 32 -35 32h-326q-22 0 -32 -35l-90 -314q-8 -22 -8 -40q0 -73 121 -73q11 0 11 -38t-11 -38q-68 7 -170.5 7t-169.5 -7q-11 0 -11 38zM298 1571q0 2 1 4q23 43 40 68.5t54 53t74 27.5t108 -31.5t99 -31.5q49 0 106 72q2 2 5 2q4 0 10 -6q8 -8 8 -15q0 -2 -1 -4 q-84 -158 -171 -158q-37 0 -110 33t-114 33t-87 -64q-2 -3 -5 -3q-4 0 -10 6q-7 7 -7 14zM358 616q0 -16 20 -16h287q20 0 20 16q0 5 -2 11l-136 532q-5 20 -14 20t-15 -20l-158 -532q-2 -5 -2 -11z" />
<glyph unicode="&#xc4;" horiz-adv-x="1118" d="M-4 31q0 38 11 38q78 0 103.5 28t52.5 104l302 987q5 17 5 30t-10.5 26.5t-10.5 19.5t31.5 27.5t74 58.5t51.5 37q19 0 28 -44q21 -97 40 -166l266 -991q31 -117 154 -117q10 0 10 -38t-10 -38q-59 7 -185.5 7t-183.5 -7q-11 0 -11 38t11 38q79 0 79 68q0 23 -6 49 l-81 313q-7 32 -35 32h-326q-22 0 -32 -35l-90 -314q-8 -22 -8 -40q0 -73 121 -73q11 0 11 -38t-11 -38q-68 7 -170.5 7t-169.5 -7q-11 0 -11 38zM297 1658q0 44 25 75t60 31t60 -31t25 -75t-25 -75.5t-60 -31.5t-60 31.5t-25 75.5zM358 616q0 -16 20 -16h287q20 0 20 16 q0 5 -2 11l-136 532q-5 20 -14 20t-15 -20l-158 -532q-2 -5 -2 -11zM650 1658q0 44 25 75t60.5 31t60.5 -31t25 -75t-25 -75.5t-60.5 -31.5t-60.5 31.5t-25 75.5z" />
<glyph unicode="&#xc5;" horiz-adv-x="1118" d="M-3 31q0 38 10 38q68 0 100 25.5t56 106.5l349 1142q-98 42 -98 170q0 86 50.5 133.5t114.5 47.5t103.5 -59t39.5 -122q0 -117 -89 -164q10 -58 41 -172l266 -991q31 -117 154 -117q10 0 10 -38t-10 -38q-59 7 -185.5 7t-183.5 -7q-11 0 -11 38t11 38q79 0 79 68 q0 23 -6 49l-81 313q-7 32 -35 32h-326q-22 0 -32 -35l-90 -314q-8 -22 -8 -40q0 -73 121 -73q11 0 11 -38t-11 -38q-64 7 -172 7t-168 -7q-10 0 -10 38zM358 614q0 -14 20 -14h287q19 0 19 14q0 7 -2 13l-135 532q-5 20 -14 20t-15 -20l-158 -532q-2 -5 -2 -13zM486 1513 q0 -60 25 -89.5t58 -29.5q39 0 59 36t20 83q0 53 -22 85.5t-57 32.5q-42 0 -62.5 -38.5t-20.5 -79.5z" />
<glyph unicode="&#xc6;" horiz-adv-x="1393" d="M-101 31q0 38 11 38q96 0 142 103l462 1024q12 28 12 45q0 41 -66 41q-10 0 -10 38t10 38q111 -6 219.5 -6t264.5 3t266 3q38 0 46 -7t8 -26v-319q0 -13 -30 -13t-30 13q0 132 -67 203.5t-143 73.5l-215 6q-33 1 -33 -40v-538q0 -35 28 -35h171q81 0 81 93v95 q0 13 27.5 13t27.5 -13q-5 -57 -5 -216.5t5 -211.5q0 -13 -27.5 -13t-27.5 13v84q0 87 -81 87h-171q-28 0 -28 -34v-273q0 -122 41.5 -181t93.5 -57l190 7q72 3 135.5 77t63.5 198q0 18 30 18t30 -18v-325q0 -26 -80 -26q-84 0 -268 3.5t-291 3.5t-209 -7q-10 0 -10 38 t10 38q136 0 136 108v396q0 34 -26 34h-254q-23 0 -32 -24l-168 -415q-10 -24 -10 -40q0 -59 122 -59q11 0 11 -38t-11 -38q-60 7 -168 7t-172 -7q-11 0 -11 38zM358 690q0 -14 18 -14h216q26 0 26 35v479q0 27 -15 27q-16 0 -24 -21l-217 -491q-4 -7 -4 -15z" />
<glyph unicode="&#xc7;" horiz-adv-x="1075" d="M73 647q0 223 76 387.5t198.5 257.5t301.5 93q89 0 215 -30l17 -4q101 -24 103 -24q23 -134 23 -311q-3 -16 -28 -16t-27 14q-22 300 -326 300q-163 0 -281.5 -184t-118.5 -423q0 -283 116 -471t282 -188q283 0 362 269q3 11 22.5 11t27.5 -8q3 -3 3 -14 q-30 -191 -72 -270q-25 -4 -61 -17q-118 -46 -301 -46q-143 0 -264 86t-194.5 237.5t-73.5 350.5zM420 -393q0 53 41 53q19 0 46 -28q29 -31 41 -31q44 0 44 63q0 80 -108 142l99 182h58l-57 -98q102 -78 102 -174q0 -83 -62 -137q-48 -44 -108 -44q-96 0 -96 72z" />
<glyph unicode="&#xc8;" horiz-adv-x="988" d="M56 30.5q0 37.5 11 38.5q150 0 150 108v995q0 110 -150 110q-11 0 -11 38t11 38q112 -6 216.5 -6t280.5 3t250 3q40 0 48.5 -7t8.5 -20v-321q0 -17 -30 -17t-30 17q0 266 -206 272l-227 7q-33 1 -33 -48v-532q0 -33 22 -33h165q62 0 78 29t16 88v74q0 13 28 13.5 t28 -13.5q-7 -71 -7 -214t7 -223q0 -13 -28 -13.5t-28 13.5v82q0 43 -15.5 69t-78.5 26h-167q-20 0 -20 -31v-314q0 -113 52 -168q30 -32 73 -32l188 7q207 8 207 271q0 17 30 17t30 -17v-317q0 -25 -23 -28q-12 -2 -36 -2q-92 0 -284 3.5t-295 3.5t-220 -7q-11 0 -11 37.5z M291 1809.5q0 21.5 22 58t37 36.5t23 -7l331 -299q19 -17 19 -31t-7 -28.5t-20.5 -14.5t-29.5 11l-358 241q-17 12 -17 33.5z" />
<glyph unicode="&#xc9;" horiz-adv-x="988" d="M56 30.5q0 37.5 11 38.5q150 0 150 108v995q0 110 -150 110q-11 0 -11 38t11 38q112 -6 216.5 -6t280.5 3t250 3q40 0 48.5 -7t8.5 -20v-321q0 -17 -30 -17t-30 17q0 266 -206 272l-227 7q-33 1 -33 -48v-532q0 -33 22 -33h165q62 0 78 29t16 88v74q0 13 28 13.5 t28 -13.5q-7 -71 -7 -214t7 -223q0 -13 -28 -13.5t-28 13.5v82q0 43 -15.5 69t-78.5 26h-167q-20 0 -20 -31v-314q0 -113 52 -168q30 -32 73 -32l188 7q207 8 207 271q0 17 30 17t30 -17v-317q0 -25 -23 -28q-12 -2 -36 -2q-92 0 -284 3.5t-295 3.5t-220 -7q-11 0 -11 37.5z M348 1567.5q0 14.5 19 30.5l331 299q8 7 23.5 7t37.5 -36.5t22 -57.5t-17 -34l-359 -241q-16 -11 -29.5 -11t-20.5 14.5t-7 29z" />
<glyph unicode="&#xca;" horiz-adv-x="988" d="M56 30.5q0 37.5 11 38.5q150 0 150 108v995q0 110 -150 110q-11 0 -11 38t11 38q112 -6 216.5 -6t280.5 3t250 3q40 0 48.5 -7t8.5 -20v-321q0 -17 -30 -17t-30 17q0 266 -206 272l-227 7q-33 1 -33 -48v-532q0 -33 22 -33h165q62 0 78 29t16 88v74q0 13 28 13.5 t28 -13.5q-7 -71 -7 -214t7 -223q0 -13 -28 -13.5t-28 13.5v82q0 43 -15.5 69t-78.5 26h-167q-20 0 -20 -31v-314q0 -113 52 -168q30 -32 73 -32l188 7q207 8 207 271q0 17 30 17t30 -17v-317q0 -25 -23 -28q-12 -2 -36 -2q-92 0 -284 3.5t-295 3.5t-220 -7q-11 0 -11 37.5z M259 1547q0 6 3 10l208 250q18 22 35 22q18 0 36 -22l208 -250q3 -3 3 -8.5t-6 -14t-13 -8.5q-2 0 -4 1l-196 139q-14 9 -28 9q-13 0 -26 -9l-194 -139q-3 -2 -6 -2q-7 0 -13.5 8t-6.5 14z" />
<glyph unicode="&#xcb;" horiz-adv-x="988" d="M56 30.5q0 37.5 11 38.5q150 0 150 108v995q0 110 -150 110q-11 0 -11 38t11 38q112 -6 216.5 -6t280.5 3t250 3q40 0 48.5 -7t8.5 -20v-321q0 -17 -30 -17t-30 17q0 266 -206 272l-227 7q-33 1 -33 -48v-532q0 -33 22 -33h165q62 0 78 29t16 88v74q0 13 28 13.5 t28 -13.5q-7 -71 -7 -214t7 -223q0 -13 -28 -13.5t-28 13.5v82q0 43 -15.5 69t-78.5 26h-167q-20 0 -20 -31v-314q0 -113 52 -168q30 -32 73 -32l188 7q207 8 207 271q0 17 30 17t30 -17v-317q0 -25 -23 -28q-12 -2 -36 -2q-92 0 -284 3.5t-295 3.5t-220 -7q-11 0 -11 37.5z M239 1658q0 44 25 75t60.5 31t60.5 -31t25 -75t-25 -75.5t-60.5 -31.5t-60.5 31.5t-25 75.5zM592 1658q0 44 25.5 75t60.5 31t60 -31t25 -75t-25 -75.5t-60 -31.5t-60.5 31.5t-25.5 75.5z" />
<glyph unicode="&#xcc;" horiz-adv-x="546" d="M-17 1809.5q0 21.5 22 58t37 36.5t24 -7l330 -299q20 -16 20 -30.5t-7 -29t-20.5 -14.5t-29.5 11l-359 241q-17 12 -17 33.5zM54 1325q0 38 12 38q36 -5 211.5 -5t211.5 5q10 0 10 -38t-10 -38q-84 0 -114 -25t-30 -90v-986q0 -117 144 -117q10 0 10 -38t-10 -38 q-69 7 -207.5 7t-207.5 -7q-10 0 -10 38t10 38q143 0 143 117v986q0 115 -151 115q-12 0 -12 38z" />
<glyph unicode="&#xcd;" horiz-adv-x="546" d="M54 1325q0 38 12 38q36 -5 211.5 -5t211.5 5q10 0 10 -38t-10 -38q-84 0 -114 -25t-30 -90v-986q0 -117 144 -117q10 0 10 -38t-10 -38q-69 7 -207.5 7t-207.5 -7q-10 0 -10 38t10 38q143 0 143 117v986q0 115 -151 115q-12 0 -12 38zM176 1567.5q0 14.5 19 30.5l331 299 q8 7 23.5 7t37.5 -36.5t22 -57.5t-17 -34l-359 -241q-16 -11 -29.5 -11t-20.5 14.5t-7 29z" />
<glyph unicode="&#xce;" horiz-adv-x="546" d="M27 1547q0 6 3 10l208 250q18 22 35 22q18 0 36 -22l208 -250q3 -3 3 -8.5t-6 -14t-13 -8.5q-2 0 -4 1l-196 139q-14 9 -28 9q-13 0 -26 -9l-194 -139q-3 -2 -6 -2q-7 0 -13.5 8t-6.5 14zM54 1325q0 38 12 38q36 -5 211.5 -5t211.5 5q10 0 10 -38t-10 -38q-84 0 -114 -25 t-30 -90v-986q0 -117 144 -117q10 0 10 -38t-10 -38q-69 7 -207.5 7t-207.5 -7q-10 0 -10 38t10 38q143 0 143 117v986q0 115 -151 115q-12 0 -12 38z" />
<glyph unicode="&#xcf;" horiz-adv-x="546" d="M15 1658q0 44 25 75t60.5 31t60.5 -31t25 -75t-25 -75.5t-60.5 -31.5t-60.5 31.5t-25 75.5zM54 1325q0 38 12 38q36 -5 211.5 -5t211.5 5q10 0 10 -38t-10 -38q-84 0 -114 -25t-30 -90v-986q0 -117 144 -117q10 0 10 -38t-10 -38q-69 7 -207.5 7t-207.5 -7q-10 0 -10 38 t10 38q143 0 143 117v986q0 115 -151 115q-12 0 -12 38zM368 1658q0 44 25.5 75t60.5 31t60 -31t25 -75t-25 -75.5t-60 -31.5t-60.5 31.5t-25.5 75.5z" />
<glyph unicode="&#xd0;" horiz-adv-x="1220" d="M42 672q0 38 10 38h138q27 0 27 35v427q0 110 -151 110q-12 0 -12 38t12 38q112 -6 190.5 -6t163.5 3t142 3q243 0 413.5 -164t170.5 -465q0 -349 -155 -542.5t-390 -193.5q-55 0 -161 3.5t-185 3.5t-182 -7q-11 0 -11 38t11 38q144 0 144 117v414q0 34 -27 34h-138 q-10 0 -10 38zM345 298q0 -142 41.5 -193.5t159.5 -51.5q194 0 320.5 178t126.5 485q0 240 -136 410.5t-360 170.5q-96 0 -124 -23.5t-28 -92.5v-436q0 -35 28 -35h177q10 0 10 -38t-10 -38h-177q-28 0 -28 -34v-302z" />
<glyph unicode="&#xd1;" horiz-adv-x="1185" d="M45 1325q0 38 10 38q35 -5 119 -5t110 -7.5t47 -41.5l607 -977q8 -13 19 -13q18 0 18 33v819q0 116 -137 116q-11 0 -11 38t11 38q37 -5 150.5 -5t149.5 5q11 0 11 -38t-11 -38q-108 0 -108 -116v-1142q0 -50 -14 -50t-34 30l-693 1095q-9 13 -18 13t-9 -18v-913 q0 -117 128 -117q10 0 10 -38t-10 -38q-65 7 -158.5 7t-159.5 -7q-11 0 -11 38t11 38q134 0 134 117v924q0 101 -36.5 139t-114.5 38q-10 0 -10 38zM341 1571q0 2 1 4q23 43 40 68.5t54 53t74 27.5t108 -31.5t99 -31.5q49 0 107 72q1 2 4 2q4 0 10 -6q8 -8 8 -15q0 -2 -1 -4 q-84 -158 -171 -158q-37 0 -110 33t-114 33t-87 -64q-2 -3 -5 -3q-4 0 -10 6q-7 7 -7 14z" />
<glyph unicode="&#xd2;" horiz-adv-x="1168" d="M73 667q0 263 140.5 490.5t378.5 227.5q213 0 363.5 -208t150.5 -514q0 -256 -139 -473t-379 -217q-232 0 -373.5 205t-141.5 489zM226 726q0 -310 119.5 -494t253.5 -184q170 0 262.5 173t92.5 426q0 279 -116.5 473t-255.5 194q-168 0 -262 -181t-94 -407zM279 1809.5 q0 21.5 22 58t37 36.5t24 -7l330 -299q20 -16 20 -30.5t-7 -29t-20.5 -14.5t-29.5 11l-359 241q-17 12 -17 33.5z" />
<glyph unicode="&#xd3;" horiz-adv-x="1168" d="M73 667q0 263 140.5 490.5t378.5 227.5q213 0 363.5 -208t150.5 -514q0 -256 -139 -473t-379 -217q-232 0 -373.5 205t-141.5 489zM226 726q0 -310 119.5 -494t253.5 -184q170 0 262.5 173t92.5 426q0 279 -116.5 473t-255.5 194q-168 0 -262 -181t-94 -407zM500 1567.5 q0 14.5 19 30.5l331 299q8 7 23.5 7t37.5 -36.5t22 -57.5t-17 -34l-359 -241q-16 -11 -29.5 -11t-20.5 14.5t-7 29z" />
<glyph unicode="&#xd4;" horiz-adv-x="1168" d="M73 667q0 263 140.5 490.5t378.5 227.5q213 0 363.5 -208t150.5 -514q0 -256 -139 -473t-379 -217q-232 0 -373.5 205t-141.5 489zM226 726q0 -310 119.5 -494t253.5 -184q170 0 262.5 173t92.5 426q0 279 -116.5 473t-255.5 194q-168 0 -262 -181t-94 -407zM343 1547 q0 6 3 10l208 250q18 22 35 22q18 0 36 -22l208 -250q3 -3 3 -8.5t-6 -14t-13 -8.5q-2 0 -4 1l-196 139q-14 9 -28 9q-13 0 -26 -9l-194 -139q-3 -2 -6 -2q-7 0 -13.5 8t-6.5 14z" />
<glyph unicode="&#xd5;" horiz-adv-x="1168" d="M73 667q0 263 140.5 490.5t378.5 227.5q213 0 363.5 -208t150.5 -514q0 -256 -139 -473t-379 -217q-232 0 -373.5 205t-141.5 489zM226 726q0 -310 119.5 -494t253.5 -184q170 0 262.5 173t92.5 426q0 279 -116.5 473t-255.5 194q-168 0 -262 -181t-94 -407zM317 1571 q0 2 1 4q23 43 40 68.5t54 53t74 27.5t108 -31.5t99 -31.5q49 0 107 72q1 2 4 2q4 0 10 -6q8 -8 8 -15q0 -2 -1 -4q-84 -158 -171 -158q-37 0 -110 33t-114 33t-87 -64q-2 -3 -5 -3q-4 0 -10 6q-7 7 -7 14z" />
<glyph unicode="&#xd6;" horiz-adv-x="1168" d="M73 667q0 263 140.5 490.5t378.5 227.5q213 0 363.5 -208t150.5 -514q0 -256 -139 -473t-379 -217q-232 0 -373.5 205t-141.5 489zM226 726q0 -310 119.5 -494t253.5 -184q170 0 262.5 173t92.5 426q0 279 -116.5 473t-255.5 194q-168 0 -262 -181t-94 -407zM331 1658 q0 44 25 75t60.5 31t60.5 -31t25 -75t-25 -75.5t-60.5 -31.5t-60.5 31.5t-25 75.5zM684 1658q0 44 25.5 75t60.5 31t60 -31t25 -75t-25 -75.5t-60 -31.5t-60.5 31.5t-25.5 75.5z" />
<glyph unicode="&#xd7;" horiz-adv-x="628" d="M56 98l193 244l-193 242l69 86l193 -244l195 244l67 -86l-194 -242l194 -244l-67 -86l-195 244l-193 -244z" />
<glyph unicode="&#xd8;" horiz-adv-x="1168" d="M73 667q0 263 140.5 490.5t378.5 227.5q213 0 363.5 -208t150.5 -514q0 -256 -139 -473t-379 -217q-232 0 -373.5 205t-141.5 489zM132 46q0 3 1 4l856 1275q3 4 8 4q9 0 25 -17q22 -21 22 -35q0 -4 -2 -8l-856 -1275q-3 -3 -6 -3q-10 0 -30 22q-18 24 -18 33zM226 726 q0 -310 119.5 -494t253.5 -184q170 0 262.5 173t92.5 426q0 279 -116.5 473t-255.5 194q-168 0 -262 -181t-94 -407z" />
<glyph unicode="&#xd9;" horiz-adv-x="1197" d="M46 1325q0 38 11 38q35 -5 220.5 -5t222.5 5q10 0 10 -38t-10 -38q-165 0 -165 -115v-631q0 -301 83.5 -397t207.5 -96q155 0 236 100.5t81 338.5v685q0 115 -150 115q-11 0 -11 38t11 38q36 -5 191 -5t191 5q11 0 11 -38t-11 -38q-144 0 -144 -115v-443q0 -353 -42 -476 t-132.5 -201.5t-250.5 -78.5q-152 0 -240 62.5t-124.5 188t-36.5 315.5v633q0 115 -148 115q-11 0 -11 38zM299 1809.5q0 21.5 22 58t37 36.5t24 -7l330 -299q20 -16 20 -30.5t-7 -29t-20.5 -14.5t-29.5 11l-359 241q-17 12 -17 33.5z" />
<glyph unicode="&#xda;" horiz-adv-x="1197" d="M46 1325q0 38 11 38q35 -5 220.5 -5t222.5 5q10 0 10 -38t-10 -38q-165 0 -165 -115v-631q0 -301 83.5 -397t207.5 -96q155 0 236 100.5t81 338.5v685q0 115 -150 115q-11 0 -11 38t11 38q36 -5 191 -5t191 5q11 0 11 -38t-11 -38q-144 0 -144 -115v-443q0 -353 -42 -476 t-132.5 -201.5t-250.5 -78.5q-152 0 -240 62.5t-124.5 188t-36.5 315.5v633q0 115 -148 115q-11 0 -11 38zM508 1567.5q0 14.5 19 30.5l331 299q8 7 23.5 7t37.5 -36.5t22 -57.5t-17 -34l-359 -241q-16 -11 -29.5 -11t-20.5 14.5t-7 29z" />
<glyph unicode="&#xdb;" horiz-adv-x="1197" d="M46 1325q0 38 11 38q35 -5 220.5 -5t222.5 5q10 0 10 -38t-10 -38q-165 0 -165 -115v-631q0 -301 83.5 -397t207.5 -96q155 0 236 100.5t81 338.5v685q0 115 -150 115q-11 0 -11 38t11 38q36 -5 191 -5t191 5q11 0 11 -38t-11 -38q-144 0 -144 -115v-443q0 -353 -42 -476 t-132.5 -201.5t-250.5 -78.5q-152 0 -240 62.5t-124.5 188t-36.5 315.5v633q0 115 -148 115q-11 0 -11 38zM371 1547q0 6 3 10l208 250q18 22 35 22q18 0 36 -22l208 -250q3 -3 3 -8.5t-6 -14t-13 -8.5q-2 0 -4 1l-196 139q-14 9 -28 9q-13 0 -26 -9l-194 -139q-3 -2 -6 -2 q-7 0 -13.5 8t-6.5 14z" />
<glyph unicode="&#xdc;" horiz-adv-x="1197" d="M46 1325q0 38 11 38q35 -5 220.5 -5t222.5 5q10 0 10 -38t-10 -38q-165 0 -165 -115v-631q0 -301 83.5 -397t207.5 -96q155 0 236 100.5t81 338.5v685q0 115 -150 115q-11 0 -11 38t11 38q36 -5 191 -5t191 5q11 0 11 -38t-11 -38q-144 0 -144 -115v-443q0 -353 -42 -476 t-132.5 -201.5t-250.5 -78.5q-152 0 -240 62.5t-124.5 188t-36.5 315.5v633q0 115 -148 115q-11 0 -11 38zM377 1658q0 44 25 75t60 31t60 -31t25 -75t-25 -75.5t-60 -31.5t-60 31.5t-25 75.5zM730 1658q0 44 25 75t60.5 31t60.5 -31t25 -75t-25 -75.5t-60.5 -31.5 t-60.5 31.5t-25 75.5z" />
<glyph unicode="&#xdd;" horiz-adv-x="988" d="M-21 1325q0 38 11 38q35 -5 189 -5t191 5q11 0 11 -38t-11 -38q-96 0 -96 -57q0 -23 16 -58l225 -472q7 -14 13 -14t13 14l238 463q22 42 22 71q0 53 -89 53q-11 0 -11 38t11 38q36 -5 158 -5t158 5q10 0 10 -38t-10 -38q-111 0 -168 -109l-247 -473 q-53 -100 -57.5 -129.5t-4.5 -86.5v-303q0 -117 131 -117q11 0 11 -38t-11 -38q-60 7 -195 7t-195 -7q-10 0 -10 38t10 38q131 0 131 117v301q0 101 -22 147l-261 538q-56 115 -150 115q-11 0 -11 38zM408 1567.5q0 14.5 19 30.5l331 299q8 7 23.5 7t37.5 -36.5t22 -57.5 t-17 -34l-359 -241q-16 -11 -29.5 -11t-20.5 14.5t-7 29z" />
<glyph unicode="&#xde;" horiz-adv-x="925" d="M24.5 1279q-0.5 38 10.5 38q79 0 220 61q20 7 31 7q24 0 24 -40q-6 -89 -6 -157v-51q0 -31 12 -31q8 0 19 10q55 46 89 80.5t78 82.5t93 48t70 -20q95 -92 143 -245.5t48 -320.5q0 -258 -147 -487t-374 -271q-30 -6 -31 -45v-213q0 -58 -69 -124l-120 -117q-4 -4 -11 -4 q-25 0 -43.5 30.5t-18.5 45t5 20.5l87 90q42 43 42 101v1339q0 135 -141 135q-10 0 -10.5 38zM304 90q0 -31 22 -32q166 0 271.5 215.5t105.5 467.5q0 121 -56.5 295.5t-116.5 174.5q-14 0 -28 -15q-86 -95 -117 -122t-56 -44.5t-25 -45.5v-894z" />
<glyph unicode="&#xdf;" horiz-adv-x="868" d="M58 20.5q0 28.5 11 28.5q93 0 93 76v567q0 21 -20 21h-68q-12 0 -12 27.5t12 27.5q47 0 72 66q16 41 16 90q0 254 113 408.5t264 154.5q102 0 167.5 -83.5t65.5 -203.5q0 -127 -121 -259.5t-121 -213.5q0 -49 20 -86t106 -91t125.5 -118t39.5 -166q0 -138 -69.5 -214.5 t-163.5 -76.5q-62 0 -133 60q-13 57 -13 162q0 14 16.5 14t21.5 -14q0 -66 41 -112t89 -46q47 0 82 52.5t35 103.5q0 133 -98 199t-144.5 127t-46.5 157t50 158l79 96q58 70 73 128.5t15 125.5q0 103 -48.5 161t-123.5 58q-89 0 -137 -71.5t-55.5 -172.5t-7.5 -260v-774 q0 -78 100 -78q11 0 11 -28.5t-11 -28.5q-64 8 -156.5 8t-157.5 -8q-11 0 -11 28.5z" />
<glyph unicode="&#xe0;" horiz-adv-x="637" d="M59 609q0 56 32.5 112.5t55.5 73.5q103 75 197 75q57 0 110 -40t53 -99v-532q0 -115 54 -115q15 0 57 37q3 2 6 2q17 -3 23 -30q0 -3 -1 -5q-32 -69 -60 -90t-74 -21q-84 0 -114 136q-60 -76 -96 -106t-106 -30q-45 0 -74.5 31t-42 71.5t-12.5 82.5q0 41 16 82t47 73.5 t53 47.5l186 129q16 11 16 32v181q0 88 -107 88q-77 0 -108 -50q-4 -7 -12 -93q-9 -99 -55 -99q-44 0 -44 56zM177 1335q0 26 32 45q17 11 32 11q20 0 25 -16l106 -294q3 -11 3 -20q0 -39 -28 -39q-18 0 -33 29l-134 271q-3 5 -3 13zM190 188q0 -49 25 -79.5t70 -30.5 q32 0 66 42.5t34 78.5v215q0 22 -11 22q-6 0 -48 -26q-136 -86 -136 -222z" />
<glyph unicode="&#xe1;" horiz-adv-x="637" d="M59 609q0 56 32.5 112.5t55.5 73.5q103 75 197 75q57 0 110 -40t53 -99v-532q0 -115 54 -115q15 0 57 37q3 2 6 2q17 -3 23 -30q0 -3 -1 -5q-32 -69 -60 -90t-74 -21q-84 0 -114 136q-60 -76 -96 -106t-106 -30q-45 0 -74.5 31t-42 71.5t-12.5 82.5q0 41 16 82t47 73.5 t53 47.5l186 129q16 11 16 32v181q0 88 -107 88q-77 0 -108 -50q-4 -7 -12 -93q-9 -99 -55 -99q-44 0 -44 56zM190 188q0 -49 25 -79.5t70 -30.5q32 0 66 42.5t34 78.5v215q0 22 -11 22q-6 0 -48 -26q-136 -86 -136 -222zM277 1059q0 12 4 22l108 307q4 13 20 13 q27 0 56 -29q16 -16 16 -29q0 -3 -2 -7l-143 -285q-15 -29 -33 -29q-26 0 -26 37z" />
<glyph unicode="&#xe2;" horiz-adv-x="637" d="M59 609q0 56 32.5 112.5t55.5 73.5q103 75 197 75q57 0 110 -40t53 -99v-532q0 -115 54 -115q15 0 57 37q3 2 6 2q17 -3 23 -30q0 -3 -1 -5q-32 -69 -60 -90t-74 -21q-84 0 -114 136q-60 -76 -96 -106t-106 -30q-45 0 -74.5 31t-42 71.5t-12.5 82.5q0 41 16 82t47 73.5 t53 47.5l186 129q16 11 16 32v181q0 88 -107 88q-77 0 -108 -50q-4 -7 -12 -93q-9 -99 -55 -99q-44 0 -44 56zM114 1045l169 375q13 28 31 28q17 0 30 -28l169 -375q0 -23 -23 -23q-2 0 -5 4l-147 217q-17 25 -24 25t-24 -25l-148 -217q-2 -4 -6 -4q-22 0 -22 23zM190 188 q0 -49 25 -79.5t70 -30.5q32 0 66 42.5t34 78.5v215q0 22 -11 22q-6 0 -48 -26q-136 -86 -136 -222z" />
<glyph unicode="&#xe3;" horiz-adv-x="637" d="M59 609q0 56 32.5 112.5t55.5 73.5q103 75 197 75q57 0 110 -40t53 -99v-532q0 -115 54 -115q15 0 57 37q3 2 6 2q17 -3 23 -30q0 -3 -1 -5q-32 -69 -60 -90t-74 -21q-84 0 -114 136q-60 -76 -96 -106t-106 -30q-45 0 -74.5 31t-42 71.5t-12.5 82.5q0 41 16 82t47 73.5 t53 47.5l186 129q16 11 16 32v181q0 88 -107 88q-77 0 -108 -50q-4 -7 -12 -93q-9 -99 -55 -99q-44 0 -44 56zM59 1068q0 1 1 2q73 143 160 143q36 0 110 -33q58 -26 85 -26q45 0 100 68q1 1 2 1q4 0 12 -8q8 -9 8 -20q0 -4 -1 -8q-11 -41 -69 -90q-57 -47 -93 -47 q-39 0 -110 34q-60 29 -93 29q-43 0 -92 -61q-3 -4 -6.5 -4t-6.5 4q-7 11 -7 16zM190 188q0 -49 25 -79.5t70 -30.5q32 0 66 42.5t34 78.5v215q0 22 -11 22q-6 0 -48 -26q-136 -86 -136 -222z" />
<glyph unicode="&#xe4;" horiz-adv-x="637" d="M59 609q0 56 32.5 112.5t55.5 73.5q103 75 197 75q57 0 110 -40t53 -99v-532q0 -115 54 -115q15 0 57 37q3 2 6 2q17 -3 23 -30q0 -3 -1 -5q-32 -69 -60 -90t-74 -21q-84 0 -114 136q-60 -76 -96 -106t-106 -30q-45 0 -74.5 31t-42 71.5t-12.5 82.5q0 41 16 82t47 73.5 t53 47.5l186 129q16 11 16 32v181q0 88 -107 88q-77 0 -108 -50q-4 -7 -12 -93q-9 -99 -55 -99q-44 0 -44 56zM76 1156q0 45 25 76.5t60.5 31.5t61 -31.5t25.5 -76.5t-25.5 -76.5t-61 -31.5t-60.5 31.5t-25 76.5zM190 188q0 -49 25 -79.5t70 -30.5q32 0 66 42.5t34 78.5v215 q0 22 -11 22q-6 0 -48 -26q-136 -86 -136 -222zM381 1156q0 45 25 76.5t60.5 31.5t61 -31.5t25.5 -76.5t-25.5 -76.5t-61 -31.5t-60.5 31.5t-25 76.5z" />
<glyph unicode="&#xe5;" horiz-adv-x="637" d="M59 609q0 56 32.5 112.5t55.5 73.5q103 75 197 75q57 0 110 -40t53 -99v-532q0 -115 54 -115q15 0 57 37q3 2 6 2q17 -3 23 -30q0 -3 -1 -5q-32 -69 -60 -90t-74 -21q-84 0 -114 136q-60 -76 -96 -106t-106 -30q-45 0 -74.5 31t-42 71.5t-12.5 82.5q0 41 16 82t47 73.5 t53 47.5l186 129q16 11 16 32v181q0 88 -107 88q-77 0 -108 -50q-4 -7 -12 -93q-9 -99 -55 -99q-44 0 -44 56zM145 1165q0 96 62 153q44 41 102 41q75 0 123 -66q40 -61 40 -128q0 -91 -57 -149q-46 -46 -106 -46q-84 0 -130 75q-31 50 -34 120zM190 188q0 -49 25 -79.5 t70 -30.5q32 0 66 42.5t34 78.5v215q0 22 -11 22q-6 0 -48 -26q-136 -86 -136 -222zM222 1165q0 -71 38 -107q22 -20 49 -20q51 0 75 61q12 29 12 66q0 74 -40 109q-20 18 -47 18q-47 0 -72 -55q-15 -33 -15 -72z" />
<glyph unicode="&#xe6;" horiz-adv-x="916" d="M36 606q0 103 95.5 183.5t185.5 80.5q89 0 138 -84q11 -18 16 -18q6 0 27 23q80 79 171 79t149.5 -42t58.5 -99q0 -34 -28 -51l-333 -172q-28 -14 -28 -104q0 -104 60 -206t140 -102q93 0 167 76q9 11 21 0t12 -20.5t-3 -16.5q-90 -156 -264 -156q-119 0 -191 142 q-12 18 -15 18t-13 -16q-84 -131 -176 -131q-173 0 -173 170q0 110 49 165t160.5 114t111.5 98v112q0 144 -108 144q-85 0 -110 -52q-9 -97 -24 -146q-13 -42 -47 -42q-49 0 -49 53zM175 180q0 -106 92 -106q39 0 83 59t44 86q-6 33 -22 170q-4 35 -17 35q-6 0 -17 -6 q-163 -90 -163 -238zM502 593q0 -22 24 -11l215 108q25 12 25 41t-37 53.5t-64 24.5q-56 0 -96.5 -53.5t-58.5 -122.5q-8 -25 -8 -40z" />
<glyph unicode="&#xe7;" horiz-adv-x="653" d="M69 396q0 185 97.5 329.5t251.5 144.5q157 0 187 -73q5 -12 5 -41q0 -19 -17.5 -46.5t-31.5 -27.5t-22 14q-62 107 -138 107t-139 -102t-63 -261q0 -158 71.5 -254t153.5 -96q61 0 170 62q9 5 20 -15.5t11 -28.5q0 -6 -4 -11q-21 -24 -86 -72t-179 -48q-117 0 -202 117 t-85 302zM162 -381q0 53 41 53q19 0 46 -28q29 -31 41 -31q44 0 44 63q0 80 -108 142l99 182h58l-57 -98q102 -78 102 -174q0 -83 -62 -137q-48 -44 -108 -44q-96 0 -96 72z" />
<glyph unicode="&#xe8;" horiz-adv-x="670" d="M68 431q0 178 91 308.5t203 130.5q113 0 182.5 -98t69.5 -160q0 -63 -40 -63h-360q-24 0 -24 -66q0 -160 61.5 -274.5t169.5 -114.5q81 0 161 60q4 3 8 3q10 0 17 -11q6 -7 6 -21q0 -5 -3 -8q-127 -140 -249 -140q-123 0 -208 138t-85 316zM209 630q0 -14 19 -14h257 q12 0 12 17q0 44 -43.5 111t-91.5 67q-52 0 -89.5 -43.5t-61.5 -122.5q-2 -8 -2 -15zM232 1335q0 26 32 45q17 11 32 11q20 0 25 -16l106 -294q3 -11 3 -20q0 -39 -28 -39q-18 0 -33 29l-134 271q-3 5 -3 13z" />
<glyph unicode="&#xe9;" horiz-adv-x="670" d="M68 431q0 178 91 308.5t203 130.5q113 0 182.5 -98t69.5 -160q0 -63 -40 -63h-360q-24 0 -24 -66q0 -160 61.5 -274.5t169.5 -114.5q81 0 161 60q4 3 8 3q10 0 17 -11q6 -7 6 -21q0 -5 -3 -8q-127 -140 -249 -140q-123 0 -208 138t-85 316zM209 630q0 -14 19 -14h257 q12 0 12 17q0 44 -43.5 111t-91.5 67q-52 0 -89.5 -43.5t-61.5 -122.5q-2 -8 -2 -15zM283 1059q0 12 4 22l108 307q4 13 20 13q27 0 56 -29q16 -16 16 -29q0 -3 -2 -7l-143 -285q-15 -29 -33 -29q-26 0 -26 37z" />
<glyph unicode="&#xea;" horiz-adv-x="670" d="M68 431q0 178 91 308.5t203 130.5q113 0 182.5 -98t69.5 -160q0 -63 -40 -63h-360q-24 0 -24 -66q0 -160 61.5 -274.5t169.5 -114.5q81 0 161 60q4 3 8 3q10 0 17 -11q6 -7 6 -21q0 -5 -3 -8q-127 -140 -249 -140q-123 0 -208 138t-85 316zM164 1045l169 375q13 28 31 28 q17 0 30 -28l169 -375q0 -23 -23 -23q-2 0 -5 4l-147 217q-17 25 -24 25t-24 -25l-148 -217q-2 -4 -6 -4q-22 0 -22 23zM209 630q0 -14 19 -14h257q12 0 12 17q0 44 -43.5 111t-91.5 67q-52 0 -89.5 -43.5t-61.5 -122.5q-2 -8 -2 -15z" />
<glyph unicode="&#xeb;" horiz-adv-x="670" d="M68 431q0 178 91 308.5t203 130.5q113 0 182.5 -98t69.5 -160q0 -63 -40 -63h-360q-24 0 -24 -66q0 -160 61.5 -274.5t169.5 -114.5q81 0 161 60q4 3 8 3q10 0 17 -11q6 -7 6 -21q0 -5 -3 -8q-127 -140 -249 -140q-123 0 -208 138t-85 316zM107 1156q0 45 25 76.5 t60.5 31.5t61 -31.5t25.5 -76.5t-25.5 -76.5t-61 -31.5t-60.5 31.5t-25 76.5zM209 630q0 -14 19 -14h257q12 0 12 17q0 44 -43.5 111t-91.5 67q-52 0 -89.5 -43.5t-61.5 -122.5q-2 -8 -2 -15zM412 1156q0 45 25 76.5t60.5 31.5t61 -31.5t25.5 -76.5t-25.5 -76.5t-61 -31.5 t-60.5 31.5t-25 76.5z" />
<glyph unicode="&#xec;" horiz-adv-x="419" d="M59 20q0 29 11 29q91 0 91 78v405q0 114 -19 146q-15 24 -48 24q-14 0 -14 27q0 29 14 29q47 0 161 114q12 11 19 11q14 0 14 -21q-5 -65 -5 -131v-604q0 -78 91 -78q11 0 11 -28q0 -29 -11 -29q-61 8 -146 8q-93 0 -158 -8q-11 0 -11 28zM96 1335q0 26 32 45 q17 11 32 11q20 0 25 -16l106 -294q3 -11 3 -20q0 -39 -28 -39q-18 0 -33 29l-134 271q-3 5 -3 13z" />
<glyph unicode="&#xed;" horiz-adv-x="419" d="M59 20q0 29 11 29q91 0 91 78v405q0 114 -19 146q-15 24 -48 24q-14 0 -14 27q0 29 14 29q47 0 161 114q12 11 19 11q14 0 14 -21q-5 -65 -5 -131v-604q0 -78 91 -78q11 0 11 -28q0 -29 -11 -29q-61 8 -146 8q-93 0 -158 -8q-11 0 -11 28zM134 1059q0 12 4 22l108 307 q4 13 20 13q27 0 56 -29q16 -16 16 -29q0 -3 -2 -7l-143 -285q-15 -29 -33 -29q-26 0 -26 37z" />
<glyph unicode="&#xee;" horiz-adv-x="419" d="M28 1045l169 375q13 28 31 28q17 0 30 -28l169 -375q0 -23 -23 -23q-2 0 -5 4l-147 217q-17 25 -24 25t-24 -25l-148 -217q-2 -4 -6 -4q-22 0 -22 23zM59 20q0 29 11 29q91 0 91 78v405q0 114 -19 146q-15 24 -48 24q-14 0 -14 27q0 29 14 29q47 0 161 114q12 11 19 11 q14 0 14 -21q-5 -65 -5 -131v-604q0 -78 91 -78q11 0 11 -28q0 -29 -11 -29q-61 8 -146 8q-93 0 -158 -8q-11 0 -11 28z" />
<glyph unicode="&#xef;" horiz-adv-x="419" d="M-18 1156q0 45 25 76.5t60.5 31.5t61 -31.5t25.5 -76.5t-25.5 -76.5t-61 -31.5t-60.5 31.5t-25 76.5zM59 20q0 29 11 29q91 0 91 78v405q0 114 -19 146q-15 24 -48 24q-14 0 -14 27q0 29 14 29q47 0 161 114q12 11 19 11q14 0 14 -21q-5 -65 -5 -131v-604q0 -78 91 -78 q11 0 11 -28q0 -29 -11 -29q-61 8 -146 8q-93 0 -158 -8q-11 0 -11 28zM287 1156q0 45 25 76.5t60.5 31.5t61 -31.5t25.5 -76.5t-25.5 -76.5t-61 -31.5t-60.5 31.5t-25 76.5z" />
<glyph unicode="&#xf0;" horiz-adv-x="816" d="M-6 1017q0 6 4 5l68 -21q19 -6 39 13l69 65q6 6 6 11q0 8 -10 16q-68 53 -152 102q-14 9 -6 40.5t19 31.5q44 0 199 -116q8 -6 16 -5q10 0 16 6l246 246q2 2 4.5 2t6.5 -3q28 -28 71 -91q11 -17 11 -22q0 -7 -11 -4l-59 18q-37 11 -59 -11l-162 -165q-10 -10 -10 -16 q0 -7 8 -13q139 -101 228.5 -191.5t154 -219.5t64.5 -259q0 -199 -88.5 -329t-247.5 -130q-149 0 -252 131.5t-103 325.5q0 170 106.5 303t239.5 133q9 0 9 8.5t-5 14.5q-81 88 -166 154q-6 5 -10 5q-9 0 -19 -10l-149 -150q-2 -2 -3 -2t-5 2q-11 6 -60 105q-8 14 -8 20z M203 430q0 -173 65 -280t150 -107q74 0 136 106t62 281q0 171 -66.5 276t-133.5 105q-78 0 -145.5 -106.5t-67.5 -274.5z" />
<glyph unicode="&#xf1;" horiz-adv-x="855" d="M58 20.5q0 28.5 11 28.5q92 0 92 78v447q0 128 -67 128q-14 0 -14 28t14 28q30 0 69.5 30t69 62.5t41.5 32.5q11 0 11 -31l-2 -73q0 -21 11 -21q7 0 12 6q85 106 207 106q119 0 177 -147q27 -66 27 -248v-348q0 -78 92 -78q11 0 11 -28.5t-11 -28.5q-62 8 -150.5 8 t-152.5 -8q-11 0 -11 28.5t11 28.5q88 0 88 78v403q0 84 -11 142.5t-36 83t-88 24.5q-34 0 -61 -17t-53 -40.5t-44 -58t-18 -74.5v-463q0 -78 86 -78q11 0 11 -28.5t-11 -28.5q-62 8 -149.5 8t-150.5 -8q-11 0 -11 28.5zM196 1068q0 1 1 2q73 143 160 143q36 0 110 -33 q58 -26 85 -26q45 0 100 68q1 1 2 1q4 0 12 -8q8 -9 8 -20q0 -4 -1 -8q-11 -41 -69 -90q-57 -47 -93 -47q-39 0 -110 34q-60 29 -93 29q-43 0 -92 -61q-3 -4 -6.5 -4t-6.5 4q-7 11 -7 16z" />
<glyph unicode="&#xf2;" horiz-adv-x="796" d="M67 428q0 168 100 305t239 137t236 -136.5t97 -313.5q0 -176 -88.5 -309.5t-237.5 -133.5q-148 0 -247 142t-99 309zM198 422q0 -177 65 -278t140 -101t140.5 101t65.5 278q0 176 -64 282.5t-141 106.5q-76 0 -141 -105.5t-65 -283.5zM262 1335q0 26 32 45q17 11 32 11 q20 0 25 -16l106 -294q3 -11 3 -20q0 -39 -28 -39q-18 0 -33 29l-134 271q-3 5 -3 13z" />
<glyph unicode="&#xf3;" horiz-adv-x="796" d="M67 428q0 168 100 305t239 137t236 -136.5t97 -313.5q0 -176 -88.5 -309.5t-237.5 -133.5q-148 0 -247 142t-99 309zM198 422q0 -177 65 -278t140 -101t140.5 101t65.5 278q0 176 -64 282.5t-141 106.5q-76 0 -141 -105.5t-65 -283.5zM334 1059q0 12 4 22l108 307 q4 13 20 13q27 0 56 -29q16 -16 16 -29q0 -3 -2 -7l-143 -285q-15 -29 -33 -29q-26 0 -26 37z" />
<glyph unicode="&#xf4;" horiz-adv-x="796" d="M67 428q0 168 100 305t239 137t236 -136.5t97 -313.5q0 -176 -88.5 -309.5t-237.5 -133.5q-148 0 -247 142t-99 309zM198 422q0 -177 65 -278t140 -101t140.5 101t65.5 278q0 176 -64 282.5t-141 106.5q-76 0 -141 -105.5t-65 -283.5zM209 1045l169 375q13 28 31 28 q17 0 30 -28l169 -375q0 -23 -23 -23q-2 0 -5 4l-147 217q-17 25 -24 25t-24 -25l-148 -217q-2 -4 -6 -4q-22 0 -22 23z" />
<glyph unicode="&#xf5;" horiz-adv-x="796" d="M67 428q0 168 100 305t239 137t236 -136.5t97 -313.5q0 -176 -88.5 -309.5t-237.5 -133.5q-148 0 -247 142t-99 309zM172 1068q0 1 1 2q73 143 160 143q36 0 110 -33q58 -26 85 -26q45 0 100 68q1 1 2 1q4 0 12 -8q8 -9 8 -20q0 -4 -1 -8q-11 -41 -69 -90 q-57 -47 -93 -47q-39 0 -110 34q-60 29 -93 29q-43 0 -92 -61q-3 -4 -6.5 -4t-6.5 4q-7 11 -7 16zM198 422q0 -177 65 -278t140 -101t140.5 101t65.5 278q0 176 -64 282.5t-141 106.5q-76 0 -141 -105.5t-65 -283.5z" />
<glyph unicode="&#xf6;" horiz-adv-x="796" d="M67 428q0 168 100 305t239 137t236 -136.5t97 -313.5q0 -176 -88.5 -309.5t-237.5 -133.5q-148 0 -247 142t-99 309zM162 1156q0 45 25 76.5t60.5 31.5t61 -31.5t25.5 -76.5t-25.5 -76.5t-61 -31.5t-60.5 31.5t-25 76.5zM198 422q0 -177 65 -278t140 -101t140.5 101 t65.5 278q0 176 -64 282.5t-141 106.5q-76 0 -141 -105.5t-65 -283.5zM467 1156q0 45 25 76.5t60.5 31.5t61 -31.5t25.5 -76.5t-25.5 -76.5t-61 -31.5t-60.5 31.5t-25 76.5z" />
<glyph unicode="&#xf7;" horiz-adv-x="840" d="M95 371v100h652v-100h-652zM336 132q0 43 24.5 73.5t59 30.5t58.5 -30.5t24 -73.5t-24 -73.5t-58.5 -30.5t-59 30.5t-24.5 73.5zM336 710q0 43 24.5 73.5t59 30.5t58.5 -30.5t24 -73.5t-24 -73.5t-58.5 -30.5t-59 30.5t-24.5 73.5z" />
<glyph unicode="&#xf8;" horiz-adv-x="796" d="M67 428q0 168 100 305t239 137t236 -136.5t97 -313.5q0 -176 -88.5 -309.5t-237.5 -133.5q-148 0 -247 142t-99 309zM108 -30q0 3 1 5l527 940q4 5 9 5q9 0 24 -14q15 -15 15 -26q0 -3 -2 -6l-526 -940q-2 -5 -8 -5q-8 0 -25 15q-15 16 -15 26zM198 422q0 -177 65 -278 t140 -101t140.5 101t65.5 278q0 176 -64 282.5t-141 106.5q-76 0 -141 -105.5t-65 -283.5z" />
<glyph unicode="&#xf9;" horiz-adv-x="828" d="M38 811q0 28 12 28q84 0 136 9t67 9q16 0 15 -16q-6 -123 -6 -152v-355q0 -115 31.5 -187.5t96.5 -72.5q71 0 125.5 52t54.5 126v384q0 147 -89 147q-12 0 -12 28t12 28q98 0 144 9t56 9q17 0 16 -27q-5 -87 -5 -139v-464q0 -155 66 -145l37 6q14 2 18 -27q1 -9 1 -15 q0 -14 -7 -15q-22 -3 -109 -27.5t-110 -35.5q-2 -1 -6 -1q-12 0 -12 45v45q0 24 -9.5 24t-22.5 -15q-76 -89 -187 -89q-84 0 -148 106t-64 218v335q0 147 -89 147q-12 0 -12 28zM272 1335q0 26 32 45q17 11 32 11q20 0 25 -16l106 -294q3 -11 3 -20q0 -39 -28 -39 q-18 0 -33 29l-134 271q-3 5 -3 13z" />
<glyph unicode="&#xfa;" horiz-adv-x="828" d="M38 811q0 28 12 28q84 0 136 9t67 9q16 0 15 -16q-6 -123 -6 -152v-355q0 -115 31.5 -187.5t96.5 -72.5q71 0 125.5 52t54.5 126v384q0 147 -89 147q-12 0 -12 28t12 28q98 0 144 9t56 9q17 0 16 -27q-5 -87 -5 -139v-464q0 -155 66 -145l37 6q14 2 18 -27q1 -9 1 -15 q0 -14 -7 -15q-22 -3 -109 -27.5t-110 -35.5q-2 -1 -6 -1q-12 0 -12 45v45q0 24 -9.5 24t-22.5 -15q-76 -89 -187 -89q-84 0 -148 106t-64 218v335q0 147 -89 147q-12 0 -12 28zM345 1059q0 12 4 22l108 307q4 13 20 13q27 0 56 -29q16 -16 16 -29q0 -3 -2 -7l-143 -285 q-15 -29 -33 -29q-26 0 -26 37z" />
<glyph unicode="&#xfb;" horiz-adv-x="828" d="M38 811q0 28 12 28q84 0 136 9t67 9q16 0 15 -16q-6 -123 -6 -152v-355q0 -115 31.5 -187.5t96.5 -72.5q71 0 125.5 52t54.5 126v384q0 147 -89 147q-12 0 -12 28t12 28q98 0 144 9t56 9q17 0 16 -27q-5 -87 -5 -139v-464q0 -155 66 -145l37 6q14 2 18 -27q1 -9 1 -15 q0 -14 -7 -15q-22 -3 -109 -27.5t-110 -35.5q-2 -1 -6 -1q-12 0 -12 45v45q0 24 -9.5 24t-22.5 -15q-76 -89 -187 -89q-84 0 -148 106t-64 218v335q0 147 -89 147q-12 0 -12 28zM192 1045l169 375q13 28 31 28q17 0 30 -28l169 -375q0 -23 -23 -23q-2 0 -5 4l-147 217 q-17 25 -24 25t-24 -25l-148 -217q-2 -4 -6 -4q-22 0 -22 23z" />
<glyph unicode="&#xfc;" horiz-adv-x="828" d="M38 811q0 28 12 28q84 0 136 9t67 9q16 0 15 -16q-6 -123 -6 -152v-355q0 -115 31.5 -187.5t96.5 -72.5q71 0 125.5 52t54.5 126v384q0 147 -89 147q-12 0 -12 28t12 28q98 0 144 9t56 9q17 0 16 -27q-5 -87 -5 -139v-464q0 -155 66 -145l37 6q14 2 18 -27q1 -9 1 -15 q0 -14 -7 -15q-22 -3 -109 -27.5t-110 -35.5q-2 -1 -6 -1q-12 0 -12 45v45q0 24 -9.5 24t-22.5 -15q-76 -89 -187 -89q-84 0 -148 106t-64 218v335q0 147 -89 147q-12 0 -12 28zM165 1156q0 45 25 76.5t60.5 31.5t61 -31.5t25.5 -76.5t-25.5 -76.5t-61 -31.5t-60.5 31.5 t-25 76.5zM470 1156q0 45 25 76.5t60.5 31.5t61 -31.5t25.5 -76.5t-25.5 -76.5t-61 -31.5t-60.5 31.5t-25 76.5z" />
<glyph unicode="&#xfd;" horiz-adv-x="670" d="M-42 829.5q0 26.5 11 26.5q45 -6 147 -6t150 6q11 0 11 -26.5t-11 -26.5q-77 0 -77 -55q0 -16 3 -29l139 -504q8 -31 20 -31t23 33l156 502q4 13 4 26q0 58 -103 58q-11 0 -11 26.5t11 26.5q46 -6 130.5 -6t131.5 6q11 0 11 -26.5t-11 -26.5q-77 0 -100 -72l-354 -1149 q-19 -64 -58 -99.5t-84 -35.5q-32 0 -52 25t-20 51q0 76 75.5 76t96.5 63l77 240q8 25 8 39t-10 51l-206 739q-21 72 -97 72q-11 0 -11 26.5zM282 1059q0 12 4 22l108 307q4 13 20 13q27 0 56 -29q16 -16 16 -29q0 -3 -2 -7l-143 -285q-15 -29 -33 -29q-26 0 -26 37z" />
<glyph unicode="&#xfe;" horiz-adv-x="727" d="M52 1336.5q0 27.5 12 27.5q33 0 96.5 46t75.5 60.5t22 14.5q11 0 10 -27q-6 -172 -6 -219v-442q0 -25 8 -25t17 14q58 84 133 84q104 0 178.5 -92.5t74.5 -257.5q0 -222 -126 -369.5t-261 -170.5q-24 -4 -24 -31v-367q0 -58 -47 -78l-140 -61q-1 -1 -3 -1q-9 0 -14 12.5 t-5 26.5q0 11 5 15l64 53q17 15 17 58v1549q0 153 -75 153q-12 0 -12 27.5zM262 90q0 -39 19 -39q40 0 103.5 50.5t106.5 156t43 213.5q0 141 -33 233.5t-99 92.5q-65 0 -121 -117q-19 -40 -19 -94v-496z" />
<glyph unicode="&#xff;" horiz-adv-x="670" d="M-42 829.5q0 26.5 11 26.5q45 -6 147 -6t150 6q11 0 11 -26.5t-11 -26.5q-77 0 -77 -55q0 -16 3 -29l139 -504q8 -31 20 -31t23 33l156 502q4 13 4 26q0 58 -103 58q-11 0 -11 26.5t11 26.5q46 -6 130.5 -6t131.5 6q11 0 11 -26.5t-11 -26.5q-77 0 -100 -72l-354 -1149 q-19 -64 -58 -99.5t-84 -35.5q-32 0 -52 25t-20 51q0 76 75.5 76t96.5 63l77 240q8 25 8 39t-10 51l-206 739q-21 72 -97 72q-11 0 -11 26.5zM88 1156q0 45 25 76.5t60.5 31.5t61 -31.5t25.5 -76.5t-25.5 -76.5t-61 -31.5t-60.5 31.5t-25 76.5zM393 1156q0 45 25 76.5 t60.5 31.5t61 -31.5t25.5 -76.5t-25.5 -76.5t-61 -31.5t-60.5 31.5t-25 76.5z" />
<glyph unicode="&#x152;" horiz-adv-x="1549" d="M73 667q0 244 132 462q140 231 388 231q36 0 87 -4q56 -4 90 -4h70h191q75 0 174 3q104 3 170 3q59 0 59 -19v-329q0 -18 -28 -18q-32 0 -32 18q0 266 -206 272l-228 7q-32 1 -32 -48v-530q0 -35 27 -35h159q93 0 93 117v74q0 14 28 14q29 0 29 -14q-6 -105 -6 -227 q0 -102 6 -210q0 -15 -28 -15q-29 0 -29 15v82q0 95 -93 95h-159q-27 0 -27 -34v-311q0 -115 52 -169q30 -31 72 -31h6l181 7q130 5 181 120q27 63 27 151q0 19 27 19q33 0 33 -19v-317q0 -27 -22 -29q-11 -1 -36 -1q-67 0 -243 3q-226 4 -311 4h-35q-46 0 -126 -4 q-71 -3 -124 -3q-180 0 -308 106q-85 70 -144 211q-65 161 -65 357zM226 726q0 -330 145 -518q110 -140 234 -140q174 0 174 109v995q0 117 -186 117q-148 0 -223 -103q-144 -198 -144 -460z" />
<glyph unicode="&#x153;" horiz-adv-x="1217" d="M61 424q0 172 98 307q102 139 238 139q168 0 268 -186q93 186 236 186q115 0 192 -108q62 -88 62 -158q0 -55 -41 -55h-359q-25 0 -25 -66q0 -171 66 -282q63 -107 166 -107q72 0 160 60q16 11 27 -7q6 -10 6 -18q0 -7 -5 -12q-126 -140 -256 -140q-136 0 -224 181 q-89 -181 -272 -181q-140 0 -239 142q-98 141 -98 305zM190 433q0 -188 69 -294q62 -96 138 -96q93 0 152 121q53 108 53 256q0 176 -68 291q-58 100 -135.5 100t-137.5 -100q-71 -118 -71 -278zM750 633q0 -17 19 -17h257q11 0 11 17q0 48 -40 109q-47 69 -95 69 q-73 0 -124 -95q-28 -52 -28 -83z" />
<glyph unicode="&#x178;" horiz-adv-x="988" d="M-21 1325q0 38 11 38q35 -5 189 -5t191 5q11 0 11 -38t-11 -38q-96 0 -96 -57q0 -23 16 -58l225 -472q7 -14 13 -14t13 14l238 463q22 42 22 71q0 53 -89 53q-11 0 -11 38t11 38q36 -5 158 -5t158 5q10 0 10 -38t-10 -38q-111 0 -168 -109l-247 -473 q-53 -100 -57.5 -129.5t-4.5 -86.5v-303q0 -117 131 -117q11 0 11 -38t-11 -38q-60 7 -195 7t-195 -7q-10 0 -10 38t10 38q131 0 131 117v301q0 101 -22 147l-261 538q-56 115 -150 115q-11 0 -11 38zM242 1658q0 44 25 75t60 31t60.5 -31t25.5 -75t-25.5 -75.5t-60.5 -31.5 t-60 31.5t-25 75.5zM595 1658q0 44 25 75t60.5 31t60.5 -31t25 -75t-25 -75.5t-60.5 -31.5t-60.5 31.5t-25 75.5z" />
<glyph unicode="&#x2c6;" horiz-adv-x="637" d="M114 1045l169 375q13 28 31 28q17 0 30 -28l169 -375q0 -23 -23 -23q-2 0 -5 4l-147 217q-17 25 -24 25t-24 -25l-148 -217q-2 -4 -6 -4q-22 0 -22 23z" />
<glyph unicode="&#x2dc;" horiz-adv-x="465" d="M-7 1068q0 1 1 2q73 143 160 143q36 0 110 -33q58 -26 85 -26q45 0 100 68q1 1 2 1q4 0 12 -8q8 -9 8 -20q0 -4 -1 -8q-11 -41 -69 -90q-57 -47 -93 -47q-39 0 -110 34q-60 29 -93 29q-43 0 -92 -61q-3 -4 -6.5 -4t-6.5 4q-7 11 -7 16z" />
<glyph unicode="&#x2000;" horiz-adv-x="952" />
<glyph unicode="&#x2001;" horiz-adv-x="1904" />
<glyph unicode="&#x2002;" horiz-adv-x="952" />
<glyph unicode="&#x2003;" horiz-adv-x="1904" />
<glyph unicode="&#x2004;" horiz-adv-x="634" />
<glyph unicode="&#x2005;" horiz-adv-x="476" />
<glyph unicode="&#x2006;" horiz-adv-x="317" />
<glyph unicode="&#x2007;" horiz-adv-x="317" />
<glyph unicode="&#x2008;" horiz-adv-x="238" />
<glyph unicode="&#x2009;" horiz-adv-x="380" />
<glyph unicode="&#x200a;" horiz-adv-x="105" />
<glyph unicode="&#x2010;" horiz-adv-x="661" d="M79 542q0 60 13 60h474q13 0 13 -52q0 -63 -15 -63h-472q-13 0 -13 55z" />
<glyph unicode="&#x2011;" horiz-adv-x="661" d="M79 542q0 60 13 60h474q13 0 13 -52q0 -63 -15 -63h-472q-13 0 -13 55z" />
<glyph unicode="&#x2012;" horiz-adv-x="661" d="M79 542q0 60 13 60h474q13 0 13 -52q0 -63 -15 -63h-472q-13 0 -13 55z" />
<glyph unicode="&#x2013;" horiz-adv-x="819" d="M6 520l1 32q5 34 18 34h769q17 0 20 -47l-2 -32l-5 -22l-6 -9q-3 -3 -7 -3h-769q-17 0 -19 47z" />
<glyph unicode="&#x2014;" horiz-adv-x="1638" d="M6 520l1 32q5 34 18 34h1589q16 0 19 -47l-2 -32l-5 -22q-5 -12 -12 -12h-1589q-17 0 -19 47z" />
<glyph unicode="&#x2018;" horiz-adv-x="311" d="M50 1118q0 209 197 365l7 1q12 -4 17 -19v-8l-1 -1q-76 -94 -100 -156q-18 -46 -18 -94q0 -45 25 -57q67 -33 80 -83q4 -17 4 -36q0 -88 -83 -88q-57 0 -96 62q-32 50 -32 114z" />
<glyph unicode="&#x2019;" horiz-adv-x="311" d="M41 967l1 2q116 105 122 235v13q0 39 -26 56l-31 18q-50 34 -51 102q0 72 58 85q12 3 24 3q60 0 100 -66q28 -49 28 -110q0 -190 -149 -329q-23 -21 -48 -40l-7 -1q-12 5 -20 23z" />
<glyph unicode="&#x201a;" horiz-adv-x="311" d="M42 -287q0 4 2 6q122 116 122 248q0 44 -32 63l-37 20l-3 3q-36 33 -36 90q0 76 63 87q9 1 18 1q60 0 99 -66q29 -49 29 -110q0 -225 -197 -368q-1 -2 -4 -2q-24 0 -24 28z" />
<glyph unicode="&#x201c;" horiz-adv-x="581" d="M50 1118q0 209 197 365l7 1q12 -4 17 -19v-8l-1 -1q-76 -94 -100 -156q-18 -46 -18 -94q0 -45 25 -57q67 -33 80 -83q4 -17 4 -36q0 -88 -83 -88q-57 0 -96 62q-32 50 -32 114zM321 1118q0 209 197 365l7 1q12 -4 17 -19v-8l-1 -1q-76 -94 -100 -156q-18 -46 -18 -94 q0 -45 25 -57q67 -33 80 -83q4 -17 4 -36q0 -88 -83 -88q-57 0 -96 62q-32 50 -32 114z" />
<glyph unicode="&#x201d;" horiz-adv-x="584" d="M41 967l1 2q116 105 122 235v13q0 39 -26 56l-31 18q-50 34 -51 102q0 72 58 85q12 3 24 3q60 0 100 -66q28 -49 28 -110q0 -190 -149 -329q-23 -21 -48 -40l-7 -1q-12 5 -20 23zM315 967l1 2q116 105 122 235v13q0 39 -26 56l-31 18q-50 34 -51 102q0 72 58 85 q12 3 24 3q60 0 100 -66q28 -49 28 -110q0 -190 -149 -329q-23 -21 -48 -40l-7 -1q-12 5 -20 23z" />
<glyph unicode="&#x201e;" horiz-adv-x="584" d="M42 -287q0 4 2 6q122 116 122 248q0 44 -32 63l-37 20l-3 3q-36 33 -36 90q0 76 63 87q9 1 18 1q60 0 99 -66q29 -49 29 -110q0 -225 -197 -368q-1 -2 -4 -2q-24 0 -24 28zM313 -287q0 4 2 6q122 116 122 248q0 44 -32 63l-37 20l-3 3q-36 33 -36 90q0 76 63 87q9 1 18 1 q60 0 99 -66q29 -49 29 -110q0 -225 -197 -368q-1 -2 -4 -2q-24 0 -24 28z" />
<glyph unicode="&#x2022;" horiz-adv-x="652" d="M114 760q0 117 72 190q63 62 152 62q94 0 152 -88q49 -75 49 -183q0 -109 -59 -180q-58 -72 -142 -72q-108 0 -172 89q-52 73 -52 182z" />
<glyph unicode="&#x202f;" horiz-adv-x="380" />
<glyph unicode="&#x2039;" horiz-adv-x="384" d="M47 435q0 28 19 53l239 312q9 11 23 -3t7 -27l-157 -294q-10 -18 -10 -41t10 -41l157 -290q8 -15 -6 -30.5t-24 -3.5l-239 312q-19 25 -19 53z" />
<glyph unicode="&#x203a;" horiz-adv-x="384" d="M47 104l157 290q10 18 10 41t-10 41l-157 294q-7 13 7 27t23 3l239 -312q19 -25 19 -53t-19 -53l-239 -312q-10 -12 -24 3.5t-6 30.5z" />
<glyph unicode="&#x205f;" horiz-adv-x="476" />
<glyph unicode="&#x20ac;" horiz-adv-x="1008" d="M-6 555l1 31q4 30 17 30h60v51q0 45 1 66h-61q-16 0 -18 44l1 31q4 30 17 30h73q41 217 157 366q143 181 343 181q140 0 252 -71q49 -30 76 -67q36 -50 36 -86q0 -46 -35 -69q-17 -11 -36 -11q-34 0 -68 47l-45 68l-5 6q-60 76 -106 97q-32 15 -73 15q-159 0 -258 -175 l-25 -52q-49 -111 -64 -249h533q15 0 18 -44l-2 -32l-5 -20q-5 -9 -11 -9h-540v-21q0 -65 3 -96h537q15 0 18 -44l-2 -32l-5 -20q-5 -9 -11 -9h-524q39 -213 146 -327q89 -94 207 -94q110 0 184 40q36 19 133 90q5 4 7 4q15 0 25 -24q3 -8 3 -16q0 -9 -6 -16 q-110 -113 -191 -154q-79 -41 -169 -41q-175 0 -313 132q-130 124 -173 313q-10 46 -15 93h-69q-16 0 -18 44z" />
<glyph unicode="&#x2122;" horiz-adv-x="1649" d="M28 1168v179q0 20 35 19q98 -2 197 -3h209q164 3 197 3q35 0 35 -19v-179q0 -7 -17 -7t-17 7q0 145 -116 150l-128 5q-23 0 -23 -25v-590q0 -65 84 -65q6 0 6 -21.5t-6 -21.5q-35 4 -118 4q-90 0 -124 -4q-6 0 -6 21t6 22q45 0 71 26q16 16 16 39v590q0 25 -21 25 l-128 -5q-118 -5 -118 -150q0 -7 -17 -7t-17 7zM779 622q0 21 6 22q69 0 72 65l27 528q0 62 -38 79q-18 9 -49 9q-6 0 -6 21t6 21q21 -3 73 -3q44 0 58 -9q15 -8 24 -31l216 -564q6 -15 9.5 -15t11.5 16l222 566q10 26 27 32q14 5 49 5q55 0 77 3q6 0 6 -21t-6 -21 q-59 0 -77 -40q-9 -22 -9 -62l3 -514q1 -65 73 -65q6 0 6 -21.5t-6 -21.5q-34 4 -112 4q-64 0 -103 -4q-6 0 -6 21t6 22q69 0 69 65l-2 477q0 7 -4 7q-3 0 -6 -4l-233 -587q-3 -10 -9 -10q-8 0 -11 10l-212 585q-4 10 -8 10t-5 -10l-23 -478l1 -18q7 -47 71 -47q7 0 7 -21.5 t-7 -21.5q-37 4 -87 4q-56 0 -95 -4q-6 0 -6 21z" />
<glyph unicode="&#x25fc;" horiz-adv-x="855" d="M0 0v855h855v-855h-855z" />
</font>
</defs>
</svg>
