<?xml version="1.0" standalone="no"?>
<!DOCTYPE svg PUBLIC "-//W3C//DTD SVG 1.1//EN" "http://www.w3.org/Graphics/SVG/1.1/DTD/svg11.dtd" >
<svg xmlns="http://www.w3.org/2000/svg">
<metadata></metadata>
<defs>
<font id="junicodebolditaliccondensed" horiz-adv-x="764" >
<font-face units-per-em="2048" ascent="1638" descent="-410" />
<missing-glyph horiz-adv-x="447" />
<glyph unicode="&#x2e;&#x2e;&#x2e;" horiz-adv-x="1659" d="M175 133q0 52 31 95q35 51 100 51q60 0 95 -59q25 -42 25 -101q0 -79 -51 -121q-30 -25 -69 -25q-59 0 -97 47q-34 42 -34 113zM716 133q0 52 30 95q36 51 101 51q60 0 95 -59q24 -42 24 -101q0 -79 -50 -121l-22 -14q-23 -11 -47 -11q-61 0 -98 48q-33 42 -33 112z M1257 133q0 52 30 95q35 51 101 51q58 0 94 -58q25 -43 25 -102q0 -79 -50 -121l-23 -14q-22 -11 -46 -11q-59 0 -97 46q-34 42 -34 114z" />
<glyph unicode="&#xfb01;" horiz-adv-x="825" d="M-229 -424q0 45 22.5 75t50.5 30q48 0 69 -56q28 -71 53 -71q21 0 36.5 18t23.5 47t15 63.5t11 67.5l158 975h-149q-12 0 1 53t25 53h141q28 175 54 279t69 176q104 178 288 178q87 0 134.5 -55t47.5 -141q0 -119 -76 -119q-29 0 -55 22.5t-26 71.5q-2 31 0.5 62.5 t-13 54t-53.5 22.5q-56 0 -111 -104q-27 -51 -46.5 -127t-30 -152.5t-25.5 -167.5h279q42 0 80 10.5t49 10.5q25 0 15 -39l-144 -633q-9 -39 9 -39q25 0 79 80q8 15 30 -11t14 -36q-139 -201 -231 -201q-49 0 -65.5 68t1.5 127l113 485q9 31 0.5 51.5t-29.5 20.5h-216 l-133 -821q-16 -105 -50.5 -209.5t-60.5 -134.5q-96 -111 -202 -111q-70 0 -111 41t-41 86z" />
<glyph unicode="&#xfb02;" horiz-adv-x="810" d="M-231 -424q0 45 23 75t51 30q46 0 69 -56q4 -10 7.5 -20.5t8.5 -19.5t10 -16t11.5 -11t14.5 -4q21 0 36.5 18t24 47t15 63.5t11.5 67.5l159 987h-146q-12 0 1.5 53.5t24.5 53.5h138q52 325 121 442q105 178 288 178q56 0 94 -22q37 8 86.5 26.5t59.5 18.5q16 0 9 -39 l-239 -1268q-8 -39 13 -39q25 0 74 86q7 15 31.5 -9.5t16.5 -35.5q-128 -211 -225 -211q-47 0 -64.5 58.5t-4.5 126.5l110 581h-229l-135 -833q-16 -105 -50.5 -209.5t-60.5 -134.5q-97 -111 -202 -111q-70 0 -111 41t-41 86zM385 844h233l62 336q15 80 -3 141t-81 61 q-57 0 -111 -104q-26 -51 -46 -129t-30.5 -151.5t-23.5 -153.5z" />
<glyph unicode="&#xfb03;" horiz-adv-x="1202" d="M-231 -424q0 45 23 75t51 30q46 0 69 -56q4 -10 7.5 -20.5t8.5 -19.5t10 -16t11.5 -11t14.5 -4q21 0 36.5 18t24 47t15 63.5t11.5 67.5l157 975h-146q-13 0 0 53t26 53h138q53 318 120 433q105 178 290 178q100 0 149 -82q95 104 234 104q82 0 132 -55t50 -141 q0 -62 -22 -90.5t-53.5 -28.5t-56.5 22.5t-25 71.5q1 23 -0.5 47.5t-5 45t-19 33.5t-41.5 13q-59 0 -113 -104q-26 -51 -45.5 -128t-29.5 -152.5t-25 -166.5h275q41 0 79.5 10.5t50.5 10.5q24 0 15 -39l-145 -633q-8 -39 10 -39q12 0 28 15.5t27.5 33t23.5 31.5 q10 12 31 -12.5t13 -34.5q-139 -201 -231 -201q-49 0 -65.5 68t1.5 127l113 485q8 23 1 47.5t-30 24.5h-213l-130 -795q-16 -104 -50.5 -208.5t-60.5 -133.5q-82 -110 -200 -110q-79 0 -120 47t-31 96q-28 -63 -90 -117.5t-146 -54.5q-70 0 -111 41t-41 86zM177 -322 q23 29 51 29q47 0 69 -53q29 -74 52 -74q15 0 27 8.5t19.5 22.5t15 34.5t11.5 42t8 45t7 46.5l153 946h-223l-133 -821q-19 -119 -57 -226zM383 831h225q46 283 88 386q-5 18 -8 37.5t-10.5 38t-17.5 33.5t-27 24.5t-40 9.5q-61 0 -111 -103q-20 -36 -35.5 -87.5 t-25.5 -104.5t-19.5 -113.5t-18.5 -120.5z" />
<glyph unicode="&#xfb04;" horiz-adv-x="1193" d="M-231 -424q0 45 23 75t51 30q46 0 69 -56q4 -10 7.5 -20.5t8.5 -19.5t10 -16t11.5 -11t14.5 -4q21 0 36.5 18t24 47t15 63.5t11.5 67.5l159 987h-146q-12 0 1.5 53.5t24.5 53.5h138q52 309 118 420q105 178 290 178q100 0 149 -82q95 104 234 104q51 0 92 -22 q36 8 84.5 26.5t59.5 18.5q23 0 15 -39l-239 -1268q-7 -39 14 -39q12 0 26.5 16.5t25.5 36t20 33.5q9 15 32.5 -8.5t15.5 -36.5q-126 -209 -225 -209q-49 0 -66 57.5t-4 125.5l110 581h-230l-131 -807q-16 -104 -50.5 -208.5t-60.5 -133.5q-82 -110 -200 -110q-79 0 -120 47 t-31 96q-28 -63 -90 -117.5t-146 -54.5q-70 0 -111 41t-41 86zM177 -322q23 29 51 29q47 0 69 -53q29 -74 52 -74q15 0 27 8.5t19.5 22.5t15 34.5t11.5 42t8 45t7 46.5l154 958h-222l-135 -833q-19 -119 -57 -226zM385 844h224q40 258 87 373q-5 18 -8 37.5t-10.5 38 t-17.5 33.5t-27 24.5t-40 9.5q-61 0 -111 -103q-25 -49 -44.5 -124.5t-30.5 -145t-22 -143.5zM767 844h232l63 336q16 77 -3 139.5t-81 62.5q-59 0 -113 -104q-36 -72 -61.5 -202t-36.5 -232z" />
<glyph horiz-adv-x="0" />
<glyph horiz-adv-x="0" />
<glyph unicode="&#xd;" horiz-adv-x="545" />
<glyph unicode=" "  horiz-adv-x="447" />
<glyph unicode="&#x09;" horiz-adv-x="447" />
<glyph unicode="&#xa0;" horiz-adv-x="447" />
<glyph unicode="!" horiz-adv-x="455" d="M54 135.5q0 64.5 40 108.5t92.5 44t87 -49.5t34.5 -115.5q-1 -66 -40.5 -108t-91.5 -42t-87 49t-35 113.5zM218 446l111 719q12 77 24 119.5t50 78.5t75 36q94 0 94 -92q0 -36 -12.5 -76.5t-127 -377.5t-137.5 -411q-7 -20 -41 -20t-36 24z" />
<glyph unicode="&#x22;" horiz-adv-x="635" d="M293 944q3 29 16 221.5t20 214.5q29 100 121.5 100t92.5 -68q0 -20 -6.5 -45t-79.5 -195.5t-94 -227.5h-70zM614 944q4 29 17 221.5t19 214.5q29 100 122 100t93 -68q0 -20 -6.5 -45t-79.5 -195.5t-94 -227.5h-71z" />
<glyph unicode="#" horiz-adv-x="812" d="M58 381l17 133h184l102 289h-156l20 131h183l110 315h108l-112 -315h144l112 315h108l-112 -315h144l-19 -131h-170l-102 -289h143l-18 -133h-172l-131 -371h-108l131 371h-145l-130 -371h-109l131 371h-153zM367 514h144l102 289h-144z" />
<glyph unicode="$" horiz-adv-x="796" d="M59 136q-2 100 24 239q5 25 42 25t34 -22q-4 -30 -4 -53q0 -94 37.5 -154t93.5 -83l108 492q-130 69 -164.5 130.5t-34.5 153.5q0 175 103.5 309t255.5 156l29 137q3 16 53 16t47 -16l-29 -137q77 -5 105 -16.5t46.5 -11.5t32.5 2q0 -129 -19 -261q-4 -29 -39.5 -29 t-37.5 16l-1 41q-6 136 -107 171l-95 -444q124 -49 175 -114t51 -169q0 -94 -33.5 -198t-126.5 -210t-239 -122l-30 -134q-3 -15 -53 -15t-47 15l30 136q-80 9 -152 56l-53 34zM369 972q0 -85 80 -132l87 405q-72 -20 -119.5 -107.5t-47.5 -165.5zM385 74q85 12 140 107 t55 193q0 99 -97 158z" />
<glyph unicode="%" horiz-adv-x="1452" d="M156 848q0 170 137 336t287 166q162 0 198 -160q40 -12 84 -12q211 0 390 243h110l-1007 -1542h-132l824 1256q-28 -19 -82 -31t-91 -12q-40 0 -86 10q-2 -115 -49.5 -243t-140 -224t-200.5 -96q-120 0 -181 87t-61 222zM321 774q0 -63 24 -106t66 -43q108 0 197.5 173 t89.5 318q0 4 -1 13.5t-1 13.5q-72 43 -110 114q-76 -26 -170.5 -204.5t-94.5 -278.5zM790 266q0 170 137.5 335t288.5 165q103 0 154 -68q52 -67 52 -174q0 -114 -47 -243q-46 -129 -140 -228q-93 -98 -203 -98q-119 0 -180.5 87t-61.5 224zM955 190q0 -63 24.5 -106 t67.5 -43q107 0 195 174q90 174 90 317q0 68 -24 108q-23 40 -68 40q-74 0 -179.5 -190.5t-105.5 -299.5z" />
<glyph unicode="&#x26;" horiz-adv-x="1326" d="M84 401q0 103 39 230t155.5 256t235.5 129q41 0 70.5 -32t38.5 -73q86 86 170.5 222.5t84.5 220.5q0 18 -19 44.5t-19 65.5t27.5 74t73.5 35q47 0 73 -43t26 -98q0 -89 -64.5 -206.5t-150.5 -220t-209 -223t-201 -188.5l-163 -139q0 -138 73 -219.5t196 -81.5 q195 0 332.5 207.5t144.5 457.5q-22 23 -67 23t-83.5 -30t-38.5 -55q0 -26 18 -41.5t36 -34.5t18 -58t-25 -62.5t-62 -23.5t-66.5 31.5t-29.5 82.5q0 119 97.5 226.5t207.5 107.5q128 0 220 -182q33 -66 50 -66q16 0 16 39t-12 65t-12 46q0 41 27 63.5t63 22.5t59 -46 t23 -93q0 -48 -7.5 -75.5t-26.5 -43t-32 -22.5t-45.5 -16t-41.5 -13.5t-42.5 -21.5t-53.5 -17t-41 30q-30 47 -97 125q8 -57 8 -102q0 -151 -63.5 -307.5t-198 -278t-309.5 -121.5q-181 0 -292 112t-111 318zM252 532q53 46 205 205q15 47 15 81t-17.5 53.5t-33.5 19.5 q-64 0 -114.5 -132t-54.5 -227z" />
<glyph unicode="'" horiz-adv-x="352" d="M286 944q12 72 22.5 242t17.5 194q28 101 124 101q114 0 84 -115q-7 -23 -80 -191q-72 -169 -92 -231h-76z" />
<glyph unicode="(" horiz-adv-x="555" d="M130 330q-12 254 54 489q66 236 198 410q140 186 332 295q13 8 28 -15q15 -22 4 -30q-69 -49 -148 -155q-79 -105 -140 -234q-192 -416 -172 -889q8 -144 40.5 -286t78.5 -222q8 -15 -11 -34t-27 -9q-103 112 -166 301q-63 188 -71 379z" />
<glyph unicode=")" horiz-adv-x="555" d="M-97 -307q164 117 289 385q194 420 174 893q-14 299 -120 508q-7 14 11 33q17 20 26 10q105 -119 167 -302q61 -184 69 -376q12 -258 -53 -494q-66 -235 -196 -407q-65 -86 -126 -145q-61 -58 -106 -87q-44 -28 -100 -65q-13 -8 -31 15q-17 24 -4 32z" />
<glyph unicode="*" horiz-adv-x="663" d="M28 874l213 138l-166 135l61 96l166 -135l47 276h89l-48 -276l216 139l28 -96l-216 -139l168 -140l-60 -96l-169 139l-47 -274h-89l48 274l-213 -137z" />
<glyph unicode="+" horiz-adv-x="851" d="M98 362v148h257v326h145v-326h255v-148h-255v-362h-145v362h-257z" />
<glyph unicode="," horiz-adv-x="445" d="M-28 -244q151 150 178 258q8 33 -11 41q-62 43 -62 125q0 60 41 106t96.5 46t91.5 -43t36 -121q0 -76 -41.5 -159t-101.5 -146.5t-114 -106.5t-87 -59q-12 -10 -24.5 18.5t-1.5 40.5z" />
<glyph unicode="-" horiz-adv-x="691" d="M125 544.5q11 65.5 39 65.5h488q22 0 9.5 -65.5t-37.5 -65.5h-486q-24 0 -13 65.5z" />
<glyph unicode="." horiz-adv-x="445" d="M74 133q0 47 30 96q30 50 101 50q49 0 84 -45q36 -44 36 -115q0 -64 -35 -105t-85 -41q-47 0 -90 38q-41 38 -41 122z" />
<glyph unicode="/" horiz-adv-x="424" d="M39 39l492 1442q8 24 60 -1q53 -26 43 -55l-492 -1441q-8 -13 -33 -6q-26 8 -50 27q-25 20 -20 34z" />
<glyph unicode="0" d="M67 345q0 221 75.5 464.5t189.5 383.5t271 140q131 0 187.5 -105.5t56.5 -269.5q0 -206 -68.5 -438t-192 -384t-273.5 -152q-133 0 -189.5 103t-56.5 258zM246 264q0 -188 78 -188q103 0 171 161.5t121.5 432t53.5 410.5q0 163 -85 163q-86 0 -157.5 -155.5t-126.5 -423 t-55 -400.5z" />
<glyph unicode="1" d="M96.5 30q8.5 38 19.5 38q84 0 122.5 45t66.5 168l172 806q8 33 4.5 47.5t-21.5 6.5q-103 -47 -131 -60q-14 -6 -18.5 23t13.5 37q151 71 325 213q26 20 37 20q17 0 27 -14t1 -39q-23 -74 -39 -160l-188 -878q-28 -107 -11.5 -161t94.5 -54q13 0 5 -38t-21 -38 q-66 8 -225 8q-164 0 -229 -8q-12 0 -3.5 38z" />
<glyph unicode="2" d="M-59 20.5q-5 28.5 25 59.5q96 94 229.5 247.5t238.5 303.5q189 274 189 418q0 61 -26.5 98t-75.5 37q-118 0 -229 -164q-12 -21 -35 -2.5t-10 37.5q76 119 172.5 198.5t198.5 79.5q100 0 157 -68.5t57 -177.5q0 -124 -63.5 -239t-167.5 -238q-59 -71 -129.5 -145 t-159.5 -162t-112 -110h236q83 0 126.5 16t83.5 82q11 20 42 5t20 -36l-128 -229q-23 -39 -72 -39q-25 0 -88.5 4t-170.5 4q-103 0 -182.5 -4t-92.5 -4q-28 0 -33 28.5z" />
<glyph unicode="3" d="M10 117q0 53 36 88t80 35q30 0 49.5 -26t28.5 -55.5t31 -55t55 -25.5q85 0 157 144.5t72 262.5q0 86 -36.5 137.5t-110.5 51.5q-44 0 -89 -17q-21 0 -11 53.5t29 53.5q156 0 246 123q62 84 62 192q0 56 -22 90.5t-64 34.5q-54 0 -101.5 -35.5t-111.5 -119.5 q-15 -21 -35.5 3.5t-7.5 41.5q92 118 169 178.5t167 60.5q88 0 140 -63.5t52 -161.5q0 -113 -57.5 -202t-147.5 -146q133 -53 133 -230q0 -147 -76.5 -277t-191 -203t-229.5 -73q-80 0 -148 32t-68 108z" />
<glyph unicode="4" d="M17 414q0 50 71 137l315 383q223 272 365 479q30 31 67.5 10.5t23.5 -63.5l-667 -815q-33 -41 -2 -41h285l85 399q5 23 96 23t86 -23l-85 -399h98q12 0 -1 -66.5t-27 -66.5h-98l-47 -215q-12 -56 3.5 -72t60.5 -16q13 0 4.5 -38t-21.5 -38q-65 8 -188 8t-189 -8 q-13 0 -4.5 38t21.5 38q59 0 89 19t42 69l47 215h-368q-62 0 -62 43z" />
<glyph unicode="5" d="M3 106q0 56 38 91.5t82 33.5q39 0 80 -69.5t85 -69.5q100 0 184.5 133t84.5 264q0 99 -52.5 156t-144.5 57q-52 0 -114 -20q-35 -12 -41.5 7.5t6.5 43.5l189 529q21 55 67 55h401q13 0 -21 -93.5t-46 -93.5h-332q-27 0 -40 -30l-55 -154q-7 -20 -3.5 -27.5t14.5 -5.5 q43 5 52 5q151 0 225.5 -81t74.5 -206q0 -191 -114 -375q-77 -125 -188.5 -198.5t-236.5 -73.5q-195 0 -195 122z" />
<glyph unicode="6" d="M67 305q0 76 20 170q59 279 278.5 537t468.5 370q18 9 25.5 -21t-7.5 -40q-170 -102 -301.5 -274.5t-204.5 -360.5q93 111 198 111t157.5 -81t52.5 -200q0 -209 -138 -370.5t-306 -161.5q-128 0 -185.5 89t-57.5 232zM249 260q0 -172 102 -172q93 0 153.5 119t60.5 244 q0 77 -31 134.5t-87 57.5q-75 0 -146 -78q-52 -162 -52 -305z" />
<glyph unicode="7" d="M79 20q103 156 160 254l518 867h-238q-47 0 -77.5 -4t-80.5 -35t-82 -90q-7 -13 -26 -16t-33.5 3.5t-11.5 18.5l93 242q7 20 10.5 27t10 16.5t14.5 11.5t21 2h546q33 0 37.5 -17.5t-9 -39t-23.5 -41.5l-649 -1219q-7 -10 -30 -16.5t-51.5 -5t-54.5 5.5t-39.5 14t-4.5 22z " />
<glyph unicode="8" d="M49 246q0 147 78.5 243.5t210.5 165.5q-117 111 -117 252q0 172 119.5 299t260.5 127q108 0 173 -58t65 -175q0 -125 -69.5 -223.5t-173.5 -157.5q133 -119 133 -287q0 -184 -132 -316t-284 -132q-115 0 -189.5 68.5t-74.5 193.5zM238 254q0 -76 30 -127t89 -51 q72 0 127 86t55 180q0 129 -141 254q-74 -49 -117 -142.5t-43 -199.5zM392 1014q0 -117 144 -232q128 109 128 301q0 150 -104 150q-64 0 -116 -69.5t-52 -149.5z" />
<glyph unicode="9" d="M72 13.5q0 23.5 10 29.5q179 109 283.5 238t203.5 346q-35 -33 -90.5 -62.5t-96.5 -29.5q-103 0 -162 75.5t-59 186.5q0 104 45 212.5t110 182.5q126 141 290 141q123 0 183 -90t60 -229q0 -320 -248 -637q-201 -258 -503 -418q-11 -6 -18.5 12.5t-7.5 42zM357 860 q0 -78 28 -132t79 -54q77 0 141 59q26 64 44 161t18 169q0 164 -107 164q-87 0 -145 -124t-58 -243z" />
<glyph unicode=":" horiz-adv-x="474" d="M122 131q0 64 36.5 110t87.5 46t87.5 -46t36.5 -110q0 -65 -36 -112q-37 -46 -88 -46t-88 46q-36 47 -36 112zM255 707q0 63 39 110q37 47 88 47t87.5 -46t36.5 -111q0 -64 -36.5 -110t-87.5 -46t-88 46q-39 46 -39 110z" />
<glyph unicode=";" horiz-adv-x="474" d="M16 -236q20 23 53.5 56t73 92t52.5 113q8 30 -10 41q-21 10 -42 43q-20 32 -20 81q0 60 40 105t96 45q55 0 91 -43t36 -121q0 -100 -72 -209q-72 -108 -146 -173q-74 -64 -126 -89q-12 -8 -24 20q-13 27 -2 39zM236 711q0 63 35 108t86 45t87 -45t36 -108q0 -64 -36 -107 t-87 -43t-86 43t-35 107z" />
<glyph unicode="&#x3c;" horiz-adv-x="819" d="M62 356v129l696 381v-184l-483 -260l483 -260v-185z" />
<glyph unicode="=" horiz-adv-x="851" d="M95 268v142h663v-142h-663zM95 575v142h663v-142h-663z" />
<glyph unicode="&#x3e;" horiz-adv-x="819" d="M61 -23v185l483 260l-483 260v184l696 -381v-129z" />
<glyph unicode="?" horiz-adv-x="555" d="M54 126q0 69 35.5 116t89.5 47t87.5 -48t33.5 -115t-34.5 -110t-87 -43t-88.5 42t-36 111zM203 584q0 88 33 141t98 88l97 53q139 76 139 176q0 103 -184 103q-19 0 -43.5 27.5t-24.5 70.5q0 45 35 89t85 44q92 0 150.5 -103.5t58.5 -246.5q0 -115 -37.5 -207t-91.5 -121 l-141 -75q-71 -37 -84 -75t-13 -106q0 -16 -25 -24t-29 8q-23 111 -23 158z" />
<glyph unicode="@" horiz-adv-x="1277" d="M57 602q0 234 94.5 415t244.5 274t325 93q229 0 364.5 -158.5t135.5 -377.5q0 -201 -121.5 -348.5t-319.5 -147.5q-115 0 -115 84q0 31 15 82l-8 6q-118 -166 -200 -166q-48 0 -69 41t-21 95q0 96 44 215.5t125 212t168 92.5q49 0 74 -31l16 51q5 19 43 19 q13 0 34.5 -13.5t16.5 -29.5l-113 -478q-23 -102 11 -102q133 0 224.5 116t91.5 294q0 198 -117 328t-294 130q-151 0 -268 -99t-176 -256t-59 -339q0 -74 14 -145.5t48.5 -145t86 -130t135 -92.5t188.5 -36q108 0 259 72q13 8 23.5 -17.5t-2.5 -33.5q-141 -109 -329 -109 q-107 0 -206 39t-181 115t-132 200.5t-50 280.5zM503 518q0 -69 25 -69q41 0 132 131q49 69 79 192l34 148q-14 47 -67 47q-49 0 -98 -87t-77 -191.5t-28 -170.5z" />
<glyph unicode="A" horiz-adv-x="932" d="M-127 5.5q0 13.5 5.5 47t17.5 33.5q87 0 125.5 34.5t72.5 97.5l524 974q6 12 6 23t-7.5 22.5t-7.5 22.5q0 20 55 43q54 24 98.5 53.5t67.5 29.5q33 0 33 -50q0 -22 -11 -79.5t-16 -106.5l-94 -948q-1 -15 -1 -30q0 -86 101 -86q6 0 6 -19t-7 -47t-16 -28q-61 8 -184.5 8 t-185.5 -8q-7 0 -7 17.5t8 47t16 29.5q49 0 71 22t30 94l29 283q4 38 -29 38h-197q-24 0 -38 -28l-152 -294q-19 -38 -19 -60q0 -55 97 -55q7 0 7 -18.5t-7 -47t-17 -28.5q-61 8 -183.5 8t-184.5 -8q-6 0 -6 13.5zM407 617.5q0 -10.5 15 -10.5h164q29 0 33 42l38 413 q1 15 -5 15q-7 0 -14 -13l-226 -428q-5 -8 -5 -18.5z" />
<glyph unicode="B" horiz-adv-x="996" d="M-20 4.5q0 12.5 7 47t19 34.5q89 0 116 32.5t39 83.5l229 954q6 26 6 52q0 25 -23.5 40.5t-95.5 15.5q-6 0 -6 12.5t8 47t19 34.5q111 -4 183.5 -4t137 2t123.5 2q134 0 210 -71.5t76 -188.5q0 -115 -60.5 -205t-146.5 -142q-16 -10 -16 -19.5t14 -20.5 q130 -105 130 -259q0 -164 -113.5 -311t-400.5 -147q-47 0 -107 3t-111.5 3t-230.5 -8q-6 0 -6 12.5zM346 164q0 -90 80 -90q158 0 239.5 104.5t81.5 300.5q0 107 -61 155t-203 48q-21 0 -28 -27l-102 -426q-7 -30 -7 -65zM488 776q0 -16 41 -16q139 0 225 90t86 243 q0 97 -42.5 142t-161.5 45q-29 0 -38 -40l-108 -444q-2 -8 -2 -20z" />
<glyph unicode="C" horiz-adv-x="1176" d="M142 469q0 351 239.5 633.5t536.5 282.5q86 0 193.5 -28t154.5 -28q-9 -181 -48 -334q-5 -17 -43 -17t-35 21q7 53 7 74q0 104 -74.5 165t-186.5 61q-219 0 -385.5 -259.5t-166.5 -585.5q0 -152 69 -271.5t211 -119.5q94 0 168 33.5t135 105t101 144.5q8 15 42 13t34 -17 q0 -38 -54 -154.5t-81 -151.5q-42 -7 -71 -19q-141 -44 -322 -44t-302.5 133t-121.5 363z" />
<glyph unicode="D" horiz-adv-x="1243" d="M-19 5.5q0 13.5 6.5 47t17.5 33.5q63 0 90 12.5t42 39t24 64.5l229 952q6 28 6 51q0 24 -20 41.5t-98 17.5q-13 0 -3.5 47t20.5 47q72 -4 185 -4t199.5 2t126.5 2q220 0 350 -122t130 -344q0 -320 -222 -610t-532 -290q-35 0 -156.5 4t-179 4t-208.5 -8q-7 0 -7 13.5z M351 189q0 -118 141 -118q218 0 402 258.5t184 539.5q0 189 -93 300t-246 111q-53 0 -83.5 -4.5t-44.5 -24.5t-25 -61l-225 -926q-10 -42 -10 -75z" />
<glyph unicode="E" horiz-adv-x="1004" d="M-19 5.5q0 13.5 6.5 47t17.5 33.5q79 0 109 26t49 106l227 939q4 13 3 39q0 67 -116 67q-6 0 -6 14.5t7 47.5t17 33q81 -4 191.5 -4t309 2t278.5 2q51 0 51 -30q0 -13 -3 -27l-68 -289q-4 -19 -41 -19t-34 17q5 33 5 83t-33 104.5t-100 59.5q-105 7 -193 7h-22 q-30 0 -38 -32l-128 -508q-2 -8 -2 -13q0 -19 19 -19h144q39 0 56 10q18 9 25 37l38 145q5 19 41.5 19t30.5 -19q-59 -210 -110 -466q-3 -17 -37 -17t-30 17l27 128q6 29 -8 40q-14 12 -46 12h-161q-17 0 -23 -27l-83 -348q-8 -34 -8 -67q0 -78 72 -78h7l232 12 q132 7 214 292q4 17 42 17t34 -17l-81 -361q-6 -29 -46 -29q-80 0 -294.5 4t-303.5 4t-231 -8q-7 0 -7 13.5z" />
<glyph unicode="F" horiz-adv-x="988" d="M-19 5.5q0 13.5 6.5 47t17.5 33.5q69 0 103 21q35 21 53 95l229 954q6 27 6 51q0 57 -118 57q-7 0 -7 15.5t7 47t17 31.5q115 -6 208 -6t291.5 3t278.5 3q53 0 53 -25q0 -16 -4 -34l-69 -287q-8 -17 -43 -17t-31 17q9 37 9 83q0 47 -40 103.5t-97 58.5q-159 7 -232 7 q-16 0 -25 -34l-112 -464q-2 -11 -2 -20q0 -20 17 -20h99q90 0 119 128l26 112q3 16 40.5 16t34.5 -16q-22 -63 -75.5 -294t-62.5 -280q-3 -14 -37.5 -14t-30.5 14l16 66q20 83 20 107q0 67 -67 67h-109q-19 0 -27 -34l-95 -396q-7 -29 -7 -55q0 -61 117 -61q7 0 7 -14.5 t-7 -47t-16 -32.5q-61 8 -227 8t-227 -8q-7 0 -7 13.5z" />
<glyph unicode="G" horiz-adv-x="1180" d="M142 448q0 352 237 644.5t524 292.5q95 0 203.5 -28t158.5 -28q0 -159 -47 -336q-4 -15 -41 -14t-35 20q4 57 4 59q0 124 -76 182.5t-187 58.5q-213 0 -380.5 -260.5t-167.5 -551.5q0 -204 74 -314t192 -110q223 0 259 157l38 166q5 19 5 31q0 18 -12.5 29.5t-128.5 11.5 q-6 0 -6 16t6.5 48t16.5 32q46 -6 212.5 -6t212.5 6q7 0 7 -15.5t-7 -48t-17 -32.5q-61 0 -80.5 -17.5t-32.5 -71.5l-55 -235q-3 -15 -3 -29.5t12 -18t12 -15.5q0 -42 -21 -42q-50 0 -156.5 -18.5t-178 -28t-108.5 -9.5q-197 0 -315.5 135.5t-118.5 339.5z" />
<glyph unicode="H" horiz-adv-x="1232" d="M-20 5q0 13 7 47t19 34q71 0 107 23.5t52 92.5l217 952q7 27 7 54q0 62 -112 62q-6 0 -6 13.5t8.5 47t18.5 33.5q46 -6 228.5 -6t228.5 6q7 0 7 -13.5t-9 -47t-19 -33.5q-86 0 -117.5 -27t-45.5 -89l-84 -369q-3 -14 -3 -25t22 -11h382q29 0 37 36l84 369q6 27 6 54 q0 62 -112 62q-5 0 -5 13t8.5 47t18.5 34q45 -6 227.5 -6t229.5 6q6 0 6 -12.5t-8 -47t-20 -34.5q-91 0 -120 -29t-42 -87l-219 -952q-6 -25 -6 -49q0 -67 120 -67q5 0 5 -14t-7.5 -47t-16.5 -33q-61 8 -230.5 8t-230.5 -8q-6 0 -6 14.5t7.5 47t18.5 32.5q70 0 106 23.5 t52 92.5l94 412q3 13 3 26t-22 13h-382q-27 0 -34 -32l-97 -419q-6 -25 -6 -49q0 -67 119 -67q6 0 6 -14t-7.5 -47t-16.5 -33q-62 8 -231.5 8t-230.5 -8q-6 0 -6 13z" />
<glyph unicode="I" horiz-adv-x="603" d="M-20 5q0 13 7 47t19 34q71 0 107 23.5t52 92.5l217 952q7 27 7 63q0 53 -112 53q-6 0 -6 13.5t8.5 47t18.5 33.5q46 -6 228.5 -6t228.5 6q7 0 7 -12.5t-8 -47t-20 -34.5q-89 0 -119.5 -29.5t-43.5 -86.5l-218 -952q-6 -25 -6 -52q0 -64 119 -64q6 0 6 -14.5t-7.5 -47 t-16.5 -32.5q-62 8 -231.5 8t-230.5 -8q-6 0 -6 13z" />
<glyph unicode="J" horiz-adv-x="526" d="M-270 -303q0 58 39 90t83 32q47 0 78.5 -35.5t34.5 -87.5q67 56 100.5 167t186.5 775l119 516q6 23 6 41q0 75 -100 75q-6 0 -6 15t7.5 47t18.5 32q45 -6 215 -6t215 6q7 0 7 -13.5t-6 -47t-19 -33.5q-66 0 -99 -21t-51 -95l-205 -881q-80 -349 -225 -520t-272 -171 q-57 0 -92 28.5t-35 86.5z" />
<glyph unicode="K" horiz-adv-x="1073" d="M-19 3.5q0 10.5 6.5 46.5t18.5 36q75 0 108 23.5t49 92.5l222 952q6 25 6 50q0 66 -113 66q-7 0 -7 14t8.5 47t18.5 33q56 -6 218 -6t221 6q6 0 6 -13.5t-8.5 -47t-19.5 -33.5q-67 0 -96.5 -19.5t-47.5 -96.5l-91 -396q-2 -6 -2 -12t5 -6q17 0 65 55l318 362q51 57 51 86 q0 27 -40 27q-6 0 -6 12.5t10 47t19 34.5q56 -6 171 -6t160 6q7 0 7 -12.5t-8 -47t-20 -34.5q-75 0 -123 -30.5t-128 -118.5l-316 -344q-13 -14 -13 -25t10 -34l225 -527q28 -65 66 -85t90 -20q8 0 8 -20t-5.5 -47t-14.5 -27q-74 8 -212.5 8t-212.5 -8q-8 0 -8 16t7.5 47 t17.5 31q67 0 67 50q0 21 -18 68l-141 359q-14 36 -26 49.5t-22.5 13.5t-15.5 -24l-94 -400q-5 -24 -5 -52q0 -64 104 -64q6 0 6 -15t-7 -47t-18 -32q-89 8 -218 8t-225 -7q-7 0 -7 10.5z" />
<glyph unicode="L" horiz-adv-x="1053" d="M-21 4q0 12 9 47t21 35q100 0 122.5 33t33.5 78l220 957q6 26 6 52q0 64 -114 64q-6 0 -6 14t9 47t18 33q46 -6 234 -6t234 6q5 0 5 -13t-8.5 -47t-18.5 -34q-97 0 -124 -26.5t-44 -89.5l-212 -913q-12 -47 -12 -81q0 -82 82 -82h6l254 14q205 11 270 290q4 17 43 17 t35 -17l-76 -334q-9 -42 -18.5 -49t-67.5 -7q-80 0 -314.5 4t-331 4t-249.5 -8q-6 0 -6 12z" />
<glyph unicode="M" horiz-adv-x="1543" d="M-22 4.5q0 12.5 6.5 47t18.5 34.5q69 0 103.5 24.5t59.5 109.5l260 880q15 48 15 83q0 87 -108 87q-6 0 -6 13t10 47t19 34q76 -6 143 -6t82 -20q19 -22 27 -75l144 -902q4 -26 14 -26q11 0 24 20l599 927q27 43 54 59q27 17 94 17t152 6q5 0 5 -12t-8 -47t-19 -35 q-89 0 -113 -32.5t-55 -160.5l-209 -878q-6 -25 -6 -50q0 -63 117 -63q6 0 6 -14t-7.5 -47t-16.5 -33q-61 8 -219 8t-220 -8q-6 0 -6 13.5t8.5 47t19.5 33.5q61 0 93 30.5t49 101.5l154 643q3 11 3 18q0 12 -7.5 12t-26.5 -28l-546 -841q-25 -39 -44.5 -39t-26.5 42 l-134 873q-4 28 -12.5 28t-15.5 -26l-205 -701q-8 -27 -8 -51q0 -62 95 -62q7 0 7 -15t-8 -47t-19 -32q-60 8 -165 8t-166 -8q-5 0 -5 12.5z" />
<glyph unicode="N" horiz-adv-x="1182" d="M-22 4.5q0 12.5 6.5 47t18.5 34.5q77 0 109.5 26t46.5 90l203 894q13 55 13 103t-37 62q-25 9 -68 9q-5 0 -5 13.5t8.5 47t20.5 33.5q60 -5 132 -5t92.5 -14.5t33.5 -47.5l356 -902q12 -31 24 -31q13 0 22 35l176 755q7 26 7 45q0 71 -103 71q-5 0 -5 13.5t9 47t20 33.5 q45 -6 162.5 -6t163.5 6q7 0 7 -12.5t-8 -47t-20 -34.5q-83 0 -109.5 -28t-36.5 -72l-263 -1143q-13 -54 -47 -54t-45 29l-404 1006q-9 23 -17.5 23t-14.5 -24l-183 -805q-7 -32 -7 -56q0 -60 98 -60q7 0 7 -14.5t-8 -47t-19 -32.5q-60 8 -165 8t-166 -8q-5 0 -5 12.5z" />
<glyph unicode="O" horiz-adv-x="1209" d="M142 451q0 345 210.5 639.5t510.5 294.5q193 0 292 -149t99 -361q0 -343 -208.5 -622.5t-507.5 -279.5q-165 0 -280.5 133.5t-115.5 344.5zM337 474q0 -188 68.5 -299.5t165.5 -111.5q143 0 250 116.5t175.5 308.5t68.5 386q0 176 -68 301.5t-164 125.5 q-118 0 -226.5 -106.5t-189 -299.5t-80.5 -421z" />
<glyph unicode="P" horiz-adv-x="976" d="M-20 4.5q0 12.5 7 47t19 34.5q78 0 108.5 23.5t47.5 92.5l228 955q4 22 4 46q0 61 -117 61q-6 0 -6 15t7.5 47t18.5 32q114 -6 188.5 -6t155 3t120.5 3q148 0 240.5 -78.5t92.5 -217.5q0 -197 -150.5 -335.5t-361.5 -138.5q-56 0 -115 11q-24 4 -32 -32l-85 -365 q-6 -22 -6 -42q0 -74 126 -74q7 0 7 -15t-8.5 -47t-18.5 -32q-60 8 -231.5 8t-232.5 -8q-6 0 -6 12.5zM475 728q-2 -10 -2 -18q0 -25 21 -32q14 -4 53 -4q147 0 242.5 113.5t95.5 251.5q0 101 -49 170t-140 69t-95 -19z" />
<glyph unicode="Q" horiz-adv-x="1240" d="M142 451q0 363 218.5 648.5t497.5 285.5q198 0 297 -149t99 -361q0 -155 -54 -327t-167 -308t-214 -192q-18 -10 -18.5 -21.5t9.5 -22.5q67 -82 166.5 -158t235.5 -123q8 -3 8 -15.5t-12 -41.5q-11 -25 -23 -25h-4q-165 43 -352.5 120t-371 180.5t-249.5 222.5t-66 287z M337 481q0 -195 68.5 -306.5t165.5 -111.5q210 0 352 265.5t142 546.5q0 175 -68 300.5t-164 125.5q-103 0 -216 -99.5t-196.5 -301t-83.5 -419.5z" />
<glyph unicode="R" horiz-adv-x="1107" d="M-20 5q0 13 7 47t19 34q69 0 103 20t52 96l229 955q6 27 6 43q0 64 -120 64q-5 0 -5 14.5t7.5 47t18.5 32.5q114 -6 183.5 -6t153 3t189.5 3t201.5 -77.5t95.5 -223.5t-90 -261.5t-244 -169.5q-17 -6 -15 -26t3 -27q26 -144 138 -388q70 -153 153 -153q13 0 12 -26 q-1 -25 -16 -27q-41 -4 -77 -4q-108 0 -165 37.5t-98 97.5t-61 124l-78 248q-21 65 -42 90q-13 14 -35.5 14t-37.5 3t-22 -4q-6 -6 -10 -20l-88 -363q-6 -25 -6 -50q0 -66 125 -66q6 0 6 -14t-7.5 -47t-18.5 -33q-61 8 -230 8t-230 -8q-6 0 -6 13zM465 691.5q0 -5.5 4 -10.5 q14 -17 75 -17q144 0 254.5 114t110.5 284q0 87 -58.5 151.5t-209.5 64.5q-28 0 -33.5 -8.5t-6.5 -14.5l-135 -552q-1 -6 -1 -11.5z" />
<glyph unicode="S" horiz-adv-x="833" d="M84 71v46q0 144 29 267q5 24 44 24t36 -20q-6 -32 -6 -65q0 -99 51 -179.5t172 -80.5q84 0 153.5 102t69.5 213q0 122 -142 194l-73 36q-181 92 -181 276q0 205 128 353t307 148q93 0 148 -15.5t95 -15.5v-18q0 -121 -24 -266q-3 -20 -41 -20t-38 16v27q-3 208 -170 208 q-87 0 -153.5 -96t-66.5 -204q0 -107 132 -161l84 -34q192 -77 192 -273q0 -227 -138.5 -393.5t-317.5 -166.5q-96 0 -148.5 19t-141.5 79z" />
<glyph unicode="T" horiz-adv-x="1030" d="M194 1007l75 312q6 26 18 31t108 5q96 -3 376 -3t400 5q56 0 56 -29q0 -4 -1 -9l-74 -312q-3 -16 -43.5 -16t-36.5 16q13 53 13 93q0 54 -31.5 109t-119.5 55h-88q-19 0 -26 -29l-243 -1033q-5 -20 -5 -43.5t19.5 -48t98.5 -24.5q6 0 6 -15.5t-6.5 -46.5t-19.5 -31 q-76 7 -229 7t-235 -7q-5 0 -5 21.5t10 46.5t15 25q73 0 110 20t54 96l242 1027q13 34 -20 35h-76q-198 0 -261 -257q-4 -17 -44.5 -17t-36.5 17z" />
<glyph unicode="U" horiz-adv-x="1189" d="M193 262q0 130 39 292l146 602q7 32 7 56q0 27 -24 42.5t-84 15.5q-6 0 -6 14t7 47t19 33q45 -6 220 -6t221 6q6 0 6 -13.5t-7.5 -47t-18.5 -33.5q-92 0 -114.5 -27t-37.5 -89l-116 -476q-74 -308 -74 -417t64 -153.5t134 -44.5q141 0 240 95t160 348l155 648q6 26 6 43 q0 73 -116 73q-5 0 -5 13t8 47t19 34q45 -6 186.5 -6t187.5 6q7 0 7 -12.5t-8 -47t-19 -34.5q-85 0 -112 -32.5t-39 -83.5l-69 -283q-113 -465 -169 -587t-169 -216.5t-307 -94.5q-177 0 -257 77.5t-80 211.5z" />
<glyph unicode="V" horiz-adv-x="1080" d="M191 1284q0 14 5.5 47t15.5 33q46 -6 205 -6t205 6q7 0 7 -16.5t-5.5 -47t-15.5 -30.5q-77 0 -102 -27q-22 -24 -22 -76v-13l40 -772q1 -23 8 -23t15 15l231 415q105 190 191 357q30 59 30 84q0 40 -70 40q-7 0 -7 14t9 47t19 33q46 -6 181 -6t182 6q5 0 5 -12t-8 -47 t-19 -35q-124 0 -165 -68q-141 -231 -316 -545l-376 -672q-12 -23 -37 -23q-34 0 -38 72l-60 1120q-4 78 -24.5 97t-76.5 19q-7 0 -7 14z" />
<glyph unicode="W" horiz-adv-x="1595" d="M176 1284.5q0 14.5 5 47t16 32.5q46 -6 178 -6t178 6q8 0 8 -18t-6.5 -47t-15.5 -29q-75 0 -75 -47q0 -30 5 -69l98 -803q3 -23 16 -23t27 23l139 236q32 55 32 82q0 46 -4 78l-50 407q-9 74 -26.5 95t-62.5 21q-7 0 -7 17.5t6 47t16 29.5q45 -6 174.5 -6t174.5 6 q8 0 8 -16t-6 -47t-15 -31q-81 0 -81 -50q0 -31 4 -66l24 -192q3 -27 9.5 -27t22.5 27l108 184q43 73 43 100q0 24 -61 24q-7 0 -7 14t8.5 47t18.5 33q47 -6 163.5 -6t162.5 6q6 0 6 -12.5t-8.5 -47t-18.5 -34.5q-124 0 -160 -60l-232 -390q-25 -42 -25 -78q0 -32 4 -64 l40 -327q3 -23 14 -23q14 0 29 23q103 162 466 795q36 63 36 92q0 32 -69 32q-5 0 -5 12.5t8.5 47t18.5 34.5q46 -6 166 -6t166 6q6 0 6 -12.5t-8 -47t-20 -34.5q-113 0 -157 -71q-195 -309 -333 -547l-381 -654q-21 -36 -42 -36q-33 0 -42 72l-53 433q-3 24 -9 24 q-4 0 -19 -25l-278 -468q-21 -36 -42 -36q-33 0 -42 72l-136 1120q-9 77 -27.5 96.5t-73.5 19.5q-7 0 -7 14.5z" />
<glyph unicode="X" horiz-adv-x="1101" d="M-102 5.5q0 13.5 6.5 47t17.5 33.5q83 0 126 20t90 75l392 463q12 13 12 30q0 11 -4 23l-142 434q-24 73 -57 106t-102 33q-11 0 -3 47t18 47q46 -6 232 -6t231 6q12 0 3 -47t-20 -47q-116 0 -116 -65q0 -23 9 -55l83 -277q4 -16 14 -16q7 0 19 14l237 281q55 66 55 94 q0 24 -53 24q-11 0 -1.5 47t21.5 47q45 -6 172.5 -6t174.5 6q5 0 5 -12.5t-6.5 -47t-18.5 -34.5q-87 0 -136.5 -32.5t-157.5 -158.5l-260 -305q-16 -19 -16 -36q0 -14 4 -27l148 -491q26 -85 56 -109.5t110 -24.5q10 0 2.5 -47t-19.5 -47q-62 8 -214.5 8t-213.5 -8 q-12 0 -3 47t20 47q100 0 100 52q0 20 -15 64l-108 332q-6 20 -18 20q-11 0 -26 -19l-200 -239q-108 -128 -108 -174q0 -36 74 -36q12 0 3 -47t-20 -47q-61 8 -195 8t-194 -8q-8 0 -8 13.5z" />
<glyph unicode="Y" horiz-adv-x="1014" d="M158 1283.5q0 13.5 6.5 47t17.5 33.5q46 -6 202.5 -6t201.5 6q13 0 4 -47t-20 -47q-97 0 -97 -56q0 -24 9 -57l104 -403q7 -23 18 -23t26 20l308 406q38 52 38 78q0 35 -74 35q-12 0 -2 47t22 47q45 -6 169.5 -6t170.5 6q7 0 7 -13.5t-6.5 -47t-18.5 -33.5 q-82 0 -126 -34.5t-160 -190.5l-303 -403q-30 -40 -52 -134l-71 -307q-6 -27 -6 -51q0 -64 100 -64q12 0 2 -47t-22 -47q-60 8 -210 8t-211 -8q-11 0 -1.5 47t21.5 47q67 0 95.5 24t47.5 108l62 256q19 84 19 115t-16 89l-121 460q-22 81 -46 106.5t-81 25.5q-7 0 -7 13.5z " />
<glyph unicode="Z" horiz-adv-x="1051" d="M-25 57q0 26 17 46l962 1125q15 15 13.5 29.5t-23.5 14.5h-425q-39 0 -78 -33.5t-98 -124t-76 -138.5q-5 -17 -29.5 -11.5t-17.5 25.5q59 178 99 337q10 39 50 39q14 0 50 -7t469 -7l322 8q39 0 39 -43q0 -30 -20 -56l-959 -1131q-13 -15 -10 -29.5t26 -14.5 q264 0 476 13q83 4 150 115q48 79 75 139q7 14 31 3.5t18 -22.5q-47 -102 -71.5 -187.5t-38.5 -142.5q-9 -36 -25 -36h-2q-93 21 -163 26.5t-406 5.5h-312q-43 0 -43 57z" />
<glyph unicode="[" horiz-adv-x="579" d="M43 -332l424 1843q4 18 20 19h396q12 0 -1.5 -48t-24.5 -48h-221q-15 0 -22 -23l-376 -1640q-7 -29 4 -29h241q12 0 2 -48t-23 -48h-405q-19 0 -14 22z" />
<glyph unicode="\" horiz-adv-x="572" d="M-10 1405q-10 25 43.5 54.5t61.5 4.5l503 -1409q3 -12 -22 -32.5t-50.5 -28.5t-33.5 2z" />
<glyph unicode="]" horiz-adv-x="579" d="M-187 -306q10 48 22 48h244q11 0 16 25l377 1644q6 23 -8 23h-225q-13 0 -3 48t23 48h395q16 0 11 -19l-423 -1843q-4 -22 -21 -22h-406q-12 0 -2 48z" />
<glyph unicode="^" horiz-adv-x="819" d="M75 549l341 854h54l341 -854h-131l-234 616h-10l-236 -616h-125z" />
<glyph unicode="_" horiz-adv-x="819" d="M-30 -145h879v-121h-879v121z" />
<glyph unicode="`" horiz-adv-x="733" d="M94 1218q-24 28 8 72q32 43 68 43q20 0 30 -19l167 -313q17 -31 10 -51q-7 -21 -25 -21q-19 0 -34 18z" />
<glyph unicode="a" horiz-adv-x="772" d="M50 166q0 209 149 443.5t314 234.5q49 0 85 -31l16 49q8 22 75 22q73 0 73 -35q0 -7 -3 -18l-157 -651q-3 -10 -3 -19q1 -20 19 -20q28 0 81 66q10 12 33 -12q15 -17 15 -28q0 -5 -3 -9q-74 -90 -134 -137.5t-105 -47.5q-63 0 -63 86v5q0 61 32 144l3 7l-10 6 q-179 -248 -289 -248q-58 0 -93 54t-35 139zM228 227q0 -117 38 -117q41 0 100.5 81.5t102 177.5t64.5 184l39 160q-26 47 -81 47q-102 0 -182.5 -215.5t-80.5 -317.5z" />
<glyph unicode="b" horiz-adv-x="743" d="M71 174q0 42 9 88l182 952q7 40 7 69q0 77 -50 77q-16 0 -15 36t15 36q66 0 144.5 27.5t85.5 27.5q17 0 17 -22q0 -6 -2 -17l-151 -795l13 -8q134 207 243 207q163 0 163 -244q0 -248 -149 -441.5t-367 -193.5q-145 0 -145 201zM233 191q0 -128 55 -128q109 0 189 183 t80 372q0 113 -52 113q-63 0 -143 -138t-104.5 -246.5t-24.5 -155.5z" />
<glyph unicode="c" horiz-adv-x="594" d="M74 264q0 203 125.5 395.5t270.5 192.5q64 0 109 -33t45 -82q0 -37 -26 -65.5t-56 -28.5q-34 0 -48 31q-4 48 -21 72q-18 24 -43 24q-78 0 -133.5 -145.5t-55.5 -294.5q0 -99 25.5 -169.5t75.5 -70.5q43 0 76.5 25.5t47.5 42.5q6 8 18 -0.5t18.5 -22t0.5 -22.5 q-93 -140 -236 -140q-86 0 -139.5 80t-53.5 211z" />
<glyph unicode="d" horiz-adv-x="788" d="M50 172q0 200 146 440t310 240q44 0 87 -31l74 389q9 43 9 75q0 75 -50 75q-16 0 -16 36t16 36q67 0 144 27.5t84 27.5q17 0 17 -19q0 -6 -3 -20l-233 -1220q-9 -48 -9 -64q0 -22 13 -22q22 0 75 85q6 9 18.5 0.5t21.5 -23.5t4 -24q-117 -207 -219 -207q-46 0 -61.5 36 t-15.5 102q0 20 15 104l-10 6q-68 -101 -142.5 -174.5t-146.5 -73.5q-67 0 -97.5 63.5t-30.5 135.5zM228 205q0 -94 38 -94q46 0 144 132t111 201l51 267q-33 59 -81 59q-91 0 -177 -201.5t-86 -363.5z" />
<glyph unicode="e" horiz-adv-x="600" d="M62 231q0 192 140 406.5t286 214.5q134 0 134 -139q0 -120 -113.5 -215.5t-269.5 -141.5q-13 -75 -13 -104q0 -148 74 -148q39 0 89 39t71 64q7 5 18 -2.5t18.5 -20t3.5 -20.5q-117 -191 -246 -191q-192 0 -192 258zM261 449q70 28 134.5 94.5t64.5 144.5q0 66 -35 66 q-42 0 -86.5 -87.5t-77.5 -217.5z" />
<glyph unicode="f" horiz-adv-x="499" d="M-230 -424q0 45 23.5 75t50.5 30q48 0 72.5 -63.5t49.5 -63.5q37 0 53.5 45.5t33.5 150.5l160 987h-144q-7 0 -7 14q0 32 17 73q8 20 16 20h135q53 359 151 489.5t258 130.5q82 0 132 -55t50 -141q0 -119 -75 -119q-34 0 -58.5 23.5t-24.5 102.5q0 107 -65 107 q-52 0 -108.5 -95t-101.5 -443h205q6 0 6 -12q0 -24 -18 -74q-8 -21 -15 -21h-196l-134 -833q-17 -106 -55.5 -223.5t-109 -174.5t-148.5 -57q-70 0 -111.5 41t-41.5 86z" />
<glyph unicode="g" horiz-adv-x="694" d="M-85 -327.5q0 90.5 95.5 154t179.5 97.5q-76 49 -76 109q0 67 120 164q-165 58 -165 232.5t117 298.5t276 124q36 0 87.5 -29.5t78.5 -29.5q14 0 52.5 10t55.5 10q42 0 42 -59q0 -90 -51 -90q-28 0 -111 41q11 -37 11 -107.5t-32.5 -163t-95 -157t-145.5 -84.5 q-46 -12 -48 -14q-41 -32 -41 -70.5t119 -103.5q90 -49 175 -122t85 -183.5t-130.5 -184.5t-297.5 -74q-141 0 -221 70.5t-80 161zM89 -307.5q0 -67.5 75.5 -105.5t150.5 -38t118.5 29.5t43.5 97.5q0 50 -91.5 122.5t-130.5 72.5t-102.5 -55.5t-63.5 -123zM214 319 q0 -40 41 -40q78 0 154 150.5t76 285.5q0 41 -33 41q-74 0 -156 -150.5t-82 -286.5z" />
<glyph unicode="h" horiz-adv-x="753" d="M46 10v4l231 1203q8 40 8 70q0 73 -51 73q-16 0 -15.5 36t15.5 36q69 0 146.5 27.5t85.5 27.5q20 0 12 -39l-150 -799l13 -10q123 213 244 213q161 0 161 -242q0 -170 -92.5 -403.5t-235.5 -233.5q-48 0 -81.5 36t-33.5 83q0 49 20.5 81t58.5 32q48 0 63 -57.5t38 -57.5 t44.5 77t38.5 199t17 222q0 133 -73 133q-72 0 -189 -225q-31 -60 -71 -256l-48 -244q-5 -23 -81 -23q-75 0 -75 37z" />
<glyph unicode="i" horiz-adv-x="427" d="M86 648q0 3 3 7q50 77 113.5 137t107.5 60q83 0 83 -126q0 -25 -10 -64l-117 -482q-4 -14 -4 -22q0 -17 21 -17t71 80q8 14 30 -11q17 -17 17 -28q0 -5 -3 -8q-51 -79 -115 -140t-108 -61q-81 0 -81 125q0 34 9 70l118 479q3 13 3 21q0 20 -15 20t-78 -82q-9 -12 -30 14 q-15 17 -15 28zM283 1162q0 50 35.5 89t77.5 39q112 0 112 -150q0 -54 -35 -92t-77 -38q-113 0 -113 152z" />
<glyph unicode="j" horiz-adv-x="392" d="M-249 -461q0 41 25.5 66.5t57.5 25.5q25 0 54.5 -38.5t50.5 -38.5q28 0 57 56t48 161l167 876q2 12 2 20q0 21 -19.5 21t-73.5 -84q-8 -13 -30 12q-15 18 -15 28q0 4 2 7q133 201 228 201q73 0 73 -123q0 -31 -6 -63l-98 -523q-24 -144 -66 -293.5t-133 -276t-242 -126.5 q-33 0 -57.5 24.5t-24.5 67.5zM253 1162q0 50 35 89t78 39q112 0 112 -150q0 -54 -35 -92t-77 -38q-113 0 -113 152z" />
<glyph unicode="k" horiz-adv-x="743" d="M46 12l232 1202q8 39 8 57q0 89 -52 89q-16 0 -15.5 36t15.5 36q68 0 146 27.5t86 27.5q19 0 12 -39l-139 -731l13 -8q39 57 100 100t114 43q47 0 87 -32t40 -113q0 -76 -74.5 -163.5t-156.5 -139.5q-10 -7 -10 -18t8 -26l95 -165q61 -105 105 -105q27 0 59 41q3 3 6 3 q8 0 22.5 -15.5t14.5 -25.5q0 -4 -2 -7q-79 -113 -162 -113q-68 0 -105.5 28t-79.5 108l-110 210q-8 21 -28 21q-8 0 -13 -27l-60 -319q-5 -21 -84 -21q-73 0 -73 33q0 3 1 6zM281 408q0 -15 21 -15q82 0 153.5 98t71.5 193q0 55 -29 55q-76 0 -162 -129q-25 -37 -30 -63 l-23 -123q-2 -7 -2 -16z" />
<glyph unicode="l" horiz-adv-x="397" d="M68 101q0 26 6 55l198 1054q8 44 8 75q0 75 -49 75q-17 0 -16 36t16 36q67 0 144 27.5t83 27.5q18 0 18 -23q0 -7 -2 -16l-237 -1253q-4 -21 -4 -29q0 -25 16 -25q27 0 73 86q4 6 10 6q8 0 23.5 -16t15.5 -27q0 -4 -2 -8q-127 -209 -225 -209q-76 0 -76 128z" />
<glyph unicode="m" horiz-adv-x="1220" d="M59 3l152 611q10 39 10 50q0 24 -18.5 24t-71.5 -82q-3 -5 -7 -5q-9 0 -23 18t-14 29q0 4 2 7q131 197 224 197q72 0 72 -109q0 -33 -8 -67l-41 -172l8 -4q64 143 147 247.5t161 104.5q106 0 106 -133q0 -60 -30 -196l-4 -19l8 -4q162 352 318 352q113 0 113 -141 q0 -68 -23 -164l-76 -315q-17 -67 -17 -76q0 -17 19 -17t83 88q3 4 7 4q8 0 22.5 -17t14.5 -28q0 -5 -2 -8q-135 -205 -236 -205q-77 0 -77 135q0 21 10 60l102 412q20 81 20 122t-22 41q-40 0 -95 -85t-114 -211t-169 -455q-8 -24 -87 -24h-2q-69 0 -70 27q0 3 1 6l131 534 q35 140 35 172q0 36 -20 36q-31 0 -79.5 -64.5t-109 -183.5t-193.5 -499q-8 -23 -85.5 -23t-71.5 30z" />
<glyph unicode="n" horiz-adv-x="819" d="M59 -2l155 623q9 35 9 45q0 22 -18.5 22t-73.5 -82q-3 -4 -7 -4q-9 0 -23 17.5t-14 28.5q0 4 2 7q137 197 225 197q71 0 71 -104q0 -37 -13 -82l-46 -162l10 -4q161 352 313 352q114 0 114 -141q0 -71 -22 -164l-76 -315q-16 -65 -16 -71q0 -20 18.5 -20t78.5 84q2 4 6 4 q8 0 24 -17.5t16 -28.5q0 -4 -2 -7q-130 -203 -238 -203q-72 0 -72 128q0 33 8 67l100 412q25 102 25 131q0 32 -15 32q-79 0 -199.5 -264.5t-180.5 -482.5q-7 -23 -86 -23t-73 25z" />
<glyph unicode="o" horiz-adv-x="758" d="M90 315q0 191 130 364t285 173q111 0 166.5 -90t55.5 -234q0 -209 -118.5 -382t-295.5 -173q-111 0 -167 97.5t-56 244.5zM236 203q0 -117 77 -117q76 0 174 201t98 342q0 119 -72 119q-84 0 -180.5 -201t-96.5 -344z" />
<glyph unicode="p" horiz-adv-x="728" d="M-127 -548q0 15 7 39t18 24q79 0 94 75l210 1080q-36 -23 -92 -82q-3 -3 -6 -3q-9 0 -22.5 18t-13.5 29q0 4 2 7q71 87 149 137l42 236q5 32 56 50t82 18q35 0 31 -27l-40 -213q43 4 54 4q118 0 197.5 -88t79.5 -240q0 -209 -143.5 -376t-308.5 -167q-17 0 -46 4 l-74 -378q-3 -17 -3 -30q0 -54 93 -54q8 0 8 -14q0 -15 -7 -37.5t-17 -22.5q-65 8 -171 8t-172 -8q-7 0 -7 11zM244 80q0 -25 28 -25q111 0 194 138.5t83 287.5q0 111 -31.5 185.5t-104.5 74.5q-19 0 -44 -6l-122 -623q-3 -17 -3 -32z" />
<glyph unicode="q" horiz-adv-x="784" d="M50 160q0 216 150 454t364 238q59 0 99 -72l50 107q8 18 27 18q75 0 75 -48q0 -8 -2 -17l-69 -324l-170 -885q-3 -13 -3 -25q0 -42 42 -42q16 0 37 4q8 2 8 -18q0 -60 -25 -60q-129 0 -331 -49q-10 0 -10 16q0 61 36 65q69 7 88 105l122 631l-8 8q-84 -122 -177 -207.5 t-167 -85.5q-68 0 -102 56.5t-34 130.5zM228 150q0 -52 39 -52q38 0 124 94.5t135 194.5q65 134 65 240q0 143 -67 143q-99 0 -197.5 -232t-98.5 -388z" />
<glyph unicode="r" horiz-adv-x="614" d="M56 633q0 3 2 6q72 118 128 165.5t100 47.5q68 0 68 -96q0 -36 -7 -72l-21 -117l10 -4q114 289 234 289q44 0 77 -32t33 -81t-19.5 -76.5t-52.5 -27.5q-36 0 -61.5 28.5t-44.5 28.5q-47 0 -120.5 -195t-137.5 -501q-5 -23 -81 -23t-76 35v6l98 584q10 62 10 71 q0 19 -18 19t-72 -92q-3 -5 -8 -5q-8 0 -23 14q-18 17 -18 28z" />
<glyph unicode="s" horiz-adv-x="494" d="M33 107q0 42 18 75t55 33q58 0 91.5 -59.5t78.5 -59.5q50 0 50 64q0 44 -92.5 172t-92.5 243q0 129 66 203t167 74q54 0 95 -48t41 -97q0 -31 -20.5 -60t-43.5 -29q-63 0 -91.5 63.5t-77.5 63.5q-18 0 -29.5 -15t-11.5 -36q0 -52 99 -193t99 -251t-75 -193.5t-187 -83.5 q-59 0 -99 45t-40 89z" />
<glyph unicode="t" horiz-adv-x="483" d="M67 104q0 44 8 76l133 533h-128q-13 0 -9 37q4 38 24 43l141 36l111 197q4 7 23 7q64 0 64 -38q0 -8 -2 -15l-41 -161h192q8 0 8 -15t-7 -53t-18 -38h-199l-118 -480q-11 -45 -11 -71q0 -37 21 -37q51 0 182 192q2 4 6 4q8 0 21 -17q21 -25 14 -38q-82 -144 -156 -218.5 t-159 -74.5q-47 0 -73.5 41t-26.5 90z" />
<glyph unicode="u" horiz-adv-x="815" d="M85 643q0 4 2 8q124 201 232 201q72 0 72 -125q0 -37 -13 -88l-76 -307q-30 -118 -30 -158q0 -41 18 -41q40 0 122.5 136.5t123.5 231.5q74 169 111 329q5 22 75 22q82 0 82 -29q0 -3 -1 -6l-145 -586q-16 -65 -16 -69q0 -21 21 -21t81 84q3 3 6 3q9 0 23 -16 q15 -19 15 -30q0 -3 -2 -6q-131 -203 -228 -203q-84 0 -84 121q0 35 9 76l36 152q-80 -138 -173.5 -243.5t-150.5 -105.5q-100 0 -100 123q0 49 16 113l102 407q12 48 12 54q0 18 -15 18t-36 -23q-21 -24 -44 -61q-3 -5 -8 -5q-8 0 -22 16q-15 17 -15 28z" />
<glyph unicode="v" horiz-adv-x="674" d="M87 648q0 4 2 7q137 197 230 197q36 0 54 -35t18 -88q0 -35 -8 -67l-111 -447q-7 -30 -7 -56q0 -14 2 -27q8 -44 43 -44q71 0 159.5 166t88.5 313q0 92 -39 183q0 102 79 102q48 0 72 -43t24 -102q0 -138 -66 -318t-186 -298t-224 -118q-51 0 -78.5 27.5t-37.5 75.5 q-5 22 -5 45q0 26 6 53l102 408q18 73 18 81q0 25 -13 25q-27 0 -79 -82q-8 -13 -29 12q-15 19 -15 30z" />
<glyph unicode="w" horiz-adv-x="1007" d="M87 649q0 5 3 10q136 193 229 193q72 0 72 -119q0 -42 -8 -74l-111 -446q-6 -26 -6 -55q0 -70 42 -70q38 0 68 39.5t60.5 104t51.5 149.5l106 442q7 29 83 29t76 -23q0 -3 -1 -6l-150 -612q-8 -29 -8 -50q0 -73 56.5 -73t148 161t91.5 312q0 96 -40 182q0 109 82 109 q53 0 74 -47t21 -98q0 -120 -67.5 -309.5t-187 -307t-222.5 -117.5q-45 0 -73 25q-30 26 -41 78q-117 -103 -218 -103q-59 0 -91 36t-32 95q0 31 10 70l100 406q18 75 18 92q0 16 -18.5 16t-73.5 -82q-3 -5 -9.5 -4.5t-20.5 17.5t-14 30z" />
<glyph unicode="x" horiz-adv-x="720" d="M3 61q0 56 21.5 97t49.5 41t46 -37t22 -37q27 0 60 55l106 182l-89 216q-32 92 -47 92q-12 0 -26.5 -30.5t-25.5 -59.5q-3 -6 -10.5 -6t-25.5 13.5t-14 26.5q84 238 158 238q60 0 108 -121l77 -194l72 125q109 190 192 190q46 0 66 -29t20 -80q0 -116 -69 -116 q-27 0 -40 39t-33 39q-31 0 -72 -70l-105 -178l78 -193q42 -102 62 -102t57 102q3 10 15 10t23 -6.5t9 -17.5q-42 -277 -142 -277q-70 0 -136 152l-69 158l-79 -136q-100 -174 -182 -174q-34 0 -55.5 23.5t-21.5 64.5z" />
<glyph unicode="y" horiz-adv-x="625" d="M-122 -446q0 51 22 79.5t59 28.5q33 0 56 -47t55 -47t86.5 71t76 178t21.5 255q0 260 -18 437t-62 177q-34 0 -80 -113q-3 -7 -11.5 -7t-26.5 13t-14 25q89 248 196 248q78 0 121.5 -166t43.5 -377q0 -98 -8 -190l10 -4q47 116 80 274t33 256q0 55 -21 115q0 92 75 92 t75 -88q0 -63 -38.5 -234.5t-104.5 -333.5t-159.5 -366t-178 -294.5t-169.5 -90.5q-50 0 -84.5 30.5t-34.5 78.5z" />
<glyph unicode="z" horiz-adv-x="733" d="M29 76q0 10 5 16l415 526q9 12 9 24q0 14 -16 22q-68 32 -151 32h-19q-42 -2 -42 -22q0 -8 26 -39t26 -68q0 -87 -77 -87q-82 0 -82 111q0 102 75.5 176.5t168.5 74.5q43 0 118 -28t109 -28q41 0 59 24l32 44q5 6 13 6q13 0 36 -29q23 -30 23 -46q0 -9 -5 -15l-432 -561 l2 -19l34 -7q85 -18 149.5 -64.5t77.5 -46.5q50 0 50 55q0 18 -24 48t-24 79q0 74 77 74q33 0 55 -34t22 -79q0 -104 -64.5 -189t-141.5 -85q-38 0 -97 29.5t-119.5 62.5t-88.5 33q-64 0 -110 -86q-4 -7 -14 -7q-16 0 -45 40q-30 41 -30 63z" />
<glyph unicode="{" horiz-adv-x="627" d="M186 -113.5q1 52.5 16 119.5l90 424q18 82 -2.5 119t-86.5 37q-13 0 -6.5 30.5t19.5 30.5q66 0 102 36t52 114l71 325q14 68 30.5 121t38.5 92t41 65.5t51 44t56 28t69 14.5t75 5t89 1q12 0 3.5 -38t-19.5 -38q-108 0 -164.5 -45t-87.5 -188l-51 -234 q-17 -76 -26.5 -112.5t-29.5 -84.5t-47.5 -79t-70.5 -58q53 -47 58.5 -123.5t-22.5 -187.5l-57 -266q-36 -180 -8.5 -231.5t150.5 -51.5q12 0 3.5 -37.5t-19.5 -37.5q-7 0 -18 -1q-54 1 -81 2t-71.5 7t-64 17t-45 34.5t-32 58.5t-5.5 87.5z" />
<glyph unicode="|" horiz-adv-x="428" d="M158 -334v1767h156v-1767h-156z" />
<glyph unicode="}" horiz-adv-x="627" d="M-9 -281.5q7 37.5 20 37.5q123 0 174 53.5t90 229.5l56 266q28 125 62.5 194.5t106.5 116.5q-58 50 -59.5 135t29.5 199l49 234q32 143 -5 188t-147 45q-11 0 -3 38t19 38q59 0 88.5 -1t73 -5t63.5 -14.5t44.5 -28t31.5 -44t13 -65.5t-0.5 -92t-21.5 -121l-69 -325 q-18 -78 3.5 -114t86.5 -36q12 0 5.5 -30.5t-18.5 -30.5q-65 0 -101 -37t-54 -119l-92 -424q-13 -59 -29.5 -107.5t-39.5 -81t-43.5 -57t-53 -39t-55.5 -23.5t-65 -12t-65 -4t-72 -2q-11 1 -18 1q-11 0 -4 37.5z" />
<glyph unicode="~" horiz-adv-x="594" d="M5 416q5 6 24.5 35.5t32 44t35.5 36t50.5 31.5t60.5 10q43 0 118 -45t107 -45q22 0 41 11.5t40.5 35t29.5 31.5q11 10 31.5 -10.5t12.5 -32.5q-6 -8 -32.5 -46t-45 -60.5t-53 -44t-72.5 -21.5q-41 0 -119.5 46t-114.5 46q-38 0 -103 -71q-12 -15 -32.5 9.5t-10.5 39.5z " />
<glyph unicode="&#xa1;" horiz-adv-x="476" d="M-51 -391q5 20 121.5 362t145.5 432q5 15 25 19t37 -3t15 -20q-126 -800 -128 -811q-13 -59 -52 -100t-80 -41q-125 0 -84 162zM203 715q0 65 37 111t89.5 46t90 -46t37.5 -111.5t-37.5 -111.5t-90.5 -46q-50 0 -88 47t-38 111z" />
<glyph unicode="&#xa2;" horiz-adv-x="704" d="M95 522q0 103 42 211.5t105 190.5q136 176 302 194l67 193q5 14 47 3t38 -24l-62 -174q128 -18 146 -86q2 -26 -10.5 -64t-37.5 -61q-65 -65 -96 -6l-12 44q-11 44 -29 61l-221 -625q29 -21 57 -21q49 0 86.5 11.5t55 26t36.5 26.5q20 14 32.5 -30t-5.5 -54 q-4 -2 -40.5 -27.5t-65.5 -42t-84.5 -33t-112.5 -16.5h-17l-67 -190q-5 -13 -46.5 -2.5t-38.5 22.5l69 195q-63 35 -100.5 107.5t-37.5 170.5zM292 592q0 -66 21 -125l195 551q-82 -31 -149 -169t-67 -257z" />
<glyph unicode="&#xa3;" horiz-adv-x="864" d="M-36 51q0 33 24.5 61.5t62 46t69.5 28t62 14.5q62 10 99.5 127.5t46.5 242.5h-174q-13 0 -3 46.5t21 46.5h166q11 114 22.5 188t43.5 171t79 161q107 139 243 139q185 0 185 -156q0 -28 -22 -74t-55 -46q-18 0 -33 29.5t-25.5 65.5t-37.5 65.5t-65 29.5q-44 0 -76 -71.5 t-42.5 -167t-18.5 -190.5t-8 -144h231q11 0 4.5 -46.5t-18.5 -46.5h-229q-13 -102 -69.5 -204.5t-131.5 -169.5q57 10 114.5 -24t105.5 -73t78 -39q23 0 32.5 29t7 61.5t-0.5 57.5q0 96 67 96q44 0 67 -39t23 -84q0 -80 -54.5 -137t-116 -77.5t-115.5 -20.5q-56 0 -111 24.5 t-120.5 65.5t-104.5 59q-26 -8 -40 -29.5t-19 -43t-24 -38t-53 -16.5q-33 0 -60 21.5t-27 60.5z" />
<glyph unicode="&#xa4;" horiz-adv-x="819" d="M64 668q0 145 70 260l-64 80q-8 10 26 52t42 32l64 -80q93 90 208 90q116 0 209 -88l63 78q8 10 41.5 -32t25.5 -52l-63 -78q71 -117 71 -262q0 -146 -71 -262l63 -78q8 -11 -25.5 -53t-41.5 -31l-63 78q-93 -89 -208 -89q-116 0 -209 91l-64 -80q-8 -11 -42 31t-26 53 l64 80q-70 114 -70 260zM161 668q0 -129 73 -221q72 -91 176 -91t177 91q73 92 73 221t-73 220t-177 91t-176.5 -91t-72.5 -220z" />
<glyph unicode="&#xa5;" horiz-adv-x="1014" d="M126.5 517.5q12.5 51.5 23.5 49.5h281q-1 48 -18 111l-20 73l-205 2q-12 0 0 51.5t23 49.5h154l-73 284q-17 65 -43.5 98.5t-83.5 33.5q-12 0 -3 47t20 47q46 -6 202.5 -6t201.5 6q13 0 4 -47t-20 -47q-68 0 -87.5 -22t-0.5 -91l104 -403q13 -45 44 -3l308 406 q48 63 38 88t-74 25q-12 0 -2 47t22 47q45 -6 169.5 -6t170.5 6q12 0 3 -47t-21 -47q-81 0 -126 -36t-160 -189l-142 -191l151 2q11 0 0.5 -51.5t-23.5 -53.5h-206l-83 -109q-25 -33 -35 -75l286 2q11 0 0 -51.5t-23 -53.5h-290l-61 -263q-17 -69 5 -92t89 -23q12 0 2 -47 t-22 -47q-60 8 -210 8t-211 -8q-11 0 -1.5 47t21.5 47q67 0 96 28.5t47 103.5l60 246l-281 2q-13 0 -0.5 51.5z" />
<glyph unicode="&#xa6;" horiz-adv-x="464" d="M218 109v579h156v-579h-156zM218 795v577h156v-577h-156z" />
<glyph unicode="&#xa7;" horiz-adv-x="838" d="M-20 -86q0 29 15 50.5t43 21.5q23 0 49 -38t60.5 -76t76.5 -38q128 0 128 168q0 55 -33 188q-6 31 -78 241t-72 329q0 151 94 302.5t212 250.5q161 129 239 129q56 0 101 -47t45 -117q0 -113 -74 -113q-19 0 -32 28t-21.5 59.5t-27.5 59t-46 27.5q-69 0 -97 -45t-28 -131 q0 -84 33 -207q16 -65 58 -176.5t67.5 -207t25.5 -183.5q0 -121 -54 -219q-76 -139 -234 -291.5t-278 -152.5q-68 0 -120 52t-52 136zM326 846q0 -109 41 -236t81 -245.5t40 -206.5q0 -82 -19 -140q85 115 85 324q0 86 -42.5 228.5t-74.5 228.5q-37 125 -37 180 q0 119 11 174q-85 -135 -85 -307z" />
<glyph unicode="&#xa8;" horiz-adv-x="622" d="M220 1119q0 59 32 101t82 42q39 0 64 -30.5t25 -79.5q0 -60 -32.5 -101t-80.5 -41q-40 0 -65 30t-25 79zM540 1119q0 59 32 101t81 42q39 0 64.5 -30.5t25.5 -79.5q0 -60 -32.5 -101t-80.5 -41q-41 0 -65.5 30t-24.5 79z" />
<glyph unicode="&#xa9;" horiz-adv-x="1288" d="M72 747.5q0 296.5 169 508.5t408 212t408 -212t169 -508.5t-169 -508.5t-408 -212t-408 212t-169 508.5zM154 748q0 -256 145 -437.5t350 -181.5t350 181.5t145 437.5t-145 437t-350 181t-350 -181t-145 -437zM344 737q0 168 87.5 282t228.5 114q58 0 158 -27q8 -2 34 -2 q18 -49 18 -176q0 -10 -19.5 -11.5t-21.5 7.5q-13 161 -170 161q-92 0 -145.5 -92t-53.5 -225q0 -170 63.5 -256t133.5 -86q149 0 188 149q4 7 13 7t18.5 -7.5t9.5 -13.5q-1 -20 -16 -73.5t-28 -77.5q-3 0 -17 -4.5t-21 -6.5q-72 -24 -152 -24q-131 0 -219.5 105.5 t-88.5 256.5z" />
<glyph unicode="&#xaa;" horiz-adv-x="544" d="M118 883q0 135 96 290.5t209 155.5q36 0 55 -20l12 32q3 11 19.5 14t34.5 -1t31 -11.5t12 -13.5l-107 -436q-5 -27 12 -27q24 0 54 43q6 9 20 -7.5t9 -24.5q-82 -121 -159 -121q-31 0 -39 39t21 120l-6 5q-43 -70 -98 -117t-92 -47q-40 0 -62 35.5t-22 91.5zM234 903 q0 -20 7.5 -38.5t17.5 -18.5q38 0 94.5 93t82.5 200l24 104q-14 31 -52 31q-49 0 -91.5 -78t-62.5 -162t-20 -131z" />
<glyph unicode="&#xab;" horiz-adv-x="699" d="M77 391q-18 37 17 74l324 352q8 10 22 -4t7 -27l-195 -327q-18 -31 -13 -60l55 -333q1 -13 -19 -28t-25 -3zM369 391q-19 37 16 74l325 352q8 10 21 -4q15 -14 8 -27l-195 -327q-18 -31 -13 -60l54 -333q1 -13 -18 -28q-20 -15 -25 -3z" />
<glyph unicode="&#xac;" horiz-adv-x="1092" d="M0 483v174h1093v-657h-149v483h-944z" />
<glyph unicode="&#xad;" horiz-adv-x="819" d="M59 529q0 67 18 67h770q18 0 18 -67q0 -66 -18 -66h-770q-18 0 -18 66z" />
<glyph unicode="&#xae;" horiz-adv-x="1288" d="M72 747.5q0 296.5 169 508.5t408 212t408 -212t169 -508.5t-169 -508.5t-408 -212t-408 212t-169 508.5zM154 748q0 -256 145 -437.5t350 -181.5t350 181.5t145 437.5t-145 437t-350 181t-350 -181t-145 -437zM374 1103.5q0 24.5 6 24.5q16 0 52.5 -2t72.5 -2 q16 0 55.5 3t73.5 3q107 0 173 -55t66 -153q0 -138 -121 -181q-15 -6 -3 -26q54 -117 139 -226q43 -57 77 -63q10 -2 11.5 -18.5t-11.5 -18.5q-87 -6 -139 29q-41 33 -72 76t-59 96t-38 67q-25 39 -34.5 48.5t-26.5 9.5q-14 0 -26 2q-11 0 -11 -12v-195q0 -35 15.5 -48 t49.5 -13q8 0 8 -26t-6 -26q-36 4 -118.5 4t-122.5 -4q-7 0 -7 24.5t5 24.5q71 0 71 64v510q0 59 -74 59q-6 0 -6 24.5zM559 784q0 -20 10 -20q21 -7 37 -6q157 4 157 162q0 65 -43 116t-125 51q-25 0 -30.5 -3t-5.5 -19v-281z" />
<glyph unicode="&#xaf;" horiz-adv-x="486" d="M218 1105q13 56 36 56h360q25 0 8.5 -56t-37.5 -56h-357q-23 0 -10 56z" />
<glyph unicode="&#xb0;" horiz-adv-x="588" d="M206 1047q0 116 64 190t156 74t156 -74t64 -190q0 -121 -64 -193t-156 -72t-156 72t-64 193zM322 1047q0 -74 30 -117t74 -43t74 43t30 117q0 73 -30 116t-74 43t-74 -43t-30 -116z" />
<glyph unicode="&#xb1;" horiz-adv-x="907" d="M170 -6v147h624v-147h-624zM170 629v147h241v305h144v-305h239v-147h-239v-342h-144v342h-241z" />
<glyph unicode="&#xb2;" horiz-adv-x="533" d="M32 531.5q-4 13.5 19 37.5q133 133 244 293q146 205 146 320q0 75 -49 75q-61 0 -140 -104q-10 -14 -26 -1t-8 26q46 73 108 123.5t128 50.5q62 0 97.5 -42t35.5 -110q0 -55 -28 -117.5t-55 -99.5t-71 -90q-59 -68 -264 -268h172q46 0 74.5 14t53.5 53q9 15 29 0.5 t10 -30.5l-74 -119q-15 -25 -42 -25q-18 0 -65 3t-101 3q-62 0 -112 -3t-58 -3q-20 0 -24 13.5z" />
<glyph unicode="&#xb3;" horiz-adv-x="533" d="M82 594q0 33 20.5 55.5t46.5 22.5q20 0 30.5 -16.5t14 -35t15.5 -35t33 -16.5q58 0 98 98.5t40 182.5q0 43 -21 68.5t-62 25.5q-27 0 -56 -10q-15 0 -8.5 32.5t19.5 32.5q84 0 140 60q55 61 55 137t-52 76q-54 0 -120 -82q-8 -10 -21 6t-5 25q105 131 200 131 q54 0 89 -38t35 -97q0 -134 -137 -220q88 -32 88 -141q0 -117 -77 -217q-101 -127 -232 -127q-50 0 -91.5 19.5t-41.5 62.5z" />
<glyph unicode="&#xb4;" horiz-adv-x="733" d="M260 950q-7 20 10 51l167 313q10 19 29 19q36 0 68 -43q33 -44 9 -72l-225 -271q-15 -18 -33 -18q-19 0 -25 21z" />
<glyph unicode="&#xb5;" horiz-adv-x="815" d="M-52 -494q-4 37 37 191l233 934q0 6 3 17t3 16q0 24 -16 24q-15 0 -41 -31.5t-38 -52.5q-9 -12 -29.5 11.5t-12.5 35.5q124 201 232 201q73 0 73 -125q0 -29 -14 -88l-77 -307q-29 -111 -29 -158q0 -41 18 -41q39 0 118.5 130t142.5 272q31 69 61 170.5t35 124t76 22.5 q19 0 38 -4t31 -12.5t11 -18.5l-144 -586q-17 -61 -17 -69q0 -21 18 -21t44.5 32t39.5 52q10 13 29.5 -12t12.5 -37q-55 -88 -119 -145.5t-120 -57.5q-36 0 -55 35t-19 86q0 35 10 76l36 152q-75 -129 -163.5 -231.5t-147.5 -115.5q-33 -120 -38 -163q-6 -43 -3 -92.5 t-1 -98.5t-14.5 -89t-44 -64.5t-91.5 -24.5q-23 0 -45 16.5t-23 46.5z" />
<glyph unicode="&#xb6;" horiz-adv-x="922" d="M95 987q0 205 143.5 345.5t310.5 140.5q83 0 189 -4.5t148 -4.5q87 0 153 9q13 0 4.5 -38t-19.5 -38q-7 -2 -18 0t-25 -2t-27.5 -10.5t-24.5 -22.5t-16 -39l-344 -1606q-4 -14 -65.5 -15t-57.5 13l345 1608q9 39 -6 56.5t-40 17.5q-70 0 -85 -74l-347 -1608 q-2 -14 -63.5 -14t-57.5 14l209 979h-19q-133 -2 -210 74t-77 219z" />
<glyph unicode="&#xb7;" horiz-adv-x="456" d="M139 522.5q0 65.5 37 112.5t89.5 47t90.5 -47t38 -112.5t-38 -111.5t-90.5 -46t-89.5 46t-37 111.5z" />
<glyph unicode="&#xb8;" horiz-adv-x="622" d="M13 -424q0 29 14.5 48.5t38.5 19.5t59.5 -38t51.5 -38q15 0 28.5 14.5t13.5 36.5q0 94 -101 148l-5 16l118 217h87l-63 -106q-9 -17 -7 -24t21 -24q78 -73 78 -170q0 -82 -62 -136t-146 -54q-126 0 -126 90z" />
<glyph unicode="&#xb9;" horiz-adv-x="533" d="M111.5 552q6.5 30 14.5 30q59 0 79.5 18t36.5 98l109 510q5 23 -3.5 27t-23.5 -2q-36 -16 -65 -23q-7 -2 -9.5 9.5t0 26t9.5 16.5q178 69 254 112q5 4 13 4q10 0 6 -12q-11 -39 -27 -113l-120 -555q-16 -75 -6.5 -95.5t60.5 -20.5q7 0 0.5 -30t-13.5 -30q-49 6 -154 6 q-110 0 -159 -6q-8 0 -1.5 30z" />
<glyph unicode="&#xba;" horiz-adv-x="517" d="M144 983q0 125 86 238.5t188 113.5q75 0 111 -58t36 -155q0 -133 -76 -249.5t-197 -116.5q-74 0 -111 64.5t-37 162.5zM241 907q0 -76 50.5 -76t115.5 133.5t65 217.5q0 51 -11.5 68.5t-36.5 17.5q-57 0 -120 -134.5t-63 -226.5z" />
<glyph unicode="&#xbb;" horiz-adv-x="1077" d="M-18 66l196 333q19 29 14 60l-54 327q-2 13 18 27q19 14 24 4l174 -352q18 -37 -16 -74l-327 -356q-9 -12 -23 3t-6 28zM274 66l196 333q18 29 13 60l-53 327q-2 13 17 27q20 14 25 4l174 -352q17 -37 -17 -74l-326 -356q-9 -12 -24 3q-13 15 -5 28z" />
<glyph unicode="&#xbc;" horiz-adv-x="1205" d="M111.5 552q6.5 30 14.5 30q59 0 79.5 18t36.5 98l109 510q5 23 -3.5 27t-23.5 -2q-36 -16 -65 -23q-7 -2 -9.5 9.5t0 26t9.5 16.5q178 69 254 112q5 4 13 4q10 0 6 -12q-11 -39 -27 -113l-120 -555q-16 -75 -6.5 -95.5t60.5 -20.5q7 0 0.5 -30t-13.5 -30q-49 6 -156.5 6 t-156.5 -6q-8 0 -1.5 30zM272 0l642 1300h102l-642 -1300h-102zM659.5 246.5q-4.5 15.5 5.5 34t26 38.5l164 199q133 162 284 365q16 16 41.5 9t18.5 -32l-429 -530q-23 -29 5 -29h161l54 252q3 16 75 16t69 -16l-53 -252h51q12 0 5 -35t-20 -35h-52l-26 -125 q-7 -28 4.5 -39.5t49.5 -11.5q8 0 1.5 -30.5t-14.5 -30.5q-49 6 -147.5 6t-147.5 -6q-8 0 -1.5 30.5t14.5 30.5q51 0 69.5 10.5t27.5 40.5l26 125h-230q-27 0 -31.5 15.5z" />
<glyph unicode="&#xbd;" horiz-adv-x="1205" d="M111.5 552q6.5 30 14.5 30q59 0 79.5 18t36.5 98l109 510q5 23 -3.5 27t-23.5 -2q-36 -16 -65 -23q-7 -2 -9.5 9.5t0 26t9.5 16.5q178 69 254 112q5 4 13 4q10 0 6 -12q-11 -39 -27 -113l-120 -555q-16 -75 -6.5 -95.5t60.5 -20.5q7 0 0.5 -30t-13.5 -30q-49 6 -156.5 6 t-156.5 -6q-8 0 -1.5 30zM272 0l642 1300h102l-642 -1300h-102zM625 7q-4 13 17 38q133 133 244 293q146 205 146 319q0 76 -49 76q-61 0 -139 -104q-12 -15 -27.5 -1.5t-7.5 25.5q110 174 236 174q63 0 98 -42t35 -109q0 -55 -28 -117.5t-55 -99.5t-71 -90 q-59 -68 -264 -269h172q46 0 74 13.5t54 54.5q8 14 28.5 -1t10.5 -30l-73 -119q-15 -24 -43 -24q-18 0 -64.5 3t-105 3t-108.5 -3t-58 -3q-18 0 -22 13z" />
<glyph unicode="&#xbe;" horiz-adv-x="1205" d="M85 594q0 33 20.5 55.5t46.5 22.5q20 0 30.5 -16.5t14 -35t15.5 -35t34 -16.5q57 0 97 98.5t40 182.5q0 43 -21 68.5t-62 25.5q-26 0 -56 -10q-15 0 -8.5 32.5t20.5 32.5q83 0 139 60q56 61 56 137t-53 76q-54 0 -119 -82q-9 -10 -22 6t-5 25q105 131 200 131 q54 0 89.5 -38t35.5 -97q0 -134 -138 -220q89 -32 89 -141q0 -117 -77 -217q-102 -127 -233 -127q-49 0 -91 19.5t-42 62.5zM287 0l642 1300h102l-643 -1300h-101zM659.5 246.5q-4.5 15.5 5.5 34t26 38.5l164 199q133 162 284 365q16 16 41.5 9t18.5 -32l-429 -530 q-23 -29 5 -29h161l54 252q3 16 75 16t69 -16l-53 -252h51q12 0 5 -35t-20 -35h-52l-26 -125q-7 -28 4.5 -39.5t49.5 -11.5q8 0 1.5 -30.5t-14.5 -30.5q-49 6 -147.5 6t-147.5 -6q-8 0 -1.5 30.5t14.5 30.5q51 0 69.5 10.5t27.5 40.5l26 125h-230q-27 0 -31.5 15.5z" />
<glyph unicode="&#xbf;" horiz-adv-x="581" d="M-36 -182q0 114 38 207q37 92 92 120l140 76q71 37 82 72q14 31 15 108q0 17 25 25q26 8 29 -8q23 -111 23 -158q0 -88 -33 -141t-98 -88l-97 -54q-139 -75 -139 -176q0 -102 184 -102q19 0 44 -28q25 -27 25 -70q0 -45 -35.5 -89t-84.5 -44q-92 0 -151 103t-59 247z M311 719q0 65 34.5 108t88.5 43q51 0 87 -42t36 -109q0 -70 -35.5 -117t-88.5 -47q-55 0 -88.5 48t-33.5 116z" />
<glyph unicode="&#xc0;" horiz-adv-x="932" d="M-127 5.5q0 13.5 5.5 47t17.5 33.5q87 0 125.5 34.5t72.5 97.5l524 974q6 12 6 23t-7.5 22.5t-7.5 22.5q0 20 55 43q54 24 98.5 53.5t67.5 29.5q33 0 33 -50q0 -22 -11 -79.5t-16 -106.5l-94 -948q-1 -15 -1 -30q0 -86 101 -86q6 0 6 -19t-7 -47t-16 -28q-61 8 -184.5 8 t-185.5 -8q-7 0 -7 17.5t8 47t16 29.5q49 0 71 22t30 94l29 283q4 38 -29 38h-197q-24 0 -38 -28l-152 -294q-19 -38 -19 -60q0 -55 97 -55q7 0 7 -18.5t-7 -47t-17 -28.5q-61 8 -183.5 8t-184.5 -8q-6 0 -6 13.5zM407 617.5q0 -10.5 15 -10.5h164q29 0 33 42l38 413 q1 15 -5 15q-7 0 -14 -13l-226 -428q-5 -8 -5 -18.5zM407 1787q0 20 9.5 44.5t27 41.5t31.5 7l408 -279q36 -24 24 -56q-8 -21 -25 -21q-12 0 -23 6l-430 204q-22 11 -22 53z" />
<glyph unicode="&#xc1;" horiz-adv-x="932" d="M-127 5.5q0 13.5 5.5 47t17.5 33.5q87 0 125.5 34.5t72.5 97.5l524 974q6 12 6 23t-7.5 22.5t-7.5 22.5q0 20 55 43q54 24 98.5 53.5t67.5 29.5q33 0 33 -50q0 -22 -11 -79.5t-16 -106.5l-94 -948q-1 -15 -1 -30q0 -86 101 -86q6 0 6 -19t-7 -47t-16 -28q-61 8 -184.5 8 t-185.5 -8q-7 0 -7 17.5t8 47t16 29.5q49 0 71 22t30 94l29 283q4 38 -29 38h-197q-24 0 -38 -28l-152 -294q-19 -38 -19 -60q0 -55 97 -55q7 0 7 -18.5t-7 -47t-17 -28.5q-61 8 -183.5 8t-184.5 -8q-6 0 -6 13.5zM407 617.5q0 -10.5 15 -10.5h164q29 0 33 42l38 413 q1 15 -5 15q-7 0 -14 -13l-226 -428q-5 -8 -5 -18.5zM620 1560q0 22 28 41l406 279q7 4 14 4q17 0 37 -29.5t20 -68.5q0 -40 -25 -52l-427 -204q-13 -6 -23 -6q-13 0 -21.5 10.5t-8.5 25.5z" />
<glyph unicode="&#xc2;" horiz-adv-x="932" d="M-127 5.5q0 13.5 5.5 47t17.5 33.5q87 0 125.5 34.5t72.5 97.5l524 974q6 12 6 23t-7.5 22.5t-7.5 22.5q0 20 55 43q54 24 98.5 53.5t67.5 29.5q33 0 33 -50q0 -22 -11 -79.5t-16 -106.5l-94 -948q-1 -15 -1 -30q0 -86 101 -86q6 0 6 -19t-7 -47t-16 -28q-61 8 -184.5 8 t-185.5 -8q-7 0 -7 17.5t8 47t16 29.5q49 0 71 22t30 94l29 283q4 38 -29 38h-197q-24 0 -38 -28l-152 -294q-19 -38 -19 -60q0 -55 97 -55q7 0 7 -18.5t-7 -47t-17 -28.5q-61 8 -183.5 8t-184.5 -8q-6 0 -6 13.5zM407 617.5q0 -10.5 15 -10.5h164q29 0 33 42l38 413 q1 15 -5 15q-7 0 -14 -13l-226 -428q-5 -8 -5 -18.5zM478 1566q0 8 6 13l280 271q20 19 40.5 19t41.5 -24l214 -266q4 -4 4 -10q0 -10 -9.5 -27t-16.5 -17q-2 0 -4 1l-216 133q-16 9 -32 9t-32 -9l-241 -133q-3 -1 -5 -1q-11 0 -20.5 15.5t-9.5 25.5z" />
<glyph unicode="&#xc3;" horiz-adv-x="932" d="M-127 5.5q0 13.5 5.5 47t17.5 33.5q87 0 125.5 34.5t72.5 97.5l524 974q6 12 6 23t-7.5 22.5t-7.5 22.5q0 20 55 43q54 24 98.5 53.5t67.5 29.5q33 0 33 -50q0 -22 -11 -79.5t-16 -106.5l-94 -948q-1 -15 -1 -30q0 -86 101 -86q6 0 6 -19t-7 -47t-16 -28q-61 8 -184.5 8 t-185.5 -8q-7 0 -7 17.5t8 47t16 29.5q49 0 71 22t30 94l29 283q4 38 -29 38h-197q-24 0 -38 -28l-152 -294q-19 -38 -19 -60q0 -55 97 -55q7 0 7 -18.5t-7 -47t-17 -28.5q-61 8 -183.5 8t-184.5 -8q-6 0 -6 13.5zM407 617.5q0 -10.5 15 -10.5h164q29 0 33 42l38 413 q1 15 -5 15q-7 0 -14 -13l-226 -428q-5 -8 -5 -18.5zM567 1489l1 6q25 82 73 140q36 44 68 44q27 0 96 -24q51 -21 94 -21q42 0 71 53q3 3 4 7q3 7 12 7l13 -3q16 -9 17 -23l-1 -6q-22 -71 -70 -129q-36 -45 -66 -45q-32 0 -108 25q-71 19 -82 20q-32 0 -66 -39 q-12 -15 -19 -31q-3 -6 -9 -6l-11 2q-16 8 -17 23z" />
<glyph unicode="&#xc4;" horiz-adv-x="932" d="M-127 5.5q0 13.5 5.5 47t17.5 33.5q87 0 125.5 34.5t72.5 97.5l524 974q6 12 6 23t-7.5 22.5t-7.5 22.5q0 20 55 43q54 24 98.5 53.5t67.5 29.5q33 0 33 -50q0 -22 -11 -79.5t-16 -106.5l-94 -948q-1 -15 -1 -30q0 -86 101 -86q6 0 6 -19t-7 -47t-16 -28q-61 8 -184.5 8 t-185.5 -8q-7 0 -7 17.5t8 47t16 29.5q49 0 71 22t30 94l29 283q4 38 -29 38h-197q-24 0 -38 -28l-152 -294q-19 -38 -19 -60q0 -55 97 -55q7 0 7 -18.5t-7 -47t-17 -28.5q-61 8 -183.5 8t-184.5 -8q-6 0 -6 13.5zM407 617.5q0 -10.5 15 -10.5h164q29 0 33 42l38 413 q1 15 -5 15q-7 0 -14 -13l-226 -428q-5 -8 -5 -18.5zM551 1629q0 59 32 101t82 42q39 0 64 -30.5t25 -79.5q0 -60 -32.5 -101t-80.5 -41q-40 0 -65 30t-25 79zM871 1629q0 59 32 101t81 42q39 0 64.5 -30.5t25.5 -79.5q0 -60 -32.5 -101t-80.5 -41q-41 0 -65.5 30t-24.5 79z " />
<glyph unicode="&#xc5;" horiz-adv-x="932" d="M-123.5 39q7.5 47 19.5 47q34 0 51.5 3t45 13.5t51 39t50.5 76.5l603 1123q-86 59 -86 179q0 84 50.5 146.5t133 62.5t133 -62.5t50.5 -146.5q0 -68 -34 -124.5t-93 -75.5l-109 -1118q-5 -70 20 -93t80 -23q11 0 3.5 -47t-20.5 -47q-61 8 -180 8q-128 0 -190 -8 q-12 0 -2.5 47t19.5 47q49 0 71.5 22t29.5 94l29 283q3 38 -29 38h-197q-25 0 -38 -28l-152 -294q-16 -33 -18 -55t5 -33.5t25.5 -18t32.5 -7.5t33 -1q11 0 3.5 -47t-20.5 -47q-61 8 -188 8q-118 0 -180 -8q-10 0 -2.5 47zM409.5 616q3.5 -9 13.5 -9h163q30 0 33 42l38 413 q1 13 -5 15t-14 -13l-225 -426q-7 -13 -3.5 -22zM714 1518.5q0 -55.5 21 -93.5t59.5 -38t59.5 38t21 93.5t-21 93.5t-60 40q-38 -2 -59 -40t-21 -93.5z" />
<glyph unicode="&#xc6;" horiz-adv-x="1431" d="M-184 5.5q0 13.5 6.5 47t18.5 33.5q63 0 103.5 25t84.5 91l660 969q30 41 30 63q0 30 -68 30q-13 0 -2 47t21 47q116 -6 287 -6t309 3t207 3q52 0 52 -40q0 -11 -3 -25l-68 -283q-1 -7 -14.5 -12t-29 -5t-26 5t-9.5 12q13 54 13 98q0 60 -30.5 108t-101.5 50l-190 4 q-35 0 -47 -46l-122 -504q-9 -36 21 -36h140q67 0 80 48l39 145q5 19 39.5 18t31.5 -18q-24 -77 -63 -242t-47 -215q-4 -17 -37 -15t-30 15l27 128q7 29 -7.5 40.5t-46.5 11.5h-154q-20 0 -30 -33l-73 -302q-17 -71 -17 -108q0 -83 78 -79l183 8q199 10 259 258q4 17 42 17 t35 -17l-67 -312q-7 -32 -21.5 -36t-74.5 -4q-9 0 -191 4t-311 4t-282 -8q-10 0 -2.5 47t19.5 47q75 0 102 19t47 107l86 351q10 37 -21 37h-240q-13 0 -32 -31l-249 -393q-19 -29 -19 -46q0 -44 95 -44q11 0 1.5 -47t-21.5 -47q-60 8 -177 8q-125 0 -187 -8q-6 0 -6 13.5z M473 696q0 -12 21 -12h178q28 0 35 32l111 457q6 29 -8 29q-6 0 -14 -12l-313 -470q-10 -15 -10 -24z" />
<glyph unicode="&#xc7;" horiz-adv-x="1176" d="M142 469q0 351 239.5 633.5t536.5 282.5q86 0 193.5 -28t154.5 -28q-9 -181 -48 -334q-5 -17 -43 -17t-35 21q7 53 7 74q0 104 -74.5 165t-186.5 61q-219 0 -385.5 -259.5t-166.5 -585.5q0 -152 69 -271.5t211 -119.5q94 0 168 33.5t135 105t101 144.5q8 15 42 13t34 -17 q0 -38 -54 -154.5t-81 -151.5q-42 -7 -71 -19q-141 -44 -322 -44t-302.5 133t-121.5 363zM248 -436q0 29 14.5 48.5t38.5 19.5t59.5 -38t51.5 -38q15 0 28.5 14.5t13.5 36.5q0 94 -101 148l-5 16l118 217h87l-63 -106q-9 -17 -7 -24t21 -24q78 -73 78 -170q0 -82 -62 -136 t-146 -54q-126 0 -126 90z" />
<glyph unicode="&#xc8;" horiz-adv-x="1004" d="M-19 5.5q0 13.5 6.5 47t17.5 33.5q79 0 109 26t49 106l227 939q4 13 3 39q0 67 -116 67q-6 0 -6 14.5t7 47.5t17 33q81 -4 191.5 -4t309 2t278.5 2q51 0 51 -30q0 -13 -3 -27l-68 -289q-4 -19 -41 -19t-34 17q5 33 5 83t-33 104.5t-100 59.5q-118 8 -215 7q-30 0 -38 -32 l-128 -508q-2 -8 -2 -13q0 -19 19 -19h144q39 0 56 10q18 9 25 37l38 145q5 19 41.5 19t30.5 -19q-59 -210 -110 -466q-3 -17 -37 -17t-30 17l27 128q6 29 -8 40q-14 12 -46 12h-161q-17 0 -23 -27l-83 -348q-8 -34 -8 -67q0 -82 79 -78l232 12q132 7 214 292q4 17 42 17 t34 -17l-81 -361q-6 -29 -46 -29q-80 0 -294.5 4t-303.5 4t-231 -8q-7 0 -7 13.5zM451 1787q0 20 9.5 44.5t27 41.5t31.5 7l408 -279q36 -24 24 -56q-8 -21 -25 -21q-12 0 -23 6l-430 204q-22 11 -22 53z" />
<glyph unicode="&#xc9;" horiz-adv-x="1004" d="M-19 5.5q0 13.5 6.5 47t17.5 33.5q79 0 109 26t49 106l227 939q4 13 3 39q0 67 -116 67q-6 0 -6 14.5t7 47.5t17 33q81 -4 191.5 -4t309 2t278.5 2q51 0 51 -30q0 -13 -3 -27l-68 -289q-4 -19 -41 -19t-34 17q5 33 5 83t-33 104.5t-100 59.5q-118 8 -215 7q-30 0 -38 -32 l-128 -508q-2 -8 -2 -13q0 -19 19 -19h144q39 0 56 10q18 9 25 37l38 145q5 19 41.5 19t30.5 -19q-59 -210 -110 -466q-3 -17 -37 -17t-30 17l27 128q6 29 -8 40q-14 12 -46 12h-161q-17 0 -23 -27l-83 -348q-8 -34 -8 -67q0 -82 79 -78l232 12q132 7 214 292q4 17 42 17 t34 -17l-81 -361q-6 -29 -46 -29q-80 0 -294.5 4t-303.5 4t-231 -8q-7 0 -7 13.5zM575 1560q0 22 28 41l406 279q7 4 14 4q17 0 37 -29.5t20 -68.5q0 -40 -25 -52l-427 -204q-13 -6 -23 -6q-13 0 -21.5 10.5t-8.5 25.5z" />
<glyph unicode="&#xca;" horiz-adv-x="1004" d="M-19 5.5q0 13.5 6.5 47t17.5 33.5q79 0 109 26t49 106l227 939q4 13 3 39q0 67 -116 67q-6 0 -6 14.5t7 47.5t17 33q81 -4 191.5 -4t309 2t278.5 2q51 0 51 -30q0 -13 -3 -27l-68 -289q-4 -19 -41 -19t-34 17q5 33 5 83t-33 104.5t-100 59.5q-118 8 -215 7q-30 0 -38 -32 l-128 -508q-2 -8 -2 -13q0 -19 19 -19h144q39 0 56 10q18 9 25 37l38 145q5 19 41.5 19t30.5 -19q-59 -210 -110 -466q-3 -17 -37 -17t-30 17l27 128q6 29 -8 40q-14 12 -46 12h-161q-17 0 -23 -27l-83 -348q-8 -34 -8 -67q0 -82 79 -78l232 12q132 7 214 292q4 17 42 17 t34 -17l-81 -361q-6 -29 -46 -29q-80 0 -294.5 4t-303.5 4t-231 -8q-7 0 -7 13.5zM486 1566q0 8 6 13l280 271q20 19 40.5 19t41.5 -24l214 -266q4 -4 4 -10q0 -10 -9.5 -27t-16.5 -17q-2 0 -4 1l-216 133q-16 9 -32 9t-32 -9l-241 -133q-3 -1 -5 -1q-11 0 -20.5 15.5 t-9.5 25.5z" />
<glyph unicode="&#xcb;" horiz-adv-x="1004" d="M-19 5.5q0 13.5 6.5 47t17.5 33.5q79 0 109 26t49 106l227 939q4 13 3 39q0 67 -116 67q-6 0 -6 14.5t7 47.5t17 33q81 -4 191.5 -4t309 2t278.5 2q51 0 51 -30q0 -13 -3 -27l-68 -289q-4 -19 -41 -19t-34 17q5 33 5 83t-33 104.5t-100 59.5q-118 8 -215 7q-30 0 -38 -32 l-128 -508q-2 -8 -2 -13q0 -19 19 -19h144q39 0 56 10q18 9 25 37l38 145q5 19 41.5 19t30.5 -19q-59 -210 -110 -466q-3 -17 -37 -17t-30 17l27 128q6 29 -8 40q-14 12 -46 12h-161q-17 0 -23 -27l-83 -348q-8 -34 -8 -67q0 -82 79 -78l232 12q132 7 214 292q4 17 42 17 t34 -17l-81 -361q-6 -29 -46 -29q-80 0 -294.5 4t-303.5 4t-231 -8q-7 0 -7 13.5zM530 1629q0 59 32 101t82 42q39 0 64 -30.5t25 -79.5q0 -60 -32.5 -101t-80.5 -41q-40 0 -65 30t-25 79zM850 1629q0 59 32 101t81 42q39 0 64.5 -30.5t25.5 -79.5q0 -60 -32.5 -101 t-80.5 -41q-41 0 -65.5 30t-24.5 79z" />
<glyph unicode="&#xcc;" horiz-adv-x="603" d="M-20 5q0 13 7 47t19 34q71 0 107 23.5t52 92.5l217 952q7 27 7 63q0 53 -112 53q-6 0 -6 13.5t8.5 47t18.5 33.5q46 -6 228.5 -6t228.5 6q7 0 7 -12.5t-8 -47t-20 -34.5q-89 0 -119.5 -29.5t-43.5 -86.5l-218 -952q-6 -25 -6 -52q0 -64 119 -64q6 0 6 -14.5t-7.5 -47 t-16.5 -32.5q-62 8 -231.5 8t-230.5 -8q-6 0 -6 13zM231 1787q0 20 9.5 44.5t27 41.5t31.5 7l408 -279q36 -24 24 -56q-8 -21 -25 -21q-12 0 -23 6l-430 204q-22 11 -22 53z" />
<glyph unicode="&#xcd;" horiz-adv-x="603" d="M-20 5q0 13 7 47t19 34q71 0 107 23.5t52 92.5l217 952q7 27 7 63q0 53 -112 53q-6 0 -6 13.5t8.5 47t18.5 33.5q46 -6 228.5 -6t228.5 6q7 0 7 -12.5t-8 -47t-20 -34.5q-89 0 -119.5 -29.5t-43.5 -86.5l-218 -952q-6 -25 -6 -52q0 -64 119 -64q6 0 6 -14.5t-7.5 -47 t-16.5 -32.5q-62 8 -231.5 8t-230.5 -8q-6 0 -6 13zM354 1560q0 22 28 41l406 279q7 4 14 4q17 0 37 -29.5t20 -68.5q0 -40 -25 -52l-427 -204q-13 -6 -23 -6q-13 0 -21.5 10.5t-8.5 25.5z" />
<glyph unicode="&#xce;" horiz-adv-x="603" d="M-20 5q0 13 7 47t19 34q71 0 107 23.5t52 92.5l217 952q7 27 7 63q0 53 -112 53q-6 0 -6 13.5t8.5 47t18.5 33.5q46 -6 228.5 -6t228.5 6q7 0 7 -12.5t-8 -47t-20 -34.5q-89 0 -119.5 -29.5t-43.5 -86.5l-218 -952q-6 -25 -6 -52q0 -64 119 -64q6 0 6 -14.5t-7.5 -47 t-16.5 -32.5q-62 8 -231.5 8t-230.5 -8q-6 0 -6 13zM246 1566q0 8 6 13l280 271q20 19 40.5 19t41.5 -24l214 -266q4 -4 4 -10q0 -10 -9.5 -27t-16.5 -17q-2 0 -4 1l-216 133q-16 9 -32 9t-32 -9l-241 -133q-3 -1 -5 -1q-11 0 -20.5 15.5t-9.5 25.5z" />
<glyph unicode="&#xcf;" horiz-adv-x="603" d="M-20 5q0 13 7 47t19 34q71 0 107 23.5t52 92.5l217 952q7 27 7 63q0 53 -112 53q-6 0 -6 13.5t8.5 47t18.5 33.5q46 -6 228.5 -6t228.5 6q7 0 7 -12.5t-8 -47t-20 -34.5q-89 0 -119.5 -29.5t-43.5 -86.5l-218 -952q-6 -25 -6 -52q0 -64 119 -64q6 0 6 -14.5t-7.5 -47 t-16.5 -32.5q-62 8 -231.5 8t-230.5 -8q-6 0 -6 13zM307 1629q0 59 32 101t82 42q39 0 64 -30.5t25 -79.5q0 -60 -32.5 -101t-80.5 -41q-40 0 -65 30t-25 79zM627 1629q0 59 32 101t81 42q39 0 64.5 -30.5t25.5 -79.5q0 -60 -32.5 -101t-80.5 -41q-41 0 -65.5 30t-24.5 79z " />
<glyph unicode="&#xd0;" horiz-adv-x="1243" d="M-15.5 39q9.5 47 20.5 47q44 0 68.5 5t48.5 31.5t39 79.5l93 396q8 27 -12 27h-133q-11 0 -3.5 46.5t20.5 46.5h136q22 0 28 29l100 407q16 66 -9 88t-103 22q-12 0 -3 47t20 47q115 -6 206.5 -6t174 3t130.5 3q220 0 350 -122t130 -344q0 -153 -58.5 -313.5t-157 -290 t-241.5 -213t-297 -83.5q-63 0 -153 4t-164 4t-227 -8q-13 0 -3.5 47zM361 264q-22 -90 3.5 -141.5t127.5 -51.5q148 0 287 127t219 311t80 360q0 168 -84.5 288.5t-254.5 120.5q-64 0 -85 -3t-38.5 -21t-29.5 -64l-106 -443q-6 -29 15 -29h159q12 0 3 -46.5t-20 -46.5h-167 q-22 0 -27 -23z" />
<glyph unicode="&#xd1;" horiz-adv-x="1182" d="M-22 4.5q0 12.5 6.5 47t18.5 34.5q77 0 109.5 26t46.5 90l203 894q13 55 13 103t-37 62q-25 9 -68 9q-5 0 -5 13.5t8.5 47t20.5 33.5q60 -5 132 -5t92.5 -14.5t33.5 -47.5l356 -902q12 -31 24 -31q13 0 22 35l176 755q7 26 7 45q0 71 -103 71q-5 0 -5 13.5t9 47t20 33.5 q45 -6 162.5 -6t163.5 6q7 0 7 -12.5t-8 -47t-20 -34.5q-83 0 -109.5 -28t-36.5 -72l-263 -1143q-13 -54 -47 -54t-45 29l-404 1006q-9 23 -17.5 23t-14.5 -24l-183 -805q-7 -32 -7 -56q0 -60 98 -60q7 0 7 -14.5t-8 -47t-19 -32.5q-60 8 -165 8t-166 -8q-5 0 -5 12.5z M580 1546q0 3 1 6q23 66 71.5 125t92.5 59q33 0 112 -24q59 -21 108 -21q55 0 86 60q5 8 14 8q7 0 17 -5q18 -9 18 -22q0 -3 -1 -6q-20 -59 -68 -116.5t-89 -57.5q-35 0 -125 25q-78 20 -95 20q-24 0 -53 -20.5t-45 -49.5q-5 -8 -13 -8q-6 0 -15 5q-16 9 -16 22z" />
<glyph unicode="&#xd2;" horiz-adv-x="1209" d="M142 451q0 345 210.5 639.5t510.5 294.5q193 0 292 -149t99 -361q0 -343 -208.5 -622.5t-507.5 -279.5q-165 0 -280.5 133.5t-115.5 344.5zM337 474q0 -188 68.5 -299.5t165.5 -111.5q143 0 250 116.5t175.5 308.5t68.5 386q0 176 -68 301.5t-164 125.5 q-118 0 -226.5 -106.5t-189 -299.5t-80.5 -421zM535 1787q0 20 9.5 44.5t27 41.5t31.5 7l408 -279q36 -24 24 -56q-8 -21 -25 -21q-12 0 -23 6l-430 204q-22 11 -22 53z" />
<glyph unicode="&#xd3;" horiz-adv-x="1209" d="M142 451q0 345 210.5 639.5t510.5 294.5q193 0 292 -149t99 -361q0 -343 -208.5 -622.5t-507.5 -279.5q-165 0 -280.5 133.5t-115.5 344.5zM337 474q0 -188 68.5 -299.5t165.5 -111.5q143 0 250 116.5t175.5 308.5t68.5 386q0 176 -68 301.5t-164 125.5 q-118 0 -226.5 -106.5t-189 -299.5t-80.5 -421zM691 1560q0 22 28 41l406 279q7 4 14 4q17 0 37 -29.5t20 -68.5q0 -40 -25 -52l-427 -204q-13 -6 -23 -6q-13 0 -21.5 10.5t-8.5 25.5z" />
<glyph unicode="&#xd4;" horiz-adv-x="1209" d="M142 451q0 345 210.5 639.5t510.5 294.5q193 0 292 -149t99 -361q0 -343 -208.5 -622.5t-507.5 -279.5q-165 0 -280.5 133.5t-115.5 344.5zM337 474q0 -188 68.5 -299.5t165.5 -111.5q143 0 250 116.5t175.5 308.5t68.5 386q0 176 -68 301.5t-164 125.5 q-118 0 -226.5 -106.5t-189 -299.5t-80.5 -421zM614 1566q0 8 6 13l280 271q20 19 40.5 19t41.5 -24l214 -266q4 -4 4 -10q0 -10 -9.5 -27t-16.5 -17q-2 0 -4 1l-216 133q-16 9 -32 9t-32 -9l-241 -133q-3 -1 -5 -1q-11 0 -20.5 15.5t-9.5 25.5z" />
<glyph unicode="&#xd5;" horiz-adv-x="1209" d="M142 451q0 345 210.5 639.5t510.5 294.5q193 0 292 -149t99 -361q0 -343 -208.5 -622.5t-507.5 -279.5q-165 0 -280.5 133.5t-115.5 344.5zM337 474q0 -188 68.5 -299.5t165.5 -111.5q143 0 250 116.5t175.5 308.5t68.5 386q0 176 -68 301.5t-164 125.5 q-118 0 -226.5 -106.5t-189 -299.5t-80.5 -421zM655 1489l1 6q25 82 73 140q36 44 68 44q27 0 96 -24q51 -21 94 -21q42 0 71 53q3 3 4 7q3 7 12 7l13 -3q16 -9 17 -23l-1 -6q-22 -71 -70 -129q-36 -45 -66 -45q-32 0 -108 25q-71 19 -82 20q-32 0 -66 -39q-12 -15 -19 -31 q-3 -6 -9 -6l-11 2q-16 8 -17 23z" />
<glyph unicode="&#xd6;" horiz-adv-x="1209" d="M142 451q0 345 210.5 639.5t510.5 294.5q193 0 292 -149t99 -361q0 -343 -208.5 -622.5t-507.5 -279.5q-165 0 -280.5 133.5t-115.5 344.5zM337 474q0 -188 68.5 -299.5t165.5 -111.5q143 0 250 116.5t175.5 308.5t68.5 386q0 176 -68 301.5t-164 125.5 q-118 0 -226.5 -106.5t-189 -299.5t-80.5 -421zM655 1629q0 59 32 101t82 42q39 0 64 -30.5t25 -79.5q0 -60 -32.5 -101t-80.5 -41q-40 0 -65 30t-25 79zM975 1629q0 59 32 101t81 42q39 0 64.5 -30.5t25.5 -79.5q0 -60 -32.5 -101t-80.5 -41q-41 0 -65.5 30t-24.5 79z" />
<glyph unicode="&#xd7;" horiz-adv-x="666" d="M53 98l193 244l-193 242l109 137l193 -242l195 242l110 -137l-194 -242l194 -244l-110 -137l-195 242l-193 -242z" />
<glyph unicode="&#xd8;" horiz-adv-x="1209" d="M142 451q0 399 264 703q120 137 230.5 184t226.5 47q129 0 213 -65l70 103q11 15 43 -21t21 -52l-67 -99q3 -4 9 -12.5t8 -10.5q94 -141 94 -353q0 -155 -54 -327t-172 -317q-212 -260 -490 -260q-116 0 -219 77l-94 -138q-8 -11 -40 25t-24 48l88 130q-107 130 -107 338 zM336 474q0 -111 26 -197l627 915q-64 107 -146 107q-4 4 -28 1t-50 -7t-68.5 -29.5t-86.5 -67.5q-92 -86 -157 -221t-91 -261t-26 -240zM405 174q67 -111 161 -111q102 0 188 62t142 155.5t95.5 207.5t56.5 212t17 175q0 114 -32 216z" />
<glyph unicode="&#xd9;" horiz-adv-x="1189" d="M193 262q0 130 39 292l146 602q7 32 7 56q0 27 -24 42.5t-84 15.5q-6 0 -6 14t7 47t19 33q45 -6 220 -6t221 6q6 0 6 -13.5t-7.5 -47t-18.5 -33.5q-92 0 -114.5 -27t-37.5 -89l-116 -476q-74 -308 -74 -417t64 -153.5t134 -44.5q141 0 240 95t160 348l155 648q6 26 6 43 q0 73 -116 73q-5 0 -5 13t8 47t19 34q45 -6 186.5 -6t187.5 6q7 0 7 -12.5t-8 -47t-19 -34.5q-85 0 -112 -32.5t-39 -83.5l-69 -283q-113 -465 -169 -587t-169 -216.5t-307 -94.5q-177 0 -257 77.5t-80 211.5zM547 1787q0 20 9.5 44.5t27 41.5t31.5 7l408 -279 q36 -24 24 -56q-8 -21 -25 -21q-12 0 -23 6l-430 204q-22 11 -22 53z" />
<glyph unicode="&#xda;" horiz-adv-x="1189" d="M193 262q0 130 39 292l146 602q7 32 7 56q0 27 -24 42.5t-84 15.5q-6 0 -6 14t7 47t19 33q45 -6 220 -6t221 6q6 0 6 -13.5t-7.5 -47t-18.5 -33.5q-92 0 -114.5 -27t-37.5 -89l-116 -476q-74 -308 -74 -417t64 -153.5t134 -44.5q141 0 240 95t160 348l155 648q6 26 6 43 q0 73 -116 73q-5 0 -5 13t8 47t19 34q45 -6 186.5 -6t187.5 6q7 0 7 -12.5t-8 -47t-19 -34.5q-85 0 -112 -32.5t-39 -83.5l-69 -283q-113 -465 -169 -587t-169 -216.5t-307 -94.5q-177 0 -257 77.5t-80 211.5zM744 1560q0 22 28 41l406 279q7 4 14 4q17 0 37 -29.5t20 -68.5 q0 -40 -25 -52l-427 -204q-13 -6 -23 -6q-13 0 -21.5 10.5t-8.5 25.5z" />
<glyph unicode="&#xdb;" horiz-adv-x="1189" d="M193 262q0 130 39 292l146 602q7 32 7 56q0 27 -24 42.5t-84 15.5q-6 0 -6 14t7 47t19 33q45 -6 220 -6t221 6q6 0 6 -13.5t-7.5 -47t-18.5 -33.5q-92 0 -114.5 -27t-37.5 -89l-116 -476q-74 -308 -74 -417t64 -153.5t134 -44.5q141 0 240 95t160 348l155 648q6 26 6 43 q0 73 -116 73q-5 0 -5 13t8 47t19 34q45 -6 186.5 -6t187.5 6q7 0 7 -12.5t-8 -47t-19 -34.5q-85 0 -112 -32.5t-39 -83.5l-69 -283q-113 -465 -169 -587t-169 -216.5t-307 -94.5q-177 0 -257 77.5t-80 211.5zM625 1566q0 8 6 13l280 271q20 19 40.5 19t41.5 -24l214 -266 q4 -4 4 -10q0 -10 -9.5 -27t-16.5 -17q-2 0 -4 1l-216 133q-16 9 -32 9t-32 -9l-241 -133q-3 -1 -5 -1q-11 0 -20.5 15.5t-9.5 25.5z" />
<glyph unicode="&#xdc;" horiz-adv-x="1189" d="M193 262q0 130 39 292l146 602q7 32 7 56q0 27 -24 42.5t-84 15.5q-6 0 -6 14t7 47t19 33q45 -6 220 -6t221 6q6 0 6 -13.5t-7.5 -47t-18.5 -33.5q-92 0 -114.5 -27t-37.5 -89l-116 -476q-74 -308 -74 -417t64 -153.5t134 -44.5q141 0 240 95t160 348l155 648q6 26 6 43 q0 73 -116 73q-5 0 -5 13t8 47t19 34q45 -6 186.5 -6t187.5 6q7 0 7 -12.5t-8 -47t-19 -34.5q-85 0 -112 -32.5t-39 -83.5l-69 -283q-113 -465 -169 -587t-169 -216.5t-307 -94.5q-177 0 -257 77.5t-80 211.5zM672 1629q0 59 32 101t82 42q39 0 64 -30.5t25 -79.5 q0 -60 -32.5 -101t-80.5 -41q-40 0 -65 30t-25 79zM992 1629q0 59 32 101t81 42q39 0 64.5 -30.5t25.5 -79.5q0 -60 -32.5 -101t-80.5 -41q-41 0 -65.5 30t-24.5 79z" />
<glyph unicode="&#xdd;" horiz-adv-x="1014" d="M158 1283.5q0 13.5 6.5 47t17.5 33.5q46 -6 202.5 -6t201.5 6q13 0 4 -47t-20 -47q-97 0 -97 -56q0 -24 9 -57l104 -403q7 -23 18 -23t26 20l308 406q38 52 38 78q0 35 -74 35q-12 0 -2 47t22 47q45 -6 169.5 -6t170.5 6q7 0 7 -13.5t-6.5 -47t-18.5 -33.5 q-82 0 -126 -34.5t-160 -190.5l-303 -403q-30 -40 -52 -134l-71 -307q-6 -27 -6 -51q0 -64 100 -64q12 0 2 -47t-22 -47q-60 8 -210 8t-211 -8q-11 0 -1.5 47t21.5 47q67 0 95.5 24t47.5 108l62 256q19 84 19 115t-16 89l-121 460q-22 81 -46 106.5t-81 25.5q-7 0 -7 13.5z M635 1560q0 22 28 41l406 279q7 4 14 4q17 0 37 -29.5t20 -68.5q0 -40 -25 -52l-427 -204q-13 -6 -23 -6q-13 0 -21.5 10.5t-8.5 25.5z" />
<glyph unicode="&#xde;" horiz-adv-x="999" d="M-119 -434q0 14 6 20q73 57 108 101t52 112l307 1290q8 32 8 60q0 75 -110 75q-10 0 0.5 47t21.5 47q116 0 244 51q38 15 60 15q30 0 30 -33q0 -23 -16 -74t-38 -142q79 49 162.5 122t148.5 73q43 0 72 -35q85 -107 85 -321q0 -182 -77.5 -393t-279 -401t-359.5 -203 q-29 -2 -39 -42l-45 -195q-14 -55 -105 -132.5t-178 -127.5q-2 -1 -5 -1q-16 0 -34.5 36.5t-18.5 50.5zM308 91q0 -17 20 -17q6 0 14 2q128 41 248.5 176t180.5 310t60 340q0 160 -69 261q-11 17 -22 17q-13 0 -20 -5q-73 -63 -165 -130q-29 -20 -40 -65l-203 -860 q-4 -18 -4 -29z" />
<glyph unicode="&#xdf;" horiz-adv-x="786" d="M-269 -424q0 45 23 75t51 30q48 0 69 -56q28 -71 52 -71q22 0 37.5 18t23.5 47t14.5 63.5t11.5 67.5l143 881q60 375 193 577q169 256 423 256q87 0 143.5 -48t56.5 -136q0 -39 -13.5 -72.5t-42 -63.5t-54.5 -51.5t-69.5 -53t-69.5 -54.5q-172 -145 -172 -291 q0 -41 14.5 -73.5t75.5 -137.5q45 -75 65 -124.5t20 -108.5q0 -115 -82 -201q-71 -76 -180 -76q-58 0 -99 44t-41 92q0 36 17.5 71t56.5 35q23 0 42.5 -11t28.5 -21.5t29 -37.5q8 -12 15.5 -21t15 -15.5t19.5 -9.5t30 -3q40 0 40 64q0 22 -15.5 51t-47 72t-42.5 63 q-80 133 -80 232q0 86 15.5 152.5t52 122.5t70.5 92t94 93q130 117 130 219q0 50 -21.5 87.5t-67.5 37.5q-60 0 -110 -47t-111 -135q-66 -96 -102 -228t-72 -356l-114 -712q-17 -105 -51.5 -209.5t-60.5 -134.5q-95 -111 -201 -111q-71 0 -112 41t-41 86z" />
<glyph unicode="&#xe0;" horiz-adv-x="772" d="M50 166q0 209 149 443.5t314 234.5q49 0 85 -31l16 49q8 22 75 22q73 0 73 -35q0 -7 -3 -18l-157 -651q-3 -10 -3 -19q1 -20 19 -20q28 0 81 66q10 12 33 -12q15 -17 15 -28q0 -5 -3 -9q-74 -90 -134 -137.5t-105 -47.5q-65 0 -63 91q0 61 32 144l3 7l-10 6 q-179 -248 -289 -248q-58 0 -93 54t-35 139zM228 227q0 -117 38 -117q41 0 100.5 81.5t102 177.5t64.5 184l39 160q-26 47 -81 47q-102 0 -182.5 -215.5t-80.5 -317.5zM282 1218q-24 28 8 72q32 43 68 43q20 0 30 -19l167 -313q17 -31 10 -51q-7 -21 -25 -21q-19 0 -34 18z " />
<glyph unicode="&#xe1;" horiz-adv-x="772" d="M50 166q0 209 149 443.5t314 234.5q49 0 85 -31l16 49q8 22 75 22q73 0 73 -35q0 -7 -3 -18l-157 -651q-3 -10 -3 -19q1 -20 19 -20q28 0 81 66q10 12 33 -12q15 -17 15 -28q0 -5 -3 -9q-74 -90 -134 -137.5t-105 -47.5q-65 0 -63 91q0 61 32 144l3 7l-10 6 q-179 -248 -289 -248q-58 0 -93 54t-35 139zM228 227q0 -117 38 -117q41 0 100.5 81.5t102 177.5t64.5 184l39 160q-26 47 -81 47q-102 0 -182.5 -215.5t-80.5 -317.5zM446 950q-7 20 10 51l167 313q10 19 29 19q36 0 68 -43q33 -44 9 -72l-225 -271q-15 -18 -33 -18 q-19 0 -25 21z" />
<glyph unicode="&#xe2;" horiz-adv-x="772" d="M50 166q0 209 149 443.5t314 234.5q49 0 85 -31l16 49q8 22 75 22q73 0 73 -35q0 -7 -3 -18l-157 -651q-3 -10 -3 -19q1 -20 19 -20q28 0 81 66q10 12 33 -12q15 -17 15 -28q0 -5 -3 -9q-74 -90 -134 -137.5t-105 -47.5q-65 0 -63 91q0 61 32 144l3 7l-10 6 q-179 -248 -289 -248q-58 0 -93 54t-35 139zM228 227q0 -117 38 -117q41 0 100.5 81.5t102 177.5t64.5 184l39 160q-26 47 -81 47q-102 0 -182.5 -215.5t-80.5 -317.5zM353 985v11q1 2 2 3l246 407q18 30 46 30q25 0 32 -30l110 -407v-12q-4 -20 -24 -31l-12 -3l-8 4 q-1 1 -2 3l-103 197q-23 44 -35 44q-9 0 -32 -30l-15 -18l-161 -197q-3 -4 -9 -5l-12 4q-19 11 -23 30z" />
<glyph unicode="&#xe3;" horiz-adv-x="772" d="M50 166q0 209 149 443.5t314 234.5q49 0 85 -31l16 49q8 22 75 22q73 0 73 -35q0 -7 -3 -18l-157 -651q-3 -10 -3 -19q1 -20 19 -20q28 0 81 66q10 12 33 -12q15 -17 15 -28q0 -5 -3 -9q-74 -90 -134 -137.5t-105 -47.5q-65 0 -63 91q0 61 32 144l3 7l-10 6 q-179 -248 -289 -248q-58 0 -93 54t-35 139zM228 227q0 -117 38 -117q41 0 100.5 81.5t102 177.5t64.5 184l39 160q-26 47 -81 47q-102 0 -182.5 -215.5t-80.5 -317.5zM377 964l1 6q25 82 73 140q36 44 68 44q27 0 96 -24q51 -21 94 -21q42 0 71 53q3 3 4 7q3 7 12 7l13 -3 q16 -9 17 -23l-1 -6q-22 -71 -70 -129q-36 -45 -66 -45q-32 0 -108 25q-71 19 -82 20q-32 0 -66 -39q-12 -15 -19 -31q-3 -6 -9 -6l-11 2q-16 8 -17 23z" />
<glyph unicode="&#xe4;" horiz-adv-x="772" d="M50 166q0 209 149 443.5t314 234.5q49 0 85 -31l16 49q8 22 75 22q73 0 73 -35q0 -7 -3 -18l-157 -651q-3 -10 -3 -19q1 -20 19 -20q28 0 81 66q10 12 33 -12q15 -17 15 -28q0 -5 -3 -9q-74 -90 -134 -137.5t-105 -47.5q-65 0 -63 91q0 61 32 144l3 7l-10 6 q-179 -248 -289 -248q-58 0 -93 54t-35 139zM228 227q0 -117 38 -117q41 0 100.5 81.5t102 177.5t64.5 184l39 160q-26 47 -81 47q-102 0 -182.5 -215.5t-80.5 -317.5zM298 1119q0 59 32 101t82 42q39 0 64 -30.5t25 -79.5q0 -60 -32.5 -101t-80.5 -41q-40 0 -65 30t-25 79z M618 1119q0 59 32 101t81 42q39 0 64.5 -30.5t25.5 -79.5q0 -60 -32.5 -101t-80.5 -41q-41 0 -65.5 30t-24.5 79z" />
<glyph unicode="&#xe5;" horiz-adv-x="772" d="M50 166q0 209 149 443.5t314 234.5q49 0 85 -31l16 49q8 22 75 22q73 0 73 -35q0 -7 -3 -18l-157 -651q-3 -10 -3 -19q1 -20 19 -20q28 0 81 66q10 12 33 -12q15 -17 15 -28q0 -5 -3 -9q-74 -90 -134 -137.5t-105 -47.5q-65 0 -63 91q0 61 32 144l3 7l-10 6 q-179 -248 -289 -248q-58 0 -93 54t-35 139zM228 227q0 -117 38 -117q41 0 100.5 81.5t102 177.5t64.5 184l39 160q-26 47 -81 47q-102 0 -182.5 -215.5t-80.5 -317.5zM384 1186q0 96 59 161q55 62 138 62q101 0 158 -87q38 -60 38 -136q0 -97 -58 -163q-55 -62 -138 -62 q-101 0 -157 88q-40 60 -40 137zM494 1184q0 -83 40 -121q20 -20 47 -20q53 0 75 68q12 33 12 73q0 85 -43 124q-19 17 -44 19q-55 -4 -77 -74q-10 -31 -10 -69z" />
<glyph unicode="&#xe6;" horiz-adv-x="866" d="M29 162q0 166 122.5 330.5t291 262t309.5 97.5q136 0 136 -141q0 -76 -45 -141.5t-118 -108.5t-123.5 -65.5t-101.5 -39.5q-8 -71 -8 -104q0 -68 23.5 -108t62.5 -40q37 0 80.5 37t72.5 74q9 11 28 -10t13 -33q-128 -199 -253 -199q-57 0 -88 25t-54 76 q-107 -101 -220 -101q-59 0 -93.5 54.5t-34.5 134.5zM206 195q0 -35 12.5 -63t35.5 -28q33 0 82 39q-8 56 -8 88q0 109 63 247t145 229l-7 8q-134 -84 -228.5 -236.5t-94.5 -283.5zM513 438q72 27 141.5 94.5t69.5 155.5q0 12 -2.5 25.5t-13 29t-26.5 15.5q-46 0 -97 -101.5 t-72 -218.5z" />
<glyph unicode="&#xe7;" horiz-adv-x="594" d="M10 -434q0 29 14.5 48.5t38.5 19.5t59.5 -38t51.5 -38q15 0 28.5 14.5t13.5 36.5q0 94 -101 148l-5 16l118 217h87l-63 -106q-9 -17 -7 -24t21 -24q78 -73 78 -170q0 -82 -62 -136t-146 -54q-126 0 -126 90zM74 264q0 203 125.5 395.5t270.5 192.5q64 0 109 -33t45 -82 q0 -37 -26 -65.5t-56 -28.5q-34 0 -48 31q-4 48 -21 72q-18 24 -43 24q-78 0 -133.5 -145.5t-55.5 -294.5q0 -99 25.5 -169.5t75.5 -70.5q43 0 76.5 25.5t47.5 42.5q6 8 18 -0.5t18.5 -22t0.5 -22.5q-93 -140 -236 -140q-86 0 -139.5 80t-53.5 211z" />
<glyph unicode="&#xe8;" horiz-adv-x="600" d="M62 231q0 192 140 406.5t286 214.5q134 0 134 -139q0 -120 -113.5 -215.5t-269.5 -141.5q-13 -75 -13 -104q0 -148 74 -148q39 0 89 39t71 64q7 5 18 -2.5t18.5 -20t3.5 -20.5q-117 -191 -246 -191q-192 0 -192 258zM261 449q70 28 134.5 94.5t64.5 144.5q0 66 -35 66 q-42 0 -86.5 -87.5t-77.5 -217.5zM271 1218q-24 28 8 72q32 43 68 43q20 0 30 -19l167 -313q17 -31 10 -51q-7 -21 -25 -21q-19 0 -34 18z" />
<glyph unicode="&#xe9;" horiz-adv-x="600" d="M62 231q0 192 140 406.5t286 214.5q134 0 134 -139q0 -120 -113.5 -215.5t-269.5 -141.5q-13 -75 -13 -104q0 -148 74 -148q39 0 89 39t71 64q7 5 18 -2.5t18.5 -20t3.5 -20.5q-117 -191 -246 -191q-192 0 -192 258zM261 449q70 28 134.5 94.5t64.5 144.5q0 66 -35 66 q-42 0 -86.5 -87.5t-77.5 -217.5zM420 950q-7 20 10 51l167 313q10 19 29 19q36 0 68 -43q33 -44 9 -72l-225 -271q-15 -18 -33 -18q-19 0 -25 21z" />
<glyph unicode="&#xea;" horiz-adv-x="600" d="M62 231q0 192 140 406.5t286 214.5q134 0 134 -139q0 -120 -113.5 -215.5t-269.5 -141.5q-13 -75 -13 -104q0 -148 74 -148q39 0 89 39t71 64q7 5 18 -2.5t18.5 -20t3.5 -20.5q-117 -191 -246 -191q-192 0 -192 258zM261 449q70 28 134.5 94.5t64.5 144.5q0 66 -35 66 q-42 0 -86.5 -87.5t-77.5 -217.5zM269 985v11q1 2 2 3l246 407q18 30 46 30q25 0 32 -30l110 -407v-12q-4 -20 -24 -31l-12 -3l-8 4q-1 1 -2 3l-103 197q-23 44 -35 44q-9 0 -32 -30l-15 -18l-161 -197q-3 -4 -9 -5l-12 4q-19 11 -23 30z" />
<glyph unicode="&#xeb;" horiz-adv-x="600" d="M62 231q0 192 140 406.5t286 214.5q134 0 134 -139q0 -120 -113.5 -215.5t-269.5 -141.5q-13 -75 -13 -104q0 -148 74 -148q39 0 89 39t71 64q7 5 18 -2.5t18.5 -20t3.5 -20.5q-117 -191 -246 -191q-192 0 -192 258zM254 1119q0 59 32 101t82 42q39 0 64 -30.5t25 -79.5 q0 -60 -32.5 -101t-80.5 -41q-40 0 -65 30t-25 79zM261 449q70 28 134.5 94.5t64.5 144.5q0 66 -35 66q-42 0 -86.5 -87.5t-77.5 -217.5zM574 1119q0 59 32 101t81 42q39 0 64.5 -30.5t25.5 -79.5q0 -60 -32.5 -101t-80.5 -41q-41 0 -65.5 30t-24.5 79z" />
<glyph unicode="&#xec;" horiz-adv-x="427" d="M87 647q0 6 2 8q134 197 230 197q51 0 67 -72q4 -18 5 -40l-1 -43q-3 -18 -7 -35l-117 -482l-4 -21q2 -16 19 -17t61 62q13 20 24.5 20t22 -18t11.5 -26l-2 -6q-138 -201 -231 -201q-52 0 -67 74q-13 55 3 121l118 479l2 20q-1 21 -17 21t-75 -82q-2 -3 -11.5 -3t-21 19 t-11.5 25zM118 1218q-24 28 8 72q32 43 68 43q20 0 30 -19l167 -313q17 -31 10 -51q-7 -21 -25 -21q-19 0 -34 18z" />
<glyph unicode="&#xed;" horiz-adv-x="427" d="M87 647q0 6 2 8q134 197 230 197q51 0 67 -72q4 -18 5 -40l-1 -43q-3 -18 -7 -35l-117 -482l-4 -21q2 -16 19 -17t61 62q13 20 24.5 20t22 -18t11.5 -26l-2 -6q-138 -201 -231 -201q-52 0 -67 74q-13 55 3 121l118 479l2 20q-1 21 -17 21t-75 -82q-2 -3 -11.5 -3t-21 19 t-11.5 25zM276 950q-7 20 10 51l167 313q10 19 29 19q36 0 68 -43q33 -44 9 -72l-225 -271q-15 -18 -33 -18q-19 0 -25 21z" />
<glyph unicode="&#xee;" horiz-adv-x="427" d="M87 647q0 6 2 8q134 197 230 197q51 0 67 -72q4 -18 5 -40l-1 -43q-3 -18 -7 -35l-117 -482l-4 -21q2 -16 19 -17t61 62q13 20 24.5 20t22 -18t11.5 -26l-2 -6q-138 -201 -231 -201q-52 0 -67 74q-13 55 3 121l118 479l2 20q-1 21 -17 21t-75 -82q-2 -3 -11.5 -3t-21 19 t-11.5 25zM88 985v11q1 2 2 3l246 407q18 30 46 30q25 0 32 -30l110 -407v-12q-4 -20 -24 -31l-12 -3l-8 4q-1 1 -2 3l-103 197q-23 44 -35 44q-9 0 -32 -30l-15 -18l-161 -197q-3 -4 -9 -5l-12 4q-19 11 -23 30z" />
<glyph unicode="&#xef;" horiz-adv-x="427" d="M75 1119q0 59 32 101t82 42q39 0 64 -30.5t25 -79.5q0 -60 -32.5 -101t-80.5 -41q-40 0 -65 30t-25 79zM87 647q0 6 2 8q134 197 230 197q51 0 67 -72q4 -18 5 -40l-1 -43q-3 -18 -7 -35l-117 -482l-4 -21q2 -16 19 -17t61 62q13 20 24.5 20t22 -18t11.5 -26l-2 -6 q-138 -201 -231 -201q-52 0 -67 74q-13 55 3 121l118 479l2 20q-1 21 -17 21t-75 -82q-2 -3 -11.5 -3t-21 19t-11.5 25zM395 1119q0 59 32 101t81 42q39 0 64.5 -30.5t25.5 -79.5q0 -60 -32.5 -101t-80.5 -41q-41 0 -65.5 30t-24.5 79z" />
<glyph unicode="&#xf0;" horiz-adv-x="728" d="M75 322q0 221 127 375.5t271 154.5q7 0 22 -1t19 -1q-45 98 -122 184l-225 -180q-16 -13 -36 68.5t-11 81.5q1 0 25 -17.5t43 -17.5q15 0 33 12l125 100q-82 78 -221 154q-14 8 -0.5 45t29.5 31q149 -54 282 -156l237 195q14 10 44.5 -66t18.5 -76q-5 0 -35.5 12.5 t-48.5 12.5q-15 0 -26 -8l-138 -111q225 -196 225 -467q0 -305 -114 -489.5t-302 -184.5q-222 0 -222 349zM229 201q0 -58 29.5 -92.5t62.5 -34.5q51 0 106 95t90 228t35 244q0 59 -25.5 84t-56.5 25q-52 0 -109.5 -88.5t-94.5 -217.5t-37 -243z" />
<glyph unicode="&#xf1;" horiz-adv-x="819" d="M59 -2l155 623q9 35 9 45q0 22 -18.5 22t-73.5 -82q-3 -4 -7 -4q-9 0 -23 17.5t-14 28.5q0 4 2 7q137 197 225 197q71 0 71 -104q0 -37 -13 -82l-46 -162l10 -4q161 352 313 352q114 0 114 -141q0 -71 -22 -164l-76 -315q-16 -65 -16 -71q0 -20 18.5 -20t78.5 84q2 4 6 4 q8 0 24 -17.5t16 -28.5q0 -4 -2 -7q-130 -203 -238 -203q-72 0 -72 128q0 33 8 67l100 412q25 102 25 131q0 32 -15 32q-79 0 -199.5 -264.5t-180.5 -482.5q-7 -23 -86 -23t-73 25zM328 964l1 6q25 82 73 140q36 44 68 44q27 0 96 -24q51 -21 94 -21q42 0 71 53q3 3 4 7 q3 7 12 7l13 -3q16 -9 17 -23l-1 -6q-22 -71 -70 -129q-36 -45 -66 -45q-32 0 -108 25q-71 19 -82 20q-32 0 -66 -39q-12 -15 -19 -31q-3 -6 -9 -6l-11 2q-16 8 -17 23z" />
<glyph unicode="&#xf2;" horiz-adv-x="758" d="M90 315q0 191 130 364t285 173q111 0 166.5 -90t55.5 -234q0 -209 -118.5 -382t-295.5 -173q-111 0 -167 97.5t-56 244.5zM236 203q0 -117 77 -117q76 0 174 201t98 342q0 119 -72 119q-84 0 -180.5 -201t-96.5 -344zM316 1218q-24 28 8 72q32 43 68 43q20 0 30 -19 l167 -313q17 -31 10 -51q-7 -21 -25 -21q-19 0 -34 18z" />
<glyph unicode="&#xf3;" horiz-adv-x="758" d="M90 315q0 191 130 364t285 173q111 0 166.5 -90t55.5 -234q0 -209 -118.5 -382t-295.5 -173q-111 0 -167 97.5t-56 244.5zM236 203q0 -117 77 -117q76 0 174 201t98 342q0 119 -72 119q-84 0 -180.5 -201t-96.5 -344zM490 950q-7 20 10 51l167 313q10 19 29 19 q36 0 68 -43q33 -44 9 -72l-225 -271q-15 -18 -33 -18q-19 0 -25 21z" />
<glyph unicode="&#xf4;" horiz-adv-x="758" d="M90 315q0 191 130 364t285 173q111 0 166.5 -90t55.5 -234q0 -209 -118.5 -382t-295.5 -173q-111 0 -167 97.5t-56 244.5zM236 203q0 -117 77 -117q76 0 174 201t98 342q0 119 -72 119q-84 0 -180.5 -201t-96.5 -344zM334 985v11q1 2 2 3l246 407q18 30 46 30 q25 0 32 -30l110 -407v-12q-4 -20 -24 -31l-12 -3l-8 4q-1 1 -2 3l-103 197q-23 44 -35 44q-9 0 -32 -30l-15 -18l-161 -197q-3 -4 -9 -5l-12 4q-19 11 -23 30z" />
<glyph unicode="&#xf5;" horiz-adv-x="758" d="M90 315q0 191 130 364t285 173q111 0 166.5 -90t55.5 -234q0 -209 -118.5 -382t-295.5 -173q-111 0 -167 97.5t-56 244.5zM236 203q0 -117 77 -117q76 0 174 201t98 342q0 119 -72 119q-84 0 -180.5 -201t-96.5 -344zM348 964l1 6q25 82 73 140q36 44 68 44q27 0 96 -24 q51 -21 94 -21q42 0 71 53q3 3 4 7q3 7 12 7l13 -3q16 -9 17 -23l-1 -6q-22 -71 -70 -129q-36 -45 -66 -45q-32 0 -108 25q-71 19 -82 20q-32 0 -66 -39q-12 -15 -19 -31q-3 -6 -9 -6l-11 2q-16 8 -17 23z" />
<glyph unicode="&#xf6;" horiz-adv-x="758" d="M90 315q0 191 130 364t285 173q111 0 166.5 -90t55.5 -234q0 -209 -118.5 -382t-295.5 -173q-111 0 -167 97.5t-56 244.5zM236 203q0 -117 77 -117q76 0 174 201t98 342q0 119 -72 119q-84 0 -180.5 -201t-96.5 -344zM302 1119q0 59 32 101t82 42q39 0 64 -30.5t25 -79.5 q0 -60 -32.5 -101t-80.5 -41q-40 0 -65 30t-25 79zM622 1119q0 59 32 101t81 42q39 0 64.5 -30.5t25.5 -79.5q0 -60 -32.5 -101t-80.5 -41q-41 0 -65.5 30t-24.5 79z" />
<glyph unicode="&#xf7;" horiz-adv-x="877" d="M103 383v158h711v-158h-711zM350 137q0 49 30 86t82 37t82 -51q21 -36 21 -84q0 -73 -49 -106l-22 -12q-16 -5 -32 -5q-52 0 -84 42q-28 35 -28 93zM350 799q0 49 30 86t82 37t82 -52q21 -36 21 -84q0 -72 -49 -105l-22 -12q-16 -5 -32 -5q-52 0 -85 43q-27 35 -27 92z " />
<glyph unicode="&#xf8;" horiz-adv-x="758" d="M90 315q0 151 88 301q84 141 200 202q64 34 127 34q57 0 105 -27l47 82q2 4 6 4l13 -4q22 -12 29 -31l1 -8l-1 -2l-48 -84q70 -84 70 -254q0 -159 -73 -307q-83 -166 -218 -223q-58 -25 -123 -25q-59 0 -108 33l-64 -110q-3 -4 -8 -4q-17 0 -34 23q-6 9 -7 16l2 6l65 114 q-69 92 -69 264zM236 182l321 553q-19 13 -44 13q-67 0 -150 -144q-75 -132 -111 -284q-16 -69 -16 -117v-21zM264 106q18 -20 49 -20q61 0 143 142q76 133 112 279q17 67 17 111q0 29 -2 39z" />
<glyph unicode="&#xf9;" horiz-adv-x="815" d="M85 643q0 4 2 8q124 201 232 201q72 0 72 -125q0 -37 -13 -88l-76 -307q-30 -118 -30 -158q0 -41 18 -41q40 0 122.5 136.5t123.5 231.5q74 169 111 329q5 22 75 22q90 0 81 -35l-145 -586q-16 -65 -16 -69q0 -21 21 -21t81 84q3 3 6 3q9 0 23 -16q15 -19 15 -30 q0 -3 -2 -6q-131 -203 -228 -203q-84 0 -84 121q0 35 9 76l36 152q-80 -138 -173.5 -243.5t-150.5 -105.5q-100 0 -100 123q0 49 16 113l102 407q12 48 12 54q0 18 -15 18t-36 -23q-21 -24 -44 -61q-3 -5 -8 -5q-8 0 -22 16q-15 17 -15 28zM304 1218q-24 28 8 72 q32 43 68 43q20 0 30 -19l167 -313q17 -31 10 -51q-7 -21 -25 -21q-19 0 -34 18z" />
<glyph unicode="&#xfa;" horiz-adv-x="815" d="M85 643q0 4 2 8q124 201 232 201q72 0 72 -125q0 -37 -13 -88l-76 -307q-30 -118 -30 -158q0 -41 18 -41q40 0 122.5 136.5t123.5 231.5q74 169 111 329q5 22 75 22q90 0 81 -35l-145 -586q-16 -65 -16 -69q0 -21 21 -21t81 84q3 3 6 3q9 0 23 -16q15 -19 15 -30 q0 -3 -2 -6q-131 -203 -228 -203q-84 0 -84 121q0 35 9 76l36 152q-80 -138 -173.5 -243.5t-150.5 -105.5q-100 0 -100 123q0 49 16 113l102 407q12 48 12 54q0 18 -15 18t-36 -23q-21 -24 -44 -61q-3 -5 -8 -5q-8 0 -22 16q-15 17 -15 28zM470 950q-7 20 10 51l167 313 q10 19 29 19q36 0 68 -43q33 -44 9 -72l-225 -271q-15 -18 -33 -18q-19 0 -25 21z" />
<glyph unicode="&#xfb;" horiz-adv-x="815" d="M85 643q0 4 2 8q124 201 232 201q72 0 72 -125q0 -37 -13 -88l-76 -307q-30 -118 -30 -158q0 -41 18 -41q40 0 122.5 136.5t123.5 231.5q74 169 111 329q5 22 75 22q90 0 81 -35l-145 -586q-16 -65 -16 -69q0 -21 21 -21t81 84q3 3 6 3q9 0 23 -16q15 -19 15 -30 q0 -3 -2 -6q-131 -203 -228 -203q-84 0 -84 121q0 35 9 76l36 152q-80 -138 -173.5 -243.5t-150.5 -105.5q-100 0 -100 123q0 49 16 113l102 407q12 48 12 54q0 18 -15 18t-36 -23q-21 -24 -44 -61q-3 -5 -8 -5q-8 0 -22 16q-15 17 -15 28zM328 985v11q1 2 2 3l246 407 q18 30 46 30q25 0 32 -30l110 -407v-12q-4 -20 -24 -31l-12 -3l-8 4q-1 1 -2 3l-103 197q-23 44 -35 44q-9 0 -32 -30l-15 -18l-161 -197q-3 -4 -9 -5l-12 4q-19 11 -23 30z" />
<glyph unicode="&#xfc;" horiz-adv-x="815" d="M85 643q0 4 2 8q124 201 232 201q72 0 72 -125q0 -37 -13 -88l-76 -307q-30 -118 -30 -158q0 -41 18 -41q40 0 122.5 136.5t123.5 231.5q74 169 111 329q5 22 75 22q90 0 81 -35l-145 -586q-16 -65 -16 -69q0 -21 21 -21t81 84q3 3 6 3q9 0 23 -16q15 -19 15 -30 q0 -3 -2 -6q-131 -203 -228 -203q-84 0 -84 121q0 35 9 76l36 152q-80 -138 -173.5 -243.5t-150.5 -105.5q-100 0 -100 123q0 49 16 113l102 407q12 48 12 54q0 18 -15 18t-36 -23q-21 -24 -44 -61q-3 -5 -8 -5q-8 0 -22 16q-15 17 -15 28zM318 1119q0 59 32 101t82 42 q39 0 64 -30.5t25 -79.5q0 -60 -32.5 -101t-80.5 -41q-40 0 -65 30t-25 79zM638 1119q0 59 32 101t81 42q39 0 64.5 -30.5t25.5 -79.5q0 -60 -32.5 -101t-80.5 -41q-41 0 -65.5 30t-24.5 79z" />
<glyph unicode="&#xfd;" horiz-adv-x="625" d="M-122 -446q0 51 22 79.5t59 28.5q33 0 56 -47t55 -47t86.5 71t76 178t21.5 255q0 260 -18 437t-62 177q-34 0 -80 -113q-3 -7 -11.5 -7t-26.5 13t-14 25q89 248 196 248q78 0 121.5 -166t43.5 -377q0 -98 -8 -190l10 -4q47 116 80 274t33 256q0 55 -21 115q0 92 75 92 t75 -88q0 -63 -38.5 -234.5t-104.5 -333.5t-159.5 -366t-178 -294.5t-169.5 -90.5q-50 0 -84.5 30.5t-34.5 78.5zM345 950q-7 20 10 51l167 313q10 19 29 19q36 0 68 -43q33 -44 9 -72l-225 -271q-15 -18 -33 -18q-19 0 -25 21z" />
<glyph unicode="&#xfe;" horiz-adv-x="700" d="M-97 -508q0 16 7 21q46 16 64.5 50t28.5 97l243 1554q23 146 -43 146q-16 0 -15.5 36t15.5 36q69 0 142.5 27.5t77.5 27.5q19 0 13 -39l-100 -721q88 125 196 125q66 0 117.5 -46t51.5 -140q0 -125 -51 -262.5t-186 -265.5t-253 -165l-55 -358q-20 -129 -233 -172 q-7 -2 -13.5 15.5t-6.5 33.5zM221 45q105 45 184.5 172t104 237.5t24.5 207.5q0 45 -22 70.5t-45 25.5q-57 0 -109 -80t-66 -178z" />
<glyph unicode="&#xff;" horiz-adv-x="625" d="M-122 -446q0 51 22 79.5t59 28.5q33 0 56 -47t55 -47t86.5 71t76 178t21.5 255q0 260 -18 437t-62 177q-34 0 -80 -113q-3 -7 -11.5 -7t-26.5 13t-14 25q89 248 196 248q78 0 121.5 -166t43.5 -377q0 -98 -8 -190l10 -4q47 116 80 274t33 256q0 55 -21 115q0 92 75 92 t75 -88q0 -63 -38.5 -234.5t-104.5 -333.5t-159.5 -366t-178 -294.5t-169.5 -90.5q-50 0 -84.5 30.5t-34.5 78.5zM163 1119q0 59 32 101t82 42q39 0 64 -30.5t25 -79.5q0 -60 -32.5 -101t-80.5 -41q-40 0 -65 30t-25 79zM483 1119q0 59 32 101t81 42q39 0 64.5 -30.5 t25.5 -79.5q0 -60 -32.5 -101t-80.5 -41q-41 0 -65.5 30t-24.5 79z" />
<glyph unicode="&#x152;" horiz-adv-x="1677" d="M142 454q0 215 76 396q64 155 182 290q170 196 370 219q35 4 75 4l335 -10h3l562 4h2q44 0 50 -18l1 -17l-4 -22l-67 -288q-5 -19 -40 -19l-22 3q-12 4 -13 14q5 32 5 61q0 109 -62 159l-24 15l-28 9q-9 2 -19 2l-215 8q-27 0 -34 -19l-5 -14l-126 -508l-2 -19 q1 -13 19 -13h141q58 0 75 28q5 9 8 20l38 145q5 17 37 18l22 -4q13 -4 13 -14q-9 -29 -63 -246q-37 -156 -47 -220q-3 -16 -33 -16t-34 16l28 128l1 20q-1 19 -20 26l-25 5h-12h-160q-16 0 -23 -26l-82 -348q-9 -36 -9 -64q0 -78 66 -81h13l232 12q83 4 153 134 q37 69 61 158q5 17 42 17q15 0 24 -4q11 -4 10 -13l-81 -361q-6 -27 -46 -29h-40l-431 8h-123q-50 0 -268 -10q-57 -3 -100 -3q-99 0 -195 62q-155 100 -184 309q-7 46 -7 96zM331 477q0 -202 83 -317q62 -84 140 -84q106 0 123 2q106 11 145 95q9 20 15 45l225 939 q4 14 4 27q0 20 -9 37q-6 8 -13 15q-46 45 -202 45h-15h-1q-58 0 -91 -11q-65 -22 -138 -90q-151 -144 -223 -403q-43 -155 -43 -300z" />
<glyph unicode="&#x153;" horiz-adv-x="964" d="M47 313q0 152 86 303q81 142 193 203q60 33 120 33q74 0 128 -60l20 -25l16 -30q5 -13 9 -26q119 141 233 141q122 0 134 -116v-23q0 -164 -208 -282q-81 -46 -175 -75q-13 -79 -13 -104q0 -148 73 -148q51 0 129 73q30 28 32 30l8 1q18 -3 29 -24q4 -7 4 -13l-2 -7 q-113 -191 -245 -191q-112 0 -160 86q-100 -86 -204 -86q-124 0 -177 149q-30 83 -30 191zM191 225q0 -120 58 -137q8 -2 17 -2q52 0 123 120q73 124 106 262q15 60 15 105q0 154 -46 172l-15 3q-55 0 -129 -127q-76 -129 -112 -276q-17 -69 -17 -120zM624 449q82 32 141 99 q57 67 57 140q0 52 -21 64q-5 2 -10 2q-74 0 -151 -250q-8 -26 -16 -55z" />
<glyph unicode="&#x178;" horiz-adv-x="1014" d="M158 1283.5q0 13.5 6.5 47t17.5 33.5q46 -6 202.5 -6t201.5 6q13 0 4 -47t-20 -47q-97 0 -97 -56q0 -24 9 -57l104 -403q7 -23 18 -23t26 20l308 406q38 52 38 78q0 35 -74 35q-12 0 -2 47t22 47q45 -6 169.5 -6t170.5 6q7 0 7 -13.5t-6.5 -47t-18.5 -33.5 q-82 0 -126 -34.5t-160 -190.5l-303 -403q-30 -40 -52 -134l-71 -307q-6 -27 -6 -51q0 -64 100 -64q12 0 2 -47t-22 -47q-60 8 -210 8t-211 -8q-11 0 -1.5 47t21.5 47q67 0 95.5 24t47.5 108l62 256q19 84 19 115t-16 89l-121 460q-22 81 -46 106.5t-81 25.5q-7 0 -7 13.5z M537 1629q0 59 32 101t82 42q39 0 64 -30.5t25 -79.5q0 -60 -32.5 -101t-80.5 -41q-40 0 -65 30t-25 79zM857 1629q0 59 32 101t81 42q39 0 64.5 -30.5t25.5 -79.5q0 -60 -32.5 -101t-80.5 -41q-41 0 -65.5 30t-24.5 79z" />
<glyph unicode="&#x2c6;" horiz-adv-x="622" d="M234 985v11q1 2 2 3l246 407q18 30 46 30q25 0 32 -30l110 -407v-12q-4 -20 -24 -31l-12 -3l-8 4q-1 1 -2 3l-103 197q-23 44 -35 44q-9 0 -32 -30l-15 -18l-161 -197q-3 -4 -9 -5l-12 4q-19 11 -23 30z" />
<glyph unicode="&#x2dc;" horiz-adv-x="572" d="M168 964l1 6q25 82 73 140q36 44 68 44q27 0 96 -24q51 -21 94 -21q42 0 71 53q3 3 4 7q3 7 12 7l13 -3q16 -9 17 -23l-1 -6q-22 -71 -70 -129q-36 -45 -66 -45q-32 0 -108 25q-71 19 -82 20q-32 0 -66 -39q-12 -15 -19 -31q-3 -6 -9 -6l-11 2q-16 8 -17 23z" />
<glyph unicode="&#x2000;" horiz-adv-x="942" />
<glyph unicode="&#x2001;" horiz-adv-x="1884" />
<glyph unicode="&#x2002;" horiz-adv-x="942" />
<glyph unicode="&#x2003;" horiz-adv-x="1884" />
<glyph unicode="&#x2004;" horiz-adv-x="628" />
<glyph unicode="&#x2005;" horiz-adv-x="471" />
<glyph unicode="&#x2006;" horiz-adv-x="314" />
<glyph unicode="&#x2007;" horiz-adv-x="314" />
<glyph unicode="&#x2008;" horiz-adv-x="235" />
<glyph unicode="&#x2009;" horiz-adv-x="376" />
<glyph unicode="&#x200a;" horiz-adv-x="104" />
<glyph unicode="&#x2010;" horiz-adv-x="691" d="M125 544.5q11 65.5 39 65.5h488q22 0 9.5 -65.5t-37.5 -65.5h-486q-24 0 -13 65.5z" />
<glyph unicode="&#x2011;" horiz-adv-x="691" d="M125 544.5q11 65.5 39 65.5h488q22 0 9.5 -65.5t-37.5 -65.5h-486q-24 0 -13 65.5z" />
<glyph unicode="&#x2012;" horiz-adv-x="691" d="M125 544.5q11 65.5 39 65.5h488q22 0 9.5 -65.5t-37.5 -65.5h-486q-24 0 -13 65.5z" />
<glyph unicode="&#x2013;" horiz-adv-x="819" d="M36 518l2 40q4 38 16 38h770q16 0 18 -55l-1 -40q-5 -38 -17 -38h-770q-16 0 -18 55z" />
<glyph unicode="&#x2014;" horiz-adv-x="1638" d="M36 518l2 40q4 38 16 38h1589q16 0 19 -55l-2 -40q-5 -38 -17 -38h-1589q-16 0 -18 55z" />
<glyph unicode="&#x2018;" horiz-adv-x="464" d="M196 1076q0 31 9 63q41 160 220 293q41 30 81 53q5 4 11 4q13 0 19 -21l1 -14q-1 -5 -4 -8q-76 -67 -127 -157q-24 -44 -36 -85v-17q2 -14 16 -22q68 -32 68 -98l-2 -23q-13 -74 -66 -110q-30 -21 -65 -21q-49 0 -88 50q-36 48 -37 113z" />
<glyph unicode="&#x2019;" horiz-adv-x="464" d="M197 938q0 8 5 12q72 65 122 152q27 48 38 92l2 16q-2 15 -17 23q-36 12 -55 49q-12 22 -12 50q0 11 2 22q12 75 65 110q30 19 64 19q50 0 89 -49l16 -24q22 -41 22 -91q0 -30 -8 -62q-52 -191 -304 -346l-9 -3l-9 5q-11 9 -11 25z" />
<glyph unicode="&#x201a;" horiz-adv-x="432" d="M-81 -288q1 5 4 7q72 64 122 151q27 49 38 93l3 16q-2 14 -17 23q-35 12 -55 48q-12 22 -12 50q0 11 1 23q11 75 66 110q29 19 64 19q49 0 89 -50q36 -47 36 -113q0 -30 -8 -62q-42 -162 -228 -297q-35 -26 -75 -49l-9 -3q-14 1 -19 21v13z" />
<glyph unicode="&#x201c;" horiz-adv-x="792" d="M180 1076q0 31 9 63q41 161 221 294q40 29 80 52q4 4 10 4q14 0 20 -21l1 -14q-2 -5 -5 -8q-78 -70 -128 -160q-23 -43 -34 -82l-1 -17q2 -14 17 -22q67 -33 68 -98l-2 -23q-14 -76 -68 -112q-29 -19 -63 -19q-49 0 -88 50q-37 48 -37 113zM522 1076q0 28 8 58q0 2 1 5 q42 161 221 294q40 29 80 52q5 4 10 4q15 0 20 -21l1 -14q-1 -5 -5 -8q-78 -70 -128 -160q-23 -43 -34 -82l-1 -17q3 -14 18 -22q66 -33 67 -98l-2 -23q-14 -75 -67 -111q-29 -20 -62 -20q-49 0 -89 50q-38 48 -38 113z" />
<glyph unicode="&#x201d;" horiz-adv-x="792" d="M197 938q0 8 5 12q72 65 122 152q27 48 38 92l2 16q-2 15 -17 23q-36 12 -55 49q-12 22 -12 50q0 11 2 22q12 75 65 110q30 19 64 19q50 0 89 -49l16 -24q22 -41 22 -91q0 -30 -8 -62q-52 -191 -304 -346l-9 -3l-9 5q-11 9 -11 25zM540 930v13q1 5 4 7q72 65 122 152 q28 48 39 92l1 16q-1 15 -16 23q-36 12 -56 49q-12 22 -12 50q0 11 2 22q12 75 66 110q29 19 64 19q49 0 88 -49l16 -24q22 -41 22 -91q0 -30 -8 -62q-51 -191 -303 -346l-10 -3q-13 1 -19 22z" />
<glyph unicode="&#x201e;" horiz-adv-x="699" d="M-81 -288q1 5 4 7q72 64 122 151q27 49 38 93l3 16q-2 14 -17 23q-35 12 -55 48q-12 22 -12 50q0 11 1 23q11 75 66 110q29 19 64 19q49 0 89 -50q36 -47 36 -113q0 -30 -8 -62q-42 -162 -228 -297q-35 -26 -75 -49l-9 -3q-14 1 -19 21v13zM261 -293q0 8 5 12 q72 64 121 151q27 49 39 93l2 16q-2 14 -17 23q-36 12 -55 49q-12 22 -12 50q0 11 2 22q11 75 65 110q30 19 64 19q50 0 89 -50q37 -47 37 -113q0 -30 -8 -62q-43 -162 -228 -297q-36 -26 -75 -49l-10 -3l-9 4q-10 9 -10 25z" />
<glyph unicode="&#x2022;" horiz-adv-x="658" d="M141 760q0 78 39 147q60 105 184 105q86 0 145 -78l19 -31q38 -69 38 -162q0 -119 -69 -192q-56 -60 -133 -60q-78 0 -140 55q-83 74 -83 216z" />
<glyph unicode="&#x202f;" horiz-adv-x="376" />
<glyph unicode="&#x2039;" horiz-adv-x="388" d="M60 423q0 17 23 42l325 352q2 3 6 3q25 0 25 -25q0 -6 -1 -9l-196 -327q-14 -24 -14 -37t2 -23l53 -333q2 -11 -11.5 -23.5t-21 -12.5t-9.5 5l-174 356q-7 15 -7 32z" />
<glyph unicode="&#x203a;" horiz-adv-x="388" d="M17 56q0 5 1 8l196 327q14 24 14 37t-2 23l-53 333q-2 11 11.5 23.5t21 12.5t9.5 -5l174 -356q7 -15 7 -32t-23 -42l-325 -352q-2 -3 -10 -3q-21 0 -21 26z" />
<glyph unicode="&#x205f;" horiz-adv-x="471" />
<glyph unicode="&#x20ac;" horiz-adv-x="1176" d="M23 560q0 48 20 80q10 15 21 15h96q11 52 29 103h-95q-15 0 -15 36q0 48 20 80q10 15 21 15h122q85 169 260.5 332.5t407.5 163.5q87 0 176.5 -34.5t130.5 -79.5t41 -86q0 -42 -34 -72t-70 -30q-38 0 -48 29q-33 90 -79.5 138t-139.5 48q-141 0 -271 -119t-198 -290h470 q12 0 12 -32q0 -41 -18 -80q-9 -19 -22 -19h-484q-14 -52 -23 -103h479q12 0 12 -32q0 -39 -18 -80q-9 -19 -22 -19h-468q-2 -34 -2 -68q0 -111 32 -189t84 -128.5t144 -50.5q104 0 186.5 37t193.5 111q6 3 11 3q22 0 22 -46q0 -15 -11 -25q-116 -92 -219 -144.5t-225 -52.5 q-147 0 -279 125.5t-132 375.5q0 26 1 52h-104q-15 0 -15 36z" />
<glyph unicode="&#x2122;" horiz-adv-x="1532" d="M106 1158l42 171q3 15 10 18t34 3q79 -2 296.5 -2t301.5 2q31 0 31 -11q0 -6 -2 -15l-39 -166q-2 -9 -24 -9t-20 9q6 28 6 51q0 40 -21 62t-62 24l-121 4q-10 0 -14 -16l-134 -568q-8 -33 6 -48.5t57 -15.5q4 0 3.5 -12t-5.5 -25.5t-9 -13.5q-59 4 -128 4t-128 -4 q-3 0 -3 14t5.5 25.5t8.5 11.5q41 0 61.5 12.5t29.5 51.5l133 565q1 6 1 10q0 10 -12 9l-116 -4q-112 -5 -143 -137q-2 -9 -24 -9.5t-21 9.5zM676 607q0 7 3 25.5t11 18.5q40 0 58 15.5t31 58.5l143 484q9 30 9 47q0 46 -60 46q-2 0 -2 6.5t3.5 24t11.5 20.5q21 -3 64.5 -3 t53.5 -5t14 -18.5t6 -28.5l79 -495q2 -15 8 -15t13 11l329 510q24 37 47.5 39t57.5 2t60 3q3 0 3 -12.5t-5.5 -25.5t-9.5 -13q-43 0 -58.5 -14t-26.5 -61l-122 -514q-3 -12 -3 -21q0 -22 15.5 -31.5t48.5 -9.5q3 0 3 -14.5t-5 -24.5t-8 -12q-31 4 -116.5 4t-124.5 -4 q-3 0 -3 12t5.5 25.5t8.5 13.5q34 0 52 17t27 55l85 355q4 16 -4 16q-3 0 -8 -8l-311 -479q-9 -12 -19.5 -12t-13.5 23l-75 480q-1 15 -5.5 15t-7.5 -12l-114 -388q-5 -16 -5 -27q0 -18 12 -26.5t41 -8.5q3 0 3 -8t-3.5 -25.5t-10.5 -17.5q-59 4 -91 4t-92 -4q-2 0 -2 7z " />
<glyph unicode="&#x25fc;" horiz-adv-x="850" d="M0 0v850h850v-850h-850z" />
</font>
</defs>
</svg>
