<?xml version="1.0" standalone="no"?>
<!DOCTYPE svg PUBLIC "-//W3C//DTD SVG 1.1//EN" "http://www.w3.org/Graphics/SVG/1.1/DTD/svg11.dtd" >
<svg xmlns="http://www.w3.org/2000/svg">
<metadata></metadata>
<defs>
<font id="junicoderegular" horiz-adv-x="956" >
<font-face units-per-em="2048" ascent="1638" descent="-410" />
<missing-glyph horiz-adv-x="559" />
<glyph unicode="&#x2e;&#x2e;&#x2e;" horiz-adv-x="1591" d="M139 98q0 51 36 82t91 31t85 -37t30 -87.5t-34.5 -81t-87.5 -30.5t-86.5 36t-33.5 87zM670 98q0 51 36 82t91 31t85 -37t30 -87.5t-34.5 -81t-87.5 -30.5t-86.5 36t-33.5 87zM1183 98q0 51 36 82t91 31t85 -37t30 -87.5t-34.5 -81t-87.5 -30.5t-86.5 36t-33.5 87z" />
<glyph unicode="&#xfb01;" horiz-adv-x="1067" d="M70 20.5q0 28.5 16 28.5q117 0 117 78v600q0 37 -33 37h-78q-14 0 -14 27.5t14 27.5q111 0 111 84v21q0 242 146.5 402.5t334.5 160.5q227 0 227 -113q0 -38 -27.5 -64t-58.5 -26q-59 0 -103 54.5t-138 54.5q-118 0 -173 -103.5t-55 -343.5v-59q0 -37 37 -37h309 q52 0 115.5 16.5t74.5 16.5t10 -27q-6 -90 -6 -151v-578q0 -78 111 -78q16 0 16 -28.5t-16 -28.5q-84 8 -178 8t-198 -8q-15 0 -15 28.5t15 28.5q112 0 112 78v522q0 115 -41 115h-309q-37 0 -37 -37v-600q0 -78 117 -78q14 0 14 -28.5t-14 -28.5q-93 8 -189.5 8t-197.5 -8 q-16 0 -16 28.5z" />
<glyph unicode="&#xfb02;" horiz-adv-x="1067" d="M70 20.5q0 28.5 16 28.5q117 0 117 78v600q0 37 -33 37h-76q-14 0 -14 27.5t14 27.5q109 0 109 123v33q0 116 78.5 254.5t189.5 198t223 59.5q87 0 151 -33q31 31 45 31q17 0 14 -19q-6 -46 -6 -70v-1269q0 -78 119 -78q14 0 14 -28.5t-14 -28.5q-77 8 -193 8t-197 -8 q-15 0 -15 28.5t15 28.5q118 0 118 78v600q0 37 -36 37h-316q-37 0 -37 -37v-600q0 -78 117 -78q14 0 14 -28.5t-14 -28.5q-80 8 -193.5 8t-193.5 -8q-16 0 -16 28.5zM356 887q0 -37 37 -37h316q36 0 36 37v287q0 132 -34.5 175.5t-116.5 43.5q-117 0 -177.5 -92t-60.5 -343 v-71z" />
<glyph unicode="&#xfb03;" horiz-adv-x="1602" d="M70 20.5q0 28.5 16 28.5q117 0 117 78v600q0 37 -37 37h-72q-14 0 -14 27.5t14 27.5q109 0 109 115q0 200 134.5 358t336.5 158q89 0 178 -68q27 -21 45 -43q136 148 341 148q87 0 147 -31t60 -78q0 -48 -32.5 -71t-53.5 -23q-60 0 -104 54.5t-140.5 54.5t-160.5 -87 t-64 -405v-14q0 -37 37 -37h291q86 0 186 30q10 3 13 3q20 0 19 -27q-6 -111 -6 -215v-514q0 -78 110 -78q14 0 14 -28.5t-14 -28.5q-76 8 -179.5 8t-196.5 -8q-14 0 -14 28.5t14 28.5q113 0 113 78v499q0 100 -26 125q-13 13 -35 13h-289q-37 0 -37 -37v-600q0 -78 117 -78 q16 0 16 -28.5t-16 -28.5q-94 8 -192.5 8t-193.5 -8q-15 0 -15 28.5t15 28.5q116 0 116 78v600q0 37 -37 37h-307q-37 0 -37 -37v-600q0 -78 117 -78q14 0 14 -28.5t-14 -28.5q-94 8 -193 8t-194 -8q-16 0 -16 28.5zM356 887q0 -37 37 -37h307q37 0 37 37v37q0 148 68 284 q-50 82 -97.5 115t-134.5 33q-80 0 -128.5 -43t-68.5 -118t-20 -294v-14z" />
<glyph unicode="&#xfb04;" horiz-adv-x="1604" d="M70 20.5q0 28.5 16 28.5q117 0 117 78v600q0 37 -37 37h-72q-14 0 -14 27.5t14 27.5q109 0 109 115q0 206 137 361t334 155q94 0 178 -67q29 -23 45 -44q136 148 310 148q114 0 171 -33l34 27q5 4 11 4q14 0 13 -15l-6 -149v-1194q0 -78 118 -78q15 0 15 -28.5t-15 -28.5 q-77 8 -192.5 8t-195.5 -8q-14 0 -14 28.5t14 28.5q117 0 117 78v600q0 37 -37 37h-313q-37 0 -37 -37v-600q0 -78 119 -78q14 0 14 -28.5t-14 -28.5q-80 8 -194 8t-194 -8q-15 0 -15 28.5t15 28.5q116 0 116 78v600q0 37 -37 37h-307q-37 0 -37 -37v-600q0 -78 117 -78 q14 0 14 -28.5t-14 -28.5q-80 8 -193.5 8t-193.5 -8q-16 0 -16 28.5zM356 887q0 -37 37 -37h307q37 0 37 37v37q0 148 68 284q-54 87 -102.5 117.5t-129.5 30.5q-116 0 -166.5 -81.5t-50.5 -305.5v-82zM890 887q0 -37 37 -37h313q37 0 37 37v284q0 112 -14 144 q-34 78 -146 78q-104 0 -165.5 -88.5t-61.5 -403.5v-14z" />
<glyph horiz-adv-x="0" />
<glyph horiz-adv-x="0" />
<glyph horiz-adv-x="682" />
<glyph unicode=" "  horiz-adv-x="559" />
<glyph unicode="&#x09;" horiz-adv-x="559" />
<glyph unicode="&#xa0;" horiz-adv-x="559" />
<glyph unicode="!" horiz-adv-x="520" d="M139 98q0 51 30 82t91 31t91 -37t30 -87.5t-34.5 -81t-87.5 -30.5t-86.5 36t-33.5 87zM166 1275q0 56 30.5 90t67.5 34q103 0 103 -111q0 -63 -31 -354.5t-43 -497.5q-1 -16 -33 -16q-33 0 -33 16q-8 199 -34.5 491t-26.5 348z" />
<glyph unicode="&#x22;" horiz-adv-x="758" d="M121 1395q0 86 96 86q94 0 94 -84l-59 -453q-1 -8 -35 -8t-35 8q-7 94 -32 242q-29 171 -29 209zM449 1395q0 86 94 86q96 0 96 -84q0 -18 -7 -66l-43 -283q-6 -53 -11 -104q-1 -8 -34 -8t-34 8q-4 46 -9 88l-50 334q-2 20 -2 29z" />
<glyph unicode="#" horiz-adv-x="1016" d="M25 397v86h233l96 353h-213v86h236l88 327h90l-88 -327h242l88 327h88l-86 -327h194v-86h-219l-94 -353h197v-86h-220l-102 -387h-90l102 387h-241l-105 -387h-88l103 387h-211zM348 483h244l92 353h-242z" />
<glyph unicode="$" horiz-adv-x="987" d="M122 351q0 8 1 14q4 17 38 17q24 0 25 -7q13 -145 128 -235q63 -49 145 -66v536l-125 58q-205 95 -205 348q0 122 115 229q77 71 215 84v137q0 15 43 15t43 -15v-137q84 -5 147 -18q90 -19 94 -19q25 -88 37 -243q1 -16 -27 -22q-33 -6 -38 13q-22 113 -102 177 q-49 41 -111 49v-488q197 -61 274 -149q76 -88 76 -240q0 -184 -110 -294q-94 -94 -240 -99v-146q0 -16 -43 -16t-43 16v146q-87 6 -168 35q-34 14 -123 57q-28 77 -42 200zM262 1057q0 -123 75 -183q38 -30 122 -65v459q-125 -13 -174 -107q-23 -45 -23 -104zM545 66 q76 0 139 53q80 63 80 174q0 192 -219 282v-509z" />
<glyph unicode="%" horiz-adv-x="1823" d="M98 973q0 189 89 309q87 117 231 117q160 0 247 -144q70 -116 70 -282q0 -209 -99 -327q-84 -99 -218 -99q-160 0 -248 142q-72 116 -72 284zM250 975q0 -174 54 -277q44 -84 114 -84q102 0 145 163q23 88 23 198q0 182 -39 259q-49 97 -130 97q-102 0 -145 -164 q-22 -85 -22 -192zM434 -39l875 1452q3 5 10 5q12 0 33 -12q32 -20 26 -32l-874 -1452q-3 -4 -9 -4q-12 0 -37 15q-29 19 -24 28zM1096 403q0 185 88 306q88 122 231 122q187 0 275 -194q45 -103 45 -234q0 -189 -89 -308q-87 -115 -231 -115q-155 0 -244 138 q-75 116 -75 285zM1247 406q0 -174 55 -277q43 -82 113 -82q95 0 140 151q28 93 28 208q0 180 -56 281q-44 77 -112 77q-103 0 -146 -165q-22 -86 -22 -193z" />
<glyph unicode="&#x26;" horiz-adv-x="1704" d="M76 356q0 258 205 377l149 86q-172 124 -172 264q0 122 91 207q87 82 208 82q137 0 216 -87q61 -68 61 -169q0 -130 -125 -203l-89 -51q214 -155 402 -430l92 118q148 192 148 247t-152 55q-15 0 -15 28q0 29 15 29q57 -6 236 -6q184 0 243 6q17 0 17 -25q0 -32 -17 -32 q-104 0 -155 -37q-52 -36 -184 -207l-185 -239l70 -103q129 -190 311 -190q120 0 192 78q8 8 26 -6q6 -6 6 -14q0 -7 -5 -15q-110 -148 -342 -148q-157 0 -348 281q-216 -279 -479 -279q-207 0 -324 129q-96 110 -96 254zM221 422q0 -163 113 -253q90 -71 221 -71 q209 0 377 217q-188 277 -450 467q-261 -151 -261 -360zM395 1135q0 -110 174 -236q129 75 129 223q0 111 -64 161q-36 28 -85 28q-78 0 -123 -70q-31 -48 -31 -106z" />
<glyph unicode="'" horiz-adv-x="422" d="M117 1395q0 86 96 86q94 0 94 -84l-59 -453q-1 -8 -35 -8t-35 8q-4 47 -9 88l-50 334q-2 20 -2 29z" />
<glyph unicode="(" horiz-adv-x="676" d="M160 588q0 262 137 559q91 199 270 369q16 14 39 14q18 0 35 -17q6 -7 6 -12q0 -17 -18 -37q-330 -346 -330 -876q0 -525 334 -877q14 -14 14 -35q0 -13 -25 -25l-16 -5q-19 0 -39 16q-193 174 -288 369q-119 240 -119 557z" />
<glyph unicode=")" horiz-adv-x="651" d="M23 -324q0 17 18 35q330 342 330 877q0 531 -332 874q-16 16 -16 39q0 12 24 24q10 5 17 5q23 0 39 -14q194 -182 288 -371q119 -241 119 -557q0 -262 -137 -559q-96 -205 -270 -367q-16 -16 -39 -16q-19 0 -35 18q-6 6 -6 12z" />
<glyph unicode="*" horiz-adv-x="807" d="M86 904l246 140l-246 142l37 61l244 -139v276h71v-278l244 141l37 -61l-244 -142l244 -140l-37 -61l-244 138v-287h-71v287l-244 -138z" />
<glyph unicode="+" horiz-adv-x="1024" d="M119 371v100h334v336h120v-336h334v-100h-334v-371h-120v371h-334z" />
<glyph unicode="," horiz-adv-x="520" d="M102 -344q0 4 2 6l95 102q73 92 73 179q0 49 -34 61q-117 45 -117 135q0 58 55 84q26 13 60 13q79 0 133 -68q45 -57 45 -129q0 -155 -126 -291q-70 -75 -155 -117q-2 -2 -4 -2q-27 0 -27 27z" />
<glyph unicode="-" horiz-adv-x="827" d="M99 542q0 60 16 60h592q17 0 17 -52q0 -63 -19 -63h-590q-16 0 -16 55z" />
<glyph unicode="." horiz-adv-x="520" d="M139 98q0 51 36 82t91 31t85 -37t30 -87.5t-34.5 -81t-87.5 -30.5t-86.5 36t-33.5 87z" />
<glyph unicode="/" horiz-adv-x="717" d="M4 31v2l610 1440q3 6 14 6q14 0 44 -11q43 -21 43 -35v-3l-613 -1442q-2 -5 -10 -5q-14 0 -46 15q-42 21 -42 33z" />
<glyph unicode="0" d="M70 666q0 304 108 485.5t301 181.5q199 0 303.5 -194.5t104.5 -495.5q0 -281 -107.5 -470t-305.5 -189t-301 189t-103 493zM244 689q0 -375 68 -506.5t163 -131.5q111 0 172.5 139.5t61.5 440.5q0 233 -40.5 435t-187.5 202q-123 0 -180 -180t-57 -399z" />
<glyph unicode="1" d="M215 20.5q0 28.5 14 28.5q127 0 161 38.5t34 172.5v870q0 47 -21 47q-8 0 -24 -8l-129 -59q-16 -1 -24 16.5t5 30.5q196 95 324 211q6 6 16 6q12 0 13 -14q-6 -90 -6 -172v-926q0 -149 44 -181t134 -32q14 0 14 -28.5t-14 -28.5q-79 8 -263.5 8t-263.5 -8q-14 0 -14 28.5 z" />
<glyph unicode="2" d="M6 31q0 9 10 18q442 461 572 764q37 81 37 184q0 106 -76 166q-55 43 -133 43q-144 0 -246 -182q-4 -4 -10 -4q-21 0 -39 17q-9 8 -9 14q0 2 1 4q59 119 151 190q106 88 232 88q150 0 238 -106q73 -82 73 -219q0 -146 -111 -301q-60 -82 -168 -209l-284 -318 q-16 -17 -16 -28q0 -15 30 -15h297q163 0 227 60q27 25 43 63q1 6 17 6q31 -1 39 -14q1 -2 1 -4t-1 -4l-101 -219q-15 -33 -51 -33q-135 8 -323 8q-179 0 -359 -8q-41 0 -41 39z" />
<glyph unicode="3" d="M96 127q0 38 38 62q20 12 42 12q36 0 102 -74q69 -74 146 -74q108 0 174 117q51 94 51 217q0 130 -74 215q-75 88 -208 88q-65 0 -113 -16q-14 0 -14 41q0 39 14 39q180 0 275 93q71 70 71 179q0 101 -69 159q-50 42 -119 42q-118 0 -207 -137q-1 -3 -6 -3q-22 0 -39 22 q-8 9 -8 17q0 2 2 4q137 203 325 203q115 0 193 -84q80 -85 80 -196q0 -167 -183 -271q-32 -18 -32 -25q0 -11 28 -16q254 -51 254 -327q0 -185 -133 -312q-131 -125 -315 -125q-141 0 -219 54q-56 38 -56 96z" />
<glyph unicode="4" d="M13 428q0 11 7 28q11 26 39 64l222 301q14 19 419 604q9 13 39 13q58 0 58 -31l-647 -897q-8 -11 -8 -19q0 -14 26 -14h389q21 0 21 21v444q0 15 76 15q77 0 77 -15v-444q0 -21 23 -21h116q18 0 18 -43t-18 -43h-116q-23 0 -23 -20v-244q0 -78 121 -78q14 0 14 -28 q0 -29 -14 -29q-77 8 -190 8q-165 0 -242 -8q-14 0 -14 28q0 29 14 29q158 0 158 78v244q0 20 -21 20h-477q-67 0 -67 37z" />
<glyph unicode="5" d="M92 111q0 82 82 82q39 0 109 -64q68 -61 135 -61q112 0 190 116q68 101 68 222q0 208 -141 291q-78 46 -191 46q-50 0 -129 -18h-13q-15 0 -15 23q0 5 1 10l93 530q5 29 32 29h471q7 0 7 -17q0 -53 -26 -107q-9 -19 -15 -19h-383q-29 0 -33 -27l-43 -234q-3 -23 12 -23 l80 5q233 0 347 -139q83 -101 83 -260q0 -215 -131 -361q-136 -151 -348 -151q-141 0 -206 53q-36 31 -36 74z" />
<glyph unicode="6" d="M100 465q0 286 199 545q196 254 453 368h9q23 -7 23 -37q0 -9 -6 -12q-293 -166 -415 -427q-58 -123 -82 -273q152 137 268 137q142 0 231 -119q84 -109 84 -256q0 -168 -106 -284q-111 -123 -285 -123q-191 0 -292 160q-81 128 -81 321zM264 461q0 -267 113 -358 q50 -40 121 -40q103 0 164 96q47 73 47 171q0 146 -73 239q-66 84 -167 84q-113 0 -199 -110q-6 -43 -6 -82z" />
<glyph unicode="7" d="M84 1038l51 248q6 31 41 31h682q39 0 39 -23q0 -11 -8 -30l-510 -1264q-7 -14 -82 -14q-68 0 -68 14q13 22 51 100l62 138l397 901q9 22 9 28q0 15 -33 15h-215q-163 0 -211 -13q-106 -29 -146 -131q-6 -14 -34 -14q-24 0 -25 14z" />
<glyph unicode="8" d="M104 315q0 209 273 353q-127 82 -166 141q-70 93 -70 199q0 134 99 233q93 92 237 92q183 0 271 -108q61 -74 61 -187q0 -208 -227 -327q270 -173 270 -379q0 -154 -113 -252q-108 -96 -262 -96q-171 0 -276 98q-97 90 -97 233zM258 1075q0 -128 159 -246q33 -25 111 -75 q142 100 142 243q0 130 -75 204q-53 56 -142 56q-102 0 -158 -71q-37 -48 -37 -111zM260 336q0 -112 68 -197q71 -88 180 -88q101 0 159 77q42 56 42 132q0 128 -88 213q-85 81 -158 132l-29 20q-174 -101 -174 -289z" />
<glyph unicode="9" d="M92 907q0 192 110 311q107 115 281 115q178 0 281 -145q92 -129 92 -324q0 -312 -238 -586q-169 -193 -405 -313l-8 -1q-16 5 -27 35q-4 10 -4 17q0 6 6 11q190 111 328 270q117 134 166 389q-128 -135 -258 -135q-134 0 -228 103q-93 110 -96 253zM248 975 q0 -135 70 -227q65 -86 163 -86q112 0 203 112q6 44 6 88q0 234 -98 333q-35 33 -139 56q-109 0 -166 -106q-39 -73 -39 -170z" />
<glyph unicode=":" horiz-adv-x="594" d="M215 98q0 51 36 82t91 31t85 -37t30 -87.5t-34.5 -81t-87.5 -30.5t-86.5 36t-33.5 87zM215 740q0 50 36.5 81t91 31t84.5 -37t30 -87.5t-34 -81t-87 -30.5t-87 36t-34 88z" />
<glyph unicode=";" horiz-adv-x="594" d="M174 -344q0 4 2 6l95 102q73 92 73 179q0 49 -34 61q-117 45 -117 135q0 58 55 84q26 13 60 13q79 0 133 -68q45 -57 45 -129q0 -155 -126 -291q-70 -75 -155 -117q-2 -2 -4 -2q-27 0 -27 27zM184 740q0 68 58 99q30 16 69 16q65 0 97 -55q18 -30 18 -68q0 -65 -54 -97 q-27 -16 -61 -16q-74 0 -109 56q-18 29 -18 65z" />
<glyph unicode="&#x3c;" horiz-adv-x="1024" d="M115 375v92l796 379v-119l-649 -303v-4l649 -305v-117z" />
<glyph unicode="=" horiz-adv-x="1024" d="M119 330v100h788v-100h-788zM119 596v100h788v-100h-788z" />
<glyph unicode="&#x3e;" horiz-adv-x="1024" d="M113 -2v117l649 305v4l-649 303v119l796 -379v-92z" />
<glyph unicode="?" horiz-adv-x="752" d="M211 1280q0 82 84 82q130 0 244 -131q115 -141 118 -301q0 -146 -82 -189l-165 -88q-74 -41 -74 -90q0 -56 20 -125q0 -15 -22 -19q-15 -1 -23 7q-75 136 -75 211q0 89 114 151l105 56q116 62 116 151q0 199 -292 199q-68 0 -68 86zM221 86q0 69 51 106q30 21 68 21 q64 0 99 -56q20 -32 20 -71q0 -67 -54 -100q-30 -17 -65 -17q-61 0 -97 49q-22 31 -22 68z" />
<glyph unicode="@" horiz-adv-x="1556" d="M92 600q0 346 246 571q236 213 563 213q280 0 449 -163q155 -150 155 -369q0 -201 -141 -344q-148 -150 -389 -150q-91 0 -111 25q-12 15 -12 39q0 27 44 159l5 15l-8 4q-181 -240 -303 -240q-92 0 -92 127q0 153 123 334q130 193 282 193q52 0 101 -41l16 51q6 18 47 18 q48 0 43 -18l-141 -492q-10 -36 -10 -60q0 -46 42 -46q179 0 293 113q123 121 123 305q0 206 -152 343q-142 128 -362 128q-317 0 -497 -215q-173 -204 -173 -498q0 -218 129 -373q162 -190 482 -190q144 0 317 72q7 3 16 -16t1 -23q-166 -105 -396 -105q-280 0 -473 154 q-217 174 -217 479zM608 512q0 -70 45 -70q53 0 169 132q41 47 61 77q47 71 76 173l22 77q0 64 -98 64q-103 0 -195 -179q-80 -158 -80 -274z" />
<glyph unicode="A" horiz-adv-x="1398" d="M-4 31q0 38 13 38q97 0 129 28t66 104l377 987q6 17 6 30t-13 26.5t-13 19.5t39.5 27.5t92.5 58.5t65 37q23 0 35 -44q26 -97 49 -166l333 -991q39 -117 192 -117q13 0 13 -38t-13 -38q-73 7 -231 7t-230 -7q-14 0 -14 38t14 38q99 0 99 68q0 23 -8 49l-101 313 q-9 32 -44 32h-407q-28 0 -40 -35l-113 -314q-9 -22 -9 -40q0 -73 151 -73q14 0 14 -38t-14 -38q-85 7 -213 7t-212 -7q-13 0 -13 38zM448 616q0 -16 24 -16h359q25 0 25 16q0 5 -2 11l-170 532q-6 20 -18 20t-19 -20l-197 -532q-2 -5 -2 -11z" />
<glyph unicode="B" horiz-adv-x="1250" d="M68 1320q0 38 14 38q114 -6 240 -6t181 3t126 3q173 0 290 -81t117 -242q0 -199 -196 -290q-15 -7 -15 -13.5t15 -11.5q108 -35 198.5 -127.5t90.5 -245.5q0 -142 -104.5 -248t-395.5 -106q-64 0 -140 3.5t-196 3.5t-202 -7q-13 0 -13.5 37.5t13.5 38.5q180 0 180 117 v986q0 110 -189 110q-14 0 -14 38zM431 277q0 -220 184 -220q333 0 333 315q0 211 -222 289q-87 29 -260 30q-35 0 -35 -30v-384zM431 789q0 -36 79 -36q354 0 354 279q0 265 -381 265q-52 0 -52 -67v-441z" />
<glyph unicode="C" horiz-adv-x="1344" d="M91 647q0 223 95.5 387.5t248.5 257.5t377 93q110 0 268 -30l21 -4q126 -24 129 -24q29 -134 29 -311q-4 -16 -35.5 -16t-33.5 14q-28 300 -407 300q-204 0 -352.5 -184t-148.5 -423q0 -283 145 -471t353 -188q354 0 452 269q4 11 28.5 11t34.5 -8q4 -3 4 -14 q-37 -191 -90 -270q-32 -4 -77 -17q-147 -46 -376 -46q-178 0 -329.5 86t-243.5 237.5t-92 350.5z" />
<glyph unicode="D" horiz-adv-x="1525" d="M68 1320q0 38 14 38q140 -6 240.5 -6t209 3t171.5 3q311 0 520 -167t209 -463q0 -323 -183.5 -529t-497.5 -206q-48 0 -194.5 3.5t-244.5 3.5t-221 -7q-13 0 -13 37.5t13 38.5q180 0 180 117v986q0 110 -189 110q-14 0 -14 38zM431 298q0 -149 60 -197t191 -48 q256 0 407.5 181t151.5 482q0 252 -177 416.5t-443 164.5q-95 0 -125.5 -8.5t-47.5 -36t-17 -71.5v-883z" />
<glyph unicode="E" horiz-adv-x="1235" d="M70 30.5q0 37.5 14 38.5q187 0 187 108v995q0 110 -187 110q-14 0 -14 38t14 38q140 -6 270.5 -6t350.5 3t312 3q51 0 61.5 -7t10.5 -20v-321q0 -17 -37.5 -17t-37.5 17q0 266 -258 272l-284 7h-2q-39 0 -39 -48v-532q0 -33 28 -33h206q78 0 97.5 29t19.5 88v74 q0 13 35 13.5t35 -13.5q-8 -71 -8 -214t8 -223q0 -13 -35 -13.5t-35 13.5v82q0 43 -19.5 69t-97.5 26h-209q-25 0 -25 -31v-314q0 -113 65 -168q38 -32 91 -32l235 7q259 8 259 271q0 17 37.5 17t37.5 -17v-317q0 -25 -28 -28q-16 -2 -45 -2q-115 0 -355 3.5t-369 3.5 t-275 -7q-14 0 -14 37.5z" />
<glyph unicode="F" horiz-adv-x="1170" d="M70 1320q0 38 14 38q116 -5 288.5 -5t331 2.5t331.5 2.5q70 -1 73 -19v-329q0 -18 -38 -18t-38 18q0 255 -259 262l-301 10q-41 0 -41 -41v-494q0 -31 28 -31h164q75 0 96 30t21 100v117q0 13 35 13t35 -13q-8 -70 -8 -283.5t8 -284.5q0 -13 -35 -13t-35 13v117 q0 70 -25 99t-92 29h-167q-25 0 -25 -25v-429q0 -117 188 -117q13 0 13 -38t-13 -38q-89 7 -265.5 7t-262.5 -7q-13 0 -13 38t13 38q180 0 180 117v986q0 110 -187 110q-14 0 -14 38z" />
<glyph unicode="G" horiz-adv-x="1409" d="M91 667q0 242 180.5 480t499.5 238q164 0 305.5 -29t155.5 -29q19 -49 29 -308q0 -18 -34 -18t-35 13q0 111 -103.5 205.5t-312.5 94.5q-229 0 -361.5 -181.5t-132.5 -406.5q0 -306 149 -492t344 -186t273 47q22 16 22 78v190q0 115 -228 115q-14 0 -14 38t14 38 q56 -6 264 -6t265 6q15 0 15 -38t-15 -38q-141 0 -141 -115v-219q0 -67 37 -67q14 0 14 -23t-13 -23t-112 -12l-210 -35q-90 -11 -178 -11q-146 0 -328 86t-265.5 262.5t-83.5 345.5z" />
<glyph unicode="H" horiz-adv-x="1620" d="M68 1325q0 38 14 38q45 -5 264.5 -5t264.5 5q13 0 13 -38t-13 -38q-180 0 -180 -115v-390q0 -39 39 -39h702q39 0 39 39v390q0 115 -189 115q-14 0 -14 38t14 38q45 -5 264.5 -5t264.5 5q13 0 13 -38t-13 -38q-180 0 -180 -115v-986q0 -117 180 -117q13 0 13 -38t-13 -38 q-160 7 -260 7t-258 -7q-13 0 -13 37.5t13 38.5q178 0 178 117v435q0 38 -39 38h-702q-39 0 -39 -38v-435q0 -117 180 -117q13 0 13 -38t-13 -38q-149 7 -253.5 7t-264.5 -7q-13 0 -13 37.5t13 38.5q178 0 178 117v986q0 115 -189 115q-14 0 -14 38z" />
<glyph unicode="I" horiz-adv-x="683" d="M68 1325q0 38 14 38q45 -5 264.5 -5t264.5 5q13 0 13 -38t-13 -38q-105 0 -142.5 -25t-37.5 -90v-986q0 -117 180 -117q13 0 13 -38t-13 -38q-86 7 -259 7t-259 -7q-13 0 -13 38t13 38q178 0 178 117v986q0 115 -189 115q-14 0 -14 38z" />
<glyph unicode="J" horiz-adv-x="716" d="M-97 -298q0 32 29.5 57t76.5 25q60 0 101 -34t50 -67q70 24 101 114t31 463v912q0 115 -190 115q-14 0 -14 38t14 38q47 -5 265 -5t277 5q14 0 14 -38t-14 -38q-192 0 -192 -115v-538q0 -716 -71 -817.5t-155 -168.5t-193 -67q-54 0 -92 30.5t-38 90.5z" />
<glyph unicode="K" horiz-adv-x="1335" d="M68 1325q0 38 14 38q45 -5 268 -5t269 5q13 0 13 -38t-13 -38q-188 0 -188 -115v-437q0 -23 13 -23q29 0 92 67q15 15 27 31l293 365q40 52 40 78q0 34 -65 34q-13 0 -13 38t13 38q44 -5 180.5 -5t182.5 5q14 0 14 -38t-14 -38q-85 0 -163 -51q-26 -17 -41 -35l-358 -433 q-5 -6 -5 -16q0 -8 5 -14l458 -565q84 -104 246 -104q14 0 14 -38t-14 -38q-79 7 -269 7t-267 -7q-14 0 -14 37.5t14 38.5q96 0 96 59q0 24 -25 58l-269 353q-53 67 -113 95q-23 11 -41 11q-17 0 -17 -22v-437q0 -117 180 -117q13 0 13 -38t-13 -38q-77 7 -260 7t-260 -7 q-13 0 -13 37.5t13 38.5q180 0 180 117v986q0 115 -189 115q-14 0 -14 38z" />
<glyph unicode="L" horiz-adv-x="1344" d="M68 1325q0 38 14 38q45 -5 261.5 -5t261.5 5q13 0 13 -38t-13 -38q-174 0 -174 -115v-895q0 -51 14.5 -98.5t55 -82t108.5 -34.5l313 13q125 5 194.5 91t69.5 213q0 13 39 13t39 -13v-352q0 -28 -36 -32q-14 -2 -45 -2q-143 1 -432 4t-401 3t-255 -7q-13 0 -13 38t13 38 q176 0 176 108v995q0 115 -189 115q-14 0 -14 38z" />
<glyph unicode="M" horiz-adv-x="1848" d="M58 31q0 38 13 38q150 0 157 117l59 944q1 8 1 15q0 95 -84 127q-40 15 -107 15q-13 0 -13 38t13 38q45 -5 149.5 -5t136 -15.5t51.5 -57.5l472 -1008q13 -27 21 -27q10 0 24 29l485 1012q22 46 56 56.5t132 10.5t146 5q14 0 14 -38t-14 -38q-129 0 -167 -70 q-21 -39 -21 -105v-6l7 -920q1 -117 159 -117q14 0 14 -38t-14 -38q-75 7 -229 7t-239 -7q-14 0 -14 38t14 38q150 0 149 117l-4 853q0 13 -9 13t-14 -12l-506 -1046q-8 -17 -22 -17t-22 17l-464 1047q-8 17 -17 17t-10 -17l-51 -855v-9q0 -108 158 -108q14 0 14 -38 t-14 -38q-81 7 -197 7t-200 -7q-13 0 -13 38z" />
<glyph unicode="N" horiz-adv-x="1482" d="M56 1325q0 38 13 38q44 -5 149 -5t137 -7.5t59 -41.5l758 -977q10 -13 24 -13q23 0 23 33v819q0 116 -171 116q-14 0 -14 38t14 38q46 -5 187.5 -5t187.5 5q13 0 13 -38t-13 -38q-136 0 -136 -116v-1142q0 -50 -17 -50q-18 0 -42 30l-867 1095q-11 13 -22 13t-11 -18 v-913q0 -117 159 -117q13 0 13 -38t-13 -38q-81 7 -197.5 7t-199.5 -7q-14 0 -14 38t14 38q167 0 167 117v924q0 101 -45.5 139t-142.5 38q-13 0 -13 38z" />
<glyph unicode="O" horiz-adv-x="1461" d="M91 667q0 263 176 490.5t473 227.5q266 0 454.5 -208t188.5 -514q0 -256 -174 -473t-474 -217q-290 0 -467 205t-177 489zM282 726q0 -310 150 -494t317 -184q212 0 327.5 173t115.5 426q0 279 -145.5 473t-319.5 194q-210 0 -327.5 -181t-117.5 -407z" />
<glyph unicode="P" horiz-adv-x="1164" d="M69 1322.5q0 35.5 13 35.5q116 -5 226 -5t194 2.5t142 2.5q202 0 337 -98.5t135 -279.5q0 -180 -131 -282t-347 -102q-120 0 -151 3.5t-43.5 -1t-12.5 -29.5v-383q0 -117 186 -117q13 0 13 -38t-13 -38q-77 7 -262 7t-262 -7q-13 0 -13 37.5t13 38.5q178 0 178 117v986 q0 115 -189 115q-13 0 -13 35.5zM431 707q0 -34 43.5 -41.5t101.5 -7.5q368 0 368 326q0 129 -103 220.5t-274 91.5h-89q-47 0 -47 -31v-558z" />
<glyph unicode="Q" horiz-adv-x="1474" d="M91 667q2 266 178.5 492t470.5 226q279 0 461 -213.5t182 -508.5q0 -195 -107.5 -375.5t-253.5 -249.5q-17 -8 -17 -21t14 -24q77 -60 241.5 -139t387.5 -138q14 -4 14 -18q0 -57 -21 -57h-4q-575 125 -1136 368q-175 76 -292.5 246.5t-117.5 411.5zM282 708 q0 -287 149 -474t318 -187q226 0 334.5 180t108.5 437q0 261 -140 455.5t-319 194.5q-198 0 -324.5 -162t-126.5 -444z" />
<glyph unicode="R" horiz-adv-x="1405" d="M68 1320q0 38 14 38q116 -5 212.5 -5t193 2.5t156.5 2.5q230 0 361 -96.5t131 -277.5q0 -277 -267 -348q-14 -4 -14 -18t14 -39q145 -257 359 -459q111 -105 186 -105q14 0 14 -17.5t-14 -18.5q-42 -4 -67 -4q-163 0 -241 54q-122 85 -211 202l-175 256q-48 71 -75.5 90 t-83 19t-85.5 3.5t-37.5 -2.5t-7.5 -18v-393q0 -117 194 -117q13 0 13 -38t-13 -38q-78 7 -267.5 7t-266.5 -7q-13 0 -13 37.5t13 38.5q180 0 180 117v986q0 110 -189 110q-14 0 -14 38zM431 705q0 -31 38 -39t107 -8q387 0 387 326q0 131 -105 221.5t-291 90.5h-89 q-47 0 -47 -31v-560z" />
<glyph unicode="S" horiz-adv-x="1042" d="M128 346q0 11 2 19q4 18 35 18t32 -9q9 -129 111.5 -227.5t274.5 -98.5q92 0 157.5 72t65.5 184q0 236 -264 296q-405 94 -405 450q0 144 110.5 239.5t277.5 95.5q104 0 190.5 -20.5t99.5 -20.5t16 1q28 -101 38 -258q1 -19 -32 -23.5t-37 13.5q-21 110 -93.5 175.5 t-205.5 65.5q-100 0 -162 -66.5t-62 -156.5q0 -233 295 -293q372 -75 372 -412q0 -190 -109.5 -303.5t-280.5 -113.5q-120 0 -191.5 21t-185.5 79q-49 155 -49 273z" />
<glyph unicode="T" horiz-adv-x="1321" d="M35 1006v319q0 33 78 33q101 0 264 -2.5t279 -2.5t278 2.5t275 2.5q78 0 78 -33v-319q0 -14 -38 -14t-38 14q0 276 -262 276h-162q-51 0 -51 -46v-1050q0 -117 189 -117q14 0 14 -38t-14 -38q-92 7 -273 7t-273 -7q-14 0 -14 38t14 38q197 0 197 117v1050q0 46 -48 46 h-152q-265 0 -265 -276q0 -14 -38 -14t-38 14z" />
<glyph unicode="U" horiz-adv-x="1497" d="M58 1325q0 38 13 38q44 -5 276 -5t278 5q13 0 13 -38t-13 -38q-206 0 -206 -115v-631q0 -301 104.5 -397t259.5 -96q193 0 294.5 100.5t101.5 338.5v685q0 115 -188 115q-13 0 -13 38t13 38q45 -5 239 -5t239 5q13 0 13 -38t-13 -38q-180 0 -180 -115v-443 q0 -353 -52.5 -476t-166 -201.5t-312.5 -78.5q-191 0 -300.5 62.5t-155.5 188t-46 315.5v633q0 115 -185 115q-13 0 -13 38z" />
<glyph unicode="V" horiz-adv-x="1287" d="M20 1325q0 38 13 38q44 -5 228 -5t230 5q13 0 13 -38t-13 -38q-143 0 -143 -74q0 -17 7 -41l304 -880q7 -20 16 -20q11 0 20 22l319 869q10 33 10 46q0 78 -102 78q-14 0 -14 38t14 38q46 -5 194.5 -5t193.5 5q14 0 14 -38t-14 -38q-154 0 -187 -86l-476 -1214 q-10 -25 -26 -25q-17 0 -32 44l-409 1166q-40 115 -147 115q-13 0 -13 38z" />
<glyph unicode="W" horiz-adv-x="1971" d="M20 1325q0 38 13 38q44 -5 212.5 -5t215.5 5q13 0 13 -38t-13 -38q-113 0 -113 -57q0 -24 15 -58l395 -880q9 -19 17 -19q11 0 20 21l145 317q8 18 8 39q0 22 -10 45l-214 477q-52 115 -137 115q-13 0 -13 38t13 38q44 -5 208 -5t210 5q13 0 13 -38t-13 -38 q-113 0 -113 -55q0 -24 16 -60l116 -259q11 -23 19 -23t19 25l113 248q17 37 17 63q0 61 -100 61q-14 0 -14 38t14 38q46 -5 189.5 -5t189.5 5q13 0 13 -38t-13 -38q-149 0 -188 -86l-175 -388q-11 -25 -11 -46q0 -16 7 -32l199 -443q10 -19 18 -19q10 0 18 21l396 869 q17 37 17 62q0 62 -99 62q-13 0 -13 38t13 38q47 -5 180 -5t179 5q14 0 14 -38t-14 -38q-130 0 -169 -86l-542 -1194q-17 -36 -27 -36q-12 0 -27 35l-228 512q-8 16 -16 16t-15 -16l-232 -512q-15 -35 -27 -35q-9 0 -26 35l-523 1166q-51 115 -147 115q-13 0 -13 38z" />
<glyph unicode="X" horiz-adv-x="1330" d="M-42 31q0 38 13 38q161 0 226 86l374 496q8 11 8 20q0 12 -12 30l-324 478q-45 67 -96 88q-45 19 -128 20q-13 0 -13 38t13 38q45 -5 277 -5t280 5q14 0 14 -38t-14 -38q-139 0 -139 -57q0 -25 22 -59l210 -327q11 -16 21 -16q12 0 24 16l241 319q38 50 38 78 q0 46 -87 46q-14 0 -14 38t14 38q44 -5 198.5 -5t200.5 5q13 0 13 -38t-13 -38q-118 0 -185 -51q-40 -31 -127 -144l-240 -314q-11 -14 -11 -29q0 -13 9 -27l346 -536q76 -117 240 -117q13 0 13 -38t-13 -38q-76 7 -256.5 7t-256.5 -7q-14 0 -14 38t14 38q114 0 114 53 q0 26 -29 69l-264 392q-11 17 -20 17q-10 0 -22 -17l-204 -281q-95 -131 -95 -182t120 -51q14 0 14 -38t-14 -38q-74 7 -220 7t-233 -7q-13 0 -13 38z" />
<glyph unicode="Y" horiz-adv-x="1235" d="M-26 1325q0 38 13 38q44 -5 236.5 -5t239.5 5q13 0 13 -38t-13 -38q-121 0 -121 -57q0 -23 21 -58l281 -472q8 -14 16 -14q7 0 16 14l298 463q27 42 27 71q0 53 -111 53q-14 0 -14 38t14 38q45 -5 197.5 -5t197.5 5q13 0 13 -38t-13 -38q-139 0 -211 -109l-308 -473 q-65 -100 -71 -129.5t-6 -86.5v-303q0 -117 164 -117q13 0 13 -38t-13 -38q-75 7 -244 7t-244 -7q-13 0 -13 38t13 38q164 0 164 117v301q0 101 -28 147l-326 538q-70 115 -188 115q-13 0 -13 38z" />
<glyph unicode="Z" horiz-adv-x="1241" d="M83 24q0 13 10 27l875 1198q9 12 9 21q0 21 -31 21h-554q-55 0 -77 -30q-72 -92 -96.5 -154.5t-43.5 -129.5q-2 -7 -24 -7t-25 14q33 213 33 363q0 18 37 18q97 -9 147 -9h481q152 0 368 8q25 0 25 -14q0 -13 -14 -32l-863 -1200q-9 -12 -9 -24q0 -25 30 -25 q435 0 640 13q80 5 163 163q39 74 47 107q3 12 26.5 3.5t23.5 -19.5q-48 -236 -48 -353q0 -13 -15 -16q-35 10 -55 12q-187 21 -660 21h-365q-35 0 -35 24z" />
<glyph unicode="[" horiz-adv-x="725" d="M287 -332v1843q0 19 20 19h359q17 0 17 -39t-17 -39h-220q-20 0 -20 -22v-1678q0 -28 14 -28h226q17 0 17 -39t-17 -39h-357q-22 0 -22 22z" />
<glyph unicode="\" horiz-adv-x="717" d="M2 1438q0 14 30 30q32 15 56 15q16 0 18 -8l607 -1450v-7q-5 -9 -29 -20q-36 -16 -55 -16q-15 0 -17 6l-608 1444q-2 2 -2 6z" />
<glyph unicode="]" horiz-adv-x="739" d="M30 -315q0 39 21 39h250q12 0 12 24v1682q0 22 -18 22h-224q-24 0 -24 39t20 39h365q20 0 20 -19v-1843q0 -22 -22 -22h-377q-23 0 -23 39z" />
<glyph unicode="^" horiz-adv-x="1096" d="M106 535l390 837h104l385 -837h-135l-301 682l-303 -682h-140z" />
<glyph unicode="_" horiz-adv-x="1024" d="M0 -154h1024v-102h-1024v102z" />
<glyph unicode="`" horiz-adv-x="569" d="M217 1335q0 26 40 45q22 11 41 11q24 0 31 -16l132 -294q4 -11 4 -20q0 -39 -35 -39q-23 0 -41 29l-168 271q-4 5 -4 13z" />
<glyph unicode="a" horiz-adv-x="797" d="M74 609q0 56 40.5 112.5t69.5 73.5q128 75 246 75q71 0 137.5 -40t66.5 -99v-532q0 -115 67 -115q19 0 72 37q3 2 7 2q22 -3 29 -30q0 -3 -1 -5q-41 -69 -76 -90t-92 -21q-105 0 -142 136q-76 -76 -121 -106t-132 -30q-56 0 -93 31t-52.5 71.5t-15.5 82.5q0 41 20 82 t58.5 73.5t66.5 47.5l232 129q20 11 20 32v181q0 88 -133 88q-97 0 -135 -50q-5 -7 -15 -93q-12 -99 -69 -99q-55 0 -55 56zM237 188q0 -49 31.5 -79.5t87.5 -30.5q40 0 82.5 42.5t42.5 78.5v215q0 22 -14 22q-7 0 -60 -26q-170 -86 -170 -222z" />
<glyph unicode="b" horiz-adv-x="1001" d="M49 1338.5q0 27.5 17 27.5q25 0 105 41t100.5 59.5t32.5 18.5q13 0 13 -25l-6 -124v-500q0 -27 13 -27q9 0 20 6q94 55 176 55q176 0 293 -131.5t117 -308.5q0 -218 -111.5 -335.5t-294.5 -117.5q-59 0 -155 46q-24 10 -58 10t-96 -56q-3 -2 -9 -2t-21 6q-31 12 -31 19 q4 61 4 260v918q0 133 -92 133q-17 0 -17 27.5zM311 301q0 -81 75.5 -172.5t171.5 -91.5q97 0 147.5 111t50.5 266q0 156 -76.5 266.5t-198.5 110.5q-86 0 -147 -50q-23 -18 -23 -94v-346z" />
<glyph unicode="c" horiz-adv-x="817" d="M86 396q0 185 122 329.5t315 144.5q196 0 233 -73q6 -12 6 -41q0 -19 -22 -46.5t-39 -27.5t-27 14q-78 107 -173 107t-173.5 -102t-78.5 -261q0 -158 89.5 -254t191.5 -96q77 0 213 62q11 5 24.5 -15.5t13.5 -28.5q0 -6 -5 -11q-26 -24 -107.5 -72t-222.5 -48 q-147 0 -253.5 117t-106.5 302z" />
<glyph unicode="d" horiz-adv-x="1012" d="M66 411q0 189 132 324t343 135q70 0 114 -14q12 -4 19 -4q14 0 14 25v294q0 140 -92 140q-17 0 -17 27.5t17 27.5q25 0 96.5 36.5t103 59.5t41.5 23q11 0 10 -15l-6 -108v-1131q0 -149 82 -149q11 0 47 6q12 2 18 -37v-7q0 -12 -6 -13q-37 -5 -153 -31.5t-124 -32.5 q-17 0 -17 49v41q0 23 -11.5 23t-27.5 -14q-94 -89 -196 -89q-197 0 -292 122.5t-95 311.5zM229 440q0 -149 83 -257.5t192 -108.5q78 0 131 41t53 84v469q0 75 -22 94q-59 49 -148 49q-134 0 -211.5 -111.5t-77.5 -259.5z" />
<glyph unicode="e" horiz-adv-x="838" d="M85 431q0 178 113.5 308.5t254.5 130.5t228 -98t87 -160q0 -63 -51 -63h-449q-30 0 -30 -66q0 -160 76.5 -274.5t211.5 -114.5q101 0 201 60q5 3 11 3q12 0 21 -11q7 -7 7 -21q0 -5 -4 -8q-158 -140 -311 -140t-259.5 138t-106.5 316zM261 630q0 -14 24 -14h321 q15 0 15 17q0 44 -54.5 111t-113.5 67q-65 0 -112.5 -43.5t-76.5 -122.5q-3 -8 -3 -15z" />
<glyph unicode="f" horiz-adv-x="584" d="M70 20.5q0 28.5 14 28.5q117 0 117 78v600q0 37 -37 37h-74q-15 0 -15 27.5t15 27.5q111 0 111 86v19q0 250 141 406.5t330 156.5q53 0 96 -13t66.5 -39t23.5 -67q0 -31 -27.5 -57.5t-58.5 -26.5q-56 0 -101.5 54.5t-99.5 54.5q-106 0 -161.5 -85t-55.5 -207v-214 q0 -37 37 -37h203q15 0 15 -43t-15 -43h-203q-37 0 -37 -37v-600q0 -78 148 -78q14 0 14 -28.5t-14 -28.5q-85 8 -211 8t-207 -8q-14 0 -14 28.5z" />
<glyph unicode="g" horiz-adv-x="948" d="M59 -308q0 99 187 234q16 13 16 22q-2 11 -20 15q-136 39 -136 148q0 51 114 131q10 7 23.5 15t13.5 20t-15 22q-146 92 -146 239q0 146 100.5 239t227.5 93t214 -38.5t138 -38.5h172q15 0 15 -43t-15 -43h-166q4 -37 4 -109q0 -145 -94 -241.5t-262 -96.5q-33 0 -76 4 q-21 0 -43 -14q-69 -45 -69 -100q0 -80 149 -80h254q297 0 297 -228q0 -170 -159.5 -285.5t-354.5 -115.5q-181 0 -275 70.5t-94 180.5zM219 -252q0 -98 73 -157.5t211 -59.5t227 66.5t89 160.5q0 187 -244 187h-184q-35 0 -61 -19q-111 -81 -111 -178zM250 569 q0 -109 66 -179.5t145 -70.5q170 0 170 224q0 172 -86 237q-41 31 -110 31t-127 -66.5t-58 -175.5z" />
<glyph unicode="h" horiz-adv-x="1094" d="M66 20.5q0 28.5 14 28.5q121 0 121 78v1047q0 139 -92 139q-17 0 -17 27.5t17 27.5q33 0 97.5 34t97.5 59.5t44 25.5q12 0 12 -17q-6 -107 -6 -165v-514q0 -25 16 -25q9 0 17 8q91 96 241 96q145 0 219 -105.5t74 -215.5v-422q0 -78 127 -78q14 0 14 -28.5t-14 -28.5 q-81 8 -197.5 8t-195.5 -8q-14 0 -14 28.5t14 28.5q113 0 113 78v420q0 97 -59 165t-143 68q-85 0 -148.5 -51t-63.5 -100v-502q0 -78 111 -78q14 0 14 -28.5t-14 -28.5q-105 8 -205 8t-180 -8q-14 0 -14 28.5z" />
<glyph unicode="i" horiz-adv-x="524" d="M74 20.5q0 28.5 14 28.5q113 0 113 78v444q0 138 -92 138q-17 0 -17 28t17 28q33 0 97.5 34t97.5 59t44 25q12 0 12 -16q-6 -108 -6 -166v-574q0 -78 113 -78q14 0 14 -28.5t-14 -28.5q-76 8 -187 8t-192 -8q-14 0 -14 28.5zM150 1157q0 45 30.5 75.5t75.5 30.5t77 -30.5 t32 -75.5t-32 -77t-77 -32t-75.5 32t-30.5 77z" />
<glyph unicode="j" horiz-adv-x="518" d="M-125 -459q0 33 24.5 51.5t53.5 18.5q49 0 88.5 -39t64.5 -39q99 0 99 213v825q0 138 -92 138q-17 0 -17 28t17 28q33 0 97.5 34t97.5 59t44 25q12 0 12 -16q-6 -108 -6 -166v-642q0 -329 -110 -483q-93 -131 -248 -131q-50 0 -87.5 28t-37.5 68zM150 1157 q0 45 30.5 75.5t75.5 30.5t77 -30.5t32 -75.5t-32 -77t-77 -32t-75.5 32t-30.5 77z" />
<glyph unicode="k" horiz-adv-x="1008" d="M86 49q115 0 115 78v1048q0 138 -92 138q-18 0 -17.5 28t17.5 28q33 0 97.5 34t97.5 59t44 25q12 0 12 -16q-6 -105 -6 -166v-783q0 -43 46 -43t67 23l197 221q26 29 26 47q0 33 -96 33q-14 0 -14 26.5t14 26.5q92 -6 190 -6t174 6q14 0 14 -26.5t-14 -26.5 q-92 0 -163 -68l-213 -205q-19 -18 -19 -34t17 -35l321 -367q39 -45 129 -45q14 0 14 -28.5t-14 -28.5q-95 8 -202 8t-201 -8q-14 0 -14 28.5t14 28.5q82 0 82 29q0 13 -31 49l-221 254q-16 18 -35.5 24.5t-34.5 6.5t-24 -8t-9 -35v-242q0 -78 119 -78q14 0 14 -28.5 t-14 -28.5q-104 8 -198 8t-189 -8q-14 0 -14 27q0 30 14 30z" />
<glyph unicode="l" horiz-adv-x="524" d="M70 20.5q0 28.5 14 28.5q117 0 117 78v1044q0 140 -92 140q-17 0 -17 27.5t17 27.5q46 0 165 74q34 21 50 33t26 12t10 -15q-6 -57 -6 -97v-1246q0 -78 119 -78q14 0 14 -28.5t-14 -28.5q-77 8 -192.5 8t-196.5 -8q-14 0 -14 28.5z" />
<glyph unicode="m" horiz-adv-x="1607" d="M66 20.5q0 28.5 14 28.5q121 0 121 78v451q0 124 -84 124q-17 0 -17 28t17 28q25 0 83.5 34.5t94 62.5t48.5 28q15 0 14 -27q-4 -78 -4 -83q0 -21 12 -21q9 0 17 8q104 110 252 110q132 0 216 -122q11 -16 19.5 -16t19.5 13q113 125 274 125q122 0 181.5 -68t76 -118.5 t16.5 -118.5v-438q0 -78 116 -78q14 0 14 -28.5t-14 -28.5q-77 8 -189.5 8t-189.5 -8q-14 0 -14 28.5t14 28.5q110 0 110 78v453q0 117 -56.5 158.5t-142.5 41.5q-87 0 -138.5 -82t-51.5 -221v-350q0 -78 115 -78q14 0 14 -28.5t-14 -28.5q-80 8 -190.5 8t-187.5 -8 q-14 0 -14 28.5t14 28.5q110 0 110 78v405q0 90 -16 147t-48.5 79t-106.5 22q-45 0 -77.5 -17t-64 -41t-53.5 -58t-22 -74v-463q0 -78 106 -78q14 0 14 -28.5t-14 -28.5q-77 8 -188.5 8t-191.5 -8q-14 0 -14 28.5z" />
<glyph unicode="n" horiz-adv-x="1069" d="M72 20.5q0 28.5 14 28.5q115 0 115 78v447q0 128 -84 128q-17 0 -17 28t17 28q39 0 88 30t86 62.5t52 32.5q14 0 13 -31l-2 -73q-1 -21 14 -21q8 0 15 6q106 106 259 106q148 0 221 -147q33 -66 33 -248v-348q0 -78 115 -78q14 0 14 -28.5t-14 -28.5q-77 8 -187.5 8 t-190.5 -8q-14 0 -14 28.5t14 28.5q110 0 110 78v403q0 84 -14.5 142.5t-45.5 83t-109 24.5q-42 0 -76 -17t-66.5 -40.5t-55 -58t-22.5 -74.5v-463q0 -78 107 -78q14 0 14 -28.5t-14 -28.5q-77 8 -186.5 8t-188.5 -8q-14 0 -14 28.5z" />
<glyph unicode="o" horiz-adv-x="995" d="M84 428q0 168 125 305t299 137q173 0 294.5 -136.5t121.5 -313.5q0 -176 -111 -309.5t-297 -133.5q-185 0 -308.5 142t-123.5 309zM247 422q0 -177 81.5 -278t175.5 -101t175.5 101t81.5 278q0 176 -80 282.5t-175 106.5q-96 0 -177.5 -105.5t-81.5 -283.5z" />
<glyph unicode="p" horiz-adv-x="1001" d="M45 -530.5q0 28.5 14 28.5q115 0 115 84v999q0 124 -86 124q-17 0 -17 27.5t17 27.5q29 0 99 40t91.5 61.5t39.5 21.5q13 0 13 -27l-4 -68q0 -20 16 -20q9 0 18 8q84 94 187 94q112 0 206 -68.5t142.5 -153.5t48.5 -230q0 -197 -109.5 -319t-304.5 -122q-110 0 -167 19 q-6 2 -11 2q-26 0 -26 -33v-381q0 -86 151 -86q14 0 14 -28.5t-14 -28.5q-85 8 -212 8t-207 -8q-14 0 -14 28.5zM327 205q0 -164 189 -164q140 0 197.5 111t57.5 268q0 368 -264 368q-84 0 -160 -100q-20 -26 -20 -94v-389z" />
<glyph unicode="q" horiz-adv-x="1012" d="M66 416q0 212 121.5 333t264.5 121t259 -59l118 55q40 -2 40 -34q0 -5 -1 -11q-27 -27 -27 -299v-940q0 -84 133 -84q14 0 14 -28.5t-14 -28.5q-83 8 -209.5 8t-209.5 -8q-14 0 -14 28.5t14 28.5q133 0 133 86v379q0 37 -19 37q-64 -22 -231 -23q-174 0 -273 116.5 t-99 322.5zM229 435q0 -159 60.5 -276.5t184.5 -117.5q214 0 214 164v418q0 37 -14 59q-66 106 -152 106h-2q-291 0 -291 -353z" />
<glyph unicode="r" horiz-adv-x="696" d="M45 20.5q0 28.5 14 28.5q115 0 115 78v462q0 113 -84 113q-17 0 -17 28t17 28q38 0 109 48t87.5 62.5t27.5 14.5q17 0 17 -25q-4 -49 -4 -89.5t13.5 -40.5t27.5 20q89 122 213 122q32 0 53 -11t39 -34t18 -67q0 -12 -10 -34.5t-31 -38t-42 -15.5q-22 0 -67.5 24.5 t-68.5 24.5q-61 0 -103 -60.5t-42 -164.5v-367q0 -78 151 -78q14 0 14 -28.5t-14 -28.5q-84 8 -210 8t-209 -8q-14 0 -14 28.5z" />
<glyph unicode="s" horiz-adv-x="707" d="M78 207v45q0 15 23.5 15t25.5 -15q5 -39 65 -126t179 -87q59 0 110 37t51 107t-43 112.5t-153 72t-177 94.5t-67 165q0 102 84 172.5t213 70.5t207 -36q31 -84 31 -170v-11q0 -14 -22 -14t-25 14q-10 54 -67.5 105t-134.5 51t-124 -37.5t-47 -101.5q0 -61 33.5 -94 t166.5 -71.5t187.5 -97t54.5 -161.5q0 -81 -42 -144.5t-115 -95t-154 -31.5q-156 0 -240 60q-20 63 -20 172z" />
<glyph unicode="t" horiz-adv-x="674" d="M66 783q0 23 14 23q45 0 93 35.5t80 78t48 81.5q4 9 14 9t20.5 -5t10.5 -14v-98q0 -43 41 -43h244q14 0 14 -45t-14 -45h-244q-41 0 -41 -40v-403q0 -131 37.5 -187t124.5 -56q52 0 108 39q14 10 21.5 -4t7.5 -21t-2 -10q-84 -101 -220 -101q-125 0 -177.5 54.5 t-52.5 181.5v507q0 40 -40 40h-73q-14 0 -14 23z" />
<glyph unicode="u" horiz-adv-x="1036" d="M48 811q0 28 15 28q105 0 169.5 9t83.5 9q20 0 19 -16q-8 -123 -8 -152v-355q0 -115 39.5 -187.5t121.5 -72.5q88 0 156 52t68 126v384q0 147 -111 147q-15 0 -15 28t15 28q123 0 180.5 9t69.5 9q22 0 20 -27q-6 -87 -6 -139v-464q0 -146 72 -146q5 0 10 1l47 6 q17 2 22 -27q1 -9 1 -15q0 -14 -8 -15q-28 -3 -136.5 -27.5t-137.5 -35.5q-3 -1 -7 -1q-16 0 -16 45v45q0 24 -11.5 24t-27.5 -15q-95 -89 -234 -89q-105 0 -185 106t-80 218v335q0 147 -111 147q-15 0 -15 28z" />
<glyph unicode="v" horiz-adv-x="838" d="M-2 829.5q0 26.5 14 26.5q58 -6 176.5 -6t178.5 6q14 0 14 -26.5t-14 -26.5q-78 0 -78 -55q0 -17 4 -29l160 -490q6 -18 14 -18t14 18l170 498q4 10 4 23q0 53 -96 53q-14 0 -14 26.5t14 26.5q57 -6 143 -6t146 6q14 0 14 -26.5t-14 -26.5q-96 0 -121 -72l-250 -715 q-13 -39 -42 -39t-40 27l-280 727q-29 72 -103 72q-14 0 -14 26.5z" />
<glyph unicode="w" horiz-adv-x="1331" d="M-2 829.5q0 26.5 14 26.5q58 -6 176.5 -6t178.5 6q14 0 14 -26.5t-14 -26.5q-78 0 -78 -55q0 -17 4 -29l160 -490q6 -18 14 -18t14 18l150 435q6 20 6 28q0 59 -51 94q-27 17 -62 17q-14 0 -14 26.5t14 26.5q58 -6 176.5 -6t178.5 6q14 0 14 -26.5t-14 -26.5 q-78 0 -78 -55q0 -17 4 -29l160 -490q6 -18 14 -18t14 18l170 498q4 10 4 23q0 53 -96 53q-14 0 -14 26.5t14 26.5q57 -6 143 -6t146 6q14 0 14 -26.5t-14 -26.5q-96 0 -121 -72l-250 -715q-13 -39 -42 -39t-40 27l-213 549q-8 20 -14 20q-7 0 -14 -20l-189 -537 q-13 -39 -42 -39t-40 27l-280 727q-29 72 -103 72q-14 0 -14 26.5z" />
<glyph unicode="x" horiz-adv-x="918" d="M9 20.5q0 28.5 14 28.5q94 0 147 68l225 282q8 11 8 22t-8 23l-207 289q-51 70 -98 70q-14 0 -14 26.5t14 26.5q57 -6 170.5 -6t171.5 6q14 0 14 -26.5t-14 -26.5q-76 0 -76 -37q0 -18 17 -45l110 -176q9 -15 19 -15t20 15l121 160q27 35 27 57q0 41 -82 41 q-14 0 -14 26.5t14 26.5q57 -6 146 -6t149 6q14 0 14 -26.5t-14 -26.5q-67 0 -125 -72l-195 -237q-14 -17 -14 -29t10 -27l211 -305q58 -84 148 -84q14 0 14 -28.5t-14 -28.5q-76 8 -193.5 8t-200.5 -8q-14 0 -14 28.5t14 28.5q97 0 97 33q0 12 -23 47l-137 215 q-8 12 -17 12q-8 0 -16 -12l-143 -199q-33 -47 -33 -67q0 -29 65 -29q14 0 14 -28.5t-14 -28.5q-80 8 -149.5 8t-144.5 -8q-14 0 -14 28.5z" />
<glyph unicode="y" horiz-adv-x="838" d="M-53 829.5q0 26.5 14 26.5q57 -6 184 -6t187 6q14 0 14 -26.5t-14 -26.5q-96 0 -96 -55q0 -16 4 -29l174 -504q10 -31 25 -31t28 33l195 502q6 13 6 26q0 58 -129 58q-14 0 -14 26.5t14 26.5q57 -6 163 -6t164 6q14 0 14 -26.5t-14 -26.5q-96 0 -125 -72l-442 -1149 q-25 -64 -73.5 -99.5t-104.5 -35.5q-40 0 -65 25t-25 51q0 76 94.5 76t120.5 63l96 240q11 25 11 39t-13 51l-258 739q-26 72 -121 72q-14 0 -14 26.5z" />
<glyph unicode="z" horiz-adv-x="735" d="M55 14q0 6 2 9l398 729q8 15 8 23q0 18 -29 18h-158q-78 0 -131 -107l-61 -123q-3 -6 -13.5 -2.5t-9.5 8.5l37 267q5 34 20 34h3l103 -16q26 -4 77 -4h346q15 0 15 -7t-5 -16l-397 -723q-6 -11 -6 -18q0 -18 27 -22t68.5 -4t72.5 1q106 0 170 72q24 27 80 152q4 9 23 4 q18 -5 18 -12l-31 -267q0 -37 -27 -37q-10 0 -68.5 13.5t-94.5 13.5h-420q-17 0 -17 14z" />
<glyph unicode="{" horiz-adv-x="784" d="M66 617.5q0 17.5 10 17.5q211 0 211 172v338q0 163 41 237t123.5 92.5t263.5 18.5q14 0 14 -23.5t-14 -23.5q-155 0 -223 -52t-68 -186v-243q0 -173 -12 -212.5t-45.5 -77t-106.5 -54.5v-7q67 -12 102.5 -47.5t48.5 -85t13 -188.5v-277q0 -172 63 -230t228 -58 q14 0 14 -23.5t-14 -23.5q-225 0 -289 24.5t-101.5 89.5t-37.5 187v442q0 176 -211 176q-10 0 -10 17.5z" />
<glyph unicode="|" horiz-adv-x="537" d="M233 -334v1768h121v-1768h-121z" />
<glyph unicode="}" horiz-adv-x="821" d="M66 -295.5q0 23.5 14 23.5q165 0 228 58t63 230v277q0 143 15 192t48 83t101 46v7q-77 18 -109 56t-43.5 78.5t-11.5 209.5v243q0 136 -70 187t-221 51q-14 0 -14 23.5t14 23.5q170 0 259.5 -16.5t129 -95.5t39.5 -236v-338q0 -172 211 -172q10 0 10 -17.5t-10 -17.5 q-211 0 -211 -176v-442q0 -135 -49 -205.5t-137.5 -83t-241.5 -12.5q-14 0 -14 23.5z" />
<glyph unicode="~" horiz-adv-x="676" d="M24 361v9q0 2 1 3q101 149 211 149q42 0 141 -35q78 -28 115 -28q60 0 133 71l8 3q13 -1 19 -15q1 -3 1 -6q0 -40 -80 -99q-83 -58 -135 -63q-45 0 -135 33q-99 35 -133 35q-66 0 -121 -66q-3 -3 -7 -3q-12 0 -18 12z" />
<glyph unicode="&#xa1;" horiz-adv-x="520" d="M138 758.5q0 50.5 35 81t88 30.5t86 -36t33 -87t-30 -82t-90 -31q-62 0 -92 37t-30 87.5zM152 -443q0 63 31 354.5t43 497.5q2 16 34 16t32 -16q8 -199 35 -491t27 -348t-31 -90t-67 -34q-104 0 -104 111z" />
<glyph unicode="&#xa2;" horiz-adv-x="829" d="M92 642q0 185 122 330q116 137 297 144l34 189q2 10 22 10q71 0 66 -27l-31 -175q131 -12 160 -70q6 -12 6 -41q0 -19 -22 -46.5t-39 -27.5t-27 14q-44 60 -93 86l-120 -681q34 -11 69 -11q77 0 213 62q11 5 24.5 -15.5t13.5 -28.5q0 -6 -5 -11q-26 -24 -107.5 -72 t-222.5 -48h-7l-33 -190q-2 -10 -27 -10q-67 0 -63 24l34 190q-88 26 -158 103q-106 117 -106 302zM255 686.5q0 -158.5 89 -254.5q20 -21 40 -37l116 654q-91 -4 -166 -102q-79 -102 -79 -260.5z" />
<glyph unicode="&#xa3;" horiz-adv-x="1126" d="M31 100q0 65 46 108.5t128 43.5q63 0 237 -57q23 78 23 135q0 124 -64 325h-274q-15 0 -15 36t15 36h250q-60 162 -60 299t112.5 240.5t275.5 103.5q91 0 197 -32.5t106 -80.5q0 -187 -27 -227q-3 -4 -12 -4q-19 0 -39.5 71t-33.5 107t-59.5 77.5t-142.5 41.5 q-113 0 -174 -69t-61 -154q0 -84 84 -373h323q16 0 16 -36t-16 -36h-307q16 -90 16 -197t-67 -292q180 -68 270 -68q134 0 246 99q35 32 43 32q14 0 14 -21.5t-26 -78.5q-78 -170 -264 -170q-128 0 -330 137q-63 -65 -121 -101t-146 -36q-77 0 -120 42t-43 99zM88 100 q0 -38 32 -63t85 -25q112 0 205 113q-102 74 -180 74q-82 0 -112 -33.5t-30 -65.5z" />
<glyph unicode="&#xa4;" horiz-adv-x="1024" d="M80 668q0 148 88 260l-80 80q-11 11 31 53t53 31l80 -78q112 88 260 88q147 0 262 -88l78 78q11 11 53 -31t31 -53l-78 -78q88 -115 88 -262q0 -149 -88 -262l78 -78q12 -12 -31 -53t-53 -31l-78 78q-116 -89 -262 -89q-142 0 -260 91l-80 -80q-10 -10 -53 31t-31 53 l80 80q-88 112 -88 260zM168 668q0 -144 100.5 -245t243.5 -101q146 0 247 101t101 245q0 140 -103 243t-245 103q-141 0 -242.5 -101.5t-101.5 -244.5z" />
<glyph unicode="&#xa5;" horiz-adv-x="1325" d="M13 1325q0 38 13 38q44 -5 236.5 -5t239.5 5q13 0 13 -38t-13 -38q-121 0 -121 -57q0 -23 21 -58l281 -472q8 -14 15.5 -14t16.5 14l298 463q27 42 27 71q0 53 -111 53q-14 0 -14 38t14 38q45 -5 197.5 -5t197.5 5q13 0 13 -38t-13 -38q-139 0 -210 -109l-222 -340h204 q15 0 15 -50.5t-15 -50.5h-270l-21 -32q-65 -100 -71 -129q-1 -3 -1 -5h363q15 0 15 -50t-15 -50h-368v-285q0 -117 164 -117q13 0 13 -38t-13 -38q-75 7 -244 7t-244 -7q-13 0 -13 38t13 38q164 0 164 117v285h-1h-346q-15 0 -15 50t15 50h341q-7 39 -22 63l-62 103h-257 q-15 0 -15 50.5t15 50.5h195l-202 334q-70 115 -188 115q-13 0 -13 38z" />
<glyph unicode="&#xa6;" horiz-adv-x="537" d="M233 111v536h121v-536h-121zM233 834v538h121v-538h-121z" />
<glyph unicode="&#xa7;" d="M94 530q0 95 51 181q53 89 140 123q-115 102 -115 229q0 135 102 227q100 90 238 90q83 0 166 -32q112 -43 112 -105q0 -29 -35 -59q-22 -19 -42 -19q-10 0 -78 68q-67 70 -148 70q-67 0 -128 -56q-52 -47 -52 -131q0 -102 150 -196l274 -172q150 -117 150 -267 q0 -195 -183 -299q131 -101 131 -241q0 -144 -114 -246q-110 -98 -256 -98q-98 0 -203 43q-135 51 -135 129q0 22 33 49q34 28 55 28q15 0 55 -45l44 -49q70 -78 165 -78q99 0 159 79q46 61 46 143q0 104 -152 206l-278 177q-152 114 -152 251zM215 598q0 -96 92 -156 l334 -219q113 79 113 205q0 123 -224 248q-111 62 -194 121q-121 -72 -121 -199z" />
<glyph unicode="&#xa8;" horiz-adv-x="797" d="M109 1156q0 45 31.5 76.5t76.5 31.5t76.5 -31.5t31.5 -76.5t-31.5 -76.5t-76.5 -31.5t-76.5 31.5t-31.5 76.5zM491 1156q0 45 31.5 76.5t76 31.5t76 -31.5t31.5 -76.5t-31.5 -76.5t-76 -31.5t-76 31.5t-31.5 76.5z" />
<glyph unicode="&#xa9;" horiz-adv-x="1442" d="M2 748q0 299 211 509.5t510 210.5t510 -210.5t211 -509.5t-211 -510t-510 -211t-510 211t-211 510zM72 755q0 -263 184 -461t459.5 -198t467 191.5t191.5 460.5q0 270 -190.5 460.5t-460.5 190.5t-460.5 -190.5t-190.5 -453.5zM347 737q0 123 52.5 213.5t136.5 141.5 t207 51q61 0 148 -17l12 -2q69 -13 71 -13q15 -74 15 -171q-2 -9 -19 -9t-18 8q-16 165 -224 165q-113 0 -194.5 -101.5t-81.5 -232.5q0 -156 80 -259.5t194 -103.5q195 0 249 148q2 6 15.5 6t18.5 -4q2 -2 2 -8q-20 -105 -49 -148q-18 -2 -42 -10q-81 -25 -207 -25 q-98 0 -181.5 47.5t-134 131t-50.5 192.5z" />
<glyph unicode="&#xaa;" horiz-adv-x="533" d="M44 890q0 34 24.5 68t41.5 44q77 45 148 45q43 0 82.5 -24t39.5 -59v-320q0 -69 41 -69q11 0 43 23q1 1 4 1q13 -2 17 -18v-3q-25 -42 -46 -54.5t-55 -12.5q-63 0 -85 82q-46 -46 -73 -64t-79 -18q-34 0 -56 18.5t-31.5 43t-9.5 49.5t12 49.5t35.5 44t39.5 28.5l140 77 q12 7 12 20v108q0 53 -80 53q-58 0 -81 -30q-3 -4 -9 -56q-7 -59 -42 -59q-33 0 -33 33zM142 638q0 -29 19 -47.5t53 -18.5q24 0 49.5 25.5t25.5 46.5v129q0 14 -9 14q-4 0 -36 -16q-102 -51 -102 -133z" />
<glyph unicode="&#xab;" horiz-adv-x="789" d="M59 435q0 28 24 53l299 312q10 11 28 -3t9 -27l-197 -294q-12 -18 -12 -41t12 -41l197 -290q10 -15 -7.5 -30.5t-29.5 -3.5l-299 312q-24 25 -24 53zM366 435q0 28 24 53l299 312q11 11 28.5 -3t8.5 -27l-197 -294q-12 -18 -12 -41t12 -41l197 -290q10 -15 -7.5 -30.5 t-29.5 -3.5l-299 312q-24 25 -24 53z" />
<glyph unicode="&#xac;" horiz-adv-x="1366" d="M0 537v120h1366v-657h-123v537h-1243z" />
<glyph unicode="&#xad;" horiz-adv-x="827" d="M100 545q0 57 15 57h592q16 0 16 -57q0 -58 -18 -58h-590q-15 0 -15 58z" />
<glyph unicode="&#xae;" horiz-adv-x="1524" d="M2 748q0 299 211 509.5t510 210.5t510 -210.5t211 -509.5t-211 -510t-510 -211t-510 211t-211 510zM72 753.5q0 -264.5 185.5 -461t459.5 -196.5t465.5 191.5t191.5 460.5q0 270 -190.5 460.5t-460.5 190.5t-460.5 -190.5t-190.5 -455zM418 1099.5q0 20.5 7 20.5 q63 -2 115 -2t104 1t85 1q124 0 194.5 -52t70.5 -150q0 -149 -144 -188q-15 -4 0 -30q79 -139 194 -248q60 -57 101 -57q7 0 7 -9.5t-7 -9.5q-23 -2 -37 -2q-88 0 -130 29q-66 46 -114 109l-94 138q-26 38 -41 48.5t-45 10.5t-46 2t-20 -1.5t-4 -9.5v-213q0 -63 104 -63 q8 0 8 -20.5t-8 -20.5q-42 4 -144 4t-144 -4q-7 0 -7 20.5t7 20.5q97 0 97 63v533q0 59 -102 59q-7 0 -7 20.5zM614 768q0 -17 20.5 -21.5t57.5 -4.5q209 0 209 176q0 71 -56.5 120t-157.5 49h-48q-25 0 -25 -17v-302z" />
<glyph unicode="&#xaf;" horiz-adv-x="608" d="M49 1151q0 47 29 47h450q28 0 28 -47t-32 -47h-446q-29 0 -29 47z" />
<glyph unicode="&#xb0;" horiz-adv-x="713" d="M82 1047q0 119 89 197q77 67 185 67q132 0 212 -90q63 -71 63 -174q0 -133 -95 -207q-74 -58 -180 -58q-134 0 -212 89q-62 72 -62 176zM197 1047q0 -99 62 -157q40 -36 97 -36q89 0 133 81q27 48 27 112q0 103 -63 157q-41 35 -97 35q-89 0 -133 -81q-26 -48 -26 -111z " />
<glyph unicode="&#xb1;" horiz-adv-x="1024" d="M119 2v100h788v-100h-788zM119 596v100h334v336h120v-336h334v-100h-334v-371h-120v371h-334z" />
<glyph unicode="&#xb2;" horiz-adv-x="630" d="M13 541q0 5 7 10q305 277 395 459q25 48 25 110q0 64 -52 100q-38 26 -92 26q-99 0 -170 -110q-2 -2 -6 -2q-15 0 -27 10q-7 5 -7 9q0 1 1 2q41 71 104 114q73 53 160 53q104 0 165 -64q50 -49 50 -131q0 -88 -77 -181q-41 -49 -116 -125l-195 -191q-12 -10 -12 -17 q0 -9 21 -9h205q113 0 157 36q18 15 29 38q1 4 12 4q22 -1 27 -9q1 -1 1 -2t-1 -3l-70 -131q-10 -20 -35 -20q-93 5 -223 5q-123 0 -247 -5q-29 0 -29 24z" />
<glyph unicode="&#xb3;" horiz-adv-x="630" d="M35 598q0 23 27 37q13 8 29 8q24 0 70 -45q48 -44 101 -44q74 0 120 70q35 56 35 130q0 78 -51 129q-52 53 -144 53q-44 0 -78 -10q-9 0 -9 25q0 23 9 23q125 0 190 56q49 42 49 108q0 60 -47 95q-35 25 -83 25q-81 0 -142 -82q-1 -2 -5 -2q-15 0 -26 13q-6 6 -6 11 q0 1 1 2q95 122 225 122q79 0 133 -51q55 -51 55 -117q0 -100 -126 -163q-22 -11 -22 -15q0 -6 19 -9q175 -31 175 -197q0 -111 -91 -187q-91 -75 -218 -75q-97 0 -151 33q-39 22 -39 57z" />
<glyph unicode="&#xb4;" horiz-adv-x="569" d="M147 1059q0 12 5 22l135 307q6 13 25 13q34 0 70 -29q20 -16 20 -29q0 -3 -2 -7l-179 -285q-18 -29 -41 -29q-33 0 -33 37z" />
<glyph unicode="&#xb5;" horiz-adv-x="1106" d="M46 813q0 28 17 28q64 0 156.5 9t105.5 9q11 0 11 -20q-8 -124 -8 -158v-429q0 -186 168 -186q278 0 278 219v353q0 147 -110 147q-16 0 -16 28t16 28q68 0 151.5 9t101.5 9q17 0 17 -27q-6 -103 -6 -139v-437q0 -121 20.5 -146t63.5 -25q20 0 46 3q15 3 20 -26 q1 -8 1 -13q0 -16 -10 -18q-155 -29 -272 -62q-23 0 -23 47v41q0 31 -13 29q-14 -2 -28 -16q-102 -93 -276 -93q-84 0 -144 39q-8 -62 -8 -138t8 -240q7 -130 -100 -130q-88 0 -88 115q0 77 24.5 240t24.5 436v339q0 147 -111 147q-17 0 -17 28z" />
<glyph unicode="&#xb6;" horiz-adv-x="997" d="M16 1077q0 185 128 284q123 95 309 95q277 -4 342 -4q50 0 159 6q14 0 14 -29q0 -28 -14 -28q-118 0 -118 -77v-1197q0 -78 118 -78q14 0 14 -29q0 -28 -14 -28q-83 8 -157 8h-256q-82 0 -170 -8q-14 0 -14 28q0 29 14 29q116 0 116 76v569q-257 0 -384 140 q-87 96 -87 243zM580 127q0 -78 79 -78q84 0 84 76v1199q0 74 -75 74q-88 0 -88 -74v-1197z" />
<glyph unicode="&#xb7;" horiz-adv-x="745" d="M238 623q0 51 36 82t91 31t85 -37t30 -87.5t-34.5 -81t-87.5 -30.5t-86.5 36t-33.5 87z" />
<glyph unicode="&#xb8;" horiz-adv-x="737" d="M203 -381q0 53 51 53q23 0 57 -28q37 -31 51 -31q56 0 56 63q0 80 -135 142l123 182h73l-71 -98q127 -78 127 -174q0 -83 -77 -137q-60 -44 -136 -44q-119 0 -119 72z" />
<glyph unicode="&#xb9;" horiz-adv-x="630" d="M94 534q0 17 9 17q88 0 111.5 23.5t23.5 103.5v522q0 28 -15 28q-5 0 -16 -5l-89 -35q-11 0 -17 10.5t4 17.5q135 57 223 127q4 3 11 3q8 0 9 -8q-4 -54 -4 -103v-556q0 -89 30.5 -108.5t92.5 -19.5q9 0 9 -17t-9 -17q-55 5 -182 5t-182 -5q-9 0 -9 17z" />
<glyph unicode="&#xba;" horiz-adv-x="614" d="M50 782q0 101 75 183t179 82q105 0 177.5 -82t72.5 -188t-66.5 -186t-177.5 -80t-185.5 85.5t-74.5 185.5zM148 778q0 -106 49 -166.5t105 -60.5q57 0 106 60.5t49 166.5t-48 170t-106 64q-57 0 -106 -63.5t-49 -170.5z" />
<glyph unicode="&#xbb;" horiz-adv-x="789" d="M59 104l197 290q12 18 12 41t-12 41l-197 294q-9 13 8.5 27t28.5 3l299 -312q24 -25 24 -53t-24 -53l-299 -312q-12 -12 -29.5 3.5t-7.5 30.5zM366 104l197 290q12 18 12 41t-12 41l-197 294q-9 13 8.5 27t28.5 3l299 -312q24 -25 24 -53t-24 -53l-299 -312 q-12 -12 -29.5 3.5t-7.5 30.5z" />
<glyph unicode="&#xbc;" horiz-adv-x="1509" d="M131 538.5q0 18.5 9 18.5q76 0 101.5 21.5t25.5 115.5v566q0 30 -14 30q-5 0 -15 -5l-84 -39q-11 -4 -15.5 11.5t2.5 19.5q128 61 211 137q4 4 10 4q8 0 9 -9q-4 -59 -4 -112v-602q0 -78 19 -108t97 -30q9 0 9 -18.5t-9 -18.5q-52 5 -172 5t-171 -5q-9 0 -9 18.5zM311 74 l888 1351q4 6 10 6q10 0 28 -12q29 -19 22 -30l-891 -1354q-8 -11 -35.5 9.5t-21.5 29.5zM890 278q0 7 5 18q7 17 25 42l145 196q9 12 272 392q6 9 25 9q38 0 38 -20l-420 -583q-6 -8 -6 -13q0 -9 17 -9h253q14 0 14 14v288q0 10 49.5 10t49.5 -10v-288q0 -14 15 -14h76 q11 0 11 -28t-11 -28h-76q-15 0 -15 -13v-158q0 -51 79 -51q9 0 9 -18.5t-9 -18.5q-50 5 -140.5 5t-140.5 -5q-9 0 -9 18.5t9 18.5q103 0 103 51v158q0 13 -14 13h-310q-44 0 -44 24z" />
<glyph unicode="&#xbd;" horiz-adv-x="1509" d="M131 538.5q0 18.5 9 18.5q76 0 101.5 21.5t25.5 115.5v566q0 30 -14 30q-5 0 -15 -5l-84 -39q-11 -4 -15.5 11.5t2.5 19.5q128 61 211 137q4 4 10 4q8 0 9 -9q-4 -59 -4 -112v-602q0 -78 19 -108t97 -30q9 0 9 -18.5t-9 -18.5q-52 5 -172 5t-171 -5q-9 0 -9 18.5zM307 74 l888 1351q4 6 10 6q10 0 28 -12q29 -19 22 -30l-891 -1354q-8 -11 -35.5 9.5t-21.5 29.5zM886 20q0 6 6 12q288 300 372 496q24 53 24 120q0 69 -49 108q-36 28 -87 28q-93 0 -160 -118q-2 -3 -6 -3q-14 0 -25 11q-6 5 -6 9v3q39 77 99 123q68 57 150 57q98 0 155 -68 q48 -54 48 -143q0 -95 -73 -195q-39 -54 -109 -136l-184 -207q-11 -11 -11 -18q0 -10 20 -10h193q106 0 147 39q18 16 28 41q1 4 11 4q20 -1 26 -9v-3v-2l-66 -143q-10 -21 -33 -21q-88 5 -210 5q-116 0 -233 -5q-27 0 -27 25z" />
<glyph unicode="&#xbe;" horiz-adv-x="1509" d="M62 608q0 24 25 40q13 8 27 8q24 0 67 -48q45 -49 95 -49q70 0 113 77q33 61 33 141q0 84 -48 139q-49 58 -135 58q-43 0 -74 -11q-9 0 -9 27q0 25 9 25q117 0 179 61q46 45 46 116q0 66 -45 103q-32 28 -77 28q-77 0 -135 -89q0 -2 -4 -2q-14 0 -25 14q-5 6 -5 11 q0 1 1 3q89 131 211 131q75 0 126 -54q52 -55 52 -128q0 -108 -119 -176q-21 -11 -21 -16q0 -7 18 -10q165 -33 165 -213q0 -120 -86 -203q-85 -81 -205 -81q-91 0 -142 35q-37 25 -37 63zM311 74l888 1351q4 6 10 6q10 0 28 -12q29 -19 22 -30l-891 -1354q-8 -11 -35.5 9.5 t-21.5 29.5zM891 278q0 7 5 18q7 17 25 42l145 196q9 12 272 392q6 9 25 9q38 0 38 -20l-421 -583q-5 -8 -5 -13q0 -9 17 -9h253q14 0 14 14v288q0 10 49.5 10t49.5 -10v-288q0 -14 15 -14h75q12 0 12 -28t-12 -28h-75q-15 0 -15 -13v-158q0 -51 79 -51q9 0 9 -18.5 t-9 -18.5q-50 5 -140.5 5t-140.5 -5q-9 0 -9 18.5t9 18.5q103 0 103 51v158q0 13 -14 13h-310q-44 0 -44 24z" />
<glyph unicode="&#xbf;" horiz-adv-x="752" d="M150 -94q0 144 81 188l166 88q74 39 74 90q0 56 -20 125q0 18 25 20l15 -2q4 -2 5 -5q75 -138 75 -211q0 -93 -114 -152l-105 -55q-116 -62 -116 -152q0 -84 49 -129q72 -67 230 -69h13q30 0 54 -39q14 -24 14 -47q0 -82 -84 -82q-127 0 -244 133q-118 133 -118 299z M348 750q0 71 58 102q27 14 61 14q66 0 100 -50q19 -29 19 -66q0 -69 -51 -106q-30 -21 -68 -21q-64 0 -99 56q-20 32 -20 71z" />
<glyph unicode="&#xc0;" horiz-adv-x="1398" d="M-4 31q0 38 13 38q97 0 129 28t66 104l377 987q6 17 6 30t-13 26.5t-13 19.5t39.5 27.5t92.5 58.5t65 37q23 0 35 -44q26 -97 49 -166l333 -991q39 -117 192 -117q13 0 13 -38t-13 -38q-73 7 -231 7t-230 -7q-14 0 -14 38t14 38q99 0 99 68q0 23 -8 49l-101 313 q-9 32 -44 32h-407q-28 0 -40 -35l-113 -314q-9 -22 -9 -40q0 -73 151 -73q14 0 14 -38t-14 -38q-85 7 -213 7t-212 -7q-13 0 -13 38zM349 1809.5q0 21.5 27.5 58t46.5 36.5t29 -7l414 -299q24 -16 24 -30.5t-9 -29t-26 -14.5t-36 11l-449 241q-21 12 -21 33.5zM448 616 q0 -16 24 -16h359q25 0 25 16q0 5 -2 11l-170 532q-6 20 -18 20t-19 -20l-197 -532q-2 -5 -2 -11z" />
<glyph unicode="&#xc1;" horiz-adv-x="1398" d="M-4 31q0 38 13 38q97 0 129 28t66 104l377 987q6 17 6 30t-13 26.5t-13 19.5t39.5 27.5t92.5 58.5t65 37q23 0 35 -44q26 -97 49 -166l333 -991q39 -117 192 -117q13 0 13 -38t-13 -38q-73 7 -231 7t-230 -7q-14 0 -14 38t14 38q99 0 99 68q0 23 -8 49l-101 313 q-9 32 -44 32h-407q-28 0 -40 -35l-113 -314q-9 -22 -9 -40q0 -73 151 -73q14 0 14 -38t-14 -38q-85 7 -213 7t-212 -7q-13 0 -13 38zM448 616q0 -16 24 -16h359q25 0 25 16q0 5 -2 11l-170 532q-6 20 -18 20t-19 -20l-197 -532q-2 -5 -2 -11zM517 1567.5q0 14.5 24 30.5 l414 299q10 7 29 7t47 -36.5t28 -57.5t-22 -34l-449 -241q-20 -11 -37 -11t-25.5 14.5t-8.5 29z" />
<glyph unicode="&#xc2;" horiz-adv-x="1398" d="M-4 31q0 38 13 38q97 0 129 28t66 104l377 987q6 17 6 30t-13 26.5t-13 19.5t39.5 27.5t92.5 58.5t65 37q23 0 35 -44q26 -97 49 -166l333 -991q39 -117 192 -117q13 0 13 -38t-13 -38q-73 7 -231 7t-230 -7q-14 0 -14 38t14 38q99 0 99 68q0 23 -8 49l-101 313 q-9 32 -44 32h-407q-28 0 -40 -35l-113 -314q-9 -22 -9 -40q0 -73 151 -73q14 0 14 -38t-14 -38q-85 7 -213 7t-212 -7q-13 0 -13 38zM396 1547q0 6 4 10l260 250q22 22 44 22t44 -22l260 -250q4 -3 4 -8.5t-7.5 -14t-15.5 -8.5q-3 0 -5 1l-246 139q-17 9 -34 9t-34 -9 l-241 -139q-4 -2 -8 -2q-9 0 -17 8t-8 14zM448 616q0 -16 24 -16h359q25 0 25 16q0 5 -2 11l-170 532q-6 20 -18 20t-19 -20l-197 -532q-2 -5 -2 -11z" />
<glyph unicode="&#xc3;" horiz-adv-x="1398" d="M-4 31q0 38 13 38q97 0 129 28t66 104l377 987q6 17 6 30t-13 26.5t-13 19.5t39.5 27.5t92.5 58.5t65 37q23 0 35 -44q26 -97 49 -166l333 -991q39 -117 192 -117q13 0 13 -38t-13 -38q-73 7 -231 7t-230 -7q-14 0 -14 38t14 38q99 0 99 68q0 23 -8 49l-101 313 q-9 32 -44 32h-407q-28 0 -40 -35l-113 -314q-9 -22 -9 -40q0 -73 151 -73q14 0 14 -38t-14 -38q-85 7 -213 7t-212 -7q-13 0 -13 38zM372 1571q0 2 1 4q29 43 50.5 68.5t67.5 53t92 27.5t135.5 -31.5t123.5 -31.5q62 0 133 72q3 2 6 2q5 0 13 -6q9 -8 9 -15q0 -2 -1 -4 q-104 -158 -213 -158q-47 0 -138 33t-142 33q-52 0 -109 -64q-3 -3 -7 -3q-5 0 -11 6q-10 7 -10 14zM448 616q0 -16 24 -16h359q25 0 25 16q0 5 -2 11l-170 532q-6 20 -18 20t-19 -20l-197 -532q-2 -5 -2 -11z" />
<glyph unicode="&#xc4;" horiz-adv-x="1398" d="M-4 31q0 38 13 38q97 0 129 28t66 104l377 987q6 17 6 30t-13 26.5t-13 19.5t39.5 27.5t92.5 58.5t65 37q23 0 35 -44q26 -97 49 -166l333 -991q39 -117 192 -117q13 0 13 -38t-13 -38q-73 7 -231 7t-230 -7q-14 0 -14 38t14 38q99 0 99 68q0 23 -8 49l-101 313 q-9 32 -44 32h-407q-28 0 -40 -35l-113 -314q-9 -22 -9 -40q0 -73 151 -73q14 0 14 -38t-14 -38q-85 7 -213 7t-212 -7q-13 0 -13 38zM371 1658q0 44 31.5 75t75.5 31t75 -31t31 -75t-31 -75.5t-75 -31.5t-75.5 31.5t-31.5 75.5zM448 616q0 -16 24 -16h359q25 0 25 16 q0 5 -2 11l-170 532q-6 20 -18 20t-19 -20l-197 -532q-2 -5 -2 -11zM813 1658q0 44 31 75t75 31t75.5 -31t31.5 -75t-31.5 -75.5t-75.5 -31.5t-75 31.5t-31 75.5z" />
<glyph unicode="&#xc5;" horiz-adv-x="1398" d="M-4 31q0 38 13 38q85 0 125 25.5t70 106.5l436 1142q-122 42 -122 170q0 86 63 133.5t143 47.5t129 -59t49 -122q0 -117 -111 -164q13 -58 51 -172l333 -991q39 -117 192 -117q13 0 13 -38t-13 -38q-73 7 -231 7t-230 -7q-14 0 -14 38t14 38q99 0 99 68q0 23 -8 49 l-101 313q-9 32 -44 32h-407q-28 0 -40 -35l-113 -314q-9 -22 -9 -40q0 -73 151 -73q14 0 14 -38t-14 -38q-80 7 -215 7t-210 -7q-13 0 -13 38zM448 614q0 -14 24 -14h359q24 0 24 14q0 7 -2 13l-169 532q-6 20 -18 20t-19 -20l-197 -532q-2 -5 -2 -13zM608 1513 q0 -60 31 -89.5t72 -29.5q49 0 74 36t25 83q0 53 -28 85.5t-71 32.5q-52 0 -77.5 -38.5t-25.5 -79.5z" />
<glyph unicode="&#xc6;" horiz-adv-x="1742" d="M-126 31q0 38 13 38q120 0 179 103l576 1024q16 28 16 45q0 41 -83 41q-13 0 -13 38t13 38q139 -6 274.5 -6t330.5 3t333 3q47 0 57 -7t10 -26v-319q0 -13 -37.5 -13t-37.5 13q0 132 -83.5 203.5t-178.5 73.5l-269 6q-41 1 -41 -40v-538q0 -35 35 -35h213q101 0 101 93 v95q0 13 34.5 13t34.5 -13q-6 -57 -6 -216.5t6 -211.5q0 -13 -34.5 -13t-34.5 13v84q0 87 -101 87h-213q-35 0 -35 -34v-273q0 -122 51.5 -181t116.5 -57l238 7q89 3 168.5 77t79.5 198q0 18 37.5 18t37.5 -18v-325q0 -26 -100 -26q-104 0 -334.5 3.5t-364 3.5t-260.5 -7 q-13 0 -13 38t13 38q170 0 170 108v396q0 34 -33 34h-317q-29 0 -41 -24l-210 -415q-12 -24 -12 -40q0 -59 152 -59q14 0 14 -38t-14 -38q-74 7 -209 7t-216 -7q-13 0 -13 38zM448 690q0 -14 22 -14h270q33 0 33 35v479q0 27 -19 27q-20 0 -30 -21l-272 -491q-4 -7 -4 -15z " />
<glyph unicode="&#xc7;" horiz-adv-x="1344" d="M91 647q0 223 95.5 387.5t248.5 257.5t377 93q110 0 268 -30l21 -4q126 -24 129 -24q29 -134 29 -311q-4 -16 -35.5 -16t-33.5 14q-28 300 -407 300q-204 0 -352.5 -184t-148.5 -423q0 -283 145 -471t353 -188q354 0 452 269q4 11 28.5 11t34.5 -8q4 -3 4 -14 q-37 -191 -90 -270q-32 -4 -77 -17q-147 -46 -376 -46q-178 0 -329.5 86t-243.5 237.5t-92 350.5zM526 -393q0 53 51 53q23 0 57 -28q37 -31 51 -31q56 0 56 63q0 80 -135 142l123 182h73l-71 -98q127 -78 127 -174q0 -83 -77 -137q-60 -44 -136 -44q-119 0 -119 72z" />
<glyph unicode="&#xc8;" horiz-adv-x="1235" d="M70 30.5q0 37.5 14 38.5q187 0 187 108v995q0 110 -187 110q-14 0 -14 38t14 38q140 -6 270.5 -6t350.5 3t312 3q51 0 61.5 -7t10.5 -20v-321q0 -17 -37.5 -17t-37.5 17q0 266 -258 272l-284 7q-41 1 -41 -48v-532q0 -33 28 -33h206q78 0 97.5 29t19.5 88v74 q0 13 35 13.5t35 -13.5q-8 -71 -8 -214t8 -223q0 -13 -35 -13.5t-35 13.5v82q0 43 -19.5 69t-97.5 26h-209q-25 0 -25 -31v-314q0 -113 65 -168q38 -32 91 -32l235 7q259 8 259 271q0 17 37.5 17t37.5 -17v-317q0 -25 -28 -28q-16 -2 -45 -2q-115 0 -355 3.5t-369 3.5 t-275 -7q-14 0 -14 37.5zM363 1809.5q0 21.5 27.5 58t46.5 36.5t29 -7l414 -299q24 -17 24 -31t-9 -28.5t-25.5 -14.5t-36.5 11l-449 241q-21 12 -21 33.5z" />
<glyph unicode="&#xc9;" horiz-adv-x="1235" d="M70 30.5q0 37.5 14 38.5q187 0 187 108v995q0 110 -187 110q-14 0 -14 38t14 38q140 -6 270.5 -6t350.5 3t312 3q51 0 61.5 -7t10.5 -20v-321q0 -17 -37.5 -17t-37.5 17q0 266 -258 272l-284 7q-41 1 -41 -48v-532q0 -33 28 -33h206q78 0 97.5 29t19.5 88v74 q0 13 35 13.5t35 -13.5q-8 -71 -8 -214t8 -223q0 -13 -35 -13.5t-35 13.5v82q0 43 -19.5 69t-97.5 26h-209q-25 0 -25 -31v-314q0 -113 65 -168q38 -32 91 -32l235 7q259 8 259 271q0 17 37.5 17t37.5 -17v-317q0 -25 -28 -28q-16 -2 -45 -2q-115 0 -355 3.5t-369 3.5 t-275 -7q-14 0 -14 37.5zM435 1567.5q0 14.5 24 30.5l414 299q10 7 29 7t47 -36.5t28 -57.5t-22 -34l-449 -241q-20 -11 -37 -11t-25.5 14.5t-8.5 29z" />
<glyph unicode="&#xca;" horiz-adv-x="1235" d="M70 30.5q0 37.5 14 38.5q187 0 187 108v995q0 110 -187 110q-14 0 -14 38t14 38q140 -6 270.5 -6t350.5 3t312 3q51 0 61.5 -7t10.5 -20v-321q0 -17 -37.5 -17t-37.5 17q0 266 -258 272l-284 7q-41 1 -41 -48v-532q0 -33 28 -33h206q78 0 97.5 29t19.5 88v74 q0 13 35 13.5t35 -13.5q-8 -71 -8 -214t8 -223q0 -13 -35 -13.5t-35 13.5v82q0 43 -19.5 69t-97.5 26h-209q-25 0 -25 -31v-314q0 -113 65 -168q38 -32 91 -32l235 7q259 8 259 271q0 17 37.5 17t37.5 -17v-317q0 -25 -28 -28q-16 -2 -45 -2q-115 0 -355 3.5t-369 3.5 t-275 -7q-14 0 -14 37.5zM324 1547q0 6 4 10l260 250q22 22 44 22t44 -22l260 -250q4 -3 4 -8.5t-7.5 -14t-15.5 -8.5q-3 0 -5 1l-246 139q-17 9 -34 9t-34 -9l-241 -139q-4 -2 -8 -2q-9 0 -17 8t-8 14z" />
<glyph unicode="&#xcb;" horiz-adv-x="1235" d="M70 30.5q0 37.5 14 38.5q187 0 187 108v995q0 110 -187 110q-14 0 -14 38t14 38q140 -6 270.5 -6t350.5 3t312 3q51 0 61.5 -7t10.5 -20v-321q0 -17 -37.5 -17t-37.5 17q0 266 -258 272l-284 7q-41 1 -41 -48v-532q0 -33 28 -33h206q78 0 97.5 29t19.5 88v74 q0 13 35 13.5t35 -13.5q-8 -71 -8 -214t8 -223q0 -13 -35 -13.5t-35 13.5v82q0 43 -19.5 69t-97.5 26h-209q-25 0 -25 -31v-314q0 -113 65 -168q38 -32 91 -32l235 7q259 8 259 271q0 17 37.5 17t37.5 -17v-317q0 -25 -28 -28q-16 -2 -45 -2q-115 0 -355 3.5t-369 3.5 t-275 -7q-14 0 -14 37.5zM299 1658q0 44 31.5 75t75.5 31t75 -31t31 -75t-31 -75.5t-75 -31.5t-75.5 31.5t-31.5 75.5zM741 1658q0 44 31 75t75 31t75.5 -31t31.5 -75t-31.5 -75.5t-75.5 -31.5t-75 31.5t-31 75.5z" />
<glyph unicode="&#xcc;" horiz-adv-x="683" d="M-21 1809.5q0 21.5 27.5 58t46.5 36.5t29 -7l414 -299q24 -16 24 -30.5t-9 -29t-26 -14.5t-36 11l-449 241q-21 12 -21 33.5zM68 1325q0 38 14 38q45 -5 264.5 -5t264.5 5q13 0 13 -38t-13 -38q-105 0 -142.5 -25t-37.5 -90v-986q0 -117 180 -117q13 0 13 -38t-13 -38 q-86 7 -259 7t-259 -7q-13 0 -13 38t13 38q178 0 178 117v986q0 115 -189 115q-14 0 -14 38z" />
<glyph unicode="&#xcd;" horiz-adv-x="683" d="M68 1325q0 38 14 38q45 -5 264.5 -5t264.5 5q13 0 13 -38t-13 -38q-105 0 -142.5 -25t-37.5 -90v-986q0 -117 180 -117q13 0 13 -38t-13 -38q-86 7 -259 7t-259 -7q-13 0 -13 38t13 38q178 0 178 117v986q0 115 -189 115q-14 0 -14 38zM220 1567.5q0 14.5 24 30.5 l414 299q10 7 29 7t47 -36.5t28 -57.5t-22 -34l-449 -241q-20 -11 -37 -11t-25.5 14.5t-8.5 29z" />
<glyph unicode="&#xce;" horiz-adv-x="683" d="M34 1547q0 6 4 10l260 250q22 22 44 22t44 -22l260 -250q4 -3 4 -8.5t-7.5 -14t-15.5 -8.5q-3 0 -5 1l-246 139q-17 9 -34 9t-34 -9l-241 -139q-4 -2 -8 -2q-9 0 -17 8t-8 14zM68 1325q0 38 14 38q45 -5 264.5 -5t264.5 5q13 0 13 -38t-13 -38q-105 0 -142.5 -25 t-37.5 -90v-986q0 -117 180 -117q13 0 13 -38t-13 -38q-86 7 -259 7t-259 -7q-13 0 -13 38t13 38q178 0 178 117v986q0 115 -189 115q-14 0 -14 38z" />
<glyph unicode="&#xcf;" horiz-adv-x="683" d="M19 1658q0 44 31.5 75t75.5 31t75 -31t31 -75t-31 -75.5t-75 -31.5t-75.5 31.5t-31.5 75.5zM68 1325q0 38 14 38q45 -5 264.5 -5t264.5 5q13 0 13 -38t-13 -38q-105 0 -142.5 -25t-37.5 -90v-986q0 -117 180 -117q13 0 13 -38t-13 -38q-86 7 -259 7t-259 -7q-13 0 -13 38 t13 38q178 0 178 117v986q0 115 -189 115q-14 0 -14 38zM461 1658q0 44 31 75t75 31t75.5 -31t31.5 -75t-31.5 -75.5t-75.5 -31.5t-75 31.5t-31 75.5z" />
<glyph unicode="&#xd0;" horiz-adv-x="1525" d="M52 672q0 38 13 38h172q34 0 34 35v427q0 110 -189 110q-14 0 -14 38t14 38q140 -6 238.5 -6t204.5 3t178 3q303 0 516 -164t213 -465q0 -349 -193.5 -542.5t-487.5 -193.5q-68 0 -200.5 3.5t-231.5 3.5t-228 -7q-13 0 -13 38t13 38q180 0 180 117v414q0 34 -34 34h-172 q-13 0 -13 38zM431 298q0 -142 52 -193.5t199 -51.5q243 0 401 178t158 485q0 240 -170 410.5t-450 170.5q-120 0 -155 -23.5t-35 -92.5v-436q0 -35 35 -35h221q13 0 13 -38t-13 -38h-221q-35 0 -35 -34v-302z" />
<glyph unicode="&#xd1;" horiz-adv-x="1482" d="M56 1325q0 38 13 38q44 -5 149 -5t137 -7.5t59 -41.5l758 -977q10 -13 24 -13q23 0 23 33v819q0 116 -171 116q-14 0 -14 38t14 38q46 -5 187.5 -5t187.5 5q13 0 13 -38t-13 -38q-136 0 -136 -116v-1142q0 -50 -17 -50q-18 0 -42 30l-867 1095q-11 13 -22 13t-11 -18 v-913q0 -117 159 -117q13 0 13 -38t-13 -38q-81 7 -197.5 7t-199.5 -7q-14 0 -14 38t14 38q167 0 167 117v924q0 101 -45.5 139t-142.5 38q-13 0 -13 38zM426 1571q0 2 1 4q29 43 50.5 68.5t67.5 53t92 27.5t135.5 -31.5t123.5 -31.5q62 0 133 72q3 2 6 2q5 0 13 -6 q9 -8 9 -15q0 -2 -1 -4q-104 -158 -213 -158q-47 0 -138 33t-142 33q-52 0 -109 -64q-3 -3 -7 -3q-5 0 -11 6q-10 7 -10 14z" />
<glyph unicode="&#xd2;" horiz-adv-x="1461" d="M91 667q0 263 176 490.5t473 227.5q266 0 454.5 -208t188.5 -514q0 -256 -174 -473t-474 -217q-290 0 -467 205t-177 489zM282 726q0 -310 150 -494t317 -184q212 0 327.5 173t115.5 426q0 279 -145.5 473t-319.5 194q-210 0 -327.5 -181t-117.5 -407zM349 1809.5 q0 21.5 27.5 58t46.5 36.5t29 -7l414 -299q24 -16 24 -30.5t-9 -29t-26 -14.5t-36 11l-449 241q-21 12 -21 33.5z" />
<glyph unicode="&#xd3;" horiz-adv-x="1461" d="M91 667q0 263 176 490.5t473 227.5q266 0 454.5 -208t188.5 -514q0 -256 -174 -473t-474 -217q-290 0 -467 205t-177 489zM282 726q0 -310 150 -494t317 -184q212 0 327.5 173t115.5 426q0 279 -145.5 473t-319.5 194q-210 0 -327.5 -181t-117.5 -407zM625 1567.5 q0 14.5 24 30.5l414 299q10 7 29 7t47 -36.5t28 -57.5t-22 -34l-449 -241q-20 -11 -37 -11t-25.5 14.5t-8.5 29z" />
<glyph unicode="&#xd4;" horiz-adv-x="1461" d="M91 667q0 263 176 490.5t473 227.5q266 0 454.5 -208t188.5 -514q0 -256 -174 -473t-474 -217q-290 0 -467 205t-177 489zM282 726q0 -310 150 -494t317 -184q212 0 327.5 173t115.5 426q0 279 -145.5 473t-319.5 194q-210 0 -327.5 -181t-117.5 -407zM429 1547q0 6 4 10 l260 250q22 22 44 22t44 -22l260 -250q4 -3 4 -8.5t-7.5 -14t-15.5 -8.5q-3 0 -5 1l-246 139q-17 9 -34 9t-34 -9l-241 -139q-4 -2 -8 -2q-9 0 -17 8t-8 14z" />
<glyph unicode="&#xd5;" horiz-adv-x="1461" d="M91 667q0 263 176 490.5t473 227.5q266 0 454.5 -208t188.5 -514q0 -256 -174 -473t-474 -217q-290 0 -467 205t-177 489zM282 726q0 -310 150 -494t317 -184q212 0 327.5 173t115.5 426q0 279 -145.5 473t-319.5 194q-210 0 -327.5 -181t-117.5 -407zM396 1571q0 2 1 4 q29 43 50.5 68.5t67.5 53t92 27.5t135.5 -31.5t123.5 -31.5q62 0 133 72q3 2 6 2q5 0 13 -6q9 -8 9 -15q0 -2 -1 -4q-104 -158 -213 -158q-47 0 -138 33t-142 33q-52 0 -109 -64q-3 -3 -7 -3q-5 0 -11 6q-10 7 -10 14z" />
<glyph unicode="&#xd6;" horiz-adv-x="1461" d="M91 667q0 263 176 490.5t473 227.5q266 0 454.5 -208t188.5 -514q0 -256 -174 -473t-474 -217q-290 0 -467 205t-177 489zM282 726q0 -310 150 -494t317 -184q212 0 327.5 173t115.5 426q0 279 -145.5 473t-319.5 194q-210 0 -327.5 -181t-117.5 -407zM414 1658 q0 44 31 75t75 31t75.5 -31t31.5 -75t-31.5 -75.5t-75.5 -31.5t-75 31.5t-31 75.5zM856 1658q0 44 31 75t75 31t75.5 -31t31.5 -75t-31.5 -75.5t-75.5 -31.5t-75 31.5t-31 75.5z" />
<glyph unicode="&#xd7;" horiz-adv-x="786" d="M70 98l241 244l-241 242l86 86l241 -244l244 244l84 -86l-242 -242l242 -244l-84 -86l-244 244l-241 -244z" />
<glyph unicode="&#xd8;" horiz-adv-x="1461" d="M91 667q0 263 176 490.5t473 227.5q266 0 454.5 -208t188.5 -514q0 -256 -174 -473t-474 -217q-290 0 -467 205t-177 489zM165 46q0 3 1 4l1070 1275q4 4 10 4q12 0 32 -17q27 -21 27 -35q0 -4 -2 -8l-1071 -1275q-3 -3 -7 -3q-12 0 -37 22q-23 24 -23 33zM282 726 q0 -310 150 -494t317 -184q212 0 327.5 173t115.5 426q0 279 -145.5 473t-319.5 194q-210 0 -327.5 -181t-117.5 -407z" />
<glyph unicode="&#xd9;" horiz-adv-x="1497" d="M58 1325q0 38 13 38q44 -5 276 -5t278 5q13 0 13 -38t-13 -38q-206 0 -206 -115v-631q0 -301 104.5 -397t259.5 -96q193 0 294.5 100.5t101.5 338.5v685q0 115 -188 115q-13 0 -13 38t13 38q45 -5 239 -5t239 5q13 0 13 -38t-13 -38q-180 0 -180 -115v-443 q0 -353 -52.5 -476t-166 -201.5t-312.5 -78.5q-191 0 -300.5 62.5t-155.5 188t-46 315.5v633q0 115 -185 115q-13 0 -13 38zM374 1809.5q0 21.5 27.5 58t46.5 36.5t29 -7l414 -299q24 -16 24 -30.5t-9 -29t-26 -14.5t-36 11l-449 241q-21 12 -21 33.5z" />
<glyph unicode="&#xda;" horiz-adv-x="1497" d="M58 1325q0 38 13 38q44 -5 276 -5t278 5q13 0 13 -38t-13 -38q-206 0 -206 -115v-631q0 -301 104.5 -397t259.5 -96q193 0 294.5 100.5t101.5 338.5v685q0 115 -188 115q-13 0 -13 38t13 38q45 -5 239 -5t239 5q13 0 13 -38t-13 -38q-180 0 -180 -115v-443 q0 -353 -52.5 -476t-166 -201.5t-312.5 -78.5q-191 0 -300.5 62.5t-155.5 188t-46 315.5v633q0 115 -185 115q-13 0 -13 38zM635 1567.5q0 14.5 24 30.5l414 299q10 7 29 7t47 -36.5t28 -57.5t-22 -34l-449 -241q-20 -11 -37 -11t-25.5 14.5t-8.5 29z" />
<glyph unicode="&#xdb;" horiz-adv-x="1497" d="M58 1325q0 38 13 38q44 -5 276 -5t278 5q13 0 13 -38t-13 -38q-206 0 -206 -115v-631q0 -301 104.5 -397t259.5 -96q193 0 294.5 100.5t101.5 338.5v685q0 115 -188 115q-13 0 -13 38t13 38q45 -5 239 -5t239 5q13 0 13 -38t-13 -38q-180 0 -180 -115v-443 q0 -353 -52.5 -476t-166 -201.5t-312.5 -78.5q-191 0 -300.5 62.5t-155.5 188t-46 315.5v633q0 115 -185 115q-13 0 -13 38zM464 1547q0 6 4 10l260 250q22 22 44 22t44 -22l260 -250q4 -3 4 -8.5t-7.5 -14t-15.5 -8.5q-3 0 -5 1l-246 139q-17 9 -34 9t-34 -9l-241 -139 q-4 -2 -8 -2q-9 0 -17 8t-8 14z" />
<glyph unicode="&#xdc;" horiz-adv-x="1497" d="M58 1325q0 38 13 38q44 -5 276 -5t278 5q13 0 13 -38t-13 -38q-206 0 -206 -115v-631q0 -301 104.5 -397t259.5 -96q193 0 294.5 100.5t101.5 338.5v685q0 115 -188 115q-13 0 -13 38t13 38q45 -5 239 -5t239 5q13 0 13 -38t-13 -38q-180 0 -180 -115v-443 q0 -353 -52.5 -476t-166 -201.5t-312.5 -78.5q-191 0 -300.5 62.5t-155.5 188t-46 315.5v633q0 115 -185 115q-13 0 -13 38zM471 1658q0 44 31.5 75t75.5 31t75 -31t31 -75t-31 -75.5t-75 -31.5t-75.5 31.5t-31.5 75.5zM913 1658q0 44 31 75t75 31t75.5 -31t31.5 -75 t-31.5 -75.5t-75.5 -31.5t-75 31.5t-31 75.5z" />
<glyph unicode="&#xdd;" horiz-adv-x="1235" d="M-26 1325q0 38 13 38q44 -5 236.5 -5t239.5 5q13 0 13 -38t-13 -38q-121 0 -121 -57q0 -23 21 -58l281 -472q8 -14 16 -14q7 0 16 14l298 463q27 42 27 71q0 53 -111 53q-14 0 -14 38t14 38q45 -5 197.5 -5t197.5 5q13 0 13 -38t-13 -38q-139 0 -211 -109l-308 -473 q-65 -100 -71 -129.5t-6 -86.5v-303q0 -117 164 -117q13 0 13 -38t-13 -38q-75 7 -244 7t-244 -7q-13 0 -13 38t13 38q164 0 164 117v301q0 101 -28 147l-326 538q-70 115 -188 115q-13 0 -13 38zM510 1567.5q0 14.5 24 30.5l414 299q10 7 29 7t47 -36.5t28 -57.5t-22 -34 l-449 -241q-20 -11 -37 -11t-25.5 14.5t-8.5 29z" />
<glyph unicode="&#xde;" horiz-adv-x="1157" d="M30.5 1279q-0.5 38 13.5 38q99 0 275 61q25 7 38 7q31 0 31 -40q-8 -89 -8 -157v-51q0 -31 15 -31q9 0 24 10q68 46 111 80.5t97.5 82.5t116.5 48q61 0 87 -20q118 -92 178.5 -245.5t60.5 -320.5q0 -258 -183.5 -487t-467.5 -271q-38 -6 -39 -45v-213q0 -58 -86 -124 l-150 -117q-5 -4 -14 -4q-31 0 -54.5 30.5t-23.5 45t7 20.5l109 90q52 43 52 101v1339q0 135 -176 135q-13 0 -13.5 38zM380 90q0 -31 27 -32q208 0 340 215.5t132 467.5q0 121 -70.5 295.5t-145.5 174.5q-18 0 -36 -15q-107 -95 -145.5 -122t-70 -44.5t-31.5 -45.5v-894z " />
<glyph unicode="&#xdf;" horiz-adv-x="1085" d="M72 20.5q0 28.5 14 28.5q117 0 117 76v567q0 21 -25 21h-86q-15 0 -15 27.5t15 27.5q59 0 91 66q20 41 20 90q0 254 141 408.5t330 154.5q127 0 209 -83.5t82 -203.5q0 -127 -151.5 -259.5t-151.5 -213.5q0 -49 25.5 -86t132.5 -91t156.5 -118t49.5 -166 q0 -138 -87 -214.5t-204 -76.5q-77 0 -166 60q-16 57 -16 162q0 14 20.5 14t26.5 -14q0 -66 51.5 -112t110.5 -46t103 52.5t44 103.5q0 133 -122.5 199t-181 127t-58.5 157t63 158l99 96q72 70 91 128.5t19 125.5q0 103 -60.5 161t-154.5 58q-112 0 -172 -71.5t-69 -172.5 t-9 -260v-774q0 -78 125 -78q14 0 14 -28.5t-14 -28.5q-80 8 -196 8t-197 -8q-14 0 -14 28.5z" />
<glyph unicode="&#xe0;" horiz-adv-x="797" d="M74 609q0 56 40.5 112.5t69.5 73.5q128 75 246 75q71 0 137.5 -40t66.5 -99v-532q0 -115 67 -115q19 0 72 37q3 2 7 2q22 -3 29 -30q0 -3 -1 -5q-41 -69 -76 -90t-92 -21q-105 0 -142 136q-76 -76 -121 -106t-132 -30q-56 0 -93 31t-52.5 71.5t-15.5 82.5q0 41 20 82 t58.5 73.5t66.5 47.5l232 129q20 11 20 32v181q0 88 -133 88q-97 0 -135 -50q-5 -7 -15 -93q-12 -99 -69 -99q-55 0 -55 56zM221 1335q0 26 40 45q22 11 41 11q24 0 31 -16l132 -294q4 -11 4 -20q0 -39 -35 -39q-23 0 -41 29l-168 271q-4 5 -4 13zM237 188q0 -49 31.5 -79.5 t87.5 -30.5q40 0 82.5 42.5t42.5 78.5v215q0 22 -14 22q-7 0 -60 -26q-170 -86 -170 -222z" />
<glyph unicode="&#xe1;" horiz-adv-x="797" d="M74 609q0 56 40.5 112.5t69.5 73.5q128 75 246 75q71 0 137.5 -40t66.5 -99v-532q0 -115 67 -115q19 0 72 37q3 2 7 2q22 -3 29 -30q0 -3 -1 -5q-41 -69 -76 -90t-92 -21q-105 0 -142 136q-76 -76 -121 -106t-132 -30q-56 0 -93 31t-52.5 71.5t-15.5 82.5q0 41 20 82 t58.5 73.5t66.5 47.5l232 129q20 11 20 32v181q0 88 -133 88q-97 0 -135 -50q-5 -7 -15 -93q-12 -99 -69 -99q-55 0 -55 56zM237 188q0 -49 31.5 -79.5t87.5 -30.5q40 0 82.5 42.5t42.5 78.5v215q0 22 -14 22q-7 0 -60 -26q-170 -86 -170 -222zM346 1059q0 12 5 22l135 307 q6 13 25 13q34 0 70 -29q20 -16 20 -29q0 -3 -2 -7l-179 -285q-18 -29 -41 -29q-33 0 -33 37z" />
<glyph unicode="&#xe2;" horiz-adv-x="797" d="M74 609q0 56 40.5 112.5t69.5 73.5q128 75 246 75q71 0 137.5 -40t66.5 -99v-532q0 -115 67 -115q19 0 72 37q3 2 7 2q22 -3 29 -30q0 -3 -1 -5q-41 -69 -76 -90t-92 -21q-105 0 -142 136q-76 -76 -121 -106t-132 -30q-56 0 -93 31t-52.5 71.5t-15.5 82.5q0 41 20 82 t58.5 73.5t66.5 47.5l232 129q20 11 20 32v181q0 88 -133 88q-97 0 -135 -50q-5 -7 -15 -93q-12 -99 -69 -99q-55 0 -55 56zM143 1045l211 375q16 28 38 28t38 -28l211 -375q0 -23 -29 -23q-3 0 -6 4l-184 217q-21 25 -30 25q-8 0 -29 -25l-185 -217q-3 -4 -8 -4 q-27 0 -27 23zM237 188q0 -49 31.5 -79.5t87.5 -30.5q40 0 82.5 42.5t42.5 78.5v215q0 22 -14 22q-7 0 -60 -26q-170 -86 -170 -222z" />
<glyph unicode="&#xe3;" horiz-adv-x="797" d="M74 609q0 56 40.5 112.5t69.5 73.5q128 75 246 75q71 0 137.5 -40t66.5 -99v-532q0 -115 67 -115q19 0 72 37q3 2 7 2q22 -3 29 -30q0 -3 -1 -5q-41 -69 -76 -90t-92 -21q-105 0 -142 136q-76 -76 -121 -106t-132 -30q-56 0 -93 31t-52.5 71.5t-15.5 82.5q0 41 20 82 t58.5 73.5t66.5 47.5l232 129q20 11 20 32v181q0 88 -133 88q-97 0 -135 -50q-5 -7 -15 -93q-12 -99 -69 -99q-55 0 -55 56zM74 1068q0 1 1 2q92 143 201 143q44 0 137 -33q72 -26 106 -26q57 0 125 68q1 1 3 1q5 0 15 -8q10 -9 10 -20q0 -4 -1 -8q-14 -41 -87 -90 q-71 -47 -116 -47q-49 0 -137 34q-76 29 -117 29q-54 0 -115 -61q-4 -4 -8 -4t-8 4q-9 11 -9 16zM237 188q0 -49 31.5 -79.5t87.5 -30.5q40 0 82.5 42.5t42.5 78.5v215q0 22 -14 22q-7 0 -60 -26q-170 -86 -170 -222z" />
<glyph unicode="&#xe4;" horiz-adv-x="797" d="M74 609q0 56 40.5 112.5t69.5 73.5q128 75 246 75q71 0 137.5 -40t66.5 -99v-532q0 -115 67 -115q19 0 72 37q3 2 7 2q22 -3 29 -30q0 -3 -1 -5q-41 -69 -76 -90t-92 -21q-105 0 -142 136q-76 -76 -121 -106t-132 -30q-56 0 -93 31t-52.5 71.5t-15.5 82.5q0 41 20 82 t58.5 73.5t66.5 47.5l232 129q20 11 20 32v181q0 88 -133 88q-97 0 -135 -50q-5 -7 -15 -93q-12 -99 -69 -99q-55 0 -55 56zM94 1156q0 45 31.5 76.5t76.5 31.5t76.5 -31.5t31.5 -76.5t-31.5 -76.5t-76.5 -31.5t-76.5 31.5t-31.5 76.5zM237 188q0 -49 31.5 -79.5t87.5 -30.5 q40 0 82.5 42.5t42.5 78.5v215q0 22 -14 22q-7 0 -60 -26q-170 -86 -170 -222zM476 1156q0 45 31.5 76.5t76 31.5t76 -31.5t31.5 -76.5t-31.5 -76.5t-76 -31.5t-76 31.5t-31.5 76.5z" />
<glyph unicode="&#xe5;" horiz-adv-x="797" d="M74 609q0 56 40.5 112.5t69.5 73.5q128 75 246 75q71 0 137.5 -40t66.5 -99v-532q0 -115 67 -115q19 0 72 37q3 2 7 2q22 -3 29 -30q0 -3 -1 -5q-41 -69 -76 -90t-92 -21q-105 0 -142 136q-76 -76 -121 -106t-132 -30q-56 0 -93 31t-52.5 71.5t-15.5 82.5q0 41 20 82 t58.5 73.5t66.5 47.5l232 129q20 11 20 32v181q0 88 -133 88q-97 0 -135 -50q-5 -7 -15 -93q-12 -99 -69 -99q-55 0 -55 56zM182 1165q0 96 77 153q55 41 128 41q94 0 154 -66q50 -61 50 -128q0 -91 -72 -149q-57 -46 -132 -46q-105 0 -163 75q-39 50 -42 120zM237 188 q0 -49 31.5 -79.5t87.5 -30.5q40 0 82.5 42.5t42.5 78.5v215q0 22 -14 22q-7 0 -60 -26q-170 -86 -170 -222zM278 1165q0 -71 48 -107q27 -20 61 -20q64 0 94 61q14 29 14 66q0 74 -49 109q-26 18 -59 18q-59 0 -90 -55q-19 -33 -19 -72z" />
<glyph unicode="&#xe6;" horiz-adv-x="1145" d="M45 606q0 103 119.5 183.5t231.5 80.5t173 -84q13 -18 20 -18t34 23q100 79 213 79q114 0 187 -42t73 -99q0 -34 -35 -51l-416 -172q-35 -14 -35 -104q0 -104 75 -206t175 -102q116 0 209 76q11 11 26 0t15 -20.5t-4 -16.5q-112 -156 -330 -156q-148 0 -239 142 q-14 18 -18 18t-17 -16q-105 -131 -219 -131q-217 0 -217 170q0 110 61 165t200.5 114t139.5 98v112q0 144 -135 144q-106 0 -137 -52q-12 -97 -30 -146q-16 -42 -59 -42q-61 0 -61 53zM219 180q0 -106 115 -106q49 0 103.5 59t54.5 86q-7 33 -27 170q-5 35 -21 35 q-8 0 -22 -6q-203 -90 -203 -238zM628 593q0 -22 29 -11l269 108q32 12 32 41t-46.5 53.5t-80.5 24.5q-70 0 -120.5 -53.5t-73.5 -122.5q-9 -25 -9 -40z" />
<glyph unicode="&#xe7;" horiz-adv-x="817" d="M86 396q0 185 122 329.5t315 144.5q196 0 233 -73q6 -12 6 -41q0 -19 -22 -46.5t-39 -27.5t-27 14q-78 107 -173 107t-173.5 -102t-78.5 -261q0 -158 89.5 -254t191.5 -96q77 0 213 62q11 5 24.5 -15.5t13.5 -28.5q0 -6 -5 -11q-26 -24 -107.5 -72t-222.5 -48 q-147 0 -253.5 117t-106.5 302zM203 -381q0 53 51 53q23 0 57 -28q37 -31 51 -31q56 0 56 63q0 80 -135 142l123 182h73l-71 -98q127 -78 127 -174q0 -83 -77 -137q-60 -44 -136 -44q-119 0 -119 72z" />
<glyph unicode="&#xe8;" horiz-adv-x="838" d="M85 431q0 178 113.5 308.5t254.5 130.5t228 -98t87 -160q0 -63 -51 -63h-449q-30 0 -30 -66q0 -160 76.5 -274.5t211.5 -114.5q101 0 201 60q5 3 11 3q12 0 21 -11q7 -7 7 -21q0 -5 -4 -8q-158 -140 -311 -140t-259.5 138t-106.5 316zM261 630q0 -14 24 -14h321 q15 0 15 17q0 44 -54.5 111t-113.5 67q-65 0 -112.5 -43.5t-76.5 -122.5q-3 -8 -3 -15zM290 1335q0 26 40 45q22 11 41 11q24 0 31 -16l132 -294q4 -11 4 -20q0 -39 -35 -39q-23 0 -41 29l-168 271q-4 5 -4 13z" />
<glyph unicode="&#xe9;" horiz-adv-x="838" d="M85 431q0 178 113.5 308.5t254.5 130.5t228 -98t87 -160q0 -63 -51 -63h-449q-30 0 -30 -66q0 -160 76.5 -274.5t211.5 -114.5q101 0 201 60q5 3 11 3q12 0 21 -11q7 -7 7 -21q0 -5 -4 -8q-158 -140 -311 -140t-259.5 138t-106.5 316zM261 630q0 -14 24 -14h321 q15 0 15 17q0 44 -54.5 111t-113.5 67q-65 0 -112.5 -43.5t-76.5 -122.5q-3 -8 -3 -15zM353 1059q0 12 5 22l135 307q6 13 25 13q34 0 70 -29q20 -16 20 -29q0 -3 -2 -7l-179 -285q-18 -29 -41 -29q-33 0 -33 37z" />
<glyph unicode="&#xea;" horiz-adv-x="838" d="M85 431q0 178 113.5 308.5t254.5 130.5t228 -98t87 -160q0 -63 -51 -63h-449q-30 0 -30 -66q0 -160 76.5 -274.5t211.5 -114.5q101 0 201 60q5 3 11 3q12 0 21 -11q7 -7 7 -21q0 -5 -4 -8q-158 -140 -311 -140t-259.5 138t-106.5 316zM206 1045l211 375q16 28 38 28 t38 -28l211 -375q0 -23 -29 -23q-3 0 -6 4l-184 217q-21 25 -30 25q-8 0 -29 -25l-185 -217q-3 -4 -8 -4q-27 0 -27 23zM261 630q0 -14 24 -14h321q15 0 15 17q0 44 -54.5 111t-113.5 67q-65 0 -112.5 -43.5t-76.5 -122.5q-3 -8 -3 -15z" />
<glyph unicode="&#xeb;" horiz-adv-x="838" d="M85 431q0 178 113.5 308.5t254.5 130.5t228 -98t87 -160q0 -63 -51 -63h-449q-30 0 -30 -66q0 -160 76.5 -274.5t211.5 -114.5q101 0 201 60q5 3 11 3q12 0 21 -11q7 -7 7 -21q0 -5 -4 -8q-158 -140 -311 -140t-259.5 138t-106.5 316zM133 1156q0 45 31.5 76.5t76.5 31.5 t76.5 -31.5t31.5 -76.5t-31.5 -76.5t-76.5 -31.5t-76.5 31.5t-31.5 76.5zM261 630q0 -14 24 -14h321q15 0 15 17q0 44 -54.5 111t-113.5 67q-65 0 -112.5 -43.5t-76.5 -122.5q-3 -8 -3 -15zM515 1156q0 45 31.5 76.5t76 31.5t76 -31.5t31.5 -76.5t-31.5 -76.5t-76 -31.5 t-76 31.5t-31.5 76.5z" />
<glyph unicode="&#xec;" horiz-adv-x="524" d="M74 20q0 29 14 29q113 0 113 78v405q0 114 -24 146q-18 24 -60 24q-17 0 -17 27q0 29 17 29q59 0 202 114q15 11 23 11q18 0 18 -21q-6 -65 -6 -131v-604q0 -78 113 -78q14 0 14 -28q0 -29 -14 -29q-76 8 -182 8q-116 0 -197 -8q-14 0 -14 28zM120 1335q0 26 40 45 q22 11 41 11q24 0 31 -16l132 -294q4 -11 4 -20q0 -39 -35 -39q-23 0 -41 29l-168 271q-4 5 -4 13z" />
<glyph unicode="&#xed;" horiz-adv-x="524" d="M74 20q0 29 14 29q113 0 113 78v405q0 114 -24 146q-18 24 -60 24q-17 0 -17 27q0 29 17 29q59 0 202 114q15 11 23 11q18 0 18 -21q-6 -65 -6 -131v-604q0 -78 113 -78q14 0 14 -28q0 -29 -14 -29q-76 8 -182 8q-116 0 -197 -8q-14 0 -14 28zM167 1059q0 12 5 22 l135 307q6 13 25 13q34 0 70 -29q20 -16 20 -29q0 -3 -2 -7l-179 -285q-18 -29 -41 -29q-33 0 -33 37z" />
<glyph unicode="&#xee;" horiz-adv-x="524" d="M35 1045l211 375q16 28 38 28t38 -28l211 -375q0 -23 -29 -23q-3 0 -6 4l-184 217q-21 25 -30 25q-8 0 -29 -25l-185 -217q-3 -4 -8 -4q-27 0 -27 23zM74 20q0 29 14 29q113 0 113 78v405q0 114 -24 146q-18 24 -60 24q-17 0 -17 27q0 29 17 29q59 0 202 114q15 11 23 11 q18 0 18 -21q-6 -65 -6 -131v-604q0 -78 113 -78q14 0 14 -28q0 -29 -14 -29q-76 8 -182 8q-116 0 -197 -8q-14 0 -14 28z" />
<glyph unicode="&#xef;" horiz-adv-x="524" d="M-23 1156q0 45 31.5 76.5t76.5 31.5t76.5 -31.5t31.5 -76.5t-31.5 -76.5t-76.5 -31.5t-76.5 31.5t-31.5 76.5zM74 20q0 29 14 29q113 0 113 78v405q0 114 -24 146q-18 24 -60 24q-17 0 -17 27q0 29 17 29q59 0 202 114q15 11 23 11q18 0 18 -21q-6 -65 -6 -131v-604 q0 -78 113 -78q14 0 14 -28q0 -29 -14 -29q-76 8 -182 8q-116 0 -197 -8q-14 0 -14 28zM359 1156q0 45 31.5 76.5t76 31.5t76 -31.5t31.5 -76.5t-31.5 -76.5t-76 -31.5t-76 31.5t-31.5 76.5z" />
<glyph unicode="&#xf0;" horiz-adv-x="1020" d="M-7 1017q0 6 5 5l84 -21q24 -6 49 13l86 65q8 6 8 11q0 8 -12 16q-86 53 -190 102q-18 9 -8 40.5t24 31.5q55 0 248 -116q10 -6 20 -5q14 0 21 6l307 246q2 2 5.5 2t8.5 -3q35 -28 88 -91q14 -17 14 -22q0 -7 -14 -4l-73 18q-46 11 -74 -11l-203 -165q-12 -10 -12 -16 q0 -7 10 -13q173 -101 285 -191.5t193 -219.5t81 -259q0 -199 -110.5 -329t-309.5 -130q-186 0 -315 131.5t-129 325.5q0 170 133 303t299 133q12 0 12 8.5t-6 14.5q-101 88 -208 154q-7 5 -13 5q-11 0 -23 -10l-187 -150q-2 -2 -3.5 -2t-5.5 2q-14 6 -76 105q-9 14 -9 20z M254 430q0 -173 81 -280t187 -107q93 0 170.5 106t77.5 281q0 171 -83 276t-167 105q-97 0 -181.5 -106.5t-84.5 -274.5z" />
<glyph unicode="&#xf1;" horiz-adv-x="1069" d="M72 20.5q0 28.5 14 28.5q115 0 115 78v447q0 128 -84 128q-17 0 -17 28t17 28q39 0 88 30t86 62.5t52 32.5q14 0 13 -31l-2 -73q-1 -21 14 -21q8 0 15 6q106 106 259 106q148 0 221 -147q33 -66 33 -248v-348q0 -78 115 -78q14 0 14 -28.5t-14 -28.5q-77 8 -187.5 8 t-190.5 -8q-14 0 -14 28.5t14 28.5q110 0 110 78v403q0 84 -14.5 142.5t-45.5 83t-109 24.5q-42 0 -76 -17t-66.5 -40.5t-55 -58t-22.5 -74.5v-463q0 -78 107 -78q14 0 14 -28.5t-14 -28.5q-77 8 -186.5 8t-188.5 -8q-14 0 -14 28.5zM245 1068q0 1 1 2q92 143 201 143 q44 0 137 -33q72 -26 106 -26q57 0 125 68q1 1 3 1q5 0 15 -8q10 -9 10 -20q0 -4 -1 -8q-14 -41 -87 -90q-71 -47 -116 -47q-49 0 -137 34q-76 29 -117 29q-54 0 -115 -61q-4 -4 -8 -4t-8 4q-9 11 -9 16z" />
<glyph unicode="&#xf2;" horiz-adv-x="995" d="M84 428q0 168 125 305t299 137q173 0 294.5 -136.5t121.5 -313.5q0 -176 -111 -309.5t-297 -133.5q-185 0 -308.5 142t-123.5 309zM247 422q0 -177 81.5 -278t175.5 -101t175.5 101t81.5 278q0 176 -80 282.5t-175 106.5q-96 0 -177.5 -105.5t-81.5 -283.5zM327 1335 q0 26 40 45q22 11 41 11q24 0 31 -16l132 -294q4 -11 4 -20q0 -39 -35 -39q-23 0 -41 29l-168 271q-4 5 -4 13z" />
<glyph unicode="&#xf3;" horiz-adv-x="995" d="M84 428q0 168 125 305t299 137q173 0 294.5 -136.5t121.5 -313.5q0 -176 -111 -309.5t-297 -133.5q-185 0 -308.5 142t-123.5 309zM247 422q0 -177 81.5 -278t175.5 -101t175.5 101t81.5 278q0 176 -80 282.5t-175 106.5q-96 0 -177.5 -105.5t-81.5 -283.5zM417 1059 q0 12 5 22l135 307q6 13 25 13q34 0 70 -29q20 -16 20 -29q0 -3 -2 -7l-179 -285q-18 -29 -41 -29q-33 0 -33 37z" />
<glyph unicode="&#xf4;" horiz-adv-x="995" d="M84 428q0 168 125 305t299 137q173 0 294.5 -136.5t121.5 -313.5q0 -176 -111 -309.5t-297 -133.5q-185 0 -308.5 142t-123.5 309zM247 422q0 -177 81.5 -278t175.5 -101t175.5 101t81.5 278q0 176 -80 282.5t-175 106.5q-96 0 -177.5 -105.5t-81.5 -283.5zM262 1045 l211 375q16 28 38 28t38 -28l211 -375q0 -23 -29 -23q-3 0 -6 4l-184 217q-21 25 -30 25q-8 0 -29 -25l-185 -217q-3 -4 -8 -4q-27 0 -27 23z" />
<glyph unicode="&#xf5;" horiz-adv-x="995" d="M84 428q0 168 125 305t299 137q173 0 294.5 -136.5t121.5 -313.5q0 -176 -111 -309.5t-297 -133.5q-185 0 -308.5 142t-123.5 309zM215 1068q0 1 1 2q92 143 201 143q44 0 137 -33q72 -26 106 -26q57 0 125 68q1 1 3 1q5 0 15 -8q10 -9 10 -20q0 -4 -1 -8 q-14 -41 -87 -90q-71 -47 -116 -47q-49 0 -137 34q-76 29 -117 29q-54 0 -115 -61q-4 -4 -8 -4t-8 4q-9 11 -9 16zM247 422q0 -177 81.5 -278t175.5 -101t175.5 101t81.5 278q0 176 -80 282.5t-175 106.5q-96 0 -177.5 -105.5t-81.5 -283.5z" />
<glyph unicode="&#xf6;" horiz-adv-x="995" d="M84 428q0 168 125 305t299 137q173 0 294.5 -136.5t121.5 -313.5q0 -176 -111 -309.5t-297 -133.5q-185 0 -308.5 142t-123.5 309zM202 1156q0 45 31.5 76.5t76.5 31.5t76.5 -31.5t31.5 -76.5t-31.5 -76.5t-76.5 -31.5t-76.5 31.5t-31.5 76.5zM247 422q0 -177 81.5 -278 t175.5 -101t175.5 101t81.5 278q0 176 -80 282.5t-175 106.5q-96 0 -177.5 -105.5t-81.5 -283.5zM584 1156q0 45 31.5 76.5t76 31.5t76 -31.5t31.5 -76.5t-31.5 -76.5t-76 -31.5t-76 31.5t-31.5 76.5z" />
<glyph unicode="&#xf7;" horiz-adv-x="1051" d="M119 371v100h815v-100h-815zM420 132q0 43 30.5 73.5t73.5 30.5t73.5 -30.5t30.5 -73.5t-30.5 -73.5t-73.5 -30.5t-73.5 30.5t-30.5 73.5zM420 710q0 43 30.5 73.5t73.5 30.5t73.5 -30.5t30.5 -73.5t-30.5 -73.5t-73.5 -30.5t-73.5 30.5t-30.5 73.5z" />
<glyph unicode="&#xf8;" horiz-adv-x="995" d="M84 428q0 168 125 305t299 137q173 0 294.5 -136.5t121.5 -313.5q0 -176 -111 -309.5t-297 -133.5q-185 0 -308.5 142t-123.5 309zM135 -30q0 3 2 5l659 940q4 5 11 5q11 0 30 -14q18 -15 18 -26q0 -3 -2 -6l-657 -940q-3 -5 -10 -5q-11 0 -32 15q-19 16 -19 26zM247 422 q0 -177 81.5 -278t175.5 -101t175.5 101t81.5 278q0 176 -80 282.5t-175 106.5q-96 0 -177.5 -105.5t-81.5 -283.5z" />
<glyph unicode="&#xf9;" horiz-adv-x="1036" d="M48 811q0 28 15 28q105 0 169.5 9t83.5 9q20 0 19 -16q-8 -123 -8 -152v-355q0 -115 39.5 -187.5t121.5 -72.5q88 0 156 52t68 126v384q0 147 -111 147q-15 0 -15 28t15 28q123 0 180.5 9t69.5 9q22 0 20 -27q-6 -87 -6 -139v-464q0 -155 82 -145l47 6q17 2 22 -27 q1 -9 1 -15q0 -14 -8 -15q-28 -3 -136.5 -27.5t-137.5 -35.5q-3 -1 -7 -1q-16 0 -16 45v45q0 24 -11.5 24t-27.5 -15q-95 -89 -234 -89q-105 0 -185 106t-80 218v335q0 147 -111 147q-15 0 -15 28zM340 1335q0 26 40 45q22 11 41 11q24 0 31 -16l132 -294q4 -11 4 -20 q0 -39 -35 -39q-23 0 -41 29l-168 271q-4 5 -4 13z" />
<glyph unicode="&#xfa;" horiz-adv-x="1036" d="M48 811q0 28 15 28q105 0 169.5 9t83.5 9q20 0 19 -16q-8 -123 -8 -152v-355q0 -115 39.5 -187.5t121.5 -72.5q88 0 156 52t68 126v384q0 147 -111 147q-15 0 -15 28t15 28q123 0 180.5 9t69.5 9q22 0 20 -27q-6 -87 -6 -139v-464q0 -155 82 -145l47 6q17 2 22 -27 q1 -9 1 -15q0 -14 -8 -15q-28 -3 -136.5 -27.5t-137.5 -35.5q-3 -1 -7 -1q-16 0 -16 45v45q0 24 -11.5 24t-27.5 -15q-95 -89 -234 -89q-105 0 -185 106t-80 218v335q0 147 -111 147q-15 0 -15 28zM431 1059q0 12 5 22l135 307q6 13 25 13q34 0 70 -29q20 -16 20 -29 q0 -3 -2 -7l-179 -285q-18 -29 -41 -29q-33 0 -33 37z" />
<glyph unicode="&#xfb;" horiz-adv-x="1036" d="M48 811q0 28 15 28q105 0 169.5 9t83.5 9q20 0 19 -16q-8 -123 -8 -152v-355q0 -115 39.5 -187.5t121.5 -72.5q88 0 156 52t68 126v384q0 147 -111 147q-15 0 -15 28t15 28q123 0 180.5 9t69.5 9q22 0 20 -27q-6 -87 -6 -139v-464q0 -155 82 -145l47 6q17 2 22 -27 q1 -9 1 -15q0 -14 -8 -15q-28 -3 -136.5 -27.5t-137.5 -35.5q-3 -1 -7 -1q-16 0 -16 45v45q0 24 -11.5 24t-27.5 -15q-95 -89 -234 -89q-105 0 -185 106t-80 218v335q0 147 -111 147q-15 0 -15 28zM241 1045l211 375q16 28 38 28t38 -28l211 -375q0 -23 -29 -23q-3 0 -6 4 l-184 217q-21 25 -30 25q-8 0 -29 -25l-185 -217q-3 -4 -8 -4q-27 0 -27 23z" />
<glyph unicode="&#xfc;" horiz-adv-x="1036" d="M48 811q0 28 15 28q105 0 169.5 9t83.5 9q20 0 19 -16q-8 -123 -8 -152v-355q0 -115 39.5 -187.5t121.5 -72.5q88 0 156 52t68 126v384q0 147 -111 147q-15 0 -15 28t15 28q123 0 180.5 9t69.5 9q22 0 20 -27q-6 -87 -6 -139v-464q0 -155 82 -145l47 6q17 2 22 -27 q1 -9 1 -15q0 -14 -8 -15q-28 -3 -136.5 -27.5t-137.5 -35.5q-3 -1 -7 -1q-16 0 -16 45v45q0 24 -11.5 24t-27.5 -15q-95 -89 -234 -89q-105 0 -185 106t-80 218v335q0 147 -111 147q-15 0 -15 28zM205 1156q0 45 31.5 76.5t76.5 31.5t76.5 -31.5t31.5 -76.5t-31.5 -76.5 t-76.5 -31.5t-76.5 31.5t-31.5 76.5zM587 1156q0 45 31.5 76.5t76 31.5t76 -31.5t31.5 -76.5t-31.5 -76.5t-76 -31.5t-76 31.5t-31.5 76.5z" />
<glyph unicode="&#xfd;" horiz-adv-x="838" d="M-53 829.5q0 26.5 14 26.5q57 -6 184 -6t187 6q14 0 14 -26.5t-14 -26.5q-96 0 -96 -55q0 -16 4 -29l174 -504q10 -31 25 -31t28 33l195 502q6 13 6 26q0 58 -129 58q-14 0 -14 26.5t14 26.5q57 -6 163 -6t164 6q14 0 14 -26.5t-14 -26.5q-96 0 -125 -72l-442 -1149 q-25 -64 -73.5 -99.5t-104.5 -35.5q-40 0 -65 25t-25 51q0 76 94.5 76t120.5 63l96 240q11 25 11 39t-13 51l-258 739q-26 72 -121 72q-14 0 -14 26.5zM352 1059q0 12 5 22l135 307q6 13 25 13q34 0 70 -29q20 -16 20 -29q0 -3 -2 -7l-179 -285q-18 -29 -41 -29 q-33 0 -33 37z" />
<glyph unicode="&#xfe;" horiz-adv-x="909" d="M65 1336.5q0 27.5 15 27.5q41 0 120.5 46t94.5 60.5t27 14.5q14 0 13 -27q-8 -172 -8 -219v-442q0 -25 10 -25t22 14q72 84 166 84q130 0 223 -92.5t93 -257.5q0 -222 -157.5 -369.5t-326.5 -170.5q-30 -4 -30 -31v-367q0 -58 -58 -78l-175 -61q-1 -1 -4 -1 q-11 0 -17.5 12.5t-6.5 26.5q0 11 6 15l80 53q22 15 22 58v1549q0 153 -94 153q-15 0 -15 27.5zM327 90q0 -39 24 -39q50 0 129.5 50.5t133 156t53.5 213.5q0 141 -41 233.5t-123 92.5t-152 -117q-24 -40 -24 -94v-496z" />
<glyph unicode="&#xff;" horiz-adv-x="838" d="M-53 829.5q0 26.5 14 26.5q57 -6 184 -6t187 6q14 0 14 -26.5t-14 -26.5q-96 0 -96 -55q0 -16 4 -29l174 -504q10 -31 25 -31t28 33l195 502q6 13 6 26q0 58 -129 58q-14 0 -14 26.5t14 26.5q57 -6 163 -6t164 6q14 0 14 -26.5t-14 -26.5q-96 0 -125 -72l-442 -1149 q-25 -64 -73.5 -99.5t-104.5 -35.5q-40 0 -65 25t-25 51q0 76 94.5 76t120.5 63l96 240q11 25 11 39t-13 51l-258 739q-26 72 -121 72q-14 0 -14 26.5zM109 1156q0 45 31.5 76.5t76.5 31.5t76.5 -31.5t31.5 -76.5t-31.5 -76.5t-76.5 -31.5t-76.5 31.5t-31.5 76.5zM491 1156 q0 45 31.5 76.5t76 31.5t76 -31.5t31.5 -76.5t-31.5 -76.5t-76 -31.5t-76 31.5t-31.5 76.5z" />
<glyph unicode="&#x152;" horiz-adv-x="1937" d="M91 667q0 244 165 462q175 231 485 231q45 0 109 -4q70 -4 112 -4h88h239q94 0 217 3q130 3 213 3q73 0 73 -19v-329q0 -18 -34 -18q-41 0 -41 18q0 266 -257 272l-285 7q-40 1 -40 -48v-530q0 -35 34 -35h198q117 0 117 117v74q0 14 35 14q36 0 36 -14q-7 -105 -7 -227 q0 -102 7 -210q0 -15 -35 -15q-36 0 -36 15v82q0 95 -117 95h-198q-34 0 -34 -34v-311q0 -115 65 -169q38 -31 90 -31h7l227 7q163 5 226 120q34 63 34 151q0 19 34 19q41 0 41 -19v-317q0 -27 -28 -29q-13 -1 -45 -1q-83 0 -304 3q-282 4 -388 4h-44q-57 0 -158 -4 q-88 -3 -154 -3q-225 0 -386 106q-106 70 -179 211q-82 161 -82 357zM282 726q0 -330 182 -518q137 -140 292 -140q218 0 218 109v995q0 117 -233 117q-185 0 -278 -103q-181 -198 -181 -460z" />
<glyph unicode="&#x153;" horiz-adv-x="1522" d="M76 424q0 172 123 307q127 139 297 139q210 0 335 -186q117 186 295 186q144 0 240 -108q78 -88 78 -158q0 -55 -51 -55h-449q-31 0 -31 -66q0 -171 82 -282q79 -107 207 -107q91 0 201 60q20 11 33 -7q8 -10 8 -18q0 -7 -6 -12q-158 -140 -320 -140q-171 0 -280 181 q-112 -181 -340 -181q-175 0 -299 142q-123 141 -123 305zM238 433q0 -188 86 -294q78 -96 172 -96q117 0 190 121q66 108 66 256q0 176 -84 291q-73 100 -170 100t-172 -100q-88 -118 -88 -278zM938 633q0 -17 23 -17h321q14 0 14 17q0 48 -50 109q-59 69 -118 69 q-92 0 -155 -95q-35 -52 -35 -83z" />
<glyph unicode="&#x178;" horiz-adv-x="1235" d="M-26 1325q0 38 13 38q44 -5 236.5 -5t239.5 5q13 0 13 -38t-13 -38q-121 0 -121 -57q0 -23 21 -58l281 -472q8 -14 16 -14q7 0 16 14l298 463q27 42 27 71q0 53 -111 53q-14 0 -14 38t14 38q45 -5 197.5 -5t197.5 5q13 0 13 -38t-13 -38q-139 0 -211 -109l-308 -473 q-65 -100 -71 -129.5t-6 -86.5v-303q0 -117 164 -117q13 0 13 -38t-13 -38q-75 7 -244 7t-244 -7q-13 0 -13 38t13 38q164 0 164 117v301q0 101 -28 147l-326 538q-70 115 -188 115q-13 0 -13 38zM303 1658q0 44 31.5 75t75.5 31t75 -31t31 -75t-31 -75.5t-75 -31.5 t-75.5 31.5t-31.5 75.5zM745 1658q0 44 31 75t75 31t75.5 -31t31.5 -75t-31.5 -75.5t-75.5 -31.5t-75 31.5t-31 75.5z" />
<glyph unicode="&#x2c6;" horiz-adv-x="797" d="M143 1045l211 375q16 28 38 28t38 -28l211 -375q0 -23 -29 -23q-3 0 -6 4l-184 217q-21 25 -30 25q-8 0 -29 -25l-185 -217q-3 -4 -8 -4q-27 0 -27 23z" />
<glyph unicode="&#x2dc;" horiz-adv-x="582" d="M-9 1068q0 1 1 2q92 143 201 143q44 0 137 -33q72 -26 106 -26q57 0 125 68q1 1 3 1q5 0 15 -8q10 -9 10 -20q0 -4 -1 -8q-14 -41 -87 -90q-71 -47 -116 -47q-49 0 -137 34q-76 29 -117 29q-54 0 -115 -61q-4 -4 -8 -4t-8 4q-9 11 -9 16z" />
<glyph unicode="&#x2000;" horiz-adv-x="952" />
<glyph unicode="&#x2001;" horiz-adv-x="1904" />
<glyph unicode="&#x2002;" horiz-adv-x="952" />
<glyph unicode="&#x2003;" horiz-adv-x="1904" />
<glyph unicode="&#x2004;" horiz-adv-x="634" />
<glyph unicode="&#x2005;" horiz-adv-x="476" />
<glyph unicode="&#x2006;" horiz-adv-x="317" />
<glyph unicode="&#x2007;" horiz-adv-x="317" />
<glyph unicode="&#x2008;" horiz-adv-x="238" />
<glyph unicode="&#x2009;" horiz-adv-x="380" />
<glyph unicode="&#x200a;" horiz-adv-x="105" />
<glyph unicode="&#x2010;" horiz-adv-x="827" d="M99 542q0 60 16 60h592q17 0 17 -52q0 -63 -19 -63h-590q-16 0 -16 55z" />
<glyph unicode="&#x2011;" horiz-adv-x="827" d="M99 542q0 60 16 60h592q17 0 17 -52q0 -63 -19 -63h-590q-16 0 -16 55z" />
<glyph unicode="&#x2012;" horiz-adv-x="827" d="M99 542q0 60 16 60h592q17 0 17 -52q0 -63 -19 -63h-590q-16 0 -16 55z" />
<glyph unicode="&#x2013;" horiz-adv-x="1024" d="M7 520l2 32q6 34 22 34h962q21 0 24 -47l-2 -32l-6 -22l-8 -9q-4 -3 -8 -3h-962q-21 0 -24 47z" />
<glyph unicode="&#x2014;" horiz-adv-x="2048" d="M7 520l2 32q6 34 22 34h1986q21 0 24 -47l-2 -32l-6 -22q-7 -12 -16 -12h-1986q-21 0 -24 47z" />
<glyph unicode="&#x2018;" horiz-adv-x="389" d="M63 1118q0 209 246 365l9 1q15 -4 21 -19v-8l-1 -1q-96 -94 -126 -156q-22 -46 -22 -94q0 -45 31 -57q84 -33 100 -83q5 -17 5 -36q0 -88 -103 -88q-72 0 -121 62q-39 50 -39 114z" />
<glyph unicode="&#x2019;" horiz-adv-x="389" d="M51 967l2 2q144 105 152 235v13q0 39 -33 56l-38 18q-63 34 -64 102q0 72 73 85q14 3 29 3q76 0 125 -66q35 -49 35 -110q0 -190 -186 -329q-28 -21 -60 -40l-9 -1q-15 5 -24 23z" />
<glyph unicode="&#x201a;" horiz-adv-x="389" d="M53 -287q0 4 2 6q152 116 152 248q0 44 -40 63l-46 20l-4 3q-45 33 -45 90q0 76 79 87q11 1 23 1q75 0 124 -66q36 -49 36 -110q0 -225 -246 -368q-2 -2 -6 -2q-29 0 -29 28z" />
<glyph unicode="&#x201c;" horiz-adv-x="727" d="M63 1118q0 209 246 365l9 1q15 -4 21 -19v-8l-1 -1q-96 -94 -126 -156q-22 -46 -22 -94q0 -45 31 -57q84 -33 100 -83q5 -17 5 -36q0 -88 -103 -88q-72 0 -121 62q-39 50 -39 114zM402 1118q0 209 246 365l9 1q15 -4 21 -19v-8l-1 -1q-96 -94 -126 -156q-22 -46 -22 -94 q0 -45 31 -57q84 -33 100 -83q5 -17 5 -36q0 -88 -103 -88q-72 0 -121 62q-39 50 -39 114z" />
<glyph unicode="&#x201d;" horiz-adv-x="731" d="M51 967l2 2q144 105 152 235v13q0 39 -33 56l-38 18q-63 34 -64 102q0 72 73 85q14 3 29 3q76 0 125 -66q35 -49 35 -110q0 -190 -186 -329q-28 -21 -60 -40l-9 -1q-15 5 -24 23zM393 967l2 2q144 105 152 235v13q0 39 -33 56l-38 18q-63 34 -64 102q0 72 73 85 q14 3 29 3q76 0 125 -66q35 -49 35 -110q0 -190 -186 -329q-28 -21 -60 -40l-9 -1q-15 5 -24 23z" />
<glyph unicode="&#x201e;" horiz-adv-x="731" d="M53 -287q0 4 2 6q152 116 152 248q0 44 -40 63l-46 20l-4 3q-45 33 -45 90q0 76 79 87q11 1 23 1q75 0 124 -66q36 -49 36 -110q0 -225 -246 -368q-2 -2 -6 -2q-29 0 -29 28zM392 -287q0 4 2 6q152 116 152 248q0 44 -40 63l-46 20l-4 3q-45 33 -45 90q0 76 79 87 q11 1 23 1q75 0 124 -66q36 -49 36 -110q0 -225 -246 -368q-2 -2 -6 -2q-29 0 -29 28z" />
<glyph unicode="&#x2022;" horiz-adv-x="815" d="M143 760q0 117 90 190q78 62 189 62q118 0 191 -88q61 -75 61 -183q0 -109 -74 -180q-72 -72 -178 -72q-135 0 -214 89q-65 73 -65 182z" />
<glyph unicode="&#x202f;" horiz-adv-x="380" />
<glyph unicode="&#x2039;" horiz-adv-x="481" d="M59 435q0 28 24 53l299 312q10 11 28 -3t9 -27l-197 -294q-12 -18 -12 -41t12 -41l197 -290q10 -15 -7.5 -30.5t-29.5 -3.5l-299 312q-24 25 -24 53z" />
<glyph unicode="&#x203a;" horiz-adv-x="481" d="M59 104l197 290q12 18 12 41t-12 41l-197 294q-9 13 8.5 27t28.5 3l299 -312q24 -25 24 -53t-24 -53l-299 -312q-12 -12 -29.5 3.5t-7.5 30.5z" />
<glyph unicode="&#x205f;" horiz-adv-x="476" />
<glyph unicode="&#x20ac;" horiz-adv-x="1261" d="M-8 555l2 31q5 30 21 30h75v51q0 45 1 66h-76q-20 0 -23 44l2 31q5 30 21 30h91q51 217 197 366q178 181 428 181q175 0 315 -71q61 -30 95 -67q45 -50 45 -86q0 -46 -44 -69q-21 -11 -45 -11q-42 0 -84 47l-57 68l-6 6q-75 76 -132 97q-41 15 -92 15q-198 0 -322 -175 l-32 -52q-61 -111 -79 -249h666q19 0 22 -44l-2 -32l-7 -20q-6 -9 -13 -9h-675v-21q0 -65 3 -96h672q19 0 22 -44l-2 -32l-7 -20q-6 -9 -13 -9h-655q48 -213 182 -327q111 -94 259 -94q138 0 230 40q45 19 166 90q6 4 9 4q19 0 31 -24q4 -8 4 -16q0 -9 -8 -16 q-137 -113 -238 -154q-99 -41 -211 -41q-219 0 -392 132q-162 124 -216 313q-13 46 -19 93h-86q-20 0 -23 44z" />
<glyph unicode="&#x2122;" horiz-adv-x="2062" d="M35 1168v179q0 20 44 19q123 -2 247 -3h260q205 3 247 3q43 0 43 -19v-179q0 -7 -21 -7t-21 7q0 145 -145 150l-160 5q-29 0 -29 -25v-590q0 -65 105 -65q8 0 8 -21.5t-8 -21.5q-43 4 -147 4q-113 0 -156 -4q-8 0 -8 21t8 22q57 0 89 26q20 16 20 39v590q0 25 -26 25 l-160 -5q-147 -5 -147 -150q0 -7 -21.5 -7t-21.5 7zM974 622q0 21 8 22q85 0 90 65l33 528q0 62 -47 79q-23 9 -61 9q-8 0 -8 21t8 21q25 -3 91 -3q54 0 72 -9q18 -8 30 -31l270 -564q7 -15 12 -15t14 16l278 566q12 26 34 32q17 5 61 5q68 0 96 3q8 0 8 -21t-8 -21 q-74 0 -96 -40q-12 -22 -12 -62l4 -514q1 -65 91 -65q8 0 8 -21.5t-8 -21.5q-43 4 -139 4q-80 0 -129 -4q-8 0 -8 21t8 22q86 0 86 65l-3 477q0 7 -4 7t-8 -4l-291 -587q-4 -10 -12 -10q-9 0 -13 10l-266 585q-4 10 -9 10t-6 -10l-29 -478l1 -18q8 -47 89 -47q8 0 8 -21.5 t-8 -21.5q-46 4 -109 4q-70 0 -118 -4q-8 0 -8 21z" />
<glyph unicode="&#x25fc;" horiz-adv-x="855" d="M0 0v855h855v-855h-855z" />
</font>
</defs>
</svg>
