<?xml version="1.0" encoding="utf-8"?>
<!-- Generator: Adobe Illustrator 18.0.0, SVG Export Plug-In . SVG Version: 6.00 Build 0)  -->
<!DOCTYPE svg PUBLIC "-//W3C//DTD SVG 1.1//EN" "http://www.w3.org/Graphics/SVG/1.1/DTD/svg11.dtd">
<svg version="1.1" id="Layer_1" xmlns="http://www.w3.org/2000/svg" xmlns:xlink="http://www.w3.org/1999/xlink" x="0px" y="0px"
	 viewBox="0 0 841.9 595.3" enable-background="new 0 0 841.9 595.3" xml:space="preserve">
<path d="M42.1,59.7c-1,1.7-2.3,3-3.8,3.9c-1,0.6-2,0.8-3,0.8c-0.6,0-1.2-0.2-1.8-0.6c-0.7-0.5-1.1-1.1-1.1-1.9
	c0-0.8,0.4-1.4,1.1-1.8c0.4-0.2,0.8-0.3,1.3-0.3c0.9,0,1.6,0.3,2.2,1c0.3,0.3,0.5,0.7,0.7,1.1c0.4-0.3,0.7-0.8,1-1.4
	c0.3-1,0.5-3.7,0.5-7.9c0-10.5,0-15.8,0-15.8c0-1.4-1-2-3-2c-0.2,0-0.2-0.3-0.2-0.8c0-0.6,0.1-0.8,0.2-0.8c0.6,0.1,2.3,0.1,5.2,0.1
	c2.9,0,4.6,0,5.1-0.1c0.2,0,0.2,0.3,0.2,0.8c0,0.6-0.1,0.8-0.2,0.8c-2,0-3,0.7-3,2V46c0,1.3-0.1,3.8-0.2,7.6
	C43.3,56.3,42.9,58.3,42.1,59.7z"/>
<path d="M65.6,56.5c-0.1,0-0.7,0.1-1.8,0.4c-0.3,0.1-0.6,0.1-0.9,0.2c-0.7,0.1-1.3,0.3-2,0.5c-0.2,0-0.3,0.1-0.4,0.1
	c-0.2,0-0.3-0.3-0.3-0.8V56c0-0.3-0.1-0.4-0.2-0.4s-0.3,0.1-0.5,0.2c-1.1,1-2.5,1.6-4.3,1.6c-1.5,0-2.5-0.2-3-0.6
	c-1.7-1.4-2.6-3.1-2.6-5.2v-6.1c0-1.2-0.5-1.8-1.5-1.8c-0.2,0-0.3-0.2-0.3-0.6s0.1-0.6,0.3-0.6c1.3,0,2.6-0.1,3.9-0.3
	c0.4-0.1,0.7-0.1,0.9-0.1c0.5,0,0.8,0.3,0.8,0.8c-0.1,1.1-0.1,2.1-0.1,2.8v6c0,1.4,0.3,2.5,0.9,3.2c0.3,0.4,0.9,0.6,1.7,0.6
	c0.7,0,1.5-0.3,2.3-1c0.6-0.5,0.9-1.1,0.9-1.6v-7.3c0-1.2-0.5-1.8-1.5-1.8c-0.2,0-0.3-0.2-0.3-0.6s0.1-0.6,0.3-0.6
	c1.3,0,2.7-0.1,4-0.3c0.3,0,0.5-0.1,0.7-0.1c0.6,0,0.9,0.2,0.9,0.6c-0.1,1.1-0.1,2-0.1,2.7v7.1c0,1.1,0.1,1.7,0.2,2.1
	c0.2,0.5,0.5,0.7,0.9,0.7c0.2,0,0.3,0,0.6-0.1c0.2,0,0.3,0.1,0.5,0.6C65.7,56.2,65.7,56.4,65.6,56.5z"/>
<path d="M84.2,57.2c-1.3-0.1-2.5-0.1-3.7-0.1c-1.2,0-2.6,0-4,0.1c-0.2,0-0.3-0.2-0.3-0.7s0.1-0.7,0.3-0.7c1.2,0,1.8-0.4,1.8-1.1
	v-7.2c0-1.7-0.3-2.9-1-3.5c-0.3-0.3-0.9-0.4-1.7-0.4c-0.7,0-1.4,0.3-2.1,0.9c-0.8,0.7-1.2,1.4-1.2,2.1v7.9c0,0.9,0.6,1.3,1.7,1.3
	c0.2,0,0.3,0.2,0.3,0.7s-0.1,0.7-0.3,0.7c-1-0.1-2.3-0.1-3.8-0.1c-1.6,0-2.9,0-3.9,0.1c-0.2,0-0.3-0.2-0.3-0.7s0.1-0.7,0.3-0.7
	c1.3,0,1.9-0.4,1.9-1.3v-7.1c0-1.6-0.5-2.3-1.6-2.3c-0.2,0-0.3-0.2-0.3-0.6c0-0.4,0.1-0.7,0.3-0.7c0.6,0,1.7-0.4,3.3-1.2
	c0.7-0.4,1.2-0.6,1.5-0.8c0.2-0.1,0.3-0.2,0.5-0.2c0.3,0,0.5,0.2,0.5,0.5l-0.1,1.2c0,0.2,0.1,0.3,0.2,0.3c0.1,0,0.2-0.1,0.3-0.2
	c0.5-0.6,1.3-1.1,2.4-1.4c0.5-0.1,1-0.2,1.7-0.2c2.2,0,3.8,1.1,4.8,3.3c0.4,0.9,0.6,2.1,0.6,3.9v5.8c0,0.8,0.6,1.2,1.9,1.2
	c0.2,0,0.3,0.2,0.3,0.7S84.4,57.2,84.2,57.2z"/>
<path d="M93.3,57.2c-1-0.1-2.2-0.1-3.7-0.1c-1.7,0-3,0-4,0.1c-0.2,0-0.3-0.2-0.3-0.7s0.1-0.7,0.3-0.7c1.2,0,1.8-0.4,1.8-1.3v-7.3
	c0-1.5-0.5-2.2-1.6-2.2c-0.2,0-0.3-0.2-0.3-0.6c0-0.4,0.1-0.7,0.3-0.7c0.6,0,1.7-0.4,3.3-1.2c0.7-0.4,1.2-0.6,1.5-0.8
	c0.2-0.1,0.3-0.2,0.5-0.2c0.3,0,0.5,0.2,0.5,0.5c-0.1,1-0.1,2.1-0.1,3.1v9.5c0,0.9,0.6,1.3,1.8,1.3c0.2,0,0.3,0.2,0.3,0.7
	C93.5,57,93.4,57.2,93.3,57.2z M91.6,36.2c0,0.8-0.3,1.5-1,2c-0.4,0.3-0.9,0.5-1.5,0.5c-0.9,0-1.6-0.3-2.1-1
	c-0.3-0.4-0.5-0.9-0.5-1.4c0-0.8,0.3-1.5,1-2c0.4-0.3,0.9-0.5,1.5-0.5c0.9,0,1.6,0.3,2.1,1C91.4,35.2,91.6,35.7,91.6,36.2z"/>
<path d="M106.2,46.1c-0.4,0-0.8-0.2-1-0.5l-0.7-1.2c-0.5-0.7-1.1-1-2-1c-0.9,0-1.8,0.5-2.5,1.6c-0.8,1.2-1.2,2.6-1.2,4.3
	c0,1.6,0.5,2.9,1.5,4c0.9,1,2,1.5,3.2,1.5c1.3,0,2.4-0.3,3.3-1c0.2-0.1,0.5,0,0.8,0.5c0.3,0.5,0.4,0.8,0.2,0.9l-1.4,0.9
	c-1.4,0.8-2.9,1.2-4.7,1.2c-1.6,0-3.1-0.6-4.4-1.7c-1.6-1.4-2.5-3.3-2.5-5.5c0-2,0.6-3.8,1.9-5.4c1.6-2.1,3.6-3.1,6.2-3.1
	c1.6,0,2.9,0.3,3.9,0.8c0.5,0.2,0.8,0.5,1,0.8c0.1,0.2,0.1,0.4,0.1,0.7c0,0.6-0.2,1.1-0.5,1.5C106.9,45.9,106.6,46.1,106.2,46.1z"/>
<path d="M126.2,49.6c0,2.4-0.7,4.4-2.2,5.8c-1.4,1.4-3.3,2.1-5.8,2.1c-2.2,0-4-0.7-5.5-2.1c-1.6-1.5-2.4-3.4-2.4-5.7
	c0-2,0.6-3.7,1.9-5.2c1.5-1.8,3.5-2.6,6-2.6c2.6,0,4.6,0.9,6.2,2.8C125.6,46,126.2,47.6,126.2,49.6z M121.8,49.7
	c0-2.2-0.4-3.9-1.2-5.1c-0.6-0.9-1.4-1.4-2.2-1.4c-1,0-1.8,0.6-2.4,1.8c-0.7,1.3-1.1,2.9-1.1,4.7c0,2.2,0.4,3.8,1.3,5
	c0.6,0.8,1.3,1.3,2.2,1.3c1.1,0,2-0.7,2.6-2C121.5,52.8,121.8,51.4,121.8,49.7z"/>
<path d="M145.3,56.5c-0.3,0.1-1.3,0.3-2.7,0.6c-1.2,0.3-2,0.5-2.3,0.5H140c-0.1,0-0.2-0.3-0.2-0.8v-0.5c0-0.3-0.1-0.4-0.2-0.4
	c-0.1,0-0.3,0.1-0.5,0.2c-1.1,0.8-2.2,1.2-3.4,1.2c-2.9,0-4.9-1-6.2-3.1c-0.8-1.3-1.2-2.9-1.2-4.7c0-2.1,0.7-3.8,2.1-5.3
	c1.7-1.8,4-2.6,6.9-2.6c0.6,0,1,0,1.4,0.1c0.3,0,0.5-0.1,0.5-0.4v-4.8c0-1.5-0.5-2.2-1.6-2.2c-0.2,0-0.3-0.2-0.3-0.6
	c0-0.4,0.1-0.7,0.3-0.7c0.6,0,1.7-0.4,3.3-1.2c0.8-0.4,1.3-0.7,1.5-0.9c0.2-0.1,0.3-0.2,0.5-0.2c0.4,0,0.5,0.2,0.5,0.6
	c-0.1,0.8-0.1,1.8-0.1,3v18.1c0,1.1,0.1,1.7,0.2,2.1c0.2,0.5,0.5,0.7,0.9,0.7c0.2,0,0.3,0,0.6-0.1c0.2,0,0.3,0.1,0.5,0.5
	C145.5,56.2,145.4,56.4,145.3,56.5z M139.2,54.6v-9.7c0-0.5,0-0.8-0.1-0.9c-0.1-0.1-0.2-0.2-0.3-0.3c-0.5-0.3-1.2-0.5-2-0.5
	c-1.6,0-2.7,0.8-3.4,2.5c-0.4,1-0.7,2.2-0.7,3.6c0,2.3,0.5,4,1.4,5.3c0.7,0.9,1.5,1.4,2.5,1.4c1,0,1.8-0.3,2.3-0.9
	C139.1,54.9,139.2,54.7,139.2,54.6z"/>
<path d="M159.8,46.3c0,0.9-0.5,1.3-1.6,1.3h-6.7c-0.4,0-0.6,0.2-0.6,0.5c0,2.8,0.7,4.7,2,5.9c0.7,0.6,1.6,0.9,2.7,0.9
	c0.9,0,1.9-0.3,2.9-1c0.2-0.1,0.5,0,0.9,0.5c0.3,0.4,0.4,0.7,0.3,0.8c-0.6,0.6-1.3,1.1-2.4,1.5c-1,0.5-2.2,0.7-3.5,0.7
	c-1.6,0-3-0.6-4.3-1.9c-1.7-1.7-2.5-3.7-2.5-6.2c0-1.9,0.6-3.6,1.9-5.1c1.4-1.7,3.1-2.5,5-2.5c2.1,0,3.7,0.7,5,2.1
	C159.4,44.9,159.8,45.7,159.8,46.3z M150.8,45.6c0,0.3,0.2,0.5,0.7,0.5h3.7c0.4,0,0.7-0.1,0.7-0.4c0-0.8-0.3-1.4-1-2
	c-0.4-0.3-0.8-0.5-1.2-0.5c-0.8,0-1.5,0.3-2.1,0.8C151,44.4,150.8,44.9,150.8,45.6z"/>
<path d="M41.2,96.7V79.9c0-1.3-1-1.9-3-1.9C38,78,38,77.7,38,77.2s0.1-0.8,0.2-0.8c1.7,0.1,3.1,0.1,4.2,0.1c1.1,0,2.2,0,3.3-0.1
	s1.9-0.1,2.6-0.1c2.5,0,4.5,0.5,5.8,1.6s2,2.5,2,4.4c0,1-0.3,1.9-0.9,2.8C54.6,86,53.8,86.6,53,87c-0.2,0.1-0.3,0.2-0.3,0.3
	s0.1,0.2,0.4,0.3c1.4,0.4,2.5,1.2,3.4,2.4s1.4,2.4,1.4,3.8c0,1.8-0.7,3.3-2,4.6c-1.3,1.3-3.8,2-7.4,2c-0.5,0-1.3,0-2.3-0.1
	s-1.9-0.1-2.7-0.1c-0.8,0-2.5,0-5,0.1c-0.2,0-0.3-0.3-0.3-0.8s0.1-0.8,0.3-0.8c1,0,1.7-0.2,2.2-0.6C41,97.7,41.2,97.2,41.2,96.7z
	 M45.5,86.2c0,0.2,0.1,0.4,0.3,0.4s0.5,0.1,0.9,0.1c1.7,0,3-0.4,3.8-1.2s1.3-1.8,1.3-3.1c0-1.5-0.5-2.7-1.5-3.5
	c-1-0.8-2.5-1.2-4.5-1.2c-0.2,0-0.3,0.1-0.3,0.3V86.2z M45.5,95.8c0,2.1,0.9,3.1,2.6,3.1c3.3-0.1,4.9-1.8,4.9-5.2
	c0-1.6-0.5-2.9-1.6-3.9s-2.9-1.4-5.4-1.5c-0.3,0-0.4,0.2-0.4,0.6V95.8z"/>
<path d="M76.9,92.8c0,2.4-0.7,4.4-2.2,5.8c-1.4,1.4-3.3,2.1-5.8,2.1c-2.2,0-4-0.7-5.5-2.1c-1.6-1.5-2.4-3.4-2.4-5.7
	c0-2,0.6-3.7,1.9-5.2c1.5-1.8,3.5-2.6,6-2.6c2.6,0,4.6,0.9,6.2,2.8C76.3,89.2,76.9,90.8,76.9,92.8z M72.5,92.9
	c0-2.2-0.4-3.9-1.2-5.1c-0.6-0.9-1.4-1.4-2.2-1.4c-1,0-1.8,0.6-2.4,1.8c-0.7,1.3-1.1,2.9-1.1,4.7c0,2.2,0.4,3.8,1.3,5
	c0.6,0.8,1.3,1.3,2.2,1.3c1.1,0,2-0.7,2.6-2C72.2,96,72.5,94.6,72.5,92.9z"/>
<path d="M86.8,100.4c-1-0.1-2.2-0.1-3.7-0.1c-1.7,0-3,0-4,0.1c-0.2,0-0.3-0.2-0.3-0.7s0.1-0.7,0.3-0.7c1.2,0,1.8-0.4,1.8-1.2v-18
	c0-1.5-0.5-2.2-1.6-2.2c-0.2,0-0.3-0.2-0.3-0.6c0-0.4,0.1-0.7,0.3-0.7c0.6,0,1.7-0.4,3.3-1.2c0.8-0.4,1.3-0.7,1.5-0.9
	c0.2-0.1,0.3-0.2,0.5-0.2c0.4,0,0.5,0.2,0.5,0.6c-0.1,0.9-0.1,1.9-0.1,3v20.1c0,0.9,0.6,1.3,1.8,1.3c0.2,0,0.3,0.2,0.3,0.7
	S87,100.4,86.8,100.4z"/>
<path d="M105.2,99.7c-0.3,0.1-1.3,0.3-2.7,0.6c-1.2,0.3-2,0.5-2.3,0.5H100c-0.1,0-0.2-0.3-0.2-0.8v-0.5c0-0.3-0.1-0.4-0.2-0.4
	c-0.1,0-0.3,0.1-0.5,0.2c-1.1,0.8-2.2,1.2-3.4,1.2c-2.9,0-4.9-1-6.2-3.1c-0.8-1.3-1.2-2.9-1.2-4.7c0-2.1,0.7-3.8,2.1-5.3
	c1.7-1.8,4-2.6,6.9-2.6c0.6,0,1,0,1.4,0.1c0.3,0,0.5-0.1,0.5-0.4v-4.8c0-1.5-0.5-2.2-1.6-2.2c-0.2,0-0.3-0.2-0.3-0.6
	c0-0.4,0.1-0.7,0.3-0.7c0.6,0,1.7-0.4,3.3-1.2c0.8-0.4,1.3-0.7,1.5-0.9c0.2-0.1,0.3-0.2,0.5-0.2c0.4,0,0.5,0.2,0.5,0.6
	c-0.1,0.8-0.1,1.8-0.1,3v18.1c0,1.1,0.1,1.7,0.2,2.1c0.2,0.5,0.5,0.7,0.9,0.7c0.2,0,0.3,0,0.6-0.1c0.2,0,0.3,0.1,0.5,0.5
	C105.4,99.4,105.4,99.6,105.2,99.7z M99.1,97.8V88c0-0.5,0-0.8-0.1-0.9c-0.1-0.1-0.2-0.2-0.3-0.3c-0.5-0.3-1.2-0.5-2-0.5
	c-1.6,0-2.7,0.8-3.4,2.5c-0.4,1-0.7,2.2-0.7,3.6c0,2.3,0.5,4,1.4,5.3c0.7,0.9,1.5,1.4,2.5,1.4c1,0,1.8-0.3,2.3-0.9
	C99,98.1,99.1,97.9,99.1,97.8z"/>
<path d="M38.9,181.3c-1.2,4.3-2.8,7.5-4.9,9.6c-2.1,2.1-4.1,3.1-6,3.1c-0.8,0-1.5-0.2-2-0.5c-0.5-0.3-0.8-0.8-0.8-1.5
	c0-0.7,0.3-1.2,0.9-1.6c0.6-0.4,1.2-0.6,1.8-0.6c0.7,0,1.2,0.2,1.7,0.6c0.5,0.4,0.7,0.9,0.8,1.5c1-0.7,1.7-1.6,2.1-3
	c0.4-1.3,1.8-5.9,4.1-13.6l2.7-9c0.1-0.3,0.1-0.5,0.1-0.7c0-0.9-0.7-1.3-2.2-1.3c-0.1,0-0.1-0.1-0.1-0.3s0.1-0.5,0.2-0.8
	c0.1-0.4,0.2-0.6,0.4-0.6c0.7,0.1,2.2,0.1,4.7,0.1s4.1,0,4.7-0.1c0.1,0,0.2,0.1,0.2,0.2s0,0.4-0.1,0.8s-0.2,0.6-0.4,0.6
	c-1,0-1.7,0.1-2.2,0.3s-0.9,0.6-1.1,1.2L38.9,181.3z"/>
<path d="M57.2,182.6c-0.2,0.8-0.4,1.2-0.4,1.2c0,0.2,0.2,0.4,0.5,0.4s0.9-0.5,1.8-1.5c0,0,0.1-0.1,0.1-0.1c0.1,0,0.3,0.1,0.5,0.3
	c0.2,0.2,0.3,0.4,0.3,0.5c0,0,0,0.1,0,0.1c-1.9,2.4-3.6,3.6-5,3.6c-1.2,0-1.9-0.7-1.9-2.1c0-0.4,0.1-0.9,0.2-1.3l0.8-2.7
	c-1.2,1.6-2.4,3-3.8,4.3c-1.4,1.2-2.5,1.9-3.3,1.9c-1.5,0-2.2-0.7-2.2-2.2c0-0.6,0.1-1.2,0.4-2l2.2-7.2c0.2-0.6,0.3-0.9,0.3-0.9
	c0-0.2-0.1-0.3-0.3-0.3c-0.2,0-0.5,0.1-0.8,0.4c-0.3,0.3-0.6,0.6-1,1.1c0,0.1-0.1,0.1-0.2,0.1c-0.1,0-0.3-0.1-0.5-0.3
	c-0.2-0.2-0.3-0.4-0.3-0.5c0,0,0-0.1,0.1-0.1c1.8-2.4,3.5-3.5,5.1-3.5c1.1,0,1.6,0.8,1.6,2.5c0,0.5-0.1,1.1-0.3,1.8l-1.7,5.3
	c-0.4,1.2-0.7,2-0.7,2.4c0,0.4,0.1,0.6,0.4,0.6c0.6,0,1.5-0.8,2.7-2.4s2.1-3,2.7-4.1c1.1-2,1.9-3.9,2.4-5.8c0.1-0.3,0.6-0.4,1.7-0.4
	c1.3,0,1.9,0.2,1.8,0.6L57.2,182.6z"/>
<path d="M75.2,182.6c-0.2,0.8-0.4,1.2-0.4,1.2c0,0.2,0.1,0.4,0.4,0.4s0.8-0.5,1.7-1.5c0,0,0.1-0.1,0.1-0.1c0.1,0,0.3,0.1,0.5,0.3
	c0.2,0.2,0.4,0.4,0.4,0.5c0,0,0,0.1-0.1,0.1c-1.9,2.4-3.6,3.6-5.2,3.6c-1.1,0-1.6-0.8-1.6-2.2c0-0.4,0.1-0.8,0.2-1.2l2.2-7.2
	c0.4-1.2,0.5-2,0.5-2.3c0-0.4-0.1-0.6-0.3-0.6c-1.2,0-2.6,1.5-4.4,4.6s-3.1,5.9-4,8.5c-0.1,0.3-0.7,0.4-1.9,0.4s-1.7-0.1-1.6-0.4
	l3.4-11c0.1-0.4,0.2-0.7,0.2-0.8c0-0.3-0.1-0.4-0.4-0.4c-0.3,0-0.8,0.5-1.6,1.4c0,0-0.1,0.1-0.2,0.1c-0.1,0-0.3-0.1-0.5-0.3
	s-0.3-0.4-0.3-0.5c0,0,0-0.1,0.1-0.1c2-2.3,3.7-3.5,5-3.5c1,0,1.5,0.6,1.5,1.8c0,0.4-0.1,0.9-0.3,1.4l-1,2.8l0.2,0.1
	c2.4-4.1,4.6-6.2,6.9-6.2c1.7,0,2.5,0.8,2.5,2.5c0,0.8-0.2,1.8-0.5,2.9L75.2,182.6z"/>
<path d="M84.4,183.5c0,0.2-0.1,0.3-0.1,0.4c0,0.2,0.1,0.3,0.4,0.3s0.8-0.5,1.6-1.4c0.1-0.2,0.4-0.1,0.7,0.2c0.2,0.2,0.4,0.4,0.4,0.5
	c0,0.1,0,0.1-0.1,0.1c-0.8,0.9-1.6,1.7-2.5,2.5c-0.9,0.7-1.7,1.1-2.4,1.1c-1.2,0-1.8-0.7-1.8-2.2c0-0.4,0.1-0.8,0.2-1.2l2.6-8.4
	c0-0.2,0.1-0.3,0.1-0.4c0-0.2-0.1-0.4-0.3-0.4c-0.2,0-0.8,0.5-1.7,1.4c-0.1,0.1-0.4,0.1-0.7-0.2c-0.2-0.2-0.3-0.4-0.3-0.5
	c0,0,0-0.1,0.1-0.1c0.7-0.9,1.6-1.7,2.5-2.4c0.9-0.7,1.7-1.1,2.4-1.1c1.2,0,1.8,0.7,1.8,2.2c0,0.3-0.1,0.7-0.2,1.1L84.4,183.5z
	 M89.8,166.6c0,0.6-0.3,1.2-0.8,1.6c-0.5,0.4-1.1,0.7-1.7,0.7c-1.7,0-2.5-0.9-2.5-2.7c0-0.6,0.3-1.1,0.8-1.6
	c0.5-0.5,1.1-0.7,1.7-0.7C88.9,164,89.8,164.8,89.8,166.6z"/>
<path d="M99,184.7c-1.4,1.6-3.1,2.5-5.2,2.5c-1.3,0-2.3-0.5-3.1-1.4s-1.2-2.2-1.2-3.7c0-2.4,0.9-4.7,2.8-7c1.8-2.3,3.8-3.4,6-3.4
	c0.9,0,1.7,0.2,2.4,0.6s1,0.9,1,1.4c0,0.4-0.2,0.8-0.6,1.2s-0.8,0.5-1.2,0.5c-0.5,0-0.9-0.2-1.1-0.5c-0.1-0.6-0.2-1-0.5-1.3
	s-0.6-0.4-0.9-0.4c-1.1,0-2.1,0.9-2.9,2.6c-0.8,1.7-1.2,3.4-1.2,5.2c0,1.2,0.2,2.2,0.6,3c0.4,0.8,0.9,1.2,1.7,1.2
	c0.6,0,1.2-0.1,1.7-0.4s0.8-0.5,1-0.7c0.1-0.1,0.2-0.1,0.4,0c0.2,0.1,0.3,0.2,0.4,0.4S99.1,184.5,99,184.7z"/>
<path d="M117,177.4c0,2.4-0.9,4.7-2.6,6.7c-1.7,2-3.9,3-6.5,3c-1.6,0-2.9-0.6-3.7-1.7c-0.8-1.1-1.2-2.6-1.2-4.3c0-2.2,1-4.4,2.9-6.4
	c1.9-2,4-3,6.2-3c1.6,0,2.9,0.5,3.7,1.6S117,175.7,117,177.4z M113.9,175.6c0-1.4-0.5-2.1-1.6-2.1c-1.2,0-2.6,1.2-4,3.5
	c-1.4,2.4-2.1,4.4-2.1,6c0,1.4,0.6,2.1,1.7,2.1c1.1,0,2.4-1.2,3.8-3.5C113.2,179.2,113.9,177.2,113.9,175.6z"/>
<path d="M131.7,182.6c-0.1,0.6-0.2,1-0.2,1.2c0,0.3,0.1,0.4,0.3,0.4c0.3,0,0.9-0.5,1.7-1.5c0.1-0.1,0.2-0.1,0.4,0
	c0.2,0.1,0.3,0.2,0.5,0.4c0.1,0.2,0.2,0.3,0.1,0.4c-1.7,2.4-3.3,3.6-4.8,3.6c-0.7,0-1.1-0.2-1.4-0.6s-0.3-1-0.3-1.8
	c0-0.2,0.1-0.8,0.3-1.8l-0.2-0.1c-1,1.2-2.1,2.2-3.1,3.1c-1.1,0.9-2.2,1.3-3.2,1.3c-1,0-1.7-0.4-2.1-1.1s-0.7-1.5-0.7-2.4
	c0-2.3,1.1-4.9,3.2-7.7c2.1-2.8,4.4-4.2,6.8-4.2c0.6,0,1.3,0.2,1.9,0.5l1.6-6.8c0.1-0.5,0.2-0.9,0.2-1.3c0-0.9-0.4-1.3-1.1-1.3
	c-0.2,0-0.3-0.2-0.3-0.6s0.1-0.6,0.3-0.6c1,0,2-0.2,3.2-0.5s1.7-0.5,1.8-0.5c0.2,0,0.4,0.1,0.4,0.3c0,0.1,0,0.2-0.1,0.3L131.7,182.6
	z M130.3,174.1c-0.5-0.7-1.1-1-1.8-1c-1.3,0-2.6,1.2-3.9,3.5s-1.9,4.5-1.9,6.4c0,1.1,0.3,1.7,0.8,1.7c0.7,0,1.7-0.8,3.2-2.3
	c1.4-1.5,2.2-2.7,2.4-3.5L130.3,174.1z"/>
<path d="M148.7,174.1c0,1.4-0.8,2.7-2.5,3.8s-3.6,1.9-5.9,2.5c-0.2,0.9-0.3,1.5-0.3,1.8c0,1.7,0.5,2.6,1.6,2.6c0.6,0,1.2-0.2,2-0.7
	s1.3-0.8,1.6-1.1c0.1-0.1,0.2,0,0.4,0s0.3,0.2,0.4,0.4c0.1,0.1,0.1,0.3,0.1,0.4c-1.7,2.2-3.5,3.4-5.4,3.4c-2.8,0-4.2-1.5-4.2-4.5
	c0-2.2,1-4.6,3.1-7.1c2.1-2.5,4.1-3.8,6.3-3.8C147.7,171.7,148.7,172.5,148.7,174.1z M145.1,174.5c0-0.8-0.3-1.2-0.8-1.2
	c-0.6,0-1.2,0.5-1.9,1.5c-0.6,1-1.2,2.3-1.7,3.8c1-0.3,2-0.9,3-1.7S145.1,175.5,145.1,174.5z"/>
<path d="M57.5,221.9c0,1.9-0.8,3.7-2.5,5.5c-1.7,1.7-4.6,2.6-8.8,2.6c-0.7,0-1.5,0-2.4-0.1c-0.9,0-1.7-0.1-2.5-0.1s-2.4,0-5.1,0.1
	c-0.1,0-0.1-0.1-0.1-0.2s0-0.4,0.1-0.8s0.2-0.6,0.4-0.6c1.3,0,2.1-0.2,2.5-0.6c0.4-0.4,0.7-0.9,0.9-1.5l5-16.8
	c0.1-0.3,0.1-0.6,0.1-0.9c0-0.3-0.2-0.5-0.5-0.7s-1-0.3-2.1-0.3c-0.1,0-0.1-0.1-0.1-0.2s0.1-0.4,0.2-0.8c0.1-0.4,0.3-0.6,0.4-0.6
	c1.6,0,3,0.1,4,0.1s2.1,0,3,0s1.8,0,2.7,0c2,0,3.5,0.4,4.6,1.3c1.1,0.8,1.7,1.9,1.7,3.3c0,1.3-0.4,2.5-1.3,3.6
	c-0.9,1.1-2,1.9-3.2,2.5c-0.2,0.1-0.4,0.2-0.4,0.3s0.1,0.2,0.3,0.4C56.6,218.6,57.5,220.1,57.5,221.9z M53.1,221.4
	c0-1.3-0.4-2.2-1.3-2.7s-2.4-0.8-4.4-0.8c-0.3,0-0.5,0.1-0.6,0.4l-2.3,7.5c-0.1,0.4-0.2,0.8-0.2,1.2c0,1.1,0.6,1.6,1.8,1.6
	c2.3,0,4.1-0.6,5.3-1.8C52.5,225.5,53.1,223.7,53.1,221.4z M55.1,210.6c0-1.1-0.3-2-0.9-2.5c-0.6-0.5-1.8-0.8-3.6-0.8
	c-0.4,0-0.7,0.2-0.8,0.6l-2.4,7.8c0,0.1-0.1,0.2-0.1,0.4c0,0.2,0.3,0.3,0.9,0.3c2,0,3.7-0.5,4.9-1.6
	C54.5,213.8,55.1,212.4,55.1,210.6z"/>
<path d="M74.5,220.6c0,2.4-0.9,4.7-2.6,6.7c-1.7,2-3.9,3-6.5,3c-1.6,0-2.9-0.6-3.7-1.7c-0.8-1.1-1.2-2.6-1.2-4.3
	c0-2.2,1-4.4,2.9-6.4c1.9-2,4-3,6.2-3c1.6,0,2.9,0.5,3.7,1.6S74.5,218.9,74.5,220.6z M71.4,218.8c0-1.4-0.5-2.1-1.6-2.1
	c-1.2,0-2.6,1.2-4,3.5c-1.4,2.4-2.1,4.4-2.1,6c0,1.4,0.6,2.1,1.7,2.1c1.1,0,2.4-1.2,3.8-3.5C70.7,222.4,71.4,220.4,71.4,218.8z"/>
<path d="M80.4,226.4c-0.1,0.2-0.1,0.4-0.1,0.5c0,0.3,0.1,0.4,0.4,0.4c0.4,0,0.9-0.5,1.6-1.5c0-0.1,0.1-0.1,0.2-0.1
	c0.1,0,0.3,0.1,0.5,0.3c0.2,0.2,0.3,0.3,0.3,0.5c0,0,0,0.1-0.1,0.1c-1.9,2.4-3.5,3.7-4.9,3.7c-1.1,0-1.7-0.8-1.7-2.2
	c0-0.3,0-0.6,0.1-1l4.4-18.5c0.1-0.5,0.2-1,0.2-1.3c0-0.9-0.4-1.3-1.1-1.3c-0.2,0-0.4-0.2-0.4-0.6c0-0.4,0.1-0.6,0.4-0.6
	c1,0,2-0.2,3.2-0.5c1.1-0.3,1.7-0.5,1.8-0.5c0.3,0,0.4,0.2,0.3,0.7L80.4,226.4z"/>
<path d="M97.9,225.8c-0.1,0.6-0.2,1-0.2,1.2c0,0.3,0.1,0.4,0.3,0.4c0.3,0,0.9-0.5,1.7-1.5c0.1-0.1,0.2-0.1,0.4,0
	c0.2,0.1,0.3,0.2,0.5,0.4c0.1,0.2,0.2,0.3,0.1,0.4c-1.7,2.4-3.3,3.6-4.8,3.6c-0.7,0-1.1-0.2-1.4-0.6s-0.3-1-0.3-1.8
	c0-0.2,0.1-0.8,0.3-1.8l-0.2-0.1c-1,1.2-2.1,2.2-3.1,3.1c-1.1,0.9-2.2,1.3-3.2,1.3c-1,0-1.7-0.4-2.1-1.1s-0.7-1.5-0.7-2.4
	c0-2.3,1.1-4.9,3.2-7.7c2.1-2.8,4.4-4.2,6.8-4.2c0.6,0,1.3,0.2,1.9,0.5l1.6-6.8c0.1-0.5,0.2-0.9,0.2-1.3c0-0.9-0.4-1.3-1.1-1.3
	c-0.2,0-0.3-0.2-0.3-0.6s0.1-0.6,0.3-0.6c1,0,2-0.2,3.2-0.5s1.7-0.5,1.8-0.5c0.2,0,0.4,0.1,0.4,0.3c0,0.1,0,0.2-0.1,0.3L97.9,225.8z
	 M96.5,217.3c-0.5-0.7-1.1-1-1.8-1c-1.3,0-2.6,1.2-3.9,3.5s-1.9,4.5-1.9,6.4c0,1.1,0.3,1.7,0.8,1.7c0.7,0,1.7-0.8,3.2-2.3
	c1.4-1.5,2.2-2.7,2.4-3.5L96.5,217.3z"/>
<path d="M116.9,226.7c0,0.2-0.1,0.3-0.1,0.4c0,0.2,0.1,0.3,0.4,0.3s0.8-0.5,1.6-1.4c0.1-0.2,0.4-0.1,0.7,0.2
	c0.2,0.2,0.4,0.4,0.4,0.5c0,0.1,0,0.1-0.1,0.1c-0.8,0.9-1.6,1.7-2.5,2.5c-0.9,0.7-1.7,1.1-2.4,1.1c-1.2,0-1.8-0.7-1.8-2.2
	c0-0.4,0.1-0.8,0.2-1.2l2.6-8.4c0-0.2,0.1-0.3,0.1-0.4c0-0.2-0.1-0.4-0.3-0.4c-0.2,0-0.8,0.5-1.7,1.4c-0.1,0.1-0.4,0.1-0.7-0.2
	c-0.2-0.2-0.3-0.4-0.3-0.5c0,0,0-0.1,0.1-0.1c0.7-0.9,1.6-1.7,2.5-2.4c0.9-0.7,1.7-1.1,2.4-1.1c1.2,0,1.8,0.7,1.8,2.2
	c0,0.3-0.1,0.7-0.2,1.1L116.9,226.7z M122.2,209.8c0,0.6-0.3,1.2-0.8,1.6c-0.5,0.4-1.1,0.7-1.7,0.7c-1.7,0-2.5-0.9-2.5-2.7
	c0-0.6,0.3-1.1,0.8-1.6c0.5-0.5,1.1-0.7,1.7-0.7C121.4,207.2,122.2,208,122.2,209.8z"/>
<path d="M125.9,225.7c-0.2,0.5-0.2,0.9-0.2,1.2c0,0.4,0.2,0.7,0.5,0.7c0.7,0,2.1-1.1,4-3.4c0,0,0.1-0.1,0.1-0.1
	c0.1,0,0.3,0.1,0.5,0.3c0.3,0.3,0.4,0.5,0.3,0.7c-1.2,1.7-2.3,3-3.4,3.8c-1.1,0.9-2.2,1.3-3.5,1.3c-0.7,0-1.2-0.2-1.6-0.7
	s-0.6-1-0.6-1.6c0-0.5,0.1-1,0.2-1.3l2.9-9.4h-2.8c-0.2,0-0.3-0.2-0.2-0.7c0.1-0.4,0.2-0.7,0.5-0.8l3.1-0.6l2.4-3.5
	c0.1-0.1,0.2-0.1,0.5-0.1c0.9,0,1.4,0.2,1.4,0.7c0,0.1,0,0.2-0.1,0.3l-0.9,2.8h4.2c0.1,0,0.2,0.1,0.2,0.3s0,0.5-0.1,0.9
	s-0.2,0.7-0.4,0.7h-4.4L125.9,225.7z"/>
<path d="M144.3,226.5c0,0.1-0.1,0.3-0.1,0.4c0,0.3,0.1,0.4,0.4,0.4c0.4,0,1-0.4,1.8-1.2c0.1-0.1,0.4-0.1,0.7,0.2
	c0.2,0.2,0.4,0.4,0.4,0.5c0,0.1,0,0.1-0.1,0.2c-1.1,1.1-2.1,1.9-2.9,2.4s-1.7,0.8-2.3,0.8c-0.9,0-1.4-0.5-1.4-1.6
	c0-0.7,0.2-1.6,0.7-2.5l0.1-0.1l-0.2-0.1c-2.6,2.9-4.7,4.4-6.3,4.4c-0.9,0-1.5-0.3-2-0.9s-0.8-1.4-0.8-2.4c0-2.4,1.1-5,3.3-7.8
	s4.5-4.1,6.9-4.1c0.7,0,1.4,0.2,1.9,0.5l0.4-0.9c0.1-0.3,0.7-0.4,1.6-0.4c1.1,0,1.6,0.2,1.6,0.5c0,0.1,0,0.1-0.1,0.3L144.3,226.5z
	 M142.8,220.1l0.9-2.8c-0.4-0.6-1-0.8-1.8-0.8c-1.5,0-2.8,1.3-4,3.8c-1.2,2.5-1.8,4.4-1.8,5.6c0,1.4,0.3,2.1,0.8,2.1
	c0.6,0,1.4-0.5,2.2-1.4c0.9-1,1.6-2,2.2-3.1C142,222.2,142.5,221.2,142.8,220.1z"/>
<path d="M153.2,226.4c-0.1,0.2-0.1,0.4-0.1,0.5c0,0.3,0.1,0.4,0.4,0.4c0.4,0,0.9-0.5,1.6-1.5c0-0.1,0.1-0.1,0.2-0.1
	c0.1,0,0.3,0.1,0.5,0.3c0.2,0.2,0.3,0.3,0.3,0.5c0,0,0,0.1-0.1,0.1c-1.9,2.4-3.5,3.7-4.9,3.7c-1.1,0-1.7-0.8-1.7-2.2
	c0-0.3,0-0.6,0.1-1l4.4-18.5c0.1-0.5,0.2-1,0.2-1.3c0-0.9-0.4-1.3-1.1-1.3c-0.2,0-0.4-0.2-0.4-0.6c0-0.4,0.1-0.6,0.4-0.6
	c1,0,2-0.2,3.2-0.5c1.1-0.3,1.7-0.5,1.8-0.5c0.3,0,0.4,0.2,0.3,0.7L153.2,226.4z"/>
<path d="M162.6,226.7c0,0.2-0.1,0.3-0.1,0.4c0,0.2,0.1,0.3,0.4,0.3s0.8-0.5,1.6-1.4c0.1-0.2,0.4-0.1,0.7,0.2
	c0.2,0.2,0.4,0.4,0.4,0.5c0,0.1,0,0.1-0.1,0.1c-0.8,0.9-1.6,1.7-2.5,2.5c-0.9,0.7-1.7,1.1-2.4,1.1c-1.2,0-1.8-0.7-1.8-2.2
	c0-0.4,0.1-0.8,0.2-1.2l2.6-8.4c0-0.2,0.1-0.3,0.1-0.4c0-0.2-0.1-0.4-0.3-0.4c-0.2,0-0.8,0.5-1.7,1.4c-0.1,0.1-0.4,0.1-0.7-0.2
	c-0.2-0.2-0.3-0.4-0.3-0.5c0,0,0-0.1,0.1-0.1c0.7-0.9,1.6-1.7,2.5-2.4c0.9-0.7,1.7-1.1,2.4-1.1c1.2,0,1.8,0.7,1.8,2.2
	c0,0.3-0.1,0.7-0.2,1.1L162.6,226.7z M167.9,209.8c0,0.6-0.3,1.2-0.8,1.6c-0.5,0.4-1.1,0.7-1.7,0.7c-1.7,0-2.5-0.9-2.5-2.7
	c0-0.6,0.3-1.1,0.8-1.6c0.5-0.5,1.1-0.7,1.7-0.7C167.1,207.2,167.9,208,167.9,209.8z"/>
<path d="M177.2,227.9c-1.4,1.6-3.1,2.5-5.2,2.5c-1.3,0-2.3-0.5-3.1-1.4s-1.2-2.2-1.2-3.7c0-2.4,0.9-4.7,2.8-7c1.8-2.3,3.8-3.4,6-3.4
	c0.9,0,1.7,0.2,2.4,0.6s1,0.9,1,1.4c0,0.4-0.2,0.8-0.6,1.2s-0.8,0.5-1.2,0.5c-0.5,0-0.9-0.2-1.1-0.5c-0.1-0.6-0.2-1-0.5-1.3
	s-0.6-0.4-0.9-0.4c-1.1,0-2.1,0.9-2.9,2.6c-0.8,1.7-1.2,3.4-1.2,5.2c0,1.2,0.2,2.2,0.6,3c0.4,0.8,0.9,1.2,1.7,1.2
	c0.6,0,1.2-0.1,1.7-0.4s0.8-0.5,1-0.7c0.1-0.1,0.2-0.1,0.4,0c0.2,0.1,0.3,0.2,0.4,0.4S177.3,227.7,177.2,227.9z"/>
<path d="M40.5,311.7v-16c0-1.3-1.1-2-3.3-2c-0.2,0-0.2-0.2-0.2-0.7s0.1-0.7,0.2-0.7c0.6,0.1,2.1,0.1,4.7,0.1c2.6,0,4.2,0,4.9-0.1
	c0.2,0,0.2,0.2,0.2,0.7s-0.1,0.7-0.2,0.7c-2.2,0-3.4,0.7-3.4,2v9.5c0,8.4-0.4,13.2-1.2,14.4c-0.8,1.2-1.7,2.2-2.7,3
	s-2.1,1.2-3.4,1.2c-0.6,0-1.2-0.2-1.6-0.5s-0.7-0.9-0.7-1.6c0-0.4,0.2-0.7,0.5-1s0.8-0.4,1.3-0.4c0.7,0,1.3,0.2,1.8,0.6
	s0.8,0.8,0.9,1.2c0.8-0.3,1.4-0.9,1.8-2C40.3,318.8,40.5,316,40.5,311.7z"/>
<path d="M65.7,315.7c-0.3,0-1.1,0.2-2.4,0.5s-2.1,0.5-2.4,0.6c0,0-0.1,0-0.1,0c-0.2,0-0.3-0.3-0.3-0.8v-0.8c0-0.3-0.1-0.4-0.2-0.4
	s-0.3,0.1-0.5,0.3c-1.1,1-2.5,1.6-4.1,1.6c-1.2,0-2.3-0.6-3.3-1.9c-0.9-1.2-1.4-2.5-1.4-3.8v-5.9c0-1.7-0.7-2.6-2-2.6
	c-0.2,0-0.3-0.2-0.3-0.5c0-0.3,0.1-0.5,0.3-0.5c1.2,0,2.2-0.1,3-0.2s1.2-0.2,1.5-0.2c0.2,0,0.3,0.1,0.3,0.3
	c-0.1,1.4-0.1,2.3-0.1,2.7v6.2c0,1.3,0.2,2.4,0.7,3.3c0.5,0.8,1.2,1.3,2.1,1.3c1,0,1.9-0.3,2.7-0.9s1.2-1.3,1.2-2.2v-6.8
	c0-1.7-0.7-2.6-2-2.6c-0.2,0-0.3-0.2-0.3-0.5c0-0.3,0.1-0.5,0.3-0.5c1.4,0,2.5-0.1,3.2-0.2s1.1-0.2,1.2-0.2c0.3,0,0.4,0.2,0.4,0.5
	c-0.1,1-0.1,1.8-0.1,2.4v8.2c0,1.8,0.5,2.7,1.4,2.5l0.8-0.1c0.2,0,0.3,0.1,0.4,0.5c0,0.1,0,0.2,0,0.3
	C65.8,315.6,65.8,315.7,65.7,315.7z"/>
<path d="M81.9,314c0,0.9,0.7,1.4,2,1.4c0.2,0,0.2,0.2,0.2,0.5s-0.1,0.5-0.2,0.5c-0.9-0.1-2-0.1-3.3-0.1s-2.4,0-3.3,0.1
	c-0.2,0-0.2-0.2-0.2-0.5s0.1-0.5,0.2-0.5c1.3,0,1.9-0.5,1.9-1.4v-7.1c0-1-0.1-1.8-0.3-2.5s-0.4-1.2-0.8-1.5c-0.4-0.3-1-0.4-1.9-0.4
	c-0.5,0-0.9,0.1-1.3,0.3c-0.4,0.2-0.8,0.4-1.2,0.7c-0.4,0.3-0.7,0.6-1,1s-0.4,0.8-0.4,1.3v8.1c0,0.9,0.6,1.4,1.9,1.4
	c0.2,0,0.2,0.2,0.2,0.5s-0.1,0.5-0.2,0.5c-0.9-0.1-2-0.1-3.3-0.1s-2.4,0-3.3,0.1c-0.2,0-0.2-0.2-0.2-0.5s0.1-0.5,0.2-0.5
	c1.3,0,2-0.5,2-1.4v-7.9c0-1.5-0.5-2.2-1.5-2.2c-0.2,0-0.3-0.2-0.3-0.5c0-0.3,0.1-0.5,0.3-0.5c0.5,0,1-0.2,1.5-0.5
	c0.6-0.4,1.1-0.7,1.5-1.1c0.4-0.4,0.7-0.6,0.9-0.6c0.2,0,0.2,0.2,0.2,0.5l0,1.3c0,0.2,0.1,0.4,0.2,0.4c0.1,0,0.2,0,0.3-0.1
	c1.2-1.2,2.8-1.9,4.6-1.9c1.7,0,3,0.9,3.9,2.6c0.4,0.8,0.6,2.2,0.6,4.4V314z"/>
<path d="M93.2,316.4c-0.9-0.1-2-0.1-3.3-0.1s-2.4,0-3.4,0.1c-0.2,0-0.2-0.2-0.2-0.5s0.1-0.5,0.2-0.5c1.3,0,2-0.5,2-1.4v-7.8
	c0-1.6-0.5-2.4-1.6-2.4c-0.2,0-0.3-0.2-0.3-0.5c0-0.3,0.1-0.5,0.3-0.5c0.4,0,1-0.2,1.7-0.6c0.8-0.4,1.3-0.7,1.7-1s0.6-0.4,0.8-0.4
	c0.1,0,0.2,0.1,0.2,0.3c-0.1,1.3-0.1,2.2-0.1,2.9V314c0,0.9,0.7,1.4,2,1.4c0.2,0,0.2,0.2,0.2,0.5S93.3,316.4,93.2,316.4z
	 M90.8,294.6c0.4,0.4,0.6,0.8,0.6,1.3s-0.2,1-0.6,1.4c-0.4,0.4-0.8,0.6-1.4,0.6s-1-0.2-1.3-0.6c-0.4-0.4-0.5-0.8-0.5-1.4
	s0.2-1,0.5-1.3c0.4-0.4,0.8-0.5,1.3-0.5S90.4,294.2,90.8,294.6z"/>
<path d="M106.9,313.6c0.1-0.1,0.3,0,0.4,0.3s0.2,0.4,0.2,0.5c0,0.1,0,0.1-0.1,0.2c-0.3,0.3-0.9,0.7-1.9,1.3s-2.3,0.8-3.9,0.8
	c-1.7,0-3.2-0.7-4.5-2.1s-1.9-3.1-1.9-5.3s0.7-4.1,2.1-5.8c1.4-1.7,3.3-2.5,5.5-2.5c2.3,0,3.7,0.4,4.1,1.3c0.1,0.1,0.1,0.4,0.1,0.7
	c0,0.2-0.1,0.5-0.4,0.8c-0.3,0.3-0.5,0.5-0.7,0.5s-0.4-0.1-0.5-0.2c-0.9-1.3-1.9-1.9-3-1.9s-2.1,0.6-3,1.8c-0.9,1.2-1.4,2.7-1.4,4.6
	c0,1.9,0.5,3.3,1.6,4.5c1,1.1,2.2,1.7,3.4,1.7C104,314.7,105.3,314.3,106.9,313.6z"/>
<path d="M108.8,308.7c0-2,0.7-3.8,2.2-5.4c1.5-1.6,3.2-2.4,5.3-2.4c2,0,3.8,0.8,5.2,2.4s2.1,3.4,2.1,5.5c0,2.1-0.7,3.9-2,5.4
	s-3,2.3-5.2,2.3c-2.2,0-4-0.8-5.4-2.5C109.5,312.5,108.8,310.7,108.8,308.7z M111.6,308.8c0,2.1,0.5,3.7,1.4,4.9
	c1,1.2,2,1.8,3.1,1.8s2.1-0.6,3.1-1.8s1.4-2.8,1.4-4.9c0-2.1-0.5-3.7-1.4-5s-2-1.9-3.1-1.9c-1.1,0-2.2,0.6-3.1,1.9
	C112.1,305.1,111.6,306.7,111.6,308.8z"/>
<path d="M139.6,312.2c0,1.7,0.5,2.6,1.4,2.6c0.1,0,0.4,0,0.8-0.1c0.1,0,0.2,0.2,0.3,0.7c0,0.2,0,0.3-0.1,0.4
	c-0.4,0.1-1.3,0.2-2.7,0.6s-2.1,0.5-2.2,0.6c-0.2,0-0.3-0.3-0.3-0.9v-0.7c0-0.3-0.1-0.4-0.2-0.4s-0.3,0.1-0.5,0.2
	c-1.1,1-2.2,1.6-3.4,1.6c-2.3,0-4-0.7-5.1-2.2s-1.7-3.3-1.7-5.5s0.8-4.1,2.3-5.7s3.6-2.4,6-2.4c0.8,0,1.5,0.1,2,0.2
	c0.1,0,0.3,0.1,0.3,0.1c0.2,0,0.2-0.1,0.2-0.4v-5.2c0-1.6-0.5-2.5-1.6-2.5c-0.2,0-0.3-0.2-0.3-0.5s0.1-0.5,0.3-0.5
	c0.3,0,0.9-0.2,1.7-0.6s1.4-0.8,1.8-1s0.6-0.4,0.7-0.4c0.1,0,0.2,0.1,0.2,0.3l-0.1,1.9V312.2z M136.9,312.7v-8.2
	c0-0.9-0.1-1.4-0.4-1.7c-0.7-0.6-1.6-0.9-2.6-0.9c-1.6,0-2.8,0.7-3.7,2c-0.9,1.3-1.4,2.8-1.4,4.6c0,1.7,0.5,3.3,1.5,4.5
	c1,1.3,2.1,1.9,3.4,1.9c0.9,0,1.7-0.2,2.3-0.7S136.9,313.2,136.9,312.7z"/>
<path d="M143.5,308.7c0-2.1,0.7-3.9,2-5.4c1.3-1.5,2.8-2.3,4.5-2.3c1.7,0,3,0.6,4,1.7c1,1.1,1.5,2.1,1.5,2.8c0,0.7-0.3,1.1-0.9,1.1
	h-7.9c-0.4,0-0.5,0.4-0.5,1.2c0,1.9,0.4,3.5,1.3,4.8s2.1,2,3.7,2c1.2,0,2.4-0.4,3.5-1.1c0.1,0,0.1-0.1,0.2-0.1
	c0.1,0,0.3,0.1,0.4,0.2c0.1,0.1,0.1,0.2,0.1,0.4c0,0.1,0,0.1-0.1,0.1c-1.9,1.6-3.7,2.5-5.5,2.5c-1.8,0-3.3-0.8-4.6-2.4
	S143.5,310.7,143.5,308.7z M146.6,305.2c0,0.2,0.1,0.2,0.4,0.2h5.6c0.2,0,0.3-0.1,0.3-0.3c0-0.5-0.3-1.2-1-2c-0.6-0.8-1.3-1.2-2-1.2
	c-0.8,0-1.4,0.3-2,0.8c-0.6,0.5-1,1.2-1.3,2.2C146.6,305,146.6,305.1,146.6,305.2z"/>
<path d="M41.8,356.2v-17.3c0-1.3-1.1-1.9-3.3-1.9c-0.2,0-0.2-0.2-0.2-0.7s0.1-0.7,0.2-0.7c1.4,0.1,2.6,0.1,3.7,0.1
	c1.1,0,2.3,0,3.4,0s2,0,2.8,0c2.7,0,4.8,0.6,6.3,1.7c1.5,1.1,2.3,2.8,2.3,4.9c0,3.2-1.6,5.3-4.7,6.1c-0.3,0.1-0.3,0.4,0,1
	c1.7,3,3.8,5.7,6.3,8.1c1.3,1.2,2.4,1.8,3.3,1.8c0.2,0,0.2,0.1,0.2,0.3s-0.1,0.3-0.2,0.3c-0.5,0-0.9,0.1-1.2,0.1
	c-1.9,0-3.3-0.3-4.2-0.9c-1.4-1-2.7-2.2-3.7-3.6l-3.1-4.5c-0.6-0.8-1-1.4-1.3-1.6c-0.3-0.2-0.8-0.3-1.5-0.3s-1.2,0-1.5-0.1
	c-0.4,0-0.6,0-0.7,0s-0.1,0.2-0.1,0.3v6.9c0,1.4,1.1,2.1,3.4,2.1c0.2,0,0.2,0.2,0.2,0.7s-0.1,0.7-0.2,0.7c-0.9-0.1-2.5-0.1-4.7-0.1
	c-2.2,0-3.8,0-4.7,0.1c-0.2,0-0.2-0.2-0.2-0.7s0.1-0.7,0.2-0.7C40.8,358.2,41.8,357.5,41.8,356.2z M44.6,347c0,0.4,0.2,0.6,0.7,0.7
	c0.4,0.1,1.1,0.1,1.9,0.1c4.5,0,6.8-1.9,6.8-5.7c0-1.5-0.6-2.8-1.8-3.9s-2.9-1.6-5.1-1.6h-1.6c-0.6,0-0.8,0.2-0.8,0.5V347z"/>
<path d="M61.5,351.9c0-2.1,0.7-3.9,2-5.4c1.3-1.5,2.8-2.3,4.5-2.3c1.7,0,3,0.6,4,1.7c1,1.1,1.5,2.1,1.5,2.8c0,0.7-0.3,1.1-0.9,1.1
	h-7.9c-0.4,0-0.5,0.4-0.5,1.2c0,1.9,0.4,3.5,1.3,4.8s2.1,2,3.7,2c1.2,0,2.4-0.4,3.5-1.1c0.1,0,0.1-0.1,0.2-0.1
	c0.1,0,0.3,0.1,0.4,0.2c0.1,0.1,0.1,0.2,0.1,0.4c0,0.1,0,0.1-0.1,0.1c-1.9,1.6-3.7,2.5-5.5,2.5c-1.8,0-3.3-0.8-4.6-2.4
	S61.5,353.9,61.5,351.9z M64.6,348.4c0,0.2,0.1,0.2,0.4,0.2h5.6c0.2,0,0.3-0.1,0.3-0.3c0-0.5-0.3-1.2-1-2c-0.6-0.8-1.3-1.2-2-1.2
	c-0.8,0-1.4,0.3-2,0.8c-0.6,0.5-1,1.2-1.3,2.2C64.6,348.2,64.6,348.3,64.6,348.4z"/>
<path d="M75.8,364.8c0-1.2,1.1-2.5,3.3-4.1c0.2-0.2,0.3-0.3,0.3-0.4c0-0.1-0.1-0.2-0.4-0.3c-1.6-0.5-2.4-1.3-2.4-2.6
	c0-0.6,0.7-1.4,2-2.3c0.1-0.1,0.3-0.2,0.4-0.3s0.2-0.2,0.2-0.4s-0.1-0.3-0.3-0.4c-1.7-1.1-2.6-2.5-2.6-4.2c0-1.7,0.6-3.1,1.8-4.2
	c1.2-1.1,2.5-1.6,4-1.6s2.7,0.2,3.8,0.7s1.8,0.7,2.4,0.7h3c0.2,0,0.3,0.3,0.3,0.8c0,0.5-0.1,0.8-0.3,0.8h-2.9c0,0.4,0.1,1.1,0.1,1.9
	c0,1.7-0.6,3.1-1.7,4.2s-2.6,1.7-4.6,1.7c-0.4,0-0.8,0-1.3-0.1c-0.2,0-0.5,0.1-0.8,0.2c-0.8,0.5-1.2,1.1-1.2,1.8
	c0,0.9,0.9,1.4,2.6,1.4h4.5c3.5,0,5.2,1.3,5.2,4c0,2-0.9,3.7-2.8,5s-3.9,2-6.2,2c-2.1,0-3.7-0.4-4.8-1.2
	C76.3,367.2,75.8,366.1,75.8,364.8z M78.6,363.9c0,1.1,0.4,2.1,1.3,2.8c0.9,0.7,2.1,1,3.7,1c1.6,0,2.9-0.4,4-1.2s1.6-1.7,1.6-2.8
	c0-2.2-1.4-3.3-4.3-3.3h-3.2c-0.4,0-0.8,0.1-1.1,0.3C79.2,361.7,78.6,362.7,78.6,363.9z M79.1,349.4c0,1.3,0.4,2.3,1.2,3.2
	s1.6,1.2,2.5,1.2c2,0,3-1.3,3-3.9c0-2-0.5-3.4-1.5-4.2c-0.5-0.4-1.1-0.5-1.9-0.5c-0.8,0-1.6,0.4-2.2,1.2
	C79.5,347.1,79.1,348.2,79.1,349.4z"/>
<path d="M110.2,358.9c-0.3,0-1.1,0.2-2.4,0.5s-2.1,0.5-2.4,0.6c0,0-0.1,0-0.1,0c-0.2,0-0.3-0.3-0.3-0.8v-0.8c0-0.3-0.1-0.4-0.2-0.4
	s-0.3,0.1-0.5,0.3c-1.1,1-2.5,1.6-4.1,1.6c-1.2,0-2.3-0.6-3.3-1.9c-0.9-1.2-1.4-2.5-1.4-3.8v-5.9c0-1.7-0.7-2.6-2-2.6
	c-0.2,0-0.3-0.2-0.3-0.5c0-0.3,0.1-0.5,0.3-0.5c1.2,0,2.2-0.1,3-0.2s1.2-0.2,1.5-0.2c0.2,0,0.3,0.1,0.3,0.3
	c-0.1,1.4-0.1,2.3-0.1,2.7v6.2c0,1.3,0.2,2.4,0.7,3.3c0.5,0.8,1.2,1.3,2.1,1.3c1,0,1.9-0.3,2.7-0.9s1.2-1.3,1.2-2.2v-6.8
	c0-1.7-0.7-2.6-2-2.6c-0.2,0-0.3-0.2-0.3-0.5c0-0.3,0.1-0.5,0.3-0.5c1.4,0,2.5-0.1,3.2-0.2s1.1-0.2,1.2-0.2c0.3,0,0.4,0.2,0.4,0.5
	c-0.1,1-0.1,1.8-0.1,2.4v8.2c0,1.8,0.5,2.7,1.4,2.5l0.8-0.1c0.2,0,0.3,0.1,0.4,0.5c0,0.1,0,0.2,0,0.3
	C110.3,358.8,110.3,358.9,110.2,358.9z"/>
<path d="M116.9,357.2c0,0.9,0.7,1.4,2.1,1.4c0.2,0,0.2,0.2,0.2,0.5s-0.1,0.5-0.2,0.5c-0.9-0.1-2-0.1-3.4-0.1s-2.5,0-3.5,0.1
	c-0.2,0-0.2-0.2-0.2-0.5s0.1-0.5,0.2-0.5c1.4,0,2.1-0.5,2.1-1.4v-18.4c0-1.6-0.5-2.5-1.6-2.5c-0.2,0-0.3-0.2-0.3-0.5
	s0.1-0.5,0.3-0.5c0.5,0,1.5-0.4,2.9-1.3c0.4-0.2,0.7-0.4,0.9-0.6c0.2-0.1,0.3-0.2,0.5-0.2c0.1,0,0.2,0.1,0.2,0.3
	c-0.1,0.7-0.1,1.2-0.1,1.7V357.2z"/>
<path d="M133.6,357.3c0.3,0,0.4,0.2,0.5,0.5c0,0,0,0.1,0,0.1c-0.5,0.8-0.9,1.3-1.3,1.6s-0.9,0.4-1.6,0.4c-1.2,0-2.1-0.8-2.5-2.4
	c-0.9,0.9-1.6,1.5-2.1,1.9s-1.3,0.5-2.3,0.5c-0.7,0-1.2-0.2-1.6-0.5c-0.4-0.4-0.7-0.8-0.9-1.3s-0.3-1-0.3-1.5c0-0.5,0.1-1,0.4-1.4
	s0.6-0.9,1-1.3c0.5-0.4,0.8-0.7,1.2-0.8l4.1-2.3c0.2-0.1,0.4-0.3,0.4-0.6V347c0-1-0.8-1.5-2.3-1.5c-1.1,0-1.9,0.3-2.4,0.9
	c-0.1,0.1-0.1,0.6-0.3,1.6c-0.1,1.2-0.5,1.7-1.2,1.7c-0.6,0-1-0.3-1-1c0-0.7,0.2-1.3,0.7-2c0.5-0.7,0.9-1.1,1.2-1.3
	c1.5-0.9,2.9-1.3,4.3-1.3c0.8,0,1.6,0.2,2.4,0.7c0.8,0.5,1.2,1,1.2,1.7v9.4c0,1.3,0.4,2,1.2,2c0.2,0,0.6-0.2,1.3-0.7
	C133.5,357.3,133.5,357.3,133.6,357.3z M128.3,355.9v-3.8c0-0.3-0.1-0.4-0.2-0.4c-0.1,0-0.4,0.2-1.1,0.5c-2,1-3,2.3-3,3.9
	c0,0.6,0.2,1,0.6,1.4s0.9,0.5,1.5,0.5c0.5,0,1-0.2,1.4-0.7S128.3,356.4,128.3,355.9z"/>
<path d="M144.1,344.1c0.4,0,0.7,0.1,0.9,0.2s0.5,0.3,0.7,0.6c0.2,0.3,0.3,0.7,0.3,1.2c0,0.1-0.1,0.3-0.2,0.6s-0.3,0.5-0.5,0.7
	c-0.2,0.2-0.5,0.3-0.7,0.3c-0.3,0-0.7-0.1-1.2-0.4c-0.5-0.3-0.9-0.4-1.2-0.4c-0.7,0-1.3,0.4-1.8,1.1c-0.5,0.7-0.7,1.7-0.7,2.9v6.5
	c0,0.9,0.9,1.4,2.7,1.4c0.2,0,0.2,0.2,0.2,0.5s-0.1,0.5-0.2,0.5c-1-0.1-2.2-0.1-3.7-0.1s-2.7,0-3.7,0.1c-0.2,0-0.2-0.2-0.2-0.5
	s0.1-0.5,0.2-0.5c1.3,0,2-0.5,2-1.4v-8.1c0-1.3-0.5-2-1.5-2c-0.2,0-0.3-0.2-0.3-0.5c0-0.3,0.1-0.5,0.3-0.5c0.4,0,1.1-0.3,1.9-0.8
	c0.8-0.6,1.3-0.9,1.5-1.1s0.4-0.3,0.5-0.3c0.2,0,0.3,0.1,0.3,0.4c0,0.6-0.1,1.1-0.1,1.6s0.1,0.7,0.2,0.7s0.3-0.1,0.5-0.4
	C141.4,344.9,142.6,344.1,144.1,344.1z"/>
<path d="M39.6,443.3c-1,3.3-2.5,5.8-4.3,7.4c-1.9,1.7-3.8,2.5-5.7,2.5c-0.4,0-0.8-0.1-1.2-0.4c-0.4-0.3-0.7-0.6-0.7-1.2
	s0.2-1,0.7-1.4c0.4-0.4,1-0.6,1.8-0.6c0.6,0,1.1,0.2,1.5,0.6s0.6,0.8,0.6,1.2c0.9-0.3,1.8-1,2.5-2.2s2.3-6,4.7-14.5l2.7-9.5
	c0.1-0.2,0.1-0.4,0.1-0.5c0-1-0.9-1.5-2.8-1.5c-0.1,0-0.1-0.1-0.1-0.4s0.1-0.5,0.2-0.7c0.1-0.2,0.2-0.3,0.3-0.3
	c0.6,0.1,2,0.1,4.2,0.1s3.8,0,4.7-0.1c0.1,0,0.1,0.1,0.1,0.4s-0.1,0.5-0.2,0.7s-0.2,0.3-0.3,0.3c-1.2,0-2,0.2-2.5,0.5
	s-0.9,0.9-1.1,1.8L39.6,443.3z"/>
<path d="M58.6,442.3c-0.1,0.5-0.2,0.9-0.2,1.1c0,0.5,0.2,0.7,0.6,0.7s1.1-0.5,2.2-1.6c0,0,0.1-0.1,0.1-0.1c0.2,0,0.3,0.1,0.4,0.2
	c0.1,0.2,0.2,0.3,0.2,0.4c0,0.1,0,0.1-0.1,0.1c-1.9,2.1-3.6,3.2-5,3.2c-0.7,0-1-0.5-1-1.6c0-0.4,0.1-0.8,0.2-1.3l1.4-5
	c-2.9,3.6-4.8,5.8-5.9,6.7c-1.1,0.8-1.9,1.3-2.6,1.3c-1,0-1.5-0.6-1.5-1.7c0-0.4,0.1-1.1,0.4-1.9l2.2-7.8c0.1-0.2,0.1-0.5,0.1-0.7
	c0-0.5-0.2-0.8-0.5-0.8s-0.6,0.2-0.9,0.5c-0.3,0.3-0.6,0.7-1,1c0,0-0.1,0.1-0.1,0.1c-0.2,0-0.4-0.1-0.5-0.4c0-0.1-0.1-0.2-0.1-0.2
	c0,0,0-0.1,0-0.1c1.8-2.2,3.4-3.3,4.7-3.3c0.6,0,1,0.5,1,1.6c0,0.6-0.1,1.5-0.4,2.6l-1.5,5.3c-0.5,1.5-0.7,2.5-0.7,2.9
	c0,0.5,0.2,0.7,0.5,0.7c0.5,0,1.4-0.7,2.8-2.1s2.7-3.3,4-5.6c0.7-1.2,1.4-2.9,2.1-5.1c0.1-0.3,0.4-0.4,1.1-0.4
	c0.8,0,1.2,0.2,1.1,0.5L58.6,442.3z"/>
<path d="M76.1,442.3c-0.1,0.4-0.2,0.8-0.2,1.1c0,0.5,0.2,0.7,0.6,0.7s1.1-0.5,2.2-1.6c0,0,0.1-0.1,0.1-0.1c0.1,0,0.3,0.1,0.4,0.2
	s0.2,0.3,0.2,0.4s0,0.1,0,0.2c-1.9,2.1-3.6,3.2-5,3.2c-0.7,0-1-0.5-1-1.5c0-0.5,0.1-0.9,0.2-1.4l2.2-7.8c0.4-1.2,0.5-2.1,0.5-2.5
	c0-0.5-0.2-0.8-0.5-0.8c-1,0-2.4,1.4-4.3,4.1s-3.5,5.9-4.9,9.5c-0.1,0.3-0.5,0.5-1.2,0.5c-0.7,0-1-0.2-0.9-0.6l3.1-10.9
	c0.1-0.2,0.1-0.5,0.1-0.7c0-0.6-0.2-0.8-0.6-0.8c-0.4,0-1,0.5-1.9,1.5c0,0-0.1,0.1-0.1,0.1c-0.1,0-0.3-0.1-0.4-0.2
	c-0.1-0.1-0.2-0.3-0.2-0.4c0,0,0-0.1,0-0.1c1.8-2.2,3.4-3.3,4.7-3.3c0.7,0,1,0.5,1,1.6c0,0.5-0.2,1.3-0.5,2.4l-1.2,4.3l0.1,0.1
	c2.9-5.5,5.5-8.3,7.9-8.3c1.2,0,1.9,0.7,1.9,2.2c0,0.7-0.2,1.7-0.5,2.8L76.1,442.3z"/>
<path d="M85.3,442.3c-0.1,0.5-0.2,0.8-0.2,1.1c0,0.5,0.2,0.7,0.5,0.7s1.1-0.5,2.3-1.6c0.1-0.1,0.3,0,0.5,0.2
	c0.2,0.2,0.2,0.3,0.2,0.4c0,0,0,0.1,0,0.1c-0.2,0.4-0.9,1.1-2.1,1.9c-1.1,0.9-2.1,1.3-3,1.3c-0.6,0-0.9-0.5-0.9-1.5
	c0-0.4,0.1-0.9,0.2-1.4l2.4-8.6c0.1-0.2,0.1-0.4,0.1-0.6c0-0.6-0.1-0.9-0.4-0.9c-0.3,0-1,0.5-2.1,1.5c-0.1,0.1-0.3,0-0.5-0.2
	c-0.2-0.2-0.2-0.3-0.2-0.4c0,0,0-0.1,0-0.1c0.4-0.7,1.2-1.4,2.2-2.2c1-0.8,1.9-1.1,2.6-1.1c0.7,0,1,0.5,1,1.5c0,0.4-0.1,0.9-0.2,1.3
	L85.3,442.3z M89.7,425.9c0,0.7-0.2,1.2-0.6,1.6s-0.9,0.6-1.4,0.6c-1,0-1.5-0.5-1.5-1.6c0-0.6,0.2-1.1,0.6-1.6
	c0.4-0.4,0.9-0.6,1.4-0.6C89.2,424.3,89.7,424.8,89.7,425.9z"/>
<path d="M99.7,443.8c-1.6,1.6-3.3,2.5-5,2.5c-1.1,0-1.9-0.5-2.6-1.4s-1-2.1-1-3.6c0-2.4,0.8-4.7,2.5-7c1.7-2.3,3.5-3.5,5.5-3.5
	c0.7,0,1.4,0.2,2,0.5c0.6,0.3,0.9,0.7,0.9,1.2c0,0.4-0.1,0.7-0.4,1s-0.6,0.4-0.9,0.4c-0.3,0-0.5-0.1-0.7-0.3
	c-0.1-0.7-0.2-1.1-0.3-1.2c-0.2-0.3-0.8-0.5-1.6-0.5c-1.1,0-2.1,0.9-3.2,2.8c-1.1,1.9-1.6,3.7-1.6,5.3c0,1.4,0.2,2.5,0.7,3.4
	s1,1.2,1.7,1.2c0.7,0,1.3-0.1,1.8-0.4s0.9-0.6,1.4-1.1c0.1,0,0.2,0,0.3,0s0.2,0.1,0.3,0.3S99.8,443.8,99.7,443.8z"/>
<path d="M115.7,436.4c0,2.5-0.8,4.8-2.4,6.8s-3.6,3.1-6,3.1c-1.4,0-2.5-0.5-3.2-1.6c-0.7-1.1-1-2.5-1-4.2c0-2.3,0.9-4.5,2.7-6.5
	c1.8-2.1,3.7-3.1,5.8-3.1c1.4,0,2.5,0.5,3.2,1.5C115.4,433.3,115.7,434.7,115.7,436.4z M113.8,435.5c0-2.1-0.8-3.2-2.3-3.2
	c-1.4,0-2.8,1.1-4.2,3.3c-1.5,2.2-2.2,4.3-2.2,6.1c0,1.9,0.8,2.9,2.3,2.9c1.3,0,2.7-1.1,4.1-3.3S113.8,437.2,113.8,435.5z"/>
<path d="M128.7,442.2c-0.1,0.3-0.1,0.6-0.1,0.8c0,0.6,0.1,0.9,0.4,0.9c0.6,0,1.4-0.6,2.3-1.7c0,0,0.1,0,0.3,0s0.3,0.2,0.4,0.3
	s0.1,0.3,0.1,0.3c-2,2.3-3.6,3.5-4.9,3.5c-0.7,0-1.1-0.6-1.1-1.9c0-0.3,0-0.6,0.1-1l0.7-3.1l-0.2-0.3c-1.2,1.7-2.4,3.2-3.8,4.4
	c-1.3,1.2-2.5,1.8-3.7,1.8c-0.7,0-1.2-0.3-1.6-0.9s-0.6-1.3-0.6-2.1c0-2.5,1-5.2,3-8.1c2-2.9,4.2-4.3,6.5-4.3c0.9,0,1.7,0.4,2.3,1.2
	l1.7-7.2c0.2-0.8,0.3-1.4,0.3-1.7c0-1-0.5-1.5-1.4-1.5c-0.2,0-0.3-0.2-0.3-0.5s0.1-0.5,0.3-0.5c0.8,0,1.7-0.2,2.6-0.5
	s1.4-0.5,1.5-0.5c0.2,0,0.2,0.1,0.2,0.2c0,0,0,0.1,0,0.2L128.7,442.2z M128.5,433.8c-0.5-1.2-1.3-1.8-2.3-1.8
	c-1.6,0-3.1,1.3-4.4,3.9c-1.4,2.6-2,4.9-2,6.7c0,1.1,0.3,1.7,1,1.7c0.8,0,2-0.8,3.5-2.5c1.5-1.7,2.7-3.3,3.5-4.8L128.5,433.8z"/>
<path d="M145.6,432.9c0,1.6-1,3-2.9,4.3c-1.9,1.3-3.8,2.1-5.6,2.4c-0.2,0.9-0.3,1.6-0.3,2.1c0,1.9,0.7,2.9,2,2.9
	c0.5,0,1-0.1,1.5-0.4s1.3-0.9,2.5-1.8c0.1-0.1,0.2-0.1,0.3,0s0.2,0.2,0.2,0.3s0,0.2,0,0.3c-1.8,2.2-3.5,3.4-5.1,3.4
	c-2.4,0-3.6-1.4-3.6-4.3c0-2.2,0.9-4.7,2.8-7.3c1.9-2.6,3.8-3.9,5.9-3.9C144.8,430.9,145.6,431.5,145.6,432.9z M143.1,433.3
	c0-0.7-0.3-1.1-0.9-1.1c-0.9,0-1.7,0.6-2.6,1.8c-0.9,1.2-1.6,2.7-2.1,4.4c1.4-0.3,2.7-0.9,3.9-1.8S143.1,434.6,143.1,433.3z"/>
<path d="M44.2,485.7c-0.1,0.2-0.1,0.5-0.1,0.6c0,1,0.9,1.5,2.8,1.5c0.1,0,0.1,0.1,0.1,0.4s-0.1,0.5-0.2,0.7s-0.2,0.3-0.3,0.3
	c-1-0.1-2.5-0.1-4.5-0.1c-2,0-3.4,0-4.5,0.1c-0.1,0-0.1-0.1-0.1-0.4s0.1-0.5,0.2-0.7s0.2-0.3,0.3-0.3c1,0,1.9-0.1,2.5-0.4
	c0.6-0.3,1-0.8,1.3-1.7l5-17.3c0.1-0.3,0.1-0.5,0.1-0.6c0-0.9-0.9-1.4-2.7-1.4c-0.1,0-0.1-0.1-0.1-0.4s0.1-0.5,0.2-0.7
	c0.1-0.2,0.2-0.3,0.3-0.3c0.5,0.1,2,0.1,4.5,0.1s3.9,0,4.5-0.1c0.1,0,0.1,0.1,0.1,0.4s-0.1,0.5-0.2,0.7s-0.2,0.3-0.3,0.3
	c-1.3,0-2.2,0.2-2.7,0.5s-0.8,0.8-1,1.5L44.2,485.7z"/>
<path d="M54.7,485.1c-0.1,0.5-0.2,0.9-0.2,1.2c0,0.6,0.2,0.9,0.6,0.9c0.7,0,2-1.2,3.9-3.5c0,0,0.1-0.1,0.1-0.1
	c0.2,0,0.4,0.1,0.5,0.4c0.1,0.2,0.1,0.3,0,0.4c-1.4,1.9-2.5,3.2-3.4,3.9c-0.9,0.7-1.8,1.1-2.8,1.1c-0.5,0-0.8-0.2-1.1-0.5
	c-0.3-0.4-0.4-0.8-0.4-1.3c0-0.5,0-0.9,0.1-1.3l3-10.2h-2.7c-0.1,0-0.2-0.1-0.2-0.3c0-0.4,0.1-0.7,0.4-0.7l2.9-0.5l1.8-3.6
	c0.1-0.1,0.2-0.2,0.5-0.2c0.5,0,0.7,0.1,0.7,0.3c0,0,0,0.1,0,0.1l-0.9,3.5h3.9c0.1,0,0.1,0.1,0.1,0.4c0,0.2-0.1,0.5-0.2,0.7
	c-0.1,0.2-0.2,0.3-0.3,0.3h-3.9L54.7,485.1z"/>
<path d="M72.6,484.9c-0.1,0.5-0.2,1-0.2,1.4c0,0.6,0.2,1,0.6,1c0.4,0,1.2-0.6,2.3-1.7c0.1-0.1,0.3,0,0.5,0.2
	c0.2,0.2,0.2,0.3,0.2,0.4c0,0.1,0,0.1-0.1,0.1c-0.8,0.9-1.6,1.7-2.6,2.3s-1.7,0.9-2.5,0.9c-0.7,0-1.1-0.5-1.1-1.4
	c0-0.7,0.1-1.4,0.4-2.1l0.8-2l-0.2-0.1c-2.8,3.7-5.2,5.6-7.1,5.6c-0.7,0-1.2-0.3-1.6-0.8s-0.6-1.3-0.6-2.1c0-2.5,1-5.2,3-8
	c2-2.9,4.2-4.3,6.5-4.3c0.8,0,1.6,0.3,2.3,1l0.4-1.8c0.1-0.3,0.5-0.4,1.2-0.4s1,0.1,0.9,0.4L72.6,484.9z M72.2,479.5l0.8-2.7
	c-0.5-1-1.3-1.5-2.3-1.5c-1.6,0-3.1,1.3-4.4,3.9c-1.4,2.6-2,4.8-2,6.7c0,1.1,0.3,1.7,1,1.7c0.6,0,1.6-0.6,2.7-1.8
	c1.2-1.2,2.1-2.3,2.8-3.3C71.4,481.5,71.9,480.5,72.2,479.5z"/>
<path d="M81.2,485.4c-0.1,0.4-0.1,0.6-0.1,0.8c0,0.6,0.1,0.9,0.4,0.9c0.6,0,1.4-0.6,2.4-1.7c0,0,0.1-0.1,0.1-0.1
	c0.1,0,0.3,0.1,0.4,0.2s0.2,0.3,0.2,0.4c0,0,0,0.1,0,0.1c-2,2.3-3.6,3.5-4.9,3.5c-0.7,0-1.1-0.6-1.1-1.9c0-0.3,0-0.6,0.1-1L83,468
	c0.2-0.8,0.3-1.3,0.3-1.7c0-1-0.5-1.4-1.4-1.4c-0.2,0-0.3-0.2-0.3-0.5s0.1-0.5,0.3-0.5c0.9,0,1.7-0.2,2.6-0.5
	c0.9-0.3,1.4-0.5,1.5-0.5c0.2,0,0.3,0.1,0.2,0.2L81.2,485.4z"/>
<path d="M90.5,485.5c-0.1,0.5-0.2,0.8-0.2,1.1c0,0.5,0.2,0.7,0.5,0.7s1.1-0.5,2.3-1.6c0.1-0.1,0.3,0,0.5,0.2
	c0.2,0.2,0.2,0.3,0.2,0.4c0,0,0,0.1,0,0.1c-0.2,0.4-0.9,1.1-2.1,1.9c-1.1,0.9-2.1,1.3-3,1.3c-0.6,0-0.9-0.5-0.9-1.5
	c0-0.4,0.1-0.9,0.2-1.4l2.4-8.6c0.1-0.2,0.1-0.4,0.1-0.6c0-0.6-0.1-0.9-0.4-0.9c-0.3,0-1,0.5-2.1,1.5c-0.1,0.1-0.3,0-0.5-0.2
	c-0.2-0.2-0.2-0.3-0.2-0.4c0,0,0-0.1,0-0.1c0.4-0.7,1.2-1.4,2.2-2.2c1-0.8,1.9-1.1,2.6-1.1c0.7,0,1,0.5,1,1.5c0,0.4-0.1,0.9-0.2,1.3
	L90.5,485.5z M94.8,469.1c0,0.7-0.2,1.2-0.6,1.6s-0.9,0.6-1.4,0.6c-1,0-1.5-0.5-1.5-1.6c0-0.6,0.2-1.1,0.6-1.6
	c0.4-0.4,0.9-0.6,1.4-0.6C94.3,467.5,94.8,468,94.8,469.1z"/>
<path d="M104.9,487c-1.6,1.6-3.3,2.5-5,2.5c-1.1,0-1.9-0.5-2.6-1.4s-1-2.1-1-3.6c0-2.4,0.8-4.7,2.5-7c1.7-2.3,3.5-3.5,5.5-3.5
	c0.7,0,1.4,0.2,2,0.5c0.6,0.3,0.9,0.7,0.9,1.2c0,0.4-0.1,0.7-0.4,1s-0.6,0.4-0.9,0.4c-0.3,0-0.5-0.1-0.7-0.3
	c-0.1-0.7-0.2-1.1-0.3-1.2c-0.2-0.3-0.8-0.5-1.6-0.5c-1.1,0-2.1,0.9-3.2,2.8c-1.1,1.9-1.6,3.7-1.6,5.3c0,1.4,0.2,2.5,0.7,3.4
	s1,1.2,1.7,1.2c0.7,0,1.3-0.1,1.8-0.4s0.9-0.6,1.4-1.1c0.1,0,0.2,0,0.3,0s0.2,0.1,0.3,0.3S105,487,104.9,487z"/>
<path fill="#291F6C" d="M234,59.7c-0.8,1.7-1.8,3-3,3.9c-0.8,0.6-1.6,0.8-2.4,0.8c-0.5,0-0.9-0.2-1.4-0.6c-0.6-0.5-0.9-1.1-0.9-1.9
	c0-0.8,0.3-1.4,0.9-1.8c0.3-0.2,0.7-0.3,1.1-0.3c0.7,0,1.3,0.3,1.8,1c0.2,0.3,0.4,0.7,0.5,1.1c0.3-0.3,0.6-0.8,0.8-1.4
	c0.2-1,0.4-3.7,0.4-7.9c0-10.5,0-15.8,0-15.8c0-1.4-0.8-2-2.4-2c-0.1,0-0.2-0.3-0.2-0.8c0-0.6,0.1-0.8,0.2-0.8
	c0.4,0.1,1.8,0.1,4.2,0.1c2.3,0,3.6,0,4.1-0.1c0.1,0,0.2,0.3,0.2,0.8c0,0.6-0.1,0.8-0.2,0.8c-1.6,0-2.4,0.7-2.4,2V46
	c0,1.3,0,3.8-0.1,7.6C235.1,56.3,234.7,58.3,234,59.7z"/>
<path fill="#291F6C" d="M252.8,56.5c-0.1,0-0.6,0.1-1.5,0.4c-0.2,0.1-0.5,0.1-0.7,0.2c-0.5,0.1-1.1,0.3-1.6,0.5
	c-0.1,0-0.2,0.1-0.3,0.1c-0.1,0-0.2-0.3-0.2-0.8V56c0-0.3-0.1-0.4-0.2-0.4s-0.2,0.1-0.4,0.2c-0.9,1-2,1.6-3.5,1.6
	c-1.2,0-2-0.2-2.4-0.6c-1.4-1.4-2.1-3.1-2.1-5.2v-6.1c0-1.2-0.4-1.8-1.2-1.8c-0.1,0-0.2-0.2-0.2-0.6s0.1-0.6,0.2-0.6
	c1.1,0,2.1-0.1,3.2-0.3c0.3-0.1,0.5-0.1,0.7-0.1c0.4,0,0.6,0.3,0.6,0.8c-0.1,1.1-0.1,2.1-0.1,2.8v6c0,1.4,0.2,2.5,0.7,3.2
	c0.3,0.4,0.7,0.6,1.4,0.6c0.6,0,1.2-0.3,1.9-1c0.5-0.5,0.8-1.1,0.8-1.6v-7.3c0-1.2-0.4-1.8-1.2-1.8c-0.2,0-0.2-0.2-0.2-0.6
	s0.1-0.6,0.2-0.6c1,0,2.1-0.1,3.2-0.3c0.2,0,0.4-0.1,0.5-0.1c0.5,0,0.8,0.2,0.8,0.6c-0.1,1.1-0.1,2-0.1,2.7v7.1c0,1.1,0,1.7,0.1,2.1
	c0.1,0.5,0.4,0.7,0.8,0.7c0.1,0,0.3,0,0.5-0.1c0.2,0,0.3,0.1,0.4,0.6C252.9,56.2,252.9,56.4,252.8,56.5z"/>
<path fill="#291F6C" d="M267.7,57.2c-1-0.1-2-0.1-3-0.1s-2,0-3.2,0.1c-0.1,0-0.2-0.2-0.2-0.7s0.1-0.7,0.2-0.7c0.9,0,1.4-0.4,1.4-1.1
	v-7.2c0-1.7-0.3-2.9-0.8-3.5c-0.3-0.3-0.7-0.4-1.4-0.4c-0.6,0-1.1,0.3-1.7,0.9c-0.6,0.7-0.9,1.4-0.9,2.1v7.9c0,0.9,0.5,1.3,1.4,1.3
	c0.1,0,0.2,0.2,0.2,0.7s-0.1,0.7-0.2,0.7c-0.8-0.1-1.8-0.1-3-0.1c-1.3,0-2.3,0-3.1,0.1c-0.1,0-0.2-0.2-0.2-0.7s0.1-0.7,0.2-0.7
	c1,0,1.5-0.4,1.5-1.3v-7.1c0-1.6-0.4-2.3-1.3-2.3c-0.2,0-0.2-0.2-0.2-0.6c0-0.4,0.1-0.7,0.2-0.7c0.5,0,1.3-0.4,2.6-1.2
	c0.6-0.4,1-0.6,1.2-0.8c0.1-0.1,0.2-0.2,0.4-0.2c0.3,0,0.4,0.2,0.4,0.5l-0.1,1.2c0,0.2,0,0.3,0.1,0.3s0.2-0.1,0.3-0.2
	c0.4-0.6,1-1.1,1.9-1.4c0.4-0.1,0.8-0.2,1.3-0.2c1.8,0,3.1,1.1,3.9,3.3c0.3,0.9,0.5,2.1,0.5,3.9v5.8c0,0.8,0.5,1.2,1.5,1.2
	c0.2,0,0.2,0.2,0.2,0.7S267.9,57.2,267.7,57.2z"/>
<path fill="#291F6C" d="M274.9,57.2c-0.8-0.1-1.8-0.1-2.9-0.1c-1.4,0-2.4,0-3.2,0.1c-0.1,0-0.2-0.2-0.2-0.7s0.1-0.7,0.2-0.7
	c1,0,1.5-0.4,1.5-1.3v-7.3c0-1.5-0.4-2.2-1.3-2.2c-0.2,0-0.2-0.2-0.2-0.6c0-0.4,0.1-0.7,0.2-0.7c0.5,0,1.3-0.4,2.6-1.2
	c0.6-0.4,1-0.6,1.2-0.8c0.1-0.1,0.3-0.2,0.4-0.2c0.3,0,0.4,0.2,0.4,0.5c-0.1,1-0.1,2.1-0.1,3.1v9.5c0,0.9,0.5,1.3,1.5,1.3
	c0.1,0,0.2,0.2,0.2,0.7C275.1,57,275.1,57.2,274.9,57.2z M273.6,36.2c0,0.8-0.3,1.5-0.8,2c-0.4,0.3-0.8,0.5-1.2,0.5
	c-0.7,0-1.3-0.3-1.7-1c-0.2-0.4-0.4-0.9-0.4-1.4c0-0.8,0.3-1.5,0.8-2c0.4-0.3,0.8-0.5,1.2-0.5c0.7,0,1.3,0.3,1.7,1
	C273.5,35.3,273.6,35.7,273.6,36.2z"/>
<path fill="#291F6C" d="M285.3,46.2c-0.3,0-0.6-0.2-0.8-0.5l-0.5-1.2c-0.4-0.7-0.9-1-1.6-1c-0.8,0-1.4,0.5-2,1.6
	c-0.6,1.2-0.9,2.6-0.9,4.3c0,1.6,0.4,2.9,1.2,4c0.7,1,1.6,1.5,2.5,1.5c1,0,1.9-0.3,2.6-1c0.2-0.1,0.4,0,0.7,0.5
	c0.2,0.5,0.3,0.8,0.1,0.9l-1.2,0.9c-1.1,0.8-2.3,1.2-3.7,1.2c-1.3,0-2.5-0.6-3.5-1.7c-1.3-1.4-2-3.3-2-5.5c0-2,0.5-3.8,1.5-5.4
	c1.3-2.1,2.9-3.1,4.9-3.1c1.3,0,2.3,0.3,3.1,0.8c0.4,0.2,0.6,0.5,0.8,0.8c0.1,0.2,0.1,0.4,0.1,0.7c0,0.6-0.1,1.1-0.4,1.5
	C285.9,45.9,285.6,46.2,285.3,46.2z"/>
<path fill="#291F6C" d="M301.3,49.6c0,2.4-0.6,4.4-1.7,5.8c-1.1,1.4-2.7,2.1-4.6,2.1c-1.7,0-3.2-0.7-4.4-2.1c-1.3-1.5-2-3.4-2-5.7
	c0-2,0.5-3.7,1.5-5.2c1.2-1.8,2.8-2.6,4.8-2.6c2,0,3.7,0.9,4.9,2.8C300.8,46,301.3,47.6,301.3,49.6z M297.7,49.7
	c0-2.2-0.3-3.9-1-5.1c-0.5-0.9-1.1-1.4-1.8-1.4c-0.8,0-1.4,0.6-2,1.8c-0.6,1.3-0.8,2.9-0.8,4.7c0,2.2,0.3,3.8,1,5
	c0.5,0.8,1.1,1.3,1.7,1.3c0.9,0,1.6-0.7,2.1-2C297.5,52.8,297.7,51.4,297.7,49.7z"/>
<path fill="#291F6C" d="M316.6,56.5c-0.3,0.1-1,0.3-2.2,0.6c-1,0.3-1.6,0.5-1.8,0.5h-0.2c-0.1,0-0.1-0.3-0.1-0.8v-0.5
	c0-0.3,0-0.4-0.1-0.4c-0.1,0-0.3,0.1-0.4,0.2c-0.9,0.8-1.8,1.2-2.7,1.2c-2.3,0-3.9-1-5-3.1c-0.7-1.3-1-2.9-1-4.7
	c0-2.1,0.6-3.8,1.7-5.3c1.4-1.8,3.2-2.6,5.5-2.6c0.5,0,0.8,0,1.1,0.1c0.2,0,0.4-0.1,0.4-0.4v-4.8c0-1.5-0.4-2.2-1.3-2.2
	c-0.2,0-0.2-0.2-0.2-0.6c0-0.4,0.1-0.7,0.2-0.7c0.5,0,1.3-0.4,2.6-1.2c0.6-0.4,1-0.7,1.2-0.9c0.1-0.1,0.2-0.2,0.4-0.2
	c0.3,0,0.4,0.2,0.4,0.6c-0.1,0.8-0.1,1.8-0.1,3v18.1c0,1.1,0,1.7,0.1,2.1c0.1,0.5,0.4,0.7,0.8,0.7c0.1,0,0.3,0,0.5-0.1
	c0.2,0,0.3,0.1,0.4,0.5C316.7,56.2,316.7,56.4,316.6,56.5z M311.7,54.6v-9.7c0-0.5,0-0.8-0.1-0.9c0-0.1-0.1-0.2-0.2-0.3
	c-0.4-0.3-1-0.5-1.6-0.5c-1.3,0-2.2,0.8-2.8,2.5c-0.4,1-0.5,2.2-0.5,3.6c0,2.3,0.4,4,1.1,5.3c0.6,0.9,1.2,1.4,2,1.4
	c0.8,0,1.4-0.3,1.8-0.9C311.6,54.9,311.7,54.7,311.7,54.6z"/>
<path fill="#291F6C" d="M328.1,46.3c0,0.9-0.4,1.3-1.3,1.3h-5.4c-0.3,0-0.5,0.2-0.5,0.5c0,2.8,0.5,4.7,1.6,5.9
	c0.6,0.6,1.3,0.9,2.1,0.9c0.8,0,1.5-0.3,2.3-1c0.2-0.1,0.4,0,0.7,0.5c0.2,0.4,0.3,0.7,0.2,0.8c-0.5,0.6-1.1,1.1-1.9,1.5
	c-0.8,0.5-1.8,0.7-2.8,0.7c-1.3,0-2.4-0.6-3.4-1.9c-1.4-1.7-2-3.7-2-6.2c0-1.9,0.5-3.6,1.5-5.1c1.1-1.7,2.5-2.5,4-2.5
	c1.7,0,3,0.7,4,2.1C327.8,44.9,328.1,45.7,328.1,46.3z M321.1,45.6c0,0.3,0.2,0.5,0.5,0.5h2.8c0.4,0,0.5-0.1,0.5-0.4
	c0-0.8-0.3-1.4-0.8-2c-0.3-0.3-0.6-0.5-1-0.5c-0.6,0-1.1,0.3-1.6,0.8C321.3,44.4,321.1,44.9,321.1,45.6z"/>
<path fill="#291F6C" d="M233.3,96.7V79.9c0-1.3-0.8-1.9-2.4-1.9c-0.1,0-0.2-0.3-0.2-0.8s0.1-0.8,0.2-0.8c1.3,0.1,2.5,0.1,3.4,0.1
	c0.9,0,1.8,0,2.6-0.1c0.8,0,1.5-0.1,2.1-0.1c2,0,3.6,0.5,4.7,1.6s1.6,2.5,1.6,4.4c0,1-0.2,1.9-0.7,2.8s-1.1,1.5-1.8,1.9
	c-0.2,0.1-0.3,0.2-0.3,0.3s0.1,0.2,0.3,0.3c1.1,0.4,2,1.2,2.7,2.4s1.1,2.4,1.1,3.8c0,1.8-0.5,3.3-1.6,4.6s-3,2-5.9,2
	c-0.4,0-1,0-1.8-0.1c-0.8,0-1.5-0.1-2.2-0.1c-0.7,0-2,0-4,0.1c-0.1,0-0.2-0.3-0.2-0.8s0.1-0.8,0.2-0.8c0.8,0,1.3-0.2,1.7-0.6
	C233.1,97.7,233.3,97.2,233.3,96.7z M236.8,86.2c0,0.2,0.1,0.4,0.3,0.4c0.2,0,0.4,0.1,0.7,0.1c1.3,0,2.4-0.4,3-1.2s1-1.8,1-3.1
	c0-1.5-0.4-2.7-1.2-3.5c-0.8-0.8-2-1.2-3.6-1.2c-0.2,0-0.2,0.1-0.2,0.3V86.2z M236.8,95.9c0,2.1,0.7,3.1,2.1,3.1
	c2.6-0.1,3.9-1.8,3.9-5.2c0-1.6-0.4-2.9-1.3-3.9s-2.3-1.4-4.4-1.5c-0.2,0-0.4,0.2-0.4,0.6V95.9z"/>
<path fill="#291F6C" d="M261.9,92.8c0,2.4-0.6,4.4-1.7,5.8c-1.1,1.4-2.7,2.1-4.6,2.1c-1.7,0-3.2-0.7-4.4-2.1c-1.3-1.5-2-3.4-2-5.7
	c0-2,0.5-3.7,1.5-5.2c1.2-1.8,2.8-2.6,4.8-2.6c2,0,3.7,0.9,4.9,2.8C261.4,89.2,261.9,90.8,261.9,92.8z M258.3,92.9
	c0-2.2-0.3-3.9-1-5.1c-0.5-0.9-1.1-1.4-1.8-1.4c-0.8,0-1.4,0.6-2,1.8c-0.6,1.3-0.8,2.9-0.8,4.7c0,2.2,0.3,3.8,1,5
	c0.5,0.8,1.1,1.3,1.7,1.3c0.9,0,1.6-0.7,2.1-2C258.1,96,258.3,94.6,258.3,92.9z"/>
<path fill="#291F6C" d="M269.7,100.4c-0.8-0.1-1.8-0.1-2.9-0.1c-1.4,0-2.4,0-3.2,0.1c-0.1,0-0.2-0.2-0.2-0.7s0.1-0.7,0.2-0.7
	c1,0,1.5-0.4,1.5-1.2v-18c0-1.5-0.4-2.2-1.3-2.2c-0.2,0-0.2-0.2-0.2-0.6c0-0.4,0.1-0.7,0.2-0.7c0.5,0,1.3-0.4,2.6-1.2
	c0.6-0.4,1-0.7,1.2-0.9c0.1-0.1,0.2-0.2,0.4-0.2c0.3,0,0.4,0.2,0.4,0.6c-0.1,0.9-0.1,1.9-0.1,3v20.1c0,0.9,0.5,1.3,1.5,1.3
	c0.1,0,0.2,0.2,0.2,0.7S269.9,100.4,269.7,100.4z"/>
<path fill="#291F6C" d="M284.5,99.7c-0.3,0.1-1,0.3-2.2,0.6c-1,0.3-1.6,0.5-1.8,0.5h-0.2c-0.1,0-0.1-0.3-0.1-0.8v-0.5
	c0-0.3,0-0.4-0.1-0.4c-0.1,0-0.3,0.1-0.4,0.2c-0.9,0.8-1.8,1.2-2.7,1.2c-2.3,0-3.9-1-5-3.1c-0.7-1.3-1-2.9-1-4.7
	c0-2.1,0.6-3.8,1.7-5.3c1.4-1.8,3.2-2.6,5.5-2.6c0.5,0,0.8,0,1.1,0.1c0.2,0,0.4-0.1,0.4-0.4v-4.8c0-1.5-0.4-2.2-1.3-2.2
	c-0.2,0-0.2-0.2-0.2-0.6c0-0.4,0.1-0.7,0.2-0.7c0.5,0,1.3-0.4,2.6-1.2c0.6-0.4,1-0.7,1.2-0.9c0.1-0.1,0.2-0.2,0.4-0.2
	c0.3,0,0.4,0.2,0.4,0.6c-0.1,0.8-0.1,1.8-0.1,3v18.1c0,1.1,0,1.7,0.1,2.1c0.1,0.5,0.4,0.7,0.8,0.7c0.1,0,0.3,0,0.5-0.1
	c0.2,0,0.3,0.1,0.4,0.5C284.6,99.4,284.6,99.6,284.5,99.7z M279.6,97.8V88c0-0.5,0-0.8-0.1-0.9c0-0.1-0.1-0.2-0.2-0.3
	c-0.4-0.3-1-0.5-1.6-0.5c-1.3,0-2.2,0.8-2.8,2.5c-0.4,1-0.5,2.2-0.5,3.6c0,2.3,0.4,4,1.1,5.3c0.6,0.9,1.2,1.4,2,1.4
	c0.8,0,1.4-0.3,1.8-0.9C279.5,98.1,279.6,97.9,279.6,97.8z"/>
<path fill="#291F6C" d="M302.5,89.3c-0.3,0-0.6-0.2-0.8-0.5l-0.5-1.2c-0.4-0.7-0.9-1-1.6-1c-0.8,0-1.4,0.5-2,1.6
	c-0.6,1.2-0.9,2.6-0.9,4.3c0,1.6,0.4,2.9,1.2,4c0.7,1,1.6,1.5,2.5,1.5c1,0,1.9-0.3,2.6-1c0.2-0.1,0.4,0,0.7,0.5
	c0.2,0.5,0.3,0.8,0.1,0.9l-1.2,0.9c-1.1,0.8-2.3,1.2-3.7,1.2c-1.3,0-2.5-0.6-3.5-1.7c-1.3-1.4-2-3.3-2-5.5c0-2,0.5-3.8,1.5-5.4
	c1.3-2.1,2.9-3.1,4.9-3.1c1.3,0,2.3,0.3,3.1,0.8c0.4,0.2,0.6,0.5,0.8,0.8c0.1,0.2,0.1,0.4,0.1,0.7c0,0.6-0.1,1.1-0.4,1.5
	C303.1,89.1,302.8,89.3,302.5,89.3z"/>
<path fill="#291F6C" d="M318.5,92.8c0,2.4-0.6,4.4-1.7,5.8c-1.1,1.4-2.7,2.1-4.6,2.1c-1.7,0-3.2-0.7-4.4-2.1c-1.3-1.5-2-3.4-2-5.7
	c0-2,0.5-3.7,1.5-5.2c1.2-1.8,2.8-2.6,4.8-2.6c2,0,3.7,0.9,4.9,2.8C318.1,89.2,318.5,90.8,318.5,92.8z M315,92.9
	c0-2.2-0.3-3.9-1-5.1c-0.5-0.9-1.1-1.4-1.8-1.4c-0.8,0-1.4,0.6-2,1.8c-0.6,1.3-0.8,2.9-0.8,4.7c0,2.2,0.3,3.8,1,5
	c0.5,0.8,1.1,1.3,1.7,1.3c0.9,0,1.6-0.7,2.1-2C314.7,96,315,94.6,315,92.9z"/>
<path fill="#291F6C" d="M334.4,100.4c-1-0.1-2-0.1-3-0.1s-2,0-3.2,0.1c-0.1,0-0.2-0.2-0.2-0.7s0.1-0.7,0.2-0.7
	c0.9,0,1.4-0.4,1.4-1.1v-7.2c0-1.7-0.3-2.9-0.8-3.5c-0.3-0.3-0.7-0.4-1.4-0.4c-0.6,0-1.1,0.3-1.7,0.9c-0.6,0.7-0.9,1.4-0.9,2.1v7.9
	c0,0.9,0.5,1.3,1.4,1.3c0.1,0,0.2,0.2,0.2,0.7s-0.1,0.7-0.2,0.7c-0.8-0.1-1.8-0.1-3-0.1c-1.3,0-2.3,0-3.1,0.1
	c-0.1,0-0.2-0.2-0.2-0.7s0.1-0.7,0.2-0.7c1,0,1.5-0.4,1.5-1.3v-7.1c0-1.6-0.4-2.3-1.3-2.3c-0.2,0-0.2-0.2-0.2-0.6
	c0-0.4,0.1-0.7,0.2-0.7c0.5,0,1.3-0.4,2.6-1.2c0.6-0.4,1-0.6,1.2-0.8c0.1-0.1,0.2-0.2,0.4-0.2c0.3,0,0.4,0.2,0.4,0.5l-0.1,1.2
	c0,0.2,0,0.3,0.1,0.3s0.2-0.1,0.3-0.2c0.4-0.6,1-1.1,1.9-1.4c0.4-0.1,0.8-0.2,1.3-0.2c1.8,0,3.1,1.1,3.9,3.3
	c0.3,0.9,0.5,2.1,0.5,3.9v5.8c0,0.8,0.5,1.2,1.5,1.2c0.2,0,0.2,0.2,0.2,0.7S334.6,100.4,334.4,100.4z"/>
<path fill="#291F6C" d="M349.1,99.7c-0.3,0.1-1,0.3-2.2,0.6c-1,0.3-1.6,0.5-1.8,0.5h-0.2c-0.1,0-0.1-0.3-0.1-0.8v-0.5
	c0-0.3,0-0.4-0.1-0.4c-0.1,0-0.3,0.1-0.4,0.2c-0.9,0.8-1.8,1.2-2.7,1.2c-2.3,0-3.9-1-5-3.1c-0.7-1.3-1-2.9-1-4.7
	c0-2.1,0.6-3.8,1.7-5.3c1.4-1.8,3.2-2.6,5.5-2.6c0.5,0,0.8,0,1.1,0.1c0.2,0,0.4-0.1,0.4-0.4v-4.8c0-1.5-0.4-2.2-1.3-2.2
	c-0.2,0-0.2-0.2-0.2-0.6c0-0.4,0.1-0.7,0.2-0.7c0.5,0,1.3-0.4,2.6-1.2c0.6-0.4,1-0.7,1.2-0.9c0.1-0.1,0.2-0.2,0.4-0.2
	c0.3,0,0.4,0.2,0.4,0.6c-0.1,0.8-0.1,1.8-0.1,3v18.1c0,1.1,0,1.7,0.1,2.1c0.1,0.5,0.4,0.7,0.8,0.7c0.1,0,0.3,0,0.5-0.1
	c0.2,0,0.3,0.1,0.4,0.5C349.2,99.4,349.2,99.6,349.1,99.7z M344.2,97.8V88c0-0.5,0-0.8-0.1-0.9c0-0.1-0.1-0.2-0.2-0.3
	c-0.4-0.3-1-0.5-1.6-0.5c-1.3,0-2.2,0.8-2.8,2.5c-0.4,1-0.5,2.2-0.5,3.6c0,2.3,0.4,4,1.1,5.3c0.6,0.9,1.2,1.4,2,1.4
	c0.8,0,1.4-0.3,1.8-0.9C344.1,98.1,344.2,97.9,344.2,97.8z"/>
<path fill="#291F6C" d="M360.6,89.5c0,0.9-0.4,1.3-1.3,1.3h-5.4c-0.3,0-0.5,0.2-0.5,0.5c0,2.8,0.5,4.7,1.6,5.9
	c0.6,0.6,1.3,0.9,2.1,0.9c0.8,0,1.5-0.3,2.3-1c0.2-0.1,0.4,0,0.7,0.5c0.2,0.4,0.3,0.7,0.2,0.8c-0.5,0.6-1.1,1.1-1.9,1.5
	c-0.8,0.5-1.8,0.7-2.8,0.7c-1.3,0-2.4-0.6-3.4-1.9c-1.4-1.7-2-3.7-2-6.2c0-1.9,0.5-3.6,1.5-5.1c1.1-1.7,2.5-2.5,4-2.5
	c1.7,0,3,0.7,4,2.1C360.3,88.1,360.6,88.9,360.6,89.5z M353.6,88.8c0,0.3,0.2,0.5,0.5,0.5h2.8c0.4,0,0.5-0.1,0.5-0.4
	c0-0.8-0.3-1.4-0.8-2c-0.3-0.3-0.6-0.5-1-0.5c-0.6,0-1.1,0.3-1.6,0.8C353.8,87.6,353.6,88.1,353.6,88.8z"/>
<path fill="#291F6C" d="M376.6,100.4c-1-0.1-2-0.1-3-0.1s-2,0-3.2,0.1c-0.1,0-0.2-0.2-0.2-0.7s0.1-0.7,0.2-0.7
	c0.9,0,1.4-0.4,1.4-1.1v-7.2c0-1.7-0.3-2.9-0.8-3.5c-0.3-0.3-0.7-0.4-1.4-0.4c-0.6,0-1.1,0.3-1.7,0.9c-0.6,0.7-0.9,1.4-0.9,2.1v7.9
	c0,0.9,0.5,1.3,1.4,1.3c0.1,0,0.2,0.2,0.2,0.7s-0.1,0.7-0.2,0.7c-0.8-0.1-1.8-0.1-3-0.1c-1.3,0-2.3,0-3.1,0.1
	c-0.1,0-0.2-0.2-0.2-0.7s0.1-0.7,0.2-0.7c1,0,1.5-0.4,1.5-1.3v-7.1c0-1.6-0.4-2.3-1.3-2.3c-0.2,0-0.2-0.2-0.2-0.6
	c0-0.4,0.1-0.7,0.2-0.7c0.5,0,1.3-0.4,2.6-1.2c0.6-0.4,1-0.6,1.2-0.8c0.1-0.1,0.2-0.2,0.4-0.2c0.3,0,0.4,0.2,0.4,0.5l-0.1,1.2
	c0,0.2,0,0.3,0.1,0.3s0.2-0.1,0.3-0.2c0.4-0.6,1-1.1,1.9-1.4c0.4-0.1,0.8-0.2,1.3-0.2c1.8,0,3.1,1.1,3.9,3.3
	c0.3,0.9,0.5,2.1,0.5,3.9v5.8c0,0.8,0.5,1.2,1.5,1.2c0.2,0,0.2,0.2,0.2,0.7S376.7,100.4,376.6,100.4z"/>
<path fill="#291F6C" d="M381.7,100.7c-1.4,0-2.5-0.4-3.4-1.1c-0.3-0.8-0.4-2.1-0.4-3.9c0-0.2,0.2-0.3,0.5-0.3c0.4,0,0.5,0.1,0.6,0.3
	c0,0.6,0.4,1.4,0.9,2.2c0.6,0.9,1.3,1.3,2.2,1.3c0.5,0,0.9-0.2,1.3-0.7c0.3-0.4,0.5-0.8,0.5-1.3c0-1.4-0.8-2.4-2.4-2.9
	c-1.7-0.6-2.8-1.4-3.3-2.6c-0.3-0.6-0.4-1.3-0.4-2.1c0-1.3,0.5-2.4,1.4-3.3c0.9-0.8,1.9-1.2,3.2-1.2c1.1,0,2.2,0.2,3,0.6
	c0.4,1.2,0.5,2.3,0.5,3.4c0,0.2-0.1,0.3-0.4,0.3c-0.3,0-0.5-0.1-0.5-0.2c-0.2-0.6-0.5-1.3-1.1-2c-0.4-0.5-1-0.7-1.8-0.7
	c-0.6,0-1,0.3-1.4,0.9c-0.2,0.4-0.3,0.7-0.3,1.1c0,1.2,0.8,2,2.4,2.5c1.5,0.5,2.5,1.2,3.1,2.1c0.5,0.7,0.7,1.6,0.7,2.8
	c0,1.6-0.5,2.8-1.6,3.8C384.1,100.3,383,100.7,381.7,100.7z"/>
<path fill="#291F6C" d="M398.7,89.5c0,0.9-0.4,1.3-1.3,1.3H392c-0.3,0-0.5,0.2-0.5,0.5c0,2.8,0.5,4.7,1.6,5.9
	c0.6,0.6,1.3,0.9,2.1,0.9c0.8,0,1.5-0.3,2.3-1c0.2-0.1,0.4,0,0.7,0.5c0.2,0.4,0.3,0.7,0.2,0.8c-0.5,0.6-1.1,1.1-1.9,1.5
	c-0.8,0.5-1.8,0.7-2.8,0.7c-1.3,0-2.4-0.6-3.4-1.9c-1.4-1.7-2-3.7-2-6.2c0-1.9,0.5-3.6,1.5-5.1c1.1-1.7,2.5-2.5,4-2.5
	c1.7,0,3,0.7,4,2.1C398.4,88.1,398.7,88.9,398.7,89.5z M391.7,88.8c0,0.3,0.2,0.5,0.5,0.5h2.8c0.4,0,0.5-0.1,0.5-0.4
	c0-0.8-0.3-1.4-0.8-2c-0.3-0.3-0.6-0.5-1-0.5c-0.6,0-1.1,0.3-1.6,0.8C391.9,87.6,391.7,88.1,391.7,88.8z"/>
<path fill="#291F6C" d="M414,99.7c-0.3,0.1-1,0.3-2.2,0.6c-1,0.3-1.6,0.5-1.8,0.5h-0.2c-0.1,0-0.1-0.3-0.1-0.8v-0.5
	c0-0.3,0-0.4-0.1-0.4c-0.1,0-0.3,0.1-0.4,0.2c-0.9,0.8-1.8,1.2-2.7,1.2c-2.3,0-3.9-1-5-3.1c-0.7-1.3-1-2.9-1-4.7
	c0-2.1,0.6-3.8,1.7-5.3c1.4-1.8,3.2-2.6,5.5-2.6c0.5,0,0.8,0,1.1,0.1c0.2,0,0.4-0.1,0.4-0.4v-4.8c0-1.5-0.4-2.2-1.3-2.2
	c-0.2,0-0.2-0.2-0.2-0.6c0-0.4,0.1-0.7,0.2-0.7c0.5,0,1.3-0.4,2.6-1.2c0.6-0.4,1-0.7,1.2-0.9c0.1-0.1,0.2-0.2,0.4-0.2
	c0.3,0,0.4,0.2,0.4,0.6c-0.1,0.8-0.1,1.8-0.1,3v18.1c0,1.1,0,1.7,0.1,2.1c0.1,0.5,0.4,0.7,0.8,0.7c0.1,0,0.3,0,0.5-0.1
	c0.2,0,0.3,0.1,0.4,0.5C414.2,99.4,414.1,99.6,414,99.7z M409.1,97.8V88c0-0.5,0-0.8-0.1-0.9c0-0.1-0.1-0.2-0.2-0.3
	c-0.4-0.3-1-0.5-1.6-0.5c-1.3,0-2.2,0.8-2.8,2.5c-0.4,1-0.5,2.2-0.5,3.6c0,2.3,0.4,4,1.1,5.3c0.6,0.9,1.2,1.4,2,1.4
	c0.8,0,1.4-0.3,1.8-0.9C409.1,98.1,409.1,97.9,409.1,97.8z"/>
<path fill="#291F6C" d="M231.5,181.8c-0.9,4.1-2.3,7.1-4,9.1c-1.7,2-3.3,3-4.8,3c-0.7,0-1.2-0.2-1.6-0.5c-0.4-0.3-0.6-0.8-0.6-1.5
	c0-0.7,0.2-1.2,0.7-1.6c0.5-0.4,0.9-0.6,1.5-0.6c0.6,0,1,0.2,1.4,0.6c0.4,0.4,0.6,0.9,0.6,1.5c0.8-0.7,1.4-1.6,1.8-2.9
	s1.5-5.8,3.3-13.6l2.1-9.1c0.1-0.3,0.1-0.5,0.1-0.7c0-0.9-0.6-1.3-1.8-1.3c-0.1,0-0.1-0.1-0.1-0.3s0-0.5,0.1-0.8s0.2-0.6,0.3-0.6
	c0.5,0.1,1.8,0.1,3.8,0.1s3.3,0,3.8-0.1c0.1,0,0.1,0.1,0.1,0.2s0,0.4-0.1,0.8s-0.2,0.6-0.3,0.6c-0.8,0-1.4,0.1-1.7,0.4
	c-0.4,0.2-0.7,0.8-0.9,1.7L231.5,181.8z"/>
<path fill="#291F6C" d="M246.1,182.6c-0.2,0.8-0.3,1.2-0.3,1.2c0,0.2,0.1,0.4,0.4,0.4s0.7-0.5,1.4-1.5c0,0,0.1-0.1,0.1-0.1
	c0.1,0,0.2,0.1,0.4,0.3c0.2,0.2,0.3,0.4,0.3,0.5c0,0,0,0.1,0,0.1c-1.5,2.4-2.9,3.6-4,3.6c-1,0-1.5-0.7-1.5-2.1
	c0-0.4,0.1-0.9,0.2-1.3l0.6-2.7c-0.9,1.6-2,3-3,4.3c-1.1,1.2-2,1.9-2.6,1.9c-1.2,0-1.8-0.7-1.8-2.2c0-0.6,0.1-1.2,0.3-2l1.8-7.2
	c0.1-0.6,0.2-0.9,0.2-0.9c0-0.2-0.1-0.3-0.3-0.3s-0.4,0.1-0.6,0.4c-0.2,0.3-0.5,0.6-0.8,1.1c0,0.1-0.1,0.1-0.1,0.1
	c-0.1,0-0.2-0.1-0.4-0.3c-0.2-0.2-0.3-0.4-0.3-0.5c0,0,0-0.1,0-0.1c1.5-2.4,2.8-3.5,4.1-3.5c0.8,0,1.3,0.7,1.3,2.2
	c0,0.4-0.1,0.9-0.2,1.5l-1.3,5.4c-0.4,1.4-0.5,2.3-0.5,2.8c0,0.5,0.1,0.7,0.3,0.7c0.5,0,1.2-0.8,2.2-2.4c1-1.6,1.7-3,2.2-4.1
	c0.9-2,1.5-3.9,2-5.8c0.1-0.3,0.5-0.4,1.3-0.4c1.1,0,1.5,0.2,1.4,0.6L246.1,182.6z"/>
<path fill="#291F6C" d="M260.5,182.6c-0.2,0.8-0.3,1.2-0.3,1.2c0,0.2,0.1,0.4,0.3,0.4s0.7-0.5,1.4-1.5c0,0,0.1-0.1,0.1-0.1
	c0.1,0,0.2,0.1,0.4,0.3c0.2,0.2,0.3,0.4,0.3,0.5c0,0,0,0.1,0,0.1c-1.5,2.4-2.9,3.6-4.2,3.6c-0.8,0-1.3-0.8-1.3-2.2
	c0-0.4,0-0.8,0.1-1.2l1.8-7.2c0.3-1.2,0.4-2,0.4-2.3c0-0.4-0.1-0.6-0.3-0.6c-0.9,0-2.1,1.5-3.5,4.6c-1.4,3.1-2.5,5.9-3.2,8.5
	c-0.1,0.3-0.6,0.4-1.5,0.4c-0.9,0-1.4-0.1-1.3-0.4l2.7-11c0.1-0.4,0.2-0.7,0.2-0.8c0-0.3-0.1-0.4-0.3-0.4c-0.2,0-0.6,0.5-1.3,1.4
	c0,0-0.1,0.1-0.1,0.1c-0.1,0-0.2-0.1-0.4-0.3s-0.2-0.4-0.2-0.5c0,0,0-0.1,0-0.1c1.6-2.3,2.9-3.5,4-3.5c0.8,0,1.2,0.6,1.2,1.8
	c0,0.4-0.1,0.9-0.2,1.4l-0.8,2.8l0.2,0.1c1.9-4.1,3.7-6.2,5.5-6.2c1.3,0,2,0.8,2,2.5c0,0.8-0.1,1.8-0.4,2.9L260.5,182.6z"/>
<path fill="#291F6C" d="M267.9,183.5c0,0.2-0.1,0.3-0.1,0.4c0,0.2,0.1,0.3,0.4,0.3s0.7-0.5,1.2-1.4c0.1-0.2,0.3-0.1,0.5,0.2
	c0.2,0.2,0.3,0.4,0.3,0.5c0,0.1,0,0.1-0.1,0.1c-0.6,0.9-1.3,1.7-2,2.5c-0.8,0.7-1.4,1.1-1.9,1.1c-0.9,0-1.4-0.7-1.4-2.2
	c0-0.4,0.1-0.8,0.2-1.2l2.1-8.4c0-0.2,0.1-0.3,0.1-0.4c0-0.2-0.1-0.4-0.3-0.4s-0.6,0.5-1.4,1.4c-0.1,0.1-0.3,0.1-0.5-0.2
	c-0.2-0.2-0.3-0.4-0.3-0.5c0,0,0-0.1,0.1-0.1c0.6-0.9,1.3-1.7,2-2.4c0.7-0.7,1.4-1.1,1.9-1.1c1,0,1.5,0.7,1.5,2.2
	c0,0.3-0.1,0.7-0.2,1.1L267.9,183.5z M272.2,166.6c0,0.6-0.2,1.2-0.6,1.6c-0.4,0.4-0.9,0.7-1.4,0.7c-1.3,0-2-0.9-2-2.7
	c0-0.6,0.2-1.1,0.6-1.6c0.4-0.5,0.9-0.7,1.4-0.7C271.5,164,272.2,164.8,272.2,166.6z"/>
<path fill="#291F6C" d="M279.6,184.7c-1.1,1.6-2.5,2.5-4.1,2.5c-1,0-1.8-0.5-2.5-1.4c-0.6-0.9-0.9-2.2-0.9-3.7c0-2.4,0.7-4.7,2.2-7
	c1.5-2.3,3.1-3.4,4.8-3.4c0.8,0,1.4,0.2,1.9,0.6s0.8,0.9,0.8,1.4c0,0.4-0.2,0.8-0.5,1.2s-0.6,0.5-1,0.5c-0.4,0-0.7-0.2-0.8-0.5
	c0-0.6-0.2-1-0.4-1.3c-0.2-0.3-0.5-0.4-0.8-0.4c-0.9,0-1.7,0.9-2.3,2.6s-1,3.4-1,5.2c0,1.2,0.1,2.2,0.4,3s0.7,1.2,1.3,1.2
	c0.5,0,1-0.1,1.3-0.4s0.7-0.5,0.8-0.7c0.1-0.1,0.2-0.1,0.3,0c0.1,0.1,0.2,0.2,0.3,0.4S279.6,184.6,279.6,184.7z"/>
<path fill="#291F6C" d="M293.9,177.4c0,2.4-0.7,4.7-2.1,6.7c-1.4,2-3.1,3-5.2,3c-1.3,0-2.3-0.6-2.9-1.7c-0.7-1.1-1-2.6-1-4.3
	c0-2.2,0.8-4.4,2.3-6.4c1.5-2,3.2-3,5-3c1.3,0,2.3,0.5,2.9,1.6S293.9,175.7,293.9,177.4z M291.5,175.6c0-1.4-0.4-2.1-1.3-2.1
	c-1,0-2,1.2-3.2,3.5c-1.1,2.4-1.7,4.4-1.7,6c0,1.4,0.5,2.1,1.4,2.1c0.9,0,1.9-1.2,3.1-3.5C290.9,179.2,291.5,177.2,291.5,175.6z"/>
<path fill="#291F6C" d="M305.7,182.6c-0.1,0.6-0.2,0.9-0.2,1.1c0,0.3,0.1,0.4,0.2,0.4c0.3,0,0.7-0.5,1.3-1.5c0.1-0.1,0.2-0.1,0.3,0
	c0.1,0.1,0.3,0.2,0.4,0.4s0.1,0.3,0.1,0.4c-1.4,2.4-2.7,3.6-3.8,3.6c-0.5,0-0.9-0.2-1.1-0.6s-0.3-1-0.3-1.8c0-0.2,0.1-0.8,0.3-1.8
	l-0.2-0.1c-0.8,1.2-1.6,2.2-2.5,3.1c-0.9,0.9-1.7,1.3-2.6,1.3c-0.8,0-1.4-0.4-1.7-1.1s-0.5-1.5-0.5-2.4c0-2.3,0.9-4.9,2.6-7.7
	c1.7-2.8,3.5-4.2,5.4-4.2c0.5,0,1,0.2,1.5,0.5l1.3-6.8c0.1-0.5,0.2-0.9,0.2-1.3c0-0.9-0.3-1.3-0.9-1.3c-0.2,0-0.3-0.2-0.3-0.6
	s0.1-0.6,0.3-0.6c0.8,0,1.6-0.2,2.5-0.5s1.4-0.5,1.5-0.5c0.2,0,0.3,0.1,0.3,0.3c0,0.1,0,0.2-0.1,0.4L305.7,182.6z M304.5,174.1
	c-0.4-0.7-0.9-1-1.4-1c-1.1,0-2.1,1.2-3.1,3.5c-1,2.4-1.5,4.5-1.5,6.4c0,1.1,0.2,1.7,0.7,1.7c0.5,0,1.4-0.8,2.5-2.3
	c1.1-1.5,1.8-2.7,2-3.5L304.5,174.1z"/>
<path fill="#291F6C" d="M319.3,174.1c0,1.4-0.7,2.7-2,3.8s-2.9,1.9-4.7,2.5c-0.2,0.9-0.2,1.5-0.2,1.8c0,1.7,0.4,2.6,1.3,2.6
	c0.5,0,1-0.2,1.6-0.7c0.6-0.5,1-0.8,1.2-1.1c0.1-0.1,0.2,0,0.3,0s0.2,0.2,0.3,0.4c0.1,0.1,0.1,0.3,0.1,0.4c-1.4,2.2-2.8,3.4-4.3,3.4
	c-2.2,0-3.4-1.5-3.4-4.5c0-2.2,0.8-4.6,2.5-7.1c1.6-2.5,3.3-3.8,5-3.8C318.5,171.7,319.3,172.5,319.3,174.1z M316.4,174.6
	c0-0.8-0.2-1.2-0.6-1.2c-0.5,0-1,0.5-1.5,1.5c-0.5,1-1,2.3-1.4,3.8c0.8-0.3,1.6-0.9,2.4-1.7C316.1,176.3,316.4,175.5,316.4,174.6z"
	/>
<path fill="#291F6C" d="M246.3,221.9c0,1.9-0.7,3.7-2,5.5s-3.7,2.6-7,2.6c-0.6,0-1.2,0-1.9-0.1s-1.4-0.1-2-0.1c-0.6,0-2,0-4.1,0.1
	c-0.1,0-0.1-0.1-0.1-0.2s0-0.4,0.1-0.8s0.2-0.6,0.3-0.6c1,0,1.7-0.2,2-0.6c0.3-0.4,0.5-0.9,0.7-1.5l4-16.8c0.1-0.3,0.1-0.6,0.1-0.9
	c0-0.3-0.1-0.5-0.4-0.7c-0.3-0.2-0.8-0.3-1.7-0.3c-0.1,0-0.1-0.1-0.1-0.2s0-0.4,0.1-0.8c0.1-0.4,0.2-0.6,0.3-0.6
	c1.3,0,2.4,0.1,3.2,0.1s1.7,0,2.4,0s1.5,0,2.2,0c1.6,0,2.8,0.4,3.7,1.3c0.9,0.8,1.3,1.9,1.3,3.3c0,1.3-0.4,2.5-1.1,3.6
	s-1.6,1.9-2.6,2.5c-0.2,0.1-0.3,0.2-0.3,0.3s0.1,0.2,0.2,0.4C245.6,218.6,246.3,220.1,246.3,221.9z M242.8,221.4
	c0-1.3-0.4-2.2-1.1-2.7s-1.9-0.8-3.6-0.8c-0.2,0-0.4,0.2-0.5,0.5l-1.8,7.5c-0.1,0.4-0.1,0.7-0.1,1.1c0,1.1,0.5,1.6,1.4,1.6
	c1.9,0,3.3-0.6,4.2-1.8C242.3,225.5,242.8,223.7,242.8,221.4z M244.4,210.6c0-1.1-0.2-2-0.7-2.5c-0.5-0.5-1.4-0.8-2.8-0.8
	c-0.3,0-0.6,0.2-0.7,0.7l-1.9,7.8c0,0.1,0,0.2,0,0.4c0,0.2,0.2,0.3,0.7,0.3c1.6,0,2.9-0.5,4-1.6S244.4,212.4,244.4,210.6z"/>
<path fill="#291F6C" d="M259.9,220.6c0,2.4-0.7,4.7-2.1,6.7c-1.4,2-3.1,3-5.2,3c-1.3,0-2.3-0.6-2.9-1.7c-0.7-1.1-1-2.6-1-4.3
	c0-2.2,0.8-4.4,2.3-6.4c1.5-2,3.2-3,5-3c1.3,0,2.3,0.5,2.9,1.6S259.9,218.9,259.9,220.6z M257.4,218.8c0-1.4-0.4-2.1-1.3-2.1
	c-1,0-2,1.2-3.2,3.5c-1.1,2.4-1.7,4.4-1.7,6c0,1.4,0.5,2.1,1.4,2.1c0.9,0,1.9-1.2,3.1-3.5C256.9,222.4,257.4,220.4,257.4,218.8z"/>
<path fill="#291F6C" d="M264.6,226.4c0,0.2-0.1,0.4-0.1,0.5c0,0.3,0.1,0.4,0.3,0.4c0.3,0,0.7-0.5,1.3-1.5c0-0.1,0.1-0.1,0.2-0.1
	c0.1,0,0.2,0.1,0.4,0.3c0.2,0.2,0.3,0.3,0.3,0.5c0,0,0,0.1,0,0.1c-1.5,2.4-2.8,3.7-4,3.7c-0.9,0-1.3-0.8-1.3-2.2c0-0.3,0-0.6,0.1-1
	l3.5-18.5c0.1-0.5,0.1-1,0.1-1.3c0-0.9-0.3-1.3-0.9-1.3c-0.2,0-0.3-0.2-0.3-0.6c0-0.4,0.1-0.6,0.3-0.6c0.8,0,1.6-0.2,2.5-0.5
	c0.9-0.3,1.4-0.5,1.5-0.5c0.3,0,0.4,0.2,0.3,0.7L264.6,226.4z"/>
<path fill="#291F6C" d="M278.6,225.8c-0.1,0.6-0.2,0.9-0.2,1.1c0,0.3,0.1,0.4,0.2,0.4c0.3,0,0.7-0.5,1.3-1.5c0.1-0.1,0.2-0.1,0.3,0
	c0.1,0.1,0.3,0.2,0.4,0.4s0.1,0.3,0.1,0.4c-1.4,2.4-2.7,3.6-3.8,3.6c-0.5,0-0.9-0.2-1.1-0.6s-0.3-1-0.3-1.8c0-0.2,0.1-0.8,0.3-1.8
	l-0.2-0.1c-0.8,1.2-1.6,2.2-2.5,3.1c-0.9,0.9-1.7,1.3-2.6,1.3c-0.8,0-1.4-0.4-1.7-1.1s-0.5-1.5-0.5-2.4c0-2.3,0.9-4.9,2.6-7.7
	c1.7-2.8,3.5-4.2,5.4-4.2c0.5,0,1,0.2,1.5,0.5l1.3-6.8c0.1-0.5,0.2-0.9,0.2-1.3c0-0.9-0.3-1.3-0.9-1.3c-0.2,0-0.3-0.2-0.3-0.6
	s0.1-0.6,0.3-0.6c0.8,0,1.6-0.2,2.5-0.5s1.4-0.5,1.5-0.5c0.2,0,0.3,0.1,0.3,0.3c0,0.1,0,0.2-0.1,0.4L278.6,225.8z M277.5,217.3
	c-0.4-0.7-0.9-1-1.4-1c-1.1,0-2.1,1.2-3.1,3.5c-1,2.4-1.5,4.5-1.5,6.4c0,1.1,0.2,1.7,0.7,1.7c0.5,0,1.4-0.8,2.5-2.3
	c1.1-1.5,1.8-2.7,2-3.5L277.5,217.3z"/>
<path fill="#291F6C" d="M293.8,226.7c0,0.2-0.1,0.3-0.1,0.4c0,0.2,0.1,0.3,0.4,0.3s0.7-0.5,1.2-1.4c0.1-0.2,0.3-0.1,0.5,0.2
	c0.2,0.2,0.3,0.4,0.3,0.5c0,0.1,0,0.1-0.1,0.1c-0.6,0.9-1.3,1.7-2,2.5c-0.8,0.7-1.4,1.1-1.9,1.1c-0.9,0-1.4-0.7-1.4-2.2
	c0-0.4,0.1-0.8,0.2-1.2l2.1-8.4c0-0.2,0.1-0.3,0.1-0.4c0-0.2-0.1-0.4-0.3-0.4s-0.6,0.5-1.4,1.4c-0.1,0.1-0.3,0.1-0.5-0.2
	c-0.2-0.2-0.3-0.4-0.3-0.5c0,0,0-0.1,0.1-0.1c0.6-0.9,1.3-1.7,2-2.4c0.7-0.7,1.4-1.1,1.9-1.1c1,0,1.5,0.7,1.5,2.2
	c0,0.3-0.1,0.7-0.2,1.1L293.8,226.7z M298.1,209.8c0,0.6-0.2,1.2-0.6,1.6c-0.4,0.4-0.9,0.7-1.4,0.7c-1.3,0-2-0.9-2-2.7
	c0-0.6,0.2-1.1,0.6-1.6c0.4-0.5,0.9-0.7,1.4-0.7C297.4,207.2,298.1,208,298.1,209.8z"/>
<path fill="#291F6C" d="M301,225.7c-0.1,0.5-0.2,0.9-0.2,1.2c0,0.4,0.1,0.7,0.4,0.7c0.6,0,1.7-1.1,3.2-3.4c0,0,0.1-0.1,0.1-0.1
	c0.1,0,0.2,0.1,0.4,0.3c0.2,0.3,0.3,0.5,0.2,0.7c-1,1.7-1.9,3-2.7,3.8c-0.9,0.9-1.8,1.3-2.8,1.3c-0.6,0-1-0.2-1.3-0.7
	c-0.3-0.5-0.5-1-0.5-1.6c0-0.5,0-1,0.1-1.3l2.3-9.4h-2.2c-0.2,0-0.2-0.2-0.2-0.7c0-0.4,0.2-0.7,0.4-0.8l2.5-0.6l2-3.5
	c0-0.1,0.2-0.1,0.4-0.1c0.7,0,1.1,0.2,1.1,0.7c0,0.1,0,0.2,0,0.3l-0.7,2.8h3.4c0.1,0,0.1,0.1,0.1,0.3s0,0.5-0.1,0.9
	s-0.2,0.7-0.3,0.7h-3.5L301,225.7z"/>
<path fill="#291F6C" d="M315.7,226.7c0,0.1-0.1,0.2-0.1,0.3c0,0.2,0.1,0.4,0.3,0.4c0.3,0,0.8-0.4,1.4-1.2c0.1-0.1,0.3-0.1,0.6,0.2
	c0.2,0.2,0.3,0.4,0.3,0.5c0,0.1,0,0.1-0.1,0.2c-0.9,1.1-1.7,1.9-2.4,2.4s-1.3,0.8-1.8,0.8c-0.8,0-1.1-0.5-1.1-1.6
	c0-0.7,0.2-1.6,0.6-2.5l0.1-0.1l-0.2-0.1c-2.1,2.9-3.8,4.4-5.1,4.4c-0.7,0-1.2-0.3-1.6-0.9s-0.6-1.4-0.6-2.4c0-2.4,0.9-5,2.6-7.8
	c1.7-2.7,3.6-4.1,5.5-4.1c0.6,0,1.1,0.2,1.5,0.5l0.3-0.9c0.1-0.3,0.5-0.4,1.3-0.4c0.9,0,1.3,0.2,1.3,0.6c0,0.1,0,0.2-0.1,0.3
	L315.7,226.7z M314.5,220.1l0.7-2.8c-0.3-0.6-0.8-0.8-1.4-0.8c-1.2,0-2.3,1.3-3.2,3.8c-0.9,2.5-1.4,4.4-1.4,5.6
	c0,1.4,0.2,2.1,0.7,2.1c0.5,0,1.1-0.5,1.8-1.4c0.7-1,1.3-2,1.8-3.1C313.9,222.2,314.3,221.2,314.5,220.1z"/>
<path fill="#291F6C" d="M322.9,226.4c0,0.2-0.1,0.4-0.1,0.5c0,0.3,0.1,0.4,0.3,0.4c0.3,0,0.7-0.5,1.3-1.5c0-0.1,0.1-0.1,0.2-0.1
	c0.1,0,0.2,0.1,0.4,0.3c0.2,0.2,0.3,0.3,0.3,0.5c0,0,0,0.1,0,0.1c-1.5,2.4-2.8,3.7-4,3.7c-0.9,0-1.3-0.8-1.3-2.2c0-0.3,0-0.6,0.1-1
	l3.5-18.5c0.1-0.5,0.1-1,0.1-1.3c0-0.9-0.3-1.3-0.9-1.3c-0.2,0-0.3-0.2-0.3-0.6c0-0.4,0.1-0.6,0.3-0.6c0.8,0,1.6-0.2,2.5-0.5
	c0.9-0.3,1.4-0.5,1.5-0.5c0.3,0,0.4,0.2,0.3,0.7L322.9,226.4z"/>
<path fill="#291F6C" d="M330.4,226.7c0,0.2-0.1,0.3-0.1,0.4c0,0.2,0.1,0.3,0.4,0.3s0.7-0.5,1.2-1.4c0.1-0.2,0.3-0.1,0.5,0.2
	c0.2,0.2,0.3,0.4,0.3,0.5c0,0.1,0,0.1-0.1,0.1c-0.6,0.9-1.3,1.7-2,2.5c-0.8,0.7-1.4,1.1-1.9,1.1c-0.9,0-1.4-0.7-1.4-2.2
	c0-0.4,0.1-0.8,0.2-1.2l2.1-8.4c0-0.2,0.1-0.3,0.1-0.4c0-0.2-0.1-0.4-0.3-0.4s-0.6,0.5-1.4,1.4c-0.1,0.1-0.3,0.1-0.5-0.2
	c-0.2-0.2-0.3-0.4-0.3-0.5c0,0,0-0.1,0.1-0.1c0.6-0.9,1.3-1.7,2-2.4c0.7-0.7,1.4-1.1,1.9-1.1c1,0,1.5,0.7,1.5,2.2
	c0,0.3-0.1,0.7-0.2,1.1L330.4,226.7z M334.6,209.8c0,0.6-0.2,1.2-0.6,1.6c-0.4,0.4-0.9,0.7-1.4,0.7c-1.3,0-2-0.9-2-2.7
	c0-0.6,0.2-1.1,0.6-1.6c0.4-0.5,0.9-0.7,1.4-0.7C334,207.2,334.6,208,334.6,209.8z"/>
<path fill="#291F6C" d="M342.1,227.9c-1.1,1.6-2.5,2.5-4.1,2.5c-1,0-1.8-0.5-2.5-1.4c-0.6-0.9-0.9-2.2-0.9-3.7c0-2.4,0.7-4.7,2.2-7
	c1.5-2.3,3.1-3.4,4.8-3.4c0.8,0,1.4,0.2,1.9,0.6s0.8,0.9,0.8,1.4c0,0.4-0.2,0.8-0.5,1.2s-0.6,0.5-1,0.5c-0.4,0-0.7-0.2-0.8-0.5
	c0-0.6-0.2-1-0.4-1.3c-0.2-0.3-0.5-0.4-0.8-0.4c-0.9,0-1.7,0.9-2.3,2.6s-1,3.4-1,5.2c0,1.2,0.1,2.2,0.4,3s0.7,1.2,1.3,1.2
	c0.5,0,1-0.1,1.3-0.4s0.7-0.5,0.8-0.7c0.1-0.1,0.2-0.1,0.3,0c0.1,0.1,0.2,0.2,0.3,0.4S342.1,227.8,342.1,227.9z"/>
<path fill="#291F6C" d="M360.4,227.9c-1.1,1.6-2.5,2.5-4.1,2.5c-1,0-1.8-0.5-2.5-1.4c-0.6-0.9-0.9-2.2-0.9-3.7c0-2.4,0.7-4.7,2.2-7
	c1.5-2.3,3.1-3.4,4.8-3.4c0.8,0,1.4,0.2,1.9,0.6s0.8,0.9,0.8,1.4c0,0.4-0.2,0.8-0.5,1.2s-0.6,0.5-1,0.5c-0.4,0-0.7-0.2-0.8-0.5
	c0-0.6-0.2-1-0.4-1.3c-0.2-0.3-0.5-0.4-0.8-0.4c-0.9,0-1.7,0.9-2.3,2.6s-1,3.4-1,5.2c0,1.2,0.1,2.2,0.4,3s0.7,1.2,1.3,1.2
	c0.5,0,1-0.1,1.3-0.4s0.7-0.5,0.8-0.7c0.1-0.1,0.2-0.1,0.3,0c0.1,0.1,0.2,0.2,0.3,0.4S360.4,227.8,360.4,227.9z"/>
<path fill="#291F6C" d="M374.7,220.6c0,2.4-0.7,4.7-2.1,6.7c-1.4,2-3.1,3-5.2,3c-1.3,0-2.3-0.6-2.9-1.7c-0.7-1.1-1-2.6-1-4.3
	c0-2.2,0.8-4.4,2.3-6.4c1.5-2,3.2-3,5-3c1.3,0,2.3,0.5,2.9,1.6S374.7,218.9,374.7,220.6z M372.2,218.8c0-1.4-0.4-2.1-1.3-2.1
	c-1,0-2,1.2-3.2,3.5c-1.1,2.4-1.7,4.4-1.7,6c0,1.4,0.5,2.1,1.4,2.1c0.9,0,1.9-1.2,3.1-3.5C371.7,222.4,372.2,220.4,372.2,218.8z"/>
<path fill="#291F6C" d="M387,225.8c-0.2,0.8-0.3,1.2-0.3,1.2c0,0.2,0.1,0.4,0.3,0.4s0.7-0.5,1.4-1.5c0,0,0.1-0.1,0.1-0.1
	c0.1,0,0.2,0.1,0.4,0.3c0.2,0.2,0.3,0.4,0.3,0.5c0,0,0,0.1,0,0.1c-1.5,2.4-2.9,3.6-4.2,3.6c-0.8,0-1.3-0.8-1.3-2.2
	c0-0.4,0-0.8,0.1-1.2l1.8-7.2c0.3-1.2,0.4-2,0.4-2.3c0-0.4-0.1-0.6-0.3-0.6c-0.9,0-2.1,1.5-3.5,4.6c-1.4,3.1-2.5,5.9-3.2,8.5
	c-0.1,0.3-0.6,0.4-1.5,0.4c-0.9,0-1.4-0.1-1.3-0.4l2.7-11c0.1-0.4,0.2-0.7,0.2-0.8c0-0.3-0.1-0.4-0.3-0.4c-0.2,0-0.6,0.5-1.3,1.4
	c0,0-0.1,0.1-0.1,0.1c-0.1,0-0.2-0.1-0.4-0.3s-0.2-0.4-0.2-0.5c0,0,0-0.1,0-0.1c1.6-2.3,2.9-3.5,4-3.5c0.8,0,1.2,0.6,1.2,1.8
	c0,0.4-0.1,0.9-0.2,1.4L381,221l0.2,0.1c1.9-4.1,3.7-6.2,5.5-6.2c1.3,0,2,0.8,2,2.5c0,0.8-0.1,1.8-0.4,2.9L387,225.8z"/>
<path fill="#291F6C" d="M400.8,225.8c-0.1,0.6-0.2,0.9-0.2,1.1c0,0.3,0.1,0.4,0.2,0.4c0.3,0,0.7-0.5,1.3-1.5c0.1-0.1,0.2-0.1,0.3,0
	c0.1,0.1,0.3,0.2,0.4,0.4s0.1,0.3,0.1,0.4c-1.4,2.4-2.7,3.6-3.8,3.6c-0.5,0-0.9-0.2-1.1-0.6s-0.3-1-0.3-1.8c0-0.2,0.1-0.8,0.3-1.8
	l-0.2-0.1c-0.8,1.2-1.6,2.2-2.5,3.1c-0.9,0.9-1.7,1.3-2.6,1.3c-0.8,0-1.4-0.4-1.7-1.1s-0.5-1.5-0.5-2.4c0-2.3,0.9-4.9,2.6-7.7
	c1.7-2.8,3.5-4.2,5.4-4.2c0.5,0,1,0.2,1.5,0.5l1.3-6.8c0.1-0.5,0.2-0.9,0.2-1.3c0-0.9-0.3-1.3-0.9-1.3c-0.2,0-0.3-0.2-0.3-0.6
	s0.1-0.6,0.3-0.6c0.8,0,1.6-0.2,2.5-0.5s1.4-0.5,1.5-0.5c0.2,0,0.3,0.1,0.3,0.3c0,0.1,0,0.2-0.1,0.4L400.8,225.8z M399.7,217.3
	c-0.4-0.7-0.9-1-1.4-1c-1.1,0-2.1,1.2-3.1,3.5c-1,2.4-1.5,4.5-1.5,6.4c0,1.1,0.2,1.7,0.7,1.7c0.5,0,1.4-0.8,2.5-2.3
	c1.1-1.5,1.8-2.7,2-3.5L399.7,217.3z"/>
<path fill="#291F6C" d="M414.5,217.3c0,1.4-0.7,2.7-2,3.8s-2.9,1.9-4.7,2.5c-0.2,0.9-0.2,1.5-0.2,1.8c0,1.7,0.4,2.6,1.3,2.6
	c0.5,0,1-0.2,1.6-0.7c0.6-0.5,1-0.8,1.2-1.1c0.1-0.1,0.2,0,0.3,0s0.2,0.2,0.3,0.4c0.1,0.1,0.1,0.3,0.1,0.4c-1.4,2.2-2.8,3.4-4.3,3.4
	c-2.2,0-3.4-1.5-3.4-4.5c0-2.2,0.8-4.6,2.5-7.1c1.6-2.5,3.3-3.8,5-3.8C413.7,214.9,414.5,215.7,414.5,217.3z M411.6,217.7
	c0-0.8-0.2-1.2-0.6-1.2c-0.5,0-1,0.5-1.5,1.5c-0.5,1-1,2.3-1.4,3.8c0.8-0.3,1.6-0.9,2.4-1.7C411.2,219.5,411.6,218.7,411.6,217.7z"
	/>
<path fill="#291F6C" d="M425.8,225.8c-0.2,0.8-0.3,1.2-0.3,1.2c0,0.2,0.1,0.4,0.3,0.4c0.2,0,0.7-0.5,1.4-1.5c0,0,0.1-0.1,0.1-0.1
	c0.1,0,0.2,0.1,0.4,0.3c0.2,0.2,0.3,0.4,0.3,0.5c0,0,0,0.1,0,0.1c-1.5,2.4-2.9,3.6-4.2,3.6c-0.8,0-1.3-0.8-1.3-2.2
	c0-0.4,0-0.8,0.1-1.2l1.8-7.2c0.3-1.2,0.4-2,0.4-2.3c0-0.4-0.1-0.6-0.3-0.6c-0.9,0-2.1,1.5-3.5,4.6c-1.4,3.1-2.5,5.9-3.2,8.5
	c-0.1,0.3-0.6,0.4-1.5,0.4c-0.9,0-1.4-0.1-1.3-0.4l2.7-11c0.1-0.4,0.2-0.7,0.2-0.8c0-0.3-0.1-0.4-0.3-0.4c-0.2,0-0.6,0.5-1.3,1.4
	c0,0-0.1,0.1-0.1,0.1c-0.1,0-0.2-0.1-0.4-0.3s-0.2-0.4-0.2-0.5c0,0,0-0.1,0-0.1c1.6-2.3,2.9-3.5,4-3.5c0.8,0,1.2,0.6,1.2,1.8
	c0,0.4-0.1,0.9-0.2,1.4l-0.8,2.8l0.2,0.1c1.9-4.1,3.7-6.2,5.5-6.2c1.3,0,2,0.8,2,2.5c0,0.8-0.1,1.8-0.4,2.9L425.8,225.8z"/>
<path fill="#291F6C" d="M437.4,217.4c0,0.4-0.1,0.7-0.4,1.1s-0.5,0.5-0.8,0.5c-0.7,0-1.3-0.4-1.6-1.1s-0.8-1.1-1.4-1.1
	c-0.2,0-0.4,0.1-0.5,0.3s-0.2,0.4-0.2,0.6c0,0.6,0.6,1.7,1.7,3.4c1.2,1.7,1.7,3.1,1.7,4.4c0,1.3-0.4,2.4-1.3,3.4
	c-0.9,1-2,1.5-3.3,1.5c-0.7,0-1.3-0.3-1.7-0.8s-0.7-1-0.7-1.6c0-0.5,0.1-0.9,0.3-1.3s0.5-0.6,1-0.6c0.7,0,1.2,0.3,1.6,1
	c0.4,0.7,0.9,1,1.4,1c0.6,0,0.9-0.4,0.9-1.1c0-0.5-0.5-1.5-1.6-3c-1.1-1.5-1.6-2.9-1.6-4.3c0-1.5,0.4-2.7,1.2-3.6s1.8-1.3,2.9-1.3
	c0.6,0,1.2,0.3,1.7,0.8S437.4,216.8,437.4,217.4z"/>
<path fill="#291F6C" d="M448.1,217.3c0,1.4-0.7,2.7-2,3.8c-1.3,1.1-2.9,1.9-4.7,2.5c-0.2,0.9-0.2,1.5-0.2,1.8c0,1.7,0.4,2.6,1.3,2.6
	c0.5,0,1-0.2,1.6-0.7s1-0.8,1.2-1.1c0.1-0.1,0.2,0,0.3,0s0.2,0.2,0.3,0.4c0.1,0.1,0.1,0.3,0.1,0.4c-1.4,2.2-2.8,3.4-4.3,3.4
	c-2.2,0-3.4-1.5-3.4-4.5c0-2.2,0.8-4.6,2.5-7.1s3.3-3.8,5-3.8C447.3,214.9,448.1,215.7,448.1,217.3z M445.2,217.7
	c0-0.8-0.2-1.2-0.6-1.2c-0.5,0-1,0.5-1.5,1.5s-1,2.3-1.4,3.8c0.8-0.3,1.6-0.9,2.4-1.7S445.2,218.7,445.2,217.7z"/>
<path fill="#291F6C" d="M458.9,225.8c-0.1,0.6-0.2,0.9-0.2,1.1c0,0.3,0.1,0.4,0.2,0.4c0.3,0,0.7-0.5,1.3-1.5c0.1-0.1,0.2-0.1,0.3,0
	c0.1,0.1,0.3,0.2,0.4,0.4s0.1,0.3,0.1,0.4c-1.4,2.4-2.7,3.6-3.8,3.6c-0.5,0-0.9-0.2-1.1-0.6s-0.3-1-0.3-1.8c0-0.2,0.1-0.8,0.3-1.8
	l-0.2-0.1c-0.8,1.2-1.6,2.2-2.5,3.1s-1.7,1.3-2.6,1.3c-0.8,0-1.4-0.4-1.7-1.1s-0.5-1.5-0.5-2.4c0-2.3,0.9-4.9,2.6-7.7
	s3.5-4.2,5.4-4.2c0.5,0,1,0.2,1.5,0.5l1.3-6.8c0.1-0.5,0.2-0.9,0.2-1.3c0-0.9-0.3-1.3-0.9-1.3c-0.2,0-0.3-0.2-0.3-0.6
	s0.1-0.6,0.3-0.6c0.8,0,1.6-0.2,2.5-0.5c0.9-0.3,1.4-0.5,1.5-0.5c0.2,0,0.3,0.1,0.3,0.3c0,0.1,0,0.2-0.1,0.4L458.9,225.8z
	 M457.8,217.3c-0.4-0.7-0.9-1-1.4-1c-1.1,0-2.1,1.2-3.1,3.5s-1.5,4.5-1.5,6.4c0,1.1,0.2,1.7,0.7,1.7c0.5,0,1.4-0.8,2.5-2.3
	s1.8-2.7,2-3.5L457.8,217.3z"/>
<path fill="#291F6C" d="M232.8,311.7v-16c0-1.3-0.9-2-2.7-2c-0.1,0-0.2-0.2-0.2-0.7s0.1-0.7,0.2-0.7c0.4,0.1,1.7,0.1,3.7,0.1
	c2,0,3.3,0,3.9-0.1c0.1,0,0.2,0.2,0.2,0.7s-0.1,0.7-0.2,0.7c-1.8,0-2.7,0.7-2.7,2v9.5c0,8.4-0.3,13.2-1,14.4s-1.4,2.2-2.2,3
	c-0.8,0.8-1.7,1.2-2.7,1.2c-0.5,0-0.9-0.2-1.3-0.5s-0.5-0.9-0.5-1.6c0-0.4,0.1-0.7,0.4-1s0.6-0.4,1.1-0.4c0.6,0,1,0.2,1.4,0.6
	s0.6,0.8,0.7,1.2c0.7-0.3,1.1-0.9,1.4-2C232.6,318.8,232.8,316,232.8,311.7z"/>
<path fill="#291F6C" d="M252.9,315.7c-0.3,0-0.9,0.2-1.9,0.5s-1.7,0.5-1.9,0.6c0,0-0.1,0-0.1,0c-0.1,0-0.2-0.3-0.2-0.8v-0.8
	c0-0.3-0.1-0.4-0.2-0.4s-0.2,0.1-0.4,0.3c-0.9,1-2,1.6-3.3,1.6c-1,0-1.9-0.6-2.6-1.9c-0.8-1.2-1.1-2.5-1.1-3.8v-5.9
	c0-1.7-0.5-2.6-1.6-2.6c-0.1,0-0.2-0.2-0.2-0.5c0-0.3,0.1-0.5,0.2-0.5c1,0,1.8-0.1,2.4-0.2c0.6-0.1,1-0.2,1.2-0.2
	c0.2,0,0.3,0.1,0.3,0.3c-0.1,1.4-0.1,2.3-0.1,2.7v6.2c0,1.3,0.2,2.4,0.6,3.3s0.9,1.3,1.7,1.3c0.8,0,1.6-0.3,2.2-0.9s1-1.3,1-2.2
	v-6.8c0-1.7-0.5-2.6-1.6-2.6c-0.1,0-0.2-0.2-0.2-0.5c0-0.3,0.1-0.5,0.2-0.5c1.1,0,2-0.1,2.5-0.2s0.9-0.2,1-0.2
	c0.2,0,0.3,0.2,0.3,0.5c-0.1,1-0.1,1.8-0.1,2.4v8.2c0,1.8,0.4,2.7,1.2,2.5l0.7-0.1c0.2,0,0.3,0.1,0.3,0.5c0,0.1,0,0.2,0,0.3
	C253,315.6,253,315.7,252.9,315.7z"/>
<path fill="#291F6C" d="M265.8,314c0,0.9,0.5,1.4,1.6,1.4c0.1,0,0.2,0.2,0.2,0.5s-0.1,0.5-0.2,0.5c-0.7-0.1-1.6-0.1-2.6-0.1
	s-1.9,0-2.7,0.1c-0.1,0-0.2-0.2-0.2-0.5s0.1-0.5,0.2-0.5c1,0,1.5-0.5,1.5-1.4v-7.1c0-1-0.1-1.8-0.2-2.5s-0.3-1.2-0.6-1.5
	c-0.3-0.3-0.8-0.4-1.5-0.4c-0.4,0-0.8,0.1-1.1,0.3c-0.3,0.2-0.6,0.4-0.9,0.7c-0.3,0.3-0.6,0.6-0.8,1s-0.3,0.8-0.3,1.3v8.1
	c0,0.9,0.5,1.4,1.5,1.4c0.1,0,0.2,0.2,0.2,0.5s-0.1,0.5-0.2,0.5c-0.7-0.1-1.6-0.1-2.6-0.1c-1,0-1.9,0-2.6,0.1
	c-0.1,0-0.2-0.2-0.2-0.5s0.1-0.5,0.2-0.5c1.1,0,1.6-0.5,1.6-1.4v-7.9c0-1.5-0.4-2.2-1.2-2.2c-0.2,0-0.2-0.2-0.2-0.5
	c0-0.3,0.1-0.5,0.2-0.5c0.4,0,0.8-0.2,1.2-0.5c0.5-0.4,0.9-0.7,1.2-1.1c0.3-0.4,0.6-0.6,0.7-0.6c0.1,0,0.2,0.2,0.2,0.5l0,1.3
	c0,0.2,0.1,0.4,0.2,0.4c0.1,0,0.2,0,0.2-0.1c1-1.2,2.2-1.9,3.6-1.9c1.4,0,2.4,0.9,3.1,2.6c0.3,0.8,0.5,2.2,0.5,4.4V314z"/>
<path fill="#291F6C" d="M274.8,316.4c-0.7-0.1-1.6-0.1-2.6-0.1c-1,0-1.9,0-2.7,0.1c-0.1,0-0.2-0.2-0.2-0.5s0.1-0.5,0.2-0.5
	c1.1,0,1.6-0.5,1.6-1.4v-7.8c0-1.6-0.4-2.4-1.3-2.4c-0.2,0-0.2-0.2-0.2-0.5c0-0.3,0.1-0.5,0.2-0.5c0.3,0,0.8-0.2,1.4-0.6
	c0.6-0.4,1.1-0.7,1.4-1c0.3-0.3,0.5-0.4,0.6-0.4c0.1,0,0.2,0.1,0.2,0.3c-0.1,1.3-0.1,2.2-0.1,2.9V314c0,0.9,0.5,1.4,1.6,1.4
	c0.1,0,0.2,0.2,0.2,0.5S275,316.4,274.8,316.4z M273,294.6c0.3,0.4,0.4,0.8,0.4,1.3s-0.1,1-0.4,1.4c-0.3,0.4-0.7,0.6-1.1,0.6
	s-0.8-0.2-1.1-0.6c-0.3-0.4-0.4-0.8-0.4-1.4s0.1-1,0.4-1.3c0.3-0.4,0.6-0.5,1.1-0.5S272.7,294.2,273,294.6z"/>
<path fill="#291F6C" d="M285.7,313.6c0.1-0.1,0.2,0,0.4,0.3s0.2,0.4,0.2,0.5c0,0.1,0,0.1-0.1,0.2c-0.2,0.3-0.8,0.7-1.5,1.3
	s-1.8,0.8-3.1,0.8c-1.4,0-2.6-0.7-3.6-2.1c-1-1.4-1.5-3.1-1.5-5.3s0.6-4.1,1.7-5.8c1.1-1.7,2.6-2.5,4.4-2.5c1.8,0,2.9,0.4,3.3,1.3
	c0.1,0.1,0.1,0.4,0.1,0.7c0,0.2-0.1,0.5-0.3,0.8c-0.2,0.3-0.4,0.5-0.6,0.5s-0.3-0.1-0.4-0.2c-0.7-1.3-1.5-1.9-2.4-1.9
	c-0.9,0-1.7,0.6-2.4,1.8s-1.1,2.7-1.1,4.6c0,1.9,0.4,3.3,1.3,4.5c0.8,1.1,1.7,1.7,2.7,1.7C283.4,314.7,284.4,314.3,285.7,313.6z"/>
<path fill="#291F6C" d="M287.1,308.7c0-2,0.6-3.8,1.8-5.4c1.2-1.6,2.6-2.4,4.2-2.4c1.6,0,3,0.8,4.1,2.4s1.7,3.4,1.7,5.5
	c0,2.1-0.5,3.9-1.6,5.4s-2.4,2.3-4.2,2.3c-1.7,0-3.2-0.8-4.3-2.5S287.1,310.7,287.1,308.7z M289.4,308.8c0,2.1,0.4,3.7,1.1,4.9
	c0.8,1.2,1.6,1.8,2.5,1.8c0.9,0,1.7-0.6,2.5-1.8s1.2-2.8,1.2-4.9c0-2.1-0.4-3.7-1.1-5s-1.6-1.9-2.5-1.9c-0.9,0-1.7,0.6-2.5,1.9
	C289.7,305.1,289.4,306.7,289.4,308.8z"/>
<path fill="#291F6C" d="M311.7,312.2c0,1.7,0.4,2.6,1.1,2.6c0.1,0,0.3,0,0.7-0.1c0.1,0,0.2,0.2,0.2,0.7c0,0.2,0,0.3-0.1,0.4
	c-0.4,0.1-1.1,0.2-2.2,0.6s-1.7,0.5-1.7,0.6c-0.2,0-0.2-0.3-0.2-0.9v-0.7c0-0.3-0.1-0.4-0.2-0.4s-0.2,0.1-0.4,0.2
	c-0.9,1-1.8,1.6-2.8,1.6c-1.8,0-3.2-0.7-4.1-2.2c-0.9-1.4-1.3-3.3-1.3-5.5s0.6-4.1,1.9-5.7s2.8-2.4,4.8-2.4c0.7,0,1.2,0.1,1.6,0.2
	c0.1,0,0.2,0.1,0.3,0.1c0.1,0,0.2-0.1,0.2-0.4v-5.2c0-1.6-0.4-2.5-1.3-2.5c-0.2,0-0.2-0.2-0.2-0.5s0.1-0.5,0.2-0.5
	c0.2,0,0.7-0.2,1.4-0.6s1.2-0.8,1.5-1s0.5-0.4,0.6-0.4s0.1,0.1,0.1,0.3l-0.1,1.9V312.2z M309.5,312.7v-8.2c0-0.9-0.1-1.4-0.3-1.7
	c-0.6-0.6-1.2-0.9-2.1-0.9c-1.3,0-2.2,0.7-3,2c-0.7,1.3-1.1,2.8-1.1,4.6c0,1.7,0.4,3.3,1.2,4.5c0.8,1.3,1.7,1.9,2.7,1.9
	c0.7,0,1.4-0.2,1.8-0.7S309.5,313.2,309.5,312.7z"/>
<path fill="#291F6C" d="M314.8,308.7c0-2.1,0.5-3.9,1.6-5.4c1.1-1.5,2.3-2.3,3.6-2.3c1.3,0,2.4,0.6,3.2,1.7c0.8,1.1,1.2,2.1,1.2,2.8
	c0,0.7-0.2,1.1-0.7,1.1h-6.3c-0.3,0-0.4,0.4-0.4,1.2c0,1.9,0.4,3.5,1.1,4.8s1.7,2,3,2c0.9,0,1.9-0.4,2.8-1.1c0,0,0.1-0.1,0.1-0.1
	c0.1,0,0.2,0.1,0.3,0.2c0.1,0.1,0.1,0.2,0.1,0.4c0,0.1,0,0.1-0.1,0.1c-1.5,1.6-2.9,2.5-4.4,2.5c-1.4,0-2.7-0.8-3.7-2.4
	C315.3,312.6,314.8,310.7,314.8,308.7z M317.2,305.2c0,0.2,0.1,0.2,0.3,0.2h4.5c0.1,0,0.2-0.1,0.2-0.3c0-0.5-0.3-1.2-0.8-2
	c-0.5-0.8-1-1.2-1.6-1.2c-0.6,0-1.1,0.3-1.6,0.8s-0.8,1.2-1.1,2.2C317.2,305,317.2,305.1,317.2,305.2z"/>
<path fill="#291F6C" d="M233.8,356.2v-17.3c0-1.3-0.9-1.9-2.7-1.9c-0.1,0-0.2-0.2-0.2-0.7s0.1-0.7,0.2-0.7c1.1,0.1,2.1,0.1,3,0.1
	c0.9,0,1.8,0,2.7,0c0.9,0,1.6,0,2.2,0c2.2,0,3.8,0.6,5.1,1.7s1.8,2.8,1.8,4.9c0,3.2-1.3,5.3-3.8,6.1c-0.3,0.1-0.3,0.4,0,1
	c1.4,3,3,5.7,5,8.1c1,1.2,1.9,1.8,2.6,1.8c0.1,0,0.2,0.1,0.2,0.3s-0.1,0.3-0.2,0.3c-0.4,0-0.7,0.1-0.9,0.1c-1.5,0-2.7-0.3-3.4-0.9
	c-1.1-1-2.1-2.2-3-3.6l-2.5-4.5c-0.4-0.8-0.8-1.4-1.1-1.6c-0.3-0.2-0.6-0.3-1.2-0.3s-0.9,0-1.2-0.1c-0.3,0-0.5,0-0.5,0
	s-0.1,0.2-0.1,0.3v6.9c0,1.4,0.9,2.1,2.7,2.1c0.1,0,0.2,0.2,0.2,0.7s-0.1,0.7-0.2,0.7c-0.7-0.1-2-0.1-3.8-0.1c-1.8,0-3,0-3.7,0.1
	c-0.1,0-0.2-0.2-0.2-0.7s0.1-0.7,0.2-0.7C233,358.2,233.8,357.5,233.8,356.2z M236,347c0,0.4,0.2,0.6,0.5,0.7
	c0.4,0.1,0.9,0.1,1.5,0.1c3.6,0,5.4-1.9,5.4-5.7c0-1.5-0.5-2.8-1.5-3.9s-2.3-1.6-4.1-1.6h-1.3c-0.4,0-0.7,0.2-0.7,0.5V347z"/>
<path fill="#291F6C" d="M249.2,351.9c0-2.1,0.5-3.9,1.6-5.4c1.1-1.5,2.3-2.3,3.6-2.3c1.3,0,2.4,0.6,3.2,1.7c0.8,1.1,1.2,2.1,1.2,2.8
	c0,0.7-0.2,1.1-0.7,1.1h-6.3c-0.3,0-0.4,0.4-0.4,1.2c0,1.9,0.4,3.5,1.1,4.8s1.7,2,3,2c0.9,0,1.9-0.4,2.8-1.1c0,0,0.1-0.1,0.1-0.1
	c0.1,0,0.2,0.1,0.3,0.2c0.1,0.1,0.1,0.2,0.1,0.4c0,0.1,0,0.1-0.1,0.1c-1.5,1.6-2.9,2.5-4.4,2.5c-1.4,0-2.7-0.8-3.7-2.4
	C249.7,355.8,249.2,353.9,249.2,351.9z M251.7,348.4c0,0.2,0.1,0.2,0.3,0.2h4.5c0.1,0,0.2-0.1,0.2-0.3c0-0.5-0.3-1.2-0.8-2
	c-0.5-0.8-1-1.2-1.6-1.2c-0.6,0-1.1,0.3-1.6,0.8s-0.8,1.2-1.1,2.2C251.7,348.2,251.7,348.3,251.7,348.4z"/>
<path fill="#291F6C" d="M260.6,364.9c0-1.2,0.9-2.5,2.6-4.1c0.2-0.2,0.2-0.3,0.2-0.4c0-0.1-0.1-0.2-0.3-0.3
	c-1.3-0.5-1.9-1.3-1.9-2.6c0-0.6,0.5-1.4,1.6-2.3c0.1-0.1,0.2-0.2,0.3-0.3c0.1-0.1,0.2-0.2,0.2-0.4s-0.1-0.3-0.2-0.4
	c-1.4-1.1-2.1-2.5-2.1-4.2c0-1.7,0.5-3.1,1.4-4.2c0.9-1.1,2-1.6,3.2-1.6c1.2,0,2.2,0.2,3,0.7s1.5,0.7,1.9,0.7h2.4
	c0.1,0,0.2,0.3,0.2,0.8c0,0.5-0.1,0.8-0.2,0.8h-2.3c0,0.4,0.1,1.1,0.1,1.9c0,1.7-0.4,3.1-1.3,4.2s-2.1,1.7-3.7,1.7
	c-0.3,0-0.7,0-1.1-0.1c-0.2,0-0.4,0.1-0.6,0.2c-0.6,0.5-1,1.1-1,1.8c0,0.9,0.7,1.4,2.1,1.4h3.6c2.8,0,4.2,1.3,4.2,4
	c0,2-0.8,3.7-2.2,5s-3.2,2-5,2c-1.7,0-3-0.4-3.9-1.2S260.6,366.1,260.6,364.9z M262.8,363.9c0,1.1,0.3,2.1,1,2.8s1.7,1,3,1
	c1.3,0,2.4-0.4,3.2-1.2s1.2-1.7,1.2-2.8c0-2.2-1.1-3.3-3.4-3.3h-2.6c-0.3,0-0.6,0.1-0.9,0.3C263.4,361.7,262.8,362.7,262.8,363.9z
	 M263.3,349.4c0,1.3,0.3,2.3,0.9,3.2c0.6,0.8,1.3,1.2,2,1.2c1.6,0,2.4-1.3,2.4-3.9c0-2-0.4-3.4-1.2-4.2c-0.4-0.4-0.9-0.5-1.5-0.5
	c-0.6,0-1.2,0.4-1.8,1.2C263.5,347.1,263.3,348.2,263.3,349.4z"/>
<path fill="#291F6C" d="M288.3,358.9c-0.3,0-0.9,0.2-1.9,0.5s-1.7,0.5-1.9,0.6c0,0-0.1,0-0.1,0c-0.1,0-0.2-0.3-0.2-0.8v-0.8
	c0-0.3-0.1-0.4-0.2-0.4s-0.2,0.1-0.4,0.3c-0.9,1-2,1.6-3.3,1.6c-1,0-1.9-0.6-2.6-1.9c-0.8-1.2-1.1-2.5-1.1-3.8v-5.9
	c0-1.7-0.5-2.6-1.6-2.6c-0.1,0-0.2-0.2-0.2-0.5c0-0.3,0.1-0.5,0.2-0.5c1,0,1.8-0.1,2.4-0.2c0.6-0.1,1-0.2,1.2-0.2
	c0.2,0,0.3,0.1,0.3,0.3c-0.1,1.4-0.1,2.3-0.1,2.7v6.2c0,1.3,0.2,2.4,0.6,3.3s0.9,1.3,1.7,1.3c0.8,0,1.6-0.3,2.2-0.9s1-1.3,1-2.2
	v-6.8c0-1.7-0.5-2.6-1.6-2.6c-0.1,0-0.2-0.2-0.2-0.5c0-0.3,0.1-0.5,0.2-0.5c1.1,0,2-0.1,2.5-0.2s0.9-0.2,1-0.2
	c0.2,0,0.3,0.2,0.3,0.5c-0.1,1-0.1,1.8-0.1,2.4v8.2c0,1.8,0.4,2.7,1.2,2.5l0.7-0.1c0.2,0,0.3,0.1,0.3,0.5c0,0.1,0,0.2,0,0.3
	C288.4,358.8,288.4,358.9,288.3,358.9z"/>
<path fill="#291F6C" d="M293.7,357.2c0,0.9,0.6,1.4,1.7,1.4c0.1,0,0.2,0.2,0.2,0.5s-0.1,0.5-0.2,0.5c-0.7-0.1-1.6-0.1-2.7-0.1
	c-1.1,0-2,0-2.8,0.1c-0.1,0-0.2-0.2-0.2-0.5s0.1-0.5,0.2-0.5c1.1,0,1.7-0.5,1.7-1.4v-18.4c0-1.6-0.4-2.5-1.3-2.5
	c-0.2,0-0.2-0.2-0.2-0.5s0.1-0.5,0.2-0.5c0.4,0,1.2-0.4,2.3-1.3c0.3-0.2,0.6-0.4,0.7-0.6c0.2-0.1,0.3-0.2,0.4-0.2
	c0.1,0,0.1,0.1,0.1,0.3c-0.1,0.7-0.1,1.2-0.1,1.7V357.2z"/>
<path fill="#291F6C" d="M307,357.3c0.2,0,0.3,0.2,0.4,0.5c0,0,0,0.1,0,0.1c-0.4,0.8-0.7,1.3-1.1,1.6s-0.8,0.4-1.3,0.4
	c-1,0-1.7-0.8-2-2.4c-0.7,0.9-1.3,1.5-1.7,1.9s-1,0.5-1.9,0.5c-0.5,0-1-0.2-1.3-0.5c-0.3-0.4-0.6-0.8-0.7-1.3s-0.2-1-0.2-1.5
	c0-0.5,0.1-1,0.3-1.4s0.5-0.9,0.8-1.3c0.4-0.4,0.7-0.7,0.9-0.8l3.3-2.3c0.2-0.1,0.3-0.3,0.3-0.6V347c0-1-0.6-1.5-1.9-1.5
	c-0.9,0-1.5,0.3-1.9,0.9c0,0.1-0.1,0.6-0.2,1.6c-0.1,1.2-0.4,1.7-1,1.7c-0.5,0-0.8-0.3-0.8-1c0-0.7,0.2-1.3,0.6-2
	c0.4-0.7,0.7-1.1,1-1.3c1.2-0.9,2.4-1.3,3.5-1.3c0.7,0,1.3,0.2,1.9,0.7c0.6,0.5,0.9,1,0.9,1.7v9.4c0,1.3,0.3,2,0.9,2
	c0.2,0,0.5-0.2,1-0.7C307,357.3,307,357.3,307,357.3z M302.8,355.9v-3.8c0-0.3-0.1-0.4-0.2-0.4c-0.1,0-0.4,0.2-0.8,0.5
	c-1.6,1-2.4,2.3-2.4,3.9c0,0.6,0.1,1,0.4,1.4c0.3,0.4,0.7,0.5,1.2,0.5c0.4,0,0.8-0.2,1.2-0.7C302.6,356.8,302.8,356.4,302.8,355.9z"
	/>
<path fill="#291F6C" d="M315.4,344.1c0.3,0,0.5,0.1,0.7,0.2s0.4,0.3,0.6,0.6c0.2,0.3,0.3,0.7,0.3,1.2c0,0.1,0,0.3-0.1,0.6
	s-0.2,0.5-0.4,0.7c-0.2,0.2-0.4,0.3-0.6,0.3s-0.5-0.1-0.9-0.4c-0.4-0.3-0.7-0.4-1-0.4c-0.6,0-1.1,0.4-1.5,1.1
	c-0.4,0.7-0.6,1.7-0.6,2.9v6.5c0,0.9,0.7,1.4,2.1,1.4c0.1,0,0.2,0.2,0.2,0.5s-0.1,0.5-0.2,0.5c-0.8-0.1-1.8-0.1-2.9-0.1
	s-2.2,0-2.9,0.1c-0.1,0-0.2-0.2-0.2-0.5s0.1-0.5,0.2-0.5c1.1,0,1.6-0.5,1.6-1.4v-8.1c0-1.3-0.4-2-1.2-2c-0.2,0-0.2-0.2-0.2-0.5
	c0-0.3,0.1-0.5,0.2-0.5c0.4,0,0.9-0.3,1.5-0.8c0.7-0.6,1.1-0.9,1.2-1.1c0.2-0.2,0.3-0.3,0.4-0.3c0.2,0,0.2,0.1,0.2,0.4
	c0,0.6-0.1,1.1-0.1,1.6s0.1,0.7,0.2,0.7s0.2-0.1,0.4-0.4C313.3,344.9,314.3,344.1,315.4,344.1z"/>
<path fill="#291F6C" d="M335.3,356.8c0.1-0.1,0.2,0,0.4,0.3s0.2,0.4,0.2,0.5c0,0.1,0,0.1-0.1,0.2c-0.2,0.3-0.8,0.7-1.5,1.3
	s-1.8,0.8-3.1,0.8c-1.4,0-2.6-0.7-3.6-2.1c-1-1.4-1.5-3.1-1.5-5.3s0.6-4.1,1.7-5.8c1.1-1.7,2.6-2.5,4.4-2.5c1.8,0,2.9,0.4,3.3,1.3
	c0.1,0.1,0.1,0.4,0.1,0.7c0,0.2-0.1,0.5-0.3,0.8c-0.2,0.3-0.4,0.5-0.6,0.5s-0.3-0.1-0.4-0.2c-0.7-1.3-1.5-1.9-2.4-1.9
	c-0.9,0-1.7,0.6-2.4,1.8s-1.1,2.7-1.1,4.6c0,1.9,0.4,3.3,1.3,4.5c0.8,1.1,1.7,1.7,2.7,1.7C333.1,357.9,334,357.5,335.3,356.8z"/>
<path fill="#291F6C" d="M336.7,351.9c0-2,0.6-3.8,1.8-5.4c1.2-1.6,2.6-2.4,4.2-2.4c1.6,0,3,0.8,4.1,2.4s1.7,3.4,1.7,5.5
	c0,2.1-0.5,3.9-1.6,5.4s-2.4,2.3-4.2,2.3c-1.7,0-3.2-0.8-4.3-2.5S336.7,353.9,336.7,351.9z M339,352c0,2.1,0.4,3.7,1.1,4.9
	c0.8,1.2,1.6,1.8,2.5,1.8c0.9,0,1.7-0.6,2.5-1.8s1.2-2.8,1.2-4.9c0-2.1-0.4-3.7-1.1-5s-1.6-1.9-2.5-1.9c-0.9,0-1.7,0.6-2.5,1.9
	C339.3,348.3,339,349.9,339,352z"/>
<path fill="#291F6C" d="M362.1,357.2c0,0.9,0.5,1.4,1.6,1.4c0.1,0,0.2,0.2,0.2,0.5s-0.1,0.5-0.2,0.5c-0.7-0.1-1.6-0.1-2.6-0.1
	s-1.9,0-2.7,0.1c-0.1,0-0.2-0.2-0.2-0.5s0.1-0.5,0.2-0.5c1,0,1.5-0.5,1.5-1.4v-7.1c0-1-0.1-1.8-0.2-2.5s-0.3-1.2-0.6-1.5
	c-0.3-0.3-0.8-0.4-1.5-0.4c-0.4,0-0.8,0.1-1.1,0.3c-0.3,0.2-0.6,0.4-0.9,0.7c-0.3,0.3-0.6,0.6-0.8,1s-0.3,0.8-0.3,1.3v8.1
	c0,0.9,0.5,1.4,1.5,1.4c0.1,0,0.2,0.2,0.2,0.5s-0.1,0.5-0.2,0.5c-0.7-0.1-1.6-0.1-2.6-0.1c-1,0-1.9,0-2.6,0.1
	c-0.1,0-0.2-0.2-0.2-0.5s0.1-0.5,0.2-0.5c1.1,0,1.6-0.5,1.6-1.4v-7.9c0-1.5-0.4-2.2-1.2-2.2c-0.2,0-0.2-0.2-0.2-0.5
	c0-0.3,0.1-0.5,0.2-0.5c0.4,0,0.8-0.2,1.2-0.5c0.5-0.4,0.9-0.7,1.2-1.1c0.3-0.4,0.6-0.6,0.7-0.6c0.1,0,0.2,0.2,0.2,0.5l0,1.3
	c0,0.2,0.1,0.4,0.2,0.4c0.1,0,0.2,0,0.2-0.1c1-1.2,2.2-1.9,3.6-1.9c1.4,0,2.4,0.9,3.1,2.6c0.3,0.8,0.5,2.2,0.5,4.4V357.2z"/>
<path fill="#291F6C" d="M375.6,355.4c0,1.7,0.4,2.6,1.1,2.6c0.1,0,0.3,0,0.7-0.1c0.1,0,0.2,0.2,0.2,0.7c0,0.2,0,0.3-0.1,0.4
	c-0.4,0.1-1.1,0.2-2.2,0.6s-1.7,0.5-1.7,0.6c-0.2,0-0.2-0.3-0.2-0.9v-0.7c0-0.3-0.1-0.4-0.2-0.4s-0.2,0.1-0.4,0.2
	c-0.9,1-1.8,1.6-2.8,1.6c-1.8,0-3.2-0.7-4.1-2.2c-0.9-1.4-1.3-3.3-1.3-5.5s0.6-4.1,1.9-5.7s2.8-2.4,4.8-2.4c0.7,0,1.2,0.1,1.6,0.2
	c0.1,0,0.2,0.1,0.3,0.1c0.1,0,0.2-0.1,0.2-0.4v-5.2c0-1.6-0.4-2.5-1.3-2.5c-0.2,0-0.2-0.2-0.2-0.5s0.1-0.5,0.2-0.5
	c0.2,0,0.7-0.2,1.4-0.6s1.2-0.8,1.5-1s0.5-0.4,0.6-0.4s0.1,0.1,0.1,0.3l-0.1,1.9V355.4z M373.5,355.9v-8.2c0-0.9-0.1-1.4-0.3-1.7
	c-0.6-0.6-1.2-0.9-2.1-0.9c-1.3,0-2.2,0.7-3,2c-0.7,1.3-1.1,2.8-1.1,4.6c0,1.7,0.4,3.3,1.2,4.5c0.8,1.3,1.7,1.9,2.7,1.9
	c0.7,0,1.4-0.2,1.8-0.7S373.5,356.4,373.5,355.9z"/>
<path fill="#291F6C" d="M378.7,351.9c0-2.1,0.5-3.9,1.6-5.4c1.1-1.5,2.3-2.3,3.6-2.3c1.3,0,2.4,0.6,3.2,1.7c0.8,1.1,1.2,2.1,1.2,2.8
	c0,0.7-0.2,1.1-0.7,1.1h-6.3c-0.3,0-0.4,0.4-0.4,1.2c0,1.9,0.4,3.5,1.1,4.8s1.7,2,3,2c0.9,0,1.9-0.4,2.8-1.1c0,0,0.1-0.1,0.1-0.1
	c0.1,0,0.2,0.1,0.3,0.2c0.1,0.1,0.1,0.2,0.1,0.4c0,0.1,0,0.1-0.1,0.1c-1.5,1.6-2.9,2.5-4.4,2.5c-1.4,0-2.7-0.8-3.7-2.4
	C379.2,355.8,378.7,353.9,378.7,351.9z M381.2,348.4c0,0.2,0.1,0.2,0.3,0.2h4.5c0.1,0,0.2-0.1,0.2-0.3c0-0.5-0.3-1.2-0.8-2
	c-0.5-0.8-1-1.2-1.6-1.2c-0.6,0-1.1,0.3-1.6,0.8s-0.8,1.2-1.1,2.2C381.2,348.2,381.2,348.3,381.2,348.4z"/>
<path fill="#291F6C" d="M401.9,357.2c0,0.9,0.5,1.4,1.6,1.4c0.1,0,0.2,0.2,0.2,0.5s-0.1,0.5-0.2,0.5c-0.7-0.1-1.6-0.1-2.6-0.1
	s-1.9,0-2.7,0.1c-0.1,0-0.2-0.2-0.2-0.5s0.1-0.5,0.2-0.5c1,0,1.5-0.5,1.5-1.4v-7.1c0-1-0.1-1.8-0.2-2.5s-0.3-1.2-0.6-1.5
	c-0.3-0.3-0.8-0.4-1.5-0.4c-0.4,0-0.8,0.1-1.1,0.3c-0.3,0.2-0.6,0.4-0.9,0.7c-0.3,0.3-0.6,0.6-0.8,1s-0.3,0.8-0.3,1.3v8.1
	c0,0.9,0.5,1.4,1.5,1.4c0.1,0,0.2,0.2,0.2,0.5s-0.1,0.5-0.2,0.5c-0.7-0.1-1.6-0.1-2.6-0.1c-1,0-1.9,0-2.6,0.1
	c-0.1,0-0.2-0.2-0.2-0.5s0.1-0.5,0.2-0.5c1.1,0,1.6-0.5,1.6-1.4v-7.9c0-1.5-0.4-2.2-1.2-2.2c-0.2,0-0.2-0.2-0.2-0.5
	c0-0.3,0.1-0.5,0.2-0.5c0.4,0,0.8-0.2,1.2-0.5c0.5-0.4,0.9-0.7,1.2-1.1c0.3-0.4,0.6-0.6,0.7-0.6c0.1,0,0.2,0.2,0.2,0.5l0,1.3
	c0,0.2,0.1,0.4,0.2,0.4c0.1,0,0.2,0,0.2-0.1c1-1.2,2.2-1.9,3.6-1.9c1.4,0,2.4,0.9,3.1,2.6c0.3,0.8,0.5,2.2,0.5,4.4V357.2z"/>
<path fill="#291F6C" d="M413.4,355.1c0,0.9-0.2,1.8-0.6,2.5s-0.9,1.3-1.6,1.7c-0.7,0.4-1.4,0.6-2.2,0.6c-1.5,0-2.6-0.4-3.4-1.1
	c-0.2-0.7-0.3-1.7-0.3-3V355c0-0.2,0.1-0.3,0.3-0.3s0.3,0.1,0.4,0.3c0,0.5,0.4,1.2,0.9,2.2s1.4,1.5,2.5,1.5c0.6,0,1.1-0.2,1.5-0.7
	c0.5-0.4,0.7-1.1,0.7-1.9s-0.2-1.5-0.6-2s-1.1-0.9-2.2-1.3s-1.9-0.9-2.5-1.7s-0.9-1.7-0.9-2.9c0-1.2,0.4-2.2,1.2-3
	c0.8-0.8,1.8-1.2,3-1.2c1.2,0,2.2,0.2,2.9,0.6c0.3,1,0.4,2,0.4,3v0.2c0,0.2-0.1,0.2-0.3,0.2s-0.3-0.1-0.4-0.2
	c-0.1-0.6-0.4-1.2-0.9-1.8c-0.5-0.6-1.2-0.9-1.9-0.9c-0.7,0-1.3,0.2-1.7,0.7s-0.7,1-0.7,1.8c0,0.7,0.2,1.3,0.5,1.7
	c0.3,0.4,1.1,0.8,2.3,1.3c1.2,0.5,2.1,1,2.6,1.7S413.4,353.9,413.4,355.1z"/>
<path fill="#291F6C" d="M415.4,351.9c0-2.1,0.5-3.9,1.6-5.4c1.1-1.5,2.3-2.3,3.6-2.3c1.3,0,2.4,0.6,3.2,1.7c0.8,1.1,1.2,2.1,1.2,2.8
	c0,0.7-0.2,1.1-0.7,1.1H418c-0.3,0-0.4,0.4-0.4,1.2c0,1.9,0.4,3.5,1.1,4.8s1.7,2,3,2c0.9,0,1.9-0.4,2.8-1.1c0,0,0.1-0.1,0.1-0.1
	c0.1,0,0.2,0.1,0.3,0.2c0.1,0.1,0.1,0.2,0.1,0.4c0,0.1,0,0.1-0.1,0.1c-1.5,1.6-2.9,2.5-4.4,2.5c-1.4,0-2.7-0.8-3.7-2.4
	C415.9,355.8,415.4,353.9,415.4,351.9z M417.9,348.4c0,0.2,0.1,0.2,0.3,0.2h4.5c0.1,0,0.2-0.1,0.2-0.3c0-0.5-0.3-1.2-0.8-2
	c-0.5-0.8-1-1.2-1.6-1.2c-0.6,0-1.1,0.3-1.6,0.8s-0.8,1.2-1.1,2.2C417.9,348.2,417.9,348.3,417.9,348.4z"/>
<path fill="#291F6C" d="M437.8,355.4c0,1.7,0.4,2.6,1.1,2.6c0.1,0,0.3,0,0.7-0.1c0.1,0,0.2,0.2,0.2,0.7c0,0.2,0,0.3-0.1,0.4
	c-0.4,0.1-1.1,0.2-2.2,0.6c-1.1,0.3-1.7,0.5-1.7,0.6c-0.2,0-0.2-0.3-0.2-0.9v-0.7c0-0.3-0.1-0.4-0.2-0.4s-0.2,0.1-0.4,0.2
	c-0.9,1-1.8,1.6-2.8,1.6c-1.8,0-3.2-0.7-4.1-2.2s-1.3-3.3-1.3-5.5s0.6-4.1,1.9-5.7s2.8-2.4,4.8-2.4c0.7,0,1.2,0.1,1.6,0.2
	c0.1,0,0.2,0.1,0.3,0.1c0.1,0,0.2-0.1,0.2-0.4v-5.2c0-1.6-0.4-2.5-1.3-2.5c-0.2,0-0.2-0.2-0.2-0.5s0.1-0.5,0.2-0.5
	c0.2,0,0.7-0.2,1.4-0.6s1.2-0.8,1.5-1s0.5-0.4,0.6-0.4c0.1,0,0.1,0.1,0.1,0.3l-0.1,1.9V355.4z M435.7,355.9v-8.2
	c0-0.9-0.1-1.4-0.3-1.7c-0.6-0.6-1.2-0.9-2.1-0.9c-1.3,0-2.2,0.7-3,2c-0.7,1.3-1.1,2.8-1.1,4.6c0,1.7,0.4,3.3,1.2,4.5
	s1.7,1.9,2.7,1.9c0.7,0,1.4-0.2,1.8-0.7S435.7,356.4,435.7,355.9z"/>
<path fill="#291F6C" d="M232.5,443.3c-1,3.3-2.5,5.8-4.3,7.4c-1.9,1.7-3.8,2.5-5.7,2.5c-0.4,0-0.8-0.1-1.2-0.4
	c-0.4-0.3-0.7-0.6-0.7-1.2s0.2-1,0.7-1.4c0.4-0.4,1-0.6,1.8-0.6c0.6,0,1.1,0.2,1.5,0.6s0.6,0.8,0.6,1.2c0.9-0.3,1.8-1,2.5-2.2
	s2.3-6,4.7-14.5l2.7-9.5c0.1-0.2,0.1-0.4,0.1-0.5c0-1-0.9-1.5-2.8-1.5c-0.1,0-0.1-0.1-0.1-0.4s0.1-0.5,0.2-0.7
	c0.1-0.2,0.2-0.3,0.3-0.3c0.6,0.1,2,0.1,4.2,0.1s3.8,0,4.7-0.1c0.1,0,0.1,0.1,0.1,0.4s-0.1,0.5-0.2,0.7s-0.2,0.3-0.3,0.3
	c-1.2,0-2,0.2-2.5,0.5s-0.9,0.9-1.1,1.8L232.5,443.3z"/>
<path fill="#291F6C" d="M251.5,442.3c-0.1,0.5-0.2,0.9-0.2,1.1c0,0.5,0.2,0.7,0.6,0.7s1.1-0.5,2.2-1.6c0,0,0.1-0.1,0.1-0.1
	c0.2,0,0.3,0.1,0.4,0.2c0.1,0.2,0.2,0.3,0.2,0.4c0,0.1,0,0.1-0.1,0.1c-1.9,2.1-3.6,3.2-5,3.2c-0.7,0-1-0.5-1-1.6
	c0-0.4,0.1-0.8,0.2-1.3l1.4-5c-2.9,3.6-4.8,5.8-5.9,6.7c-1.1,0.8-1.9,1.3-2.6,1.3c-1,0-1.5-0.6-1.5-1.7c0-0.4,0.1-1.1,0.4-1.9
	l2.2-7.8c0.1-0.2,0.1-0.5,0.1-0.7c0-0.5-0.2-0.8-0.5-0.8s-0.6,0.2-0.9,0.5c-0.3,0.3-0.6,0.7-1,1c0,0-0.1,0.1-0.1,0.1
	c-0.2,0-0.4-0.1-0.5-0.4c0-0.1-0.1-0.2-0.1-0.2c0,0,0-0.1,0-0.1c1.8-2.2,3.4-3.3,4.7-3.3c0.6,0,1,0.5,1,1.6c0,0.6-0.1,1.5-0.4,2.6
	l-1.5,5.3c-0.5,1.5-0.7,2.5-0.7,2.9c0,0.5,0.2,0.7,0.5,0.7c0.5,0,1.4-0.7,2.8-2.1s2.7-3.3,4-5.6c0.7-1.2,1.4-2.9,2.1-5.1
	c0.1-0.3,0.4-0.4,1.1-0.4c0.8,0,1.2,0.2,1.1,0.5L251.5,442.3z"/>
<path fill="#291F6C" d="M269,442.3c-0.1,0.4-0.2,0.8-0.2,1.1c0,0.5,0.2,0.7,0.6,0.7s1.1-0.5,2.2-1.6c0,0,0.1-0.1,0.1-0.1
	c0.1,0,0.3,0.1,0.4,0.2s0.2,0.3,0.2,0.4s0,0.1,0,0.2c-1.9,2.1-3.6,3.2-5,3.2c-0.7,0-1-0.5-1-1.5c0-0.5,0.1-0.9,0.2-1.4l2.2-7.8
	c0.4-1.2,0.5-2.1,0.5-2.5c0-0.5-0.2-0.8-0.5-0.8c-1,0-2.4,1.4-4.3,4.1s-3.5,5.9-4.9,9.5c-0.1,0.3-0.5,0.5-1.2,0.5
	c-0.7,0-1-0.2-0.9-0.6l3.1-10.9c0.1-0.2,0.1-0.5,0.1-0.7c0-0.6-0.2-0.8-0.6-0.8c-0.4,0-1,0.5-1.9,1.5c0,0-0.1,0.1-0.1,0.1
	c-0.1,0-0.3-0.1-0.4-0.2c-0.1-0.1-0.2-0.3-0.2-0.4c0,0,0-0.1,0-0.1c1.8-2.2,3.4-3.3,4.7-3.3c0.7,0,1,0.5,1,1.6
	c0,0.5-0.2,1.3-0.5,2.4l-1.2,4.3l0.1,0.1c2.9-5.5,5.5-8.3,7.9-8.3c1.2,0,1.9,0.7,1.9,2.2c0,0.7-0.2,1.7-0.5,2.8L269,442.3z"/>
<path fill="#291F6C" d="M278.3,442.3c-0.1,0.5-0.2,0.8-0.2,1.1c0,0.5,0.2,0.7,0.5,0.7s1.1-0.5,2.3-1.6c0.1-0.1,0.3,0,0.5,0.2
	c0.2,0.2,0.2,0.3,0.2,0.4c0,0,0,0.1,0,0.1c-0.2,0.4-0.9,1.1-2.1,1.9c-1.1,0.9-2.1,1.3-3,1.3c-0.6,0-0.9-0.5-0.9-1.5
	c0-0.4,0.1-0.9,0.2-1.4l2.4-8.6c0.1-0.2,0.1-0.4,0.1-0.6c0-0.6-0.1-0.9-0.4-0.9c-0.3,0-1,0.5-2.1,1.5c-0.1,0.1-0.3,0-0.5-0.2
	c-0.2-0.2-0.2-0.3-0.2-0.4c0,0,0-0.1,0-0.1c0.4-0.7,1.2-1.4,2.2-2.2c1-0.8,1.9-1.1,2.6-1.1c0.7,0,1,0.5,1,1.5c0,0.4-0.1,0.9-0.2,1.3
	L278.3,442.3z M282.6,425.9c0,0.7-0.2,1.2-0.6,1.6s-0.9,0.6-1.4,0.6c-1,0-1.5-0.5-1.5-1.6c0-0.6,0.2-1.1,0.6-1.6
	c0.4-0.4,0.9-0.6,1.4-0.6C282.1,424.3,282.6,424.8,282.6,425.9z"/>
<path fill="#291F6C" d="M292.7,443.8c-1.6,1.6-3.3,2.5-5,2.5c-1.1,0-1.9-0.5-2.6-1.4s-1-2.1-1-3.6c0-2.4,0.8-4.7,2.5-7
	c1.7-2.3,3.5-3.5,5.5-3.5c0.7,0,1.4,0.2,2,0.5c0.6,0.3,0.9,0.7,0.9,1.2c0,0.4-0.1,0.7-0.4,1s-0.6,0.4-0.9,0.4
	c-0.3,0-0.5-0.1-0.7-0.3c-0.1-0.7-0.2-1.1-0.3-1.2c-0.2-0.3-0.8-0.5-1.6-0.5c-1.1,0-2.1,0.9-3.2,2.8c-1.1,1.9-1.6,3.7-1.6,5.3
	c0,1.4,0.2,2.5,0.7,3.4s1,1.2,1.7,1.2c0.7,0,1.3-0.1,1.8-0.4s0.9-0.6,1.4-1.1c0.1,0,0.2,0,0.3,0s0.2,0.1,0.3,0.3
	S292.7,443.8,292.7,443.8z"/>
<path fill="#291F6C" d="M308.6,436.4c0,2.5-0.8,4.8-2.4,6.8s-3.6,3.1-6,3.1c-1.4,0-2.5-0.5-3.2-1.6c-0.7-1.1-1-2.5-1-4.2
	c0-2.3,0.9-4.5,2.7-6.5c1.8-2.1,3.7-3.1,5.8-3.1c1.4,0,2.5,0.5,3.2,1.5C308.3,433.4,308.6,434.7,308.6,436.4z M306.7,435.5
	c0-2.1-0.8-3.2-2.3-3.2c-1.4,0-2.8,1.1-4.2,3.3c-1.5,2.2-2.2,4.3-2.2,6.1c0,1.9,0.8,2.9,2.3,2.9c1.3,0,2.7-1.1,4.1-3.3
	S306.7,437.2,306.7,435.5z"/>
<path fill="#291F6C" d="M321.6,442.2c-0.1,0.3-0.1,0.6-0.1,0.8c0,0.6,0.1,0.9,0.4,0.9c0.6,0,1.4-0.6,2.3-1.7c0,0,0.1,0,0.3,0
	s0.3,0.2,0.4,0.3s0.1,0.3,0.1,0.3c-2,2.3-3.6,3.5-4.9,3.5c-0.7,0-1.1-0.6-1.1-1.9c0-0.3,0-0.6,0.1-1l0.7-3.1l-0.2-0.3
	c-1.2,1.7-2.4,3.2-3.8,4.4c-1.3,1.2-2.5,1.8-3.7,1.8c-0.7,0-1.2-0.3-1.6-0.9s-0.6-1.3-0.6-2.1c0-2.5,1-5.2,3-8.1
	c2-2.9,4.2-4.3,6.5-4.3c0.9,0,1.7,0.4,2.3,1.2l1.7-7.2c0.2-0.8,0.3-1.4,0.3-1.7c0-1-0.5-1.5-1.4-1.5c-0.2,0-0.3-0.2-0.3-0.5
	s0.1-0.5,0.3-0.5c0.8,0,1.7-0.2,2.6-0.5s1.4-0.5,1.5-0.5c0.2,0,0.2,0.1,0.2,0.2c0,0,0,0.1,0,0.2L321.6,442.2z M321.5,433.8
	c-0.5-1.2-1.3-1.8-2.3-1.8c-1.6,0-3.1,1.3-4.4,3.9c-1.4,2.6-2,4.9-2,6.7c0,1.1,0.3,1.7,1,1.7c0.8,0,2-0.8,3.5-2.5
	c1.5-1.7,2.7-3.3,3.5-4.8L321.5,433.8z"/>
<path fill="#291F6C" d="M338.5,432.9c0,1.6-1,3-2.9,4.3c-1.9,1.3-3.8,2.1-5.6,2.4c-0.2,0.9-0.3,1.6-0.3,2.1c0,1.9,0.7,2.9,2,2.9
	c0.5,0,1-0.1,1.5-0.4s1.3-0.9,2.5-1.8c0.1-0.1,0.2-0.1,0.3,0s0.2,0.2,0.2,0.3s0,0.2,0,0.3c-1.8,2.2-3.5,3.4-5.1,3.4
	c-2.4,0-3.6-1.4-3.6-4.3c0-2.2,0.9-4.7,2.8-7.3c1.9-2.6,3.8-3.9,5.9-3.9C337.8,430.9,338.5,431.5,338.5,432.9z M336,433.3
	c0-0.7-0.3-1.1-0.9-1.1c-0.9,0-1.7,0.6-2.6,1.8c-0.9,1.2-1.6,2.7-2.1,4.4c1.4-0.3,2.7-0.9,3.9-1.8S336,434.6,336,433.3z"/>
<path fill="#291F6C" d="M237.1,485.7c-0.1,0.2-0.1,0.5-0.1,0.6c0,1,0.9,1.5,2.8,1.5c0.1,0,0.1,0.1,0.1,0.4s-0.1,0.5-0.2,0.7
	s-0.2,0.3-0.3,0.3c-1-0.1-2.5-0.1-4.5-0.1c-2,0-3.4,0-4.5,0.1c-0.1,0-0.1-0.1-0.1-0.4s0.1-0.5,0.2-0.7s0.2-0.3,0.3-0.3
	c1,0,1.9-0.1,2.5-0.4c0.6-0.3,1-0.8,1.3-1.7l5-17.3c0.1-0.3,0.1-0.5,0.1-0.6c0-0.9-0.9-1.4-2.7-1.4c-0.1,0-0.1-0.1-0.1-0.4
	s0.1-0.5,0.2-0.7c0.1-0.2,0.2-0.3,0.3-0.3c0.5,0.1,2,0.1,4.5,0.1s3.9,0,4.5-0.1c0.1,0,0.1,0.1,0.1,0.4s-0.1,0.5-0.2,0.7
	s-0.2,0.3-0.3,0.3c-1.3,0-2.2,0.2-2.7,0.5s-0.8,0.8-1,1.5L237.1,485.7z"/>
<path fill="#291F6C" d="M247.6,485.1c-0.1,0.5-0.2,0.9-0.2,1.2c0,0.6,0.2,0.9,0.6,0.9c0.7,0,2-1.2,3.9-3.5c0,0,0.1-0.1,0.1-0.1
	c0.2,0,0.4,0.1,0.5,0.4c0.1,0.2,0.1,0.3,0,0.4c-1.4,1.9-2.5,3.2-3.4,3.9c-0.9,0.7-1.8,1.1-2.8,1.1c-0.5,0-0.8-0.2-1.1-0.5
	c-0.3-0.4-0.4-0.8-0.4-1.3c0-0.5,0-0.9,0.1-1.3l3-10.2h-2.7c-0.1,0-0.2-0.1-0.2-0.3c0-0.4,0.1-0.7,0.4-0.7l2.9-0.5l1.8-3.6
	c0.1-0.1,0.2-0.2,0.5-0.2c0.5,0,0.7,0.1,0.7,0.3c0,0,0,0.1,0,0.1l-0.9,3.5h3.9c0.1,0,0.1,0.1,0.1,0.4c0,0.2-0.1,0.5-0.2,0.7
	c-0.1,0.2-0.2,0.3-0.3,0.3h-3.9L247.6,485.1z"/>
<path fill="#291F6C" d="M265.5,484.9c-0.1,0.5-0.2,1-0.2,1.4c0,0.6,0.2,1,0.6,1c0.4,0,1.2-0.6,2.3-1.7c0.1-0.1,0.3,0,0.5,0.2
	c0.2,0.2,0.2,0.3,0.2,0.4c0,0.1,0,0.1-0.1,0.1c-0.8,0.9-1.6,1.7-2.6,2.3s-1.7,0.9-2.5,0.9c-0.7,0-1.1-0.5-1.1-1.4
	c0-0.7,0.1-1.4,0.4-2.1l0.8-2l-0.2-0.1c-2.8,3.7-5.2,5.6-7.1,5.6c-0.7,0-1.2-0.3-1.6-0.8s-0.6-1.3-0.6-2.1c0-2.5,1-5.2,3-8
	c2-2.9,4.2-4.3,6.5-4.3c0.8,0,1.6,0.3,2.3,1l0.4-1.8c0.1-0.3,0.5-0.4,1.2-0.4s1,0.1,0.9,0.4L265.5,484.9z M265.1,479.5l0.8-2.7
	c-0.5-1-1.3-1.5-2.3-1.5c-1.6,0-3.1,1.3-4.4,3.9c-1.4,2.6-2,4.8-2,6.7c0,1.1,0.3,1.7,1,1.7c0.6,0,1.6-0.6,2.7-1.8
	c1.2-1.2,2.1-2.3,2.8-3.3C264.3,481.5,264.8,480.5,265.1,479.5z"/>
<path fill="#291F6C" d="M274.1,485.4c-0.1,0.4-0.1,0.6-0.1,0.8c0,0.6,0.1,0.9,0.4,0.9c0.6,0,1.4-0.6,2.4-1.7c0,0,0.1-0.1,0.1-0.1
	c0.1,0,0.3,0.1,0.4,0.2s0.2,0.3,0.2,0.4c0,0,0,0.1,0,0.1c-2,2.3-3.6,3.5-4.9,3.5c-0.7,0-1.1-0.6-1.1-1.9c0-0.3,0-0.6,0.1-1l4.3-18.7
	c0.2-0.8,0.3-1.3,0.3-1.7c0-1-0.5-1.4-1.4-1.4c-0.2,0-0.3-0.2-0.3-0.5s0.1-0.5,0.3-0.5c0.9,0,1.7-0.2,2.6-0.5
	c0.9-0.3,1.4-0.5,1.5-0.5c0.2,0,0.3,0.1,0.2,0.2L274.1,485.4z"/>
<path fill="#291F6C" d="M283.4,485.5c-0.1,0.5-0.2,0.8-0.2,1.1c0,0.5,0.2,0.7,0.5,0.7s1.1-0.5,2.3-1.6c0.1-0.1,0.3,0,0.5,0.2
	c0.2,0.2,0.2,0.3,0.2,0.4c0,0,0,0.1,0,0.1c-0.2,0.4-0.9,1.1-2.1,1.9c-1.1,0.9-2.1,1.3-3,1.3c-0.6,0-0.9-0.5-0.9-1.5
	c0-0.4,0.1-0.9,0.2-1.4l2.4-8.6c0.1-0.2,0.1-0.4,0.1-0.6c0-0.6-0.1-0.9-0.4-0.9c-0.3,0-1,0.5-2.1,1.5c-0.1,0.1-0.3,0-0.5-0.2
	c-0.2-0.2-0.2-0.3-0.2-0.4c0,0,0-0.1,0-0.1c0.4-0.7,1.2-1.4,2.2-2.2c1-0.8,1.9-1.1,2.6-1.1c0.7,0,1,0.5,1,1.5c0,0.4-0.1,0.9-0.2,1.3
	L283.4,485.5z M287.8,469.1c0,0.7-0.2,1.2-0.6,1.6s-0.9,0.6-1.4,0.6c-1,0-1.5-0.5-1.5-1.6c0-0.6,0.2-1.1,0.6-1.6
	c0.4-0.4,0.9-0.6,1.4-0.6C287.3,467.5,287.8,468,287.8,469.1z"/>
<path fill="#291F6C" d="M297.8,487c-1.6,1.6-3.3,2.5-5,2.5c-1.1,0-1.9-0.5-2.6-1.4s-1-2.1-1-3.6c0-2.4,0.8-4.7,2.5-7
	c1.7-2.3,3.5-3.5,5.5-3.5c0.7,0,1.4,0.2,2,0.5c0.6,0.3,0.9,0.7,0.9,1.2c0,0.4-0.1,0.7-0.4,1s-0.6,0.4-0.9,0.4
	c-0.3,0-0.5-0.1-0.7-0.3c-0.1-0.7-0.2-1.1-0.3-1.2c-0.2-0.3-0.8-0.5-1.6-0.5c-1.1,0-2.1,0.9-3.2,2.8c-1.1,1.9-1.6,3.7-1.6,5.3
	c0,1.4,0.2,2.5,0.7,3.4s1,1.2,1.7,1.2c0.7,0,1.3-0.1,1.8-0.4s0.9-0.6,1.4-1.1c0.1,0,0.2,0,0.3,0s0.2,0.1,0.3,0.3
	S297.9,487,297.8,487z"/>
<path fill="#291F6C" d="M319.5,487c-1.6,1.6-3.3,2.5-5,2.5c-1.1,0-1.9-0.5-2.6-1.4s-1-2.1-1-3.6c0-2.4,0.8-4.7,2.5-7
	c1.7-2.3,3.5-3.5,5.5-3.5c0.7,0,1.4,0.2,2,0.5c0.6,0.3,0.9,0.7,0.9,1.2c0,0.4-0.1,0.7-0.4,1s-0.6,0.4-0.9,0.4
	c-0.3,0-0.5-0.1-0.7-0.3c-0.1-0.7-0.2-1.1-0.3-1.2c-0.2-0.3-0.8-0.5-1.6-0.5c-1.1,0-2.1,0.9-3.2,2.8c-1.1,1.9-1.6,3.7-1.6,5.3
	c0,1.4,0.2,2.5,0.7,3.4s1,1.2,1.7,1.2c0.7,0,1.3-0.1,1.8-0.4s0.9-0.6,1.4-1.1c0.1,0,0.2,0,0.3,0s0.2,0.1,0.3,0.3
	S319.5,487,319.5,487z"/>
<path fill="#291F6C" d="M335.5,479.6c0,2.5-0.8,4.8-2.4,6.8s-3.6,3.1-6,3.1c-1.4,0-2.5-0.5-3.2-1.6c-0.7-1.1-1-2.5-1-4.2
	c0-2.3,0.9-4.5,2.7-6.5c1.8-2.1,3.7-3.1,5.8-3.1c1.4,0,2.5,0.5,3.2,1.5C335.1,476.5,335.5,477.9,335.5,479.6z M333.5,478.7
	c0-2.1-0.8-3.2-2.3-3.2c-1.4,0-2.8,1.1-4.2,3.3c-1.5,2.2-2.2,4.3-2.2,6.1c0,1.9,0.8,2.9,2.3,2.9c1.3,0,2.7-1.1,4.1-3.3
	S333.5,480.4,333.5,478.7z"/>
<path fill="#291F6C" d="M349.4,485.5c-0.1,0.4-0.2,0.8-0.2,1.1c0,0.5,0.2,0.7,0.6,0.7s1.1-0.5,2.2-1.6c0,0,0.1-0.1,0.1-0.1
	c0.1,0,0.3,0.1,0.4,0.2s0.2,0.3,0.2,0.4s0,0.1,0,0.2c-1.9,2.1-3.6,3.2-5,3.2c-0.7,0-1-0.5-1-1.5c0-0.5,0.1-0.9,0.2-1.4l2.2-7.8
	c0.4-1.2,0.5-2.1,0.5-2.5c0-0.5-0.2-0.8-0.5-0.8c-1,0-2.4,1.4-4.3,4.1s-3.5,5.9-4.9,9.5c-0.1,0.3-0.5,0.5-1.2,0.5
	c-0.7,0-1-0.2-0.9-0.6l3.1-10.9c0.1-0.2,0.1-0.5,0.1-0.7c0-0.6-0.2-0.8-0.6-0.8c-0.4,0-1,0.5-1.9,1.5c0,0-0.1,0.1-0.1,0.1
	c-0.1,0-0.3-0.1-0.4-0.2c-0.1-0.1-0.2-0.3-0.2-0.4c0,0,0-0.1,0-0.1c1.8-2.2,3.4-3.3,4.7-3.3c0.7,0,1,0.5,1,1.6
	c0,0.5-0.2,1.3-0.5,2.4l-1.2,4.3l0.1,0.1c2.9-5.5,5.5-8.3,7.9-8.3c1.2,0,1.9,0.7,1.9,2.2c0,0.7-0.2,1.7-0.5,2.8L349.4,485.5z"/>
<path fill="#291F6C" d="M366.2,485.4c-0.1,0.3-0.1,0.6-0.1,0.8c0,0.6,0.1,0.9,0.4,0.9c0.6,0,1.4-0.6,2.3-1.7c0,0,0.1,0,0.3,0
	s0.3,0.2,0.4,0.3s0.1,0.3,0.1,0.3c-2,2.3-3.6,3.5-4.9,3.5c-0.7,0-1.1-0.6-1.1-1.9c0-0.3,0-0.6,0.1-1l0.7-3.1l-0.2-0.3
	c-1.2,1.7-2.4,3.2-3.8,4.4c-1.3,1.2-2.5,1.8-3.7,1.8c-0.7,0-1.2-0.3-1.6-0.9s-0.6-1.3-0.6-2.1c0-2.5,1-5.2,3-8.1
	c2-2.9,4.2-4.3,6.5-4.3c0.9,0,1.7,0.4,2.3,1.2l1.7-7.2c0.2-0.8,0.3-1.4,0.3-1.7c0-1-0.5-1.5-1.4-1.5c-0.2,0-0.3-0.2-0.3-0.5
	s0.1-0.5,0.3-0.5c0.8,0,1.7-0.2,2.6-0.5s1.4-0.5,1.5-0.5c0.2,0,0.2,0.1,0.2,0.2c0,0,0,0.1,0,0.2L366.2,485.4z M366,477
	c-0.5-1.2-1.3-1.8-2.3-1.8c-1.6,0-3.1,1.3-4.4,3.9c-1.4,2.6-2,4.9-2,6.7c0,1.1,0.3,1.7,1,1.7c0.8,0,2-0.8,3.5-2.5
	c1.5-1.7,2.7-3.3,3.5-4.8L366,477z"/>
<path fill="#291F6C" d="M383.1,476.1c0,1.6-1,3-2.9,4.3c-1.9,1.3-3.8,2.1-5.6,2.4c-0.2,0.9-0.3,1.6-0.3,2.1c0,1.9,0.7,2.9,2,2.9
	c0.5,0,1-0.1,1.5-0.4s1.3-0.9,2.5-1.8c0.1-0.1,0.2-0.1,0.3,0s0.2,0.2,0.2,0.3s0,0.2,0,0.3c-1.8,2.2-3.5,3.4-5.1,3.4
	c-2.4,0-3.6-1.4-3.6-4.3c0-2.2,0.9-4.7,2.8-7.3c1.9-2.6,3.8-3.9,5.9-3.9C382.3,474.1,383.1,474.7,383.1,476.1z M380.6,476.5
	c0-0.7-0.3-1.1-0.9-1.1c-0.9,0-1.7,0.6-2.6,1.8c-0.9,1.2-1.6,2.7-2.1,4.4c1.4-0.3,2.7-0.9,3.9-1.8S380.6,477.8,380.6,476.5z"/>
<path fill="#291F6C" d="M396.2,485.5c-0.1,0.4-0.2,0.8-0.2,1.1c0,0.5,0.2,0.7,0.6,0.7s1.1-0.5,2.2-1.6c0,0,0.1-0.1,0.1-0.1
	c0.1,0,0.3,0.1,0.4,0.2s0.2,0.3,0.2,0.4s0,0.1,0,0.2c-1.9,2.1-3.6,3.2-5,3.2c-0.7,0-1-0.5-1-1.5c0-0.5,0.1-0.9,0.2-1.4l2.2-7.8
	c0.4-1.2,0.5-2.1,0.5-2.5c0-0.5-0.2-0.8-0.5-0.8c-1,0-2.4,1.4-4.3,4.1s-3.5,5.9-4.9,9.5c-0.1,0.3-0.5,0.5-1.2,0.5
	c-0.7,0-1-0.2-0.9-0.6l3.1-10.9c0.1-0.2,0.1-0.5,0.1-0.7c0-0.6-0.2-0.8-0.6-0.8c-0.4,0-1,0.5-1.9,1.5c0,0-0.1,0.1-0.1,0.1
	c-0.1,0-0.3-0.1-0.4-0.2c-0.1-0.1-0.2-0.3-0.2-0.4c0,0,0-0.1,0-0.1c1.8-2.2,3.4-3.3,4.7-3.3c0.7,0,1,0.5,1,1.6
	c0,0.5-0.2,1.3-0.5,2.4l-1.2,4.3l0.1,0.1c2.9-5.5,5.5-8.3,7.9-8.3c1.2,0,1.9,0.7,1.9,2.2c0,0.7-0.2,1.7-0.5,2.8L396.2,485.5z"/>
<path fill="#291F6C" d="M409.9,476.2c0,0.3-0.1,0.5-0.3,0.7s-0.4,0.3-0.7,0.3c-0.6,0-1-0.3-1.3-1c-0.2-0.7-0.7-1-1.4-1
	c-0.4,0-0.7,0.2-1,0.7c-0.3,0.4-0.4,0.9-0.4,1.3c0,0.8,0.6,2.1,1.7,3.7c1.1,1.7,1.7,3,1.7,4.1c0,1.3-0.5,2.4-1.5,3.3
	c-1,0.9-2.2,1.3-3.6,1.3c-0.6,0-1.2-0.2-1.7-0.6s-0.7-0.8-0.7-1.3c0-0.4,0.1-0.8,0.3-1s0.4-0.4,0.7-0.4c0.8,0,1.3,0.3,1.6,0.9
	c0.3,0.6,0.8,0.9,1.5,0.9c1,0,1.4-0.7,1.4-2.1c0-0.8-0.5-1.9-1.6-3.3s-1.6-2.8-1.6-4c0-1.2,0.4-2.3,1.1-3.2c0.8-0.9,1.9-1.4,3.3-1.4
	c0.6,0,1.1,0.2,1.6,0.7C409.6,475.2,409.9,475.7,409.9,476.2z"/>
<path fill="#291F6C" d="M422.2,476.1c0,1.6-1,3-2.9,4.3c-1.9,1.3-3.8,2.1-5.6,2.4c-0.2,0.9-0.3,1.6-0.3,2.1c0,1.9,0.7,2.9,2,2.9
	c0.5,0,1-0.1,1.5-0.4s1.3-0.9,2.5-1.8c0.1-0.1,0.2-0.1,0.3,0s0.2,0.2,0.2,0.3s0,0.2,0,0.3c-1.8,2.2-3.5,3.4-5.1,3.4
	c-2.4,0-3.6-1.4-3.6-4.3c0-2.2,0.9-4.7,2.8-7.3c1.9-2.6,3.8-3.9,5.9-3.9C421.5,474.1,422.2,474.7,422.2,476.1z M419.7,476.5
	c0-0.7-0.3-1.1-0.9-1.1c-0.9,0-1.7,0.6-2.6,1.8c-0.9,1.2-1.6,2.7-2.1,4.4c1.4-0.3,2.7-0.9,3.9-1.8S419.7,477.8,419.7,476.5z"/>
<path fill="#291F6C" d="M434.4,485.4c-0.1,0.3-0.1,0.6-0.1,0.8c0,0.6,0.1,0.9,0.4,0.9c0.6,0,1.4-0.6,2.3-1.7c0,0,0.1,0,0.3,0
	s0.3,0.2,0.4,0.3s0.1,0.3,0.1,0.3c-2,2.3-3.6,3.5-4.9,3.5c-0.7,0-1.1-0.6-1.1-1.9c0-0.3,0-0.6,0.1-1l0.7-3.1l-0.2-0.3
	c-1.2,1.7-2.4,3.2-3.8,4.4s-2.5,1.8-3.7,1.8c-0.7,0-1.2-0.3-1.6-0.9s-0.6-1.3-0.6-2.1c0-2.5,1-5.2,3-8.1c2-2.9,4.2-4.3,6.5-4.3
	c0.9,0,1.7,0.4,2.3,1.2l1.7-7.2c0.2-0.8,0.3-1.4,0.3-1.7c0-1-0.5-1.5-1.4-1.5c-0.2,0-0.3-0.2-0.3-0.5s0.1-0.5,0.3-0.5
	c0.8,0,1.7-0.2,2.6-0.5s1.4-0.5,1.5-0.5c0.2,0,0.2,0.1,0.2,0.2c0,0,0,0.1,0,0.2L434.4,485.4z M434.2,477c-0.5-1.2-1.3-1.8-2.3-1.8
	c-1.6,0-3.1,1.3-4.4,3.9c-1.4,2.6-2,4.9-2,6.7c0,1.1,0.3,1.7,1,1.7c0.8,0,2-0.8,3.5-2.5c1.5-1.7,2.7-3.3,3.5-4.8L434.2,477z"/>
</svg>
